<svg width="90" height="37" viewBox="0 0 90 37" fill="none" xmlns="http://www.w3.org/2000/svg">
<path d="M19.446 29.162L18.196 36.251H15.375L16.624 29.162H13.774L14.209 26.705H22.716L22.28 29.162H19.446Z" fill="white"/>
<path d="M30.342 33.106L32.041 36.251H28.686L27.423 33.738H26.159L25.71 36.251H22.888L24.573 26.705H28.799C31.13 26.705 32.519 27.758 32.519 29.639C32.518 31.113 31.704 32.391 30.342 33.106ZM28.068 31.239C28.924 31.239 29.612 30.719 29.612 30.032C29.612 29.456 29.134 29.105 28.447 29.105H26.973L26.594 31.239H28.068Z" fill="white"/>
<path d="M36.901 34.89L36.157 36.251H33.096L38.753 26.649H41.519L43.779 36.251H40.775L40.508 34.89H36.901ZM39.568 29.99L38.15 32.587H40.073L39.568 29.99Z" fill="white"/>
<path d="M52.304 30.818C52.318 29.821 51.715 29.12 50.592 29.12C49.188 29.12 48.163 30.2 47.939 31.477C47.7 32.783 48.388 33.836 49.764 33.836C50.803 33.836 51.743 33.119 52.08 32.137H54.986C54.368 34.678 52.108 36.461 49.328 36.461C46.324 36.461 44.555 34.355 45.06 31.477C45.565 28.614 48.078 26.494 51.097 26.494C53.863 26.494 55.505 28.277 55.224 30.818H52.304Z" fill="white"/>
<path d="M66.022 36.251H62.667L60.885 33.12L59.453 34.511L59.143 36.251H56.322L58.007 26.705H60.828L60.169 30.481L64.071 26.705H67.482L63.214 30.86L66.022 36.251Z" fill="white"/>
<path d="M71.571 30.354H75.502L75.095 32.628H71.178L70.953 33.878H75.544L75.122 36.25H67.71L69.395 26.704H76.807L76.386 29.076H71.796L71.571 30.354Z" fill="white"/>
<path d="M84.825 33.106L86.523 36.251H83.169L81.905 33.738H80.641L80.192 36.251H77.371L79.056 26.705H83.282C85.612 26.705 87.002 27.758 87.002 29.639C87.001 31.113 86.187 32.391 84.825 33.106ZM82.551 31.239C83.407 31.239 84.096 30.719 84.096 30.032C84.096 29.456 83.618 29.105 82.93 29.105H81.456L81.077 31.239H82.551Z" fill="white"/>
<path d="M49.94 17.676C49.94 20.609 47.263 23.03 42.801 23.03H33.392L36.452 5.692H45.147C48.411 5.692 50.552 7.425 50.552 9.746C50.552 11.582 49.277 13.597 47.365 14.183C49.022 14.616 49.94 16.019 49.94 17.676ZM42.47 18.977C44.178 18.977 45.02 18.263 45.02 17.268C45.02 16.554 44.408 16.095 43.286 16.095H39.742L39.232 18.977H42.47ZM43.056 12.602C44.535 12.602 45.427 11.888 45.427 10.869C45.427 10.104 44.79 9.696 43.668 9.696H40.863L40.353 12.602H43.056Z" fill="#E0078B"/>
<path d="M61.416 5.692C66.337 5.692 69.473 8.547 69.473 12.933C69.473 18.924 64.629 23.03 58.357 23.03H51.065L54.125 5.692H61.416ZM59.146 18.492C61.9 18.492 64.144 16.427 64.144 13.673C64.144 11.658 62.767 10.231 60.599 10.231H58.458L56.979 18.493L59.146 18.492Z" fill="#E0078B"/>
<path d="M84.06 13.163C84.085 11.352 82.989 10.077 80.95 10.077C78.4 10.077 76.539 12.041 76.131 14.361C75.697 16.732 76.946 18.644 79.446 18.644C81.333 18.644 83.04 17.344 83.653 15.559H88.93C87.808 20.174 83.703 23.413 78.655 23.413C73.198 23.413 69.985 19.588 70.903 14.361C71.82 9.16 76.385 5.31 81.867 5.31C86.889 5.31 89.873 8.548 89.363 13.164L84.06 13.163Z" fill="#E0078B"/>
<path d="M31.083 2.788C29.359 0.964 26.841 0 23.801 0C16.934 0 10.864 5.067 9.68401 11.787C9.18401 14.662 9.64601 17.319 10.985 19.384L10.082 20.197C9.87301 20.443 9.72301 20.664 9.76401 20.931C9.78201 21.046 9.96701 21.389 10.33 21.843C9.69001 22.023 8.99201 22.455 8.77701 22.614C8.33901 22.938 7.98301 23.228 7.97801 23.232L6.88001 24.219C6.88001 24.219 1.20301 29.33 0.543007 30.043C0.311007 30.294 0.149007 30.492 0.0980067 30.606C0.0100067 30.799 -0.0199933 31.053 0.0150067 31.318C0.0660067 31.714 0.320007 32.512 1.20801 33.327C1.78801 33.857 2.79201 34.556 3.55101 34.745C3.71401 34.783 4.14901 34.801 4.49601 34.681C4.88301 34.546 5.20101 34.196 5.20401 34.192C7.34501 31.467 9.75801 28.49 11.963 25.401C11.972 25.388 12.449 24.726 12.696 23.899C13.272 24.242 13.701 24.399 13.812 24.403C14.113 24.416 14.358 24.198 14.577 23.941L15.459 22.884C16.731 23.359 18.148 23.619 19.677 23.619C25.745 23.619 30.993 19.657 32.735 13.76L32.782 13.6H26.785L26.755 13.681C25.775 16.273 23.159 18.155 20.535 18.155C18.86 18.155 17.497 17.592 16.595 16.529C15.626 15.386 15.264 13.718 15.576 11.834C16.251 8.086 19.227 5.468 22.813 5.468C25.622 5.468 27.309 7.085 27.441 9.904L27.447 10.023H33.394L33.401 9.905C33.562 7.024 32.761 4.565 31.083 2.788Z" fill="#E0078B"/>
</svg>
