<svg width="607" height="113" viewBox="0 0 607 113" fill="none" xmlns="http://www.w3.org/2000/svg">
<path d="M605.25 34.5C605.87 44 605.87 43.84 596.5 44.02C480.5 46.24 364.5 44.39 248.5 45.02" stroke="black" stroke-width="2" stroke-linecap="round" stroke-linejoin="round"/>
<path d="M582.5 64.4999C574.33 64.7099 566.2 63.9099 557.99 64.3399C547.659 64.8168 537.31 64.7233 526.99 64.0599C520.99 63.7199 514.99 63.7999 508.99 64.0599C497.99 64.5099 486.99 63.9499 475.99 64.1999C453.65 64.6999 431.32 64.2899 408.99 64.4899C392.66 64.6399 376.32 64.4899 359.99 64.4899C328.323 64.4899 296.657 64.4899 264.99 64.4899C263.12 64.4899 261.13 64.9099 259.45 63.1099C268.22 61.2499 277.15 62.2199 285.99 62.0399C294.83 61.8599 303.66 62.0399 312.49 62.0399" stroke="black" stroke-width="2" stroke-linecap="round" stroke-linejoin="round"/>
<path d="M329.5 62H375.7C375.26 59.18 373.83 60 373 60C335.17 60.33 297.33 59.28 259.5 60.46C255.95 60.57 254.5 58.38 254 51.96" stroke="black" stroke-width="2" stroke-linecap="round" stroke-linejoin="round"/>
<path d="M605.5 48C602.39 45.42 598.75 47.41 595.5 47.25C582.5 46.64 569.5 46.94 556.5 47.01C537.5 47.12 518.5 47.44 499.5 47.46C486 47.46 472.5 46.81 459 47.13C450.49 47.33 442 47.41 433.5 47" stroke="black" stroke-width="2" stroke-linecap="round" stroke-linejoin="round"/>
<path d="M605.25 74.5V61H519.5" stroke="black" stroke-width="2" stroke-linecap="round" stroke-linejoin="round"/>
<path d="M225 65C221.17 70.67 217.68 76.61 213.39 81.91C209.85 86.29 198.51 86.91 194.03 83.46C191.26 81.31 190.71 78.69 191.81 74.95C193.28 69.95 197.9 70.55 199.86 71.35C203.37 72.79 203.92 71.13 205 69" stroke="black" stroke-width="2" stroke-linecap="round" stroke-linejoin="round"/>
<path d="M115 71.5001C111.67 72.7101 110 71.9601 109.94 68.0001C109.81 59.8301 109.3 51.6701 109.02 43.5001C108.86 38.9601 108.2 38.4401 103.5 39.5001C101.36 40.0001 99 37.1201 97 40.0001" stroke="black" stroke-width="2" stroke-linecap="round" stroke-linejoin="round"/>
<path d="M525.5 51H484.5" stroke="black" stroke-width="2" stroke-linecap="round" stroke-linejoin="round"/>
<path d="M78.5 40.5C76.33 37.5 74.17 38.21 72.12 40.37C72.75 50.66 73.38 60.83 74 71" stroke="black" stroke-width="2" stroke-linecap="round" stroke-linejoin="round"/>
<path d="M62 71.5C59.24 73.5 56 71.06 52.86 72.75C51.19 73.65 49.3 71.06 49.5 68.5C50.15 60.29 48.3 52.2 48.5 44C48.61 38.5 46.97 37.72 42.75 40.1C41.75 49.54 43.59 58.47 43.57 67.5C43.57 72.78 45.34 73.82 50.05 71.5" stroke="black" stroke-width="2" stroke-linecap="round" stroke-linejoin="round"/>
<path d="M115 39.4999C119 37.9999 120.46 38.6899 120.46 42.4999C120.46 50.4999 121.96 58.4999 121.59 66.4999C121.35 71.7299 122.65 72.4999 128 71.4999" stroke="black" stroke-width="2" stroke-linecap="round" stroke-linejoin="round"/>
<path d="M157.5 70.4999C162.09 73.0399 163.55 72.4999 163.45 67.9999C163.28 59.3299 162.98 50.6599 162.45 41.9999C162.15 37.1599 159.03 39.1099 156.55 39.7899C156.33 48.6899 156.89 57.3399 157.55 65.9999C157.55 66.6599 157.55 67.3299 157.55 67.9999C157.613 68.4993 157.568 69.0065 157.418 69.4869C157.267 69.9673 157.015 70.4096 156.678 70.7836C156.341 71.1576 155.927 71.4545 155.465 71.654C155.003 71.8536 154.503 71.9511 154 71.9399C151.23 72.1899 151 70.1999 151 67.9999C150.74 58.8299 150.36 49.6699 150 40.4999" stroke="black" stroke-width="2" stroke-linecap="round" stroke-linejoin="round"/>
<path d="M41 39.5C37.59 37.6 35.53 38.5 36.07 42.5C37.16 50.5 35.49 58.58 37.4 66.5C37.81 68.23 38.15 70.35 36.07 72.07C33.99 73.79 32.61 72.22 31.71 71.61C30.9 67.14 31.77 62.93 30.71 58.43C29.65 53.93 30.63 48.81 30.44 43.98C30.25 39.15 28.1 38.14 24.65 40.1C23.75 50.83 25.45 61.1 25.51 71.73C26.51 72.51 27.95 73.95 29.98 72.48" stroke="black" stroke-width="2" stroke-linecap="round" stroke-linejoin="round"/>
<path d="M138 40C138.33 49.17 138.81 58.33 138.93 67.5C138.93 71.37 140.13 72.93 144 71.5" stroke="black" stroke-width="2" stroke-linecap="round" stroke-linejoin="round"/>
<path d="M259.5 64C248.5 64.11 237.5 63 226.5 64.18C222.23 64.64 217.85 64.47 213.5 65.39C210.94 65.93 208.87 65.01 208.4 61.52C207.75 56.65 208.3 51.83 208.02 47" stroke="black" stroke-width="2" stroke-linecap="round" stroke-linejoin="round"/>
<path d="M71.5 39.5001C67.63 39.4301 63.65 38.0201 60.68 39.7901C59.79 47.8801 61.96 55.0901 61.54 62.5001C61.4742 64.6767 61.6284 66.8544 62 69.0001C62.61 73.1201 63.94 73.6401 68 71.5001" stroke="black" stroke-width="2" stroke-linecap="round" stroke-linejoin="round"/>
<path d="M13 39.5C16.39 37.64 17.91 39.28 18.47 42.5C18.5851 43.4967 18.5851 44.5033 18.47 45.5C17.99 53.04 19.21 60.5 19.47 68C19.64 73.17 19.47 73.18 14.01 72.5" stroke="black" stroke-width="2" stroke-linecap="round" stroke-linejoin="round"/>
<path d="M451.5 61H418.5" stroke="black" stroke-width="2" stroke-linecap="round" stroke-linejoin="round"/>
<path d="M300.5 48H267.5" stroke="black" stroke-width="2" stroke-linecap="round" stroke-linejoin="round"/>
<path d="M126.5 39.5C131.31 38.06 132.29 38.58 132.5 43C132.9 52.33 133.19 61.67 133.5 71" stroke="black" stroke-width="2" stroke-linecap="round" stroke-linejoin="round"/>
<path d="M12 40.5L13 71.5" stroke="black" stroke-width="2" stroke-linecap="round" stroke-linejoin="round"/>
<path d="M120.5 39.4999C125.88 37.8899 126.35 38.2599 126.5 43.4999C126.77 51.8299 127.2 60.1699 127.5 68.4999C127.6 71.6699 128.65 73.69 131.98 71.91C134.28 70.67 136.49 73.3499 138.53 71.4999" stroke="black" stroke-width="2" stroke-linecap="round" stroke-linejoin="round"/>
<path d="M66.5 40.5001C66.11 49.8601 68.23 59.1301 67.5 68.5001C67.33 70.7101 68.35 72.7601 70.5 72.3701C75.03 71.5301 79.5 72.3701 84.02 71.9901C84.7746 71.856 85.5196 71.6723 86.25 71.4401C84.57 62.2201 86.53 52.7701 84.58 43.4901C84.13 41.3001 84.51 38.7601 87.52 38.5601C90.71 38.3401 90.28 40.8101 90.58 42.9901C91.83 52.3001 91 61.6901 92 71.0001" stroke="black" stroke-width="2" stroke-linecap="round" stroke-linejoin="round"/>
<path d="M186 40C186.5 49 187 58 187.52 67C187.62 68.58 186.52 70.64 189 71.5" stroke="black" stroke-width="2" stroke-linecap="round" stroke-linejoin="round"/>
<path d="M102.5 40.5L104 71" stroke="black" stroke-width="2" stroke-linecap="round" stroke-linejoin="round"/>
<path d="M109.5 39.5C112.61 37.44 114.31 38.16 114.5 42C114.987 51.6733 115.487 61.34 116 71" stroke="black" stroke-width="2" stroke-linecap="round" stroke-linejoin="round"/>
<path d="M171 71.5C174.56 72.98 175.57 71.4 175.53 68C175.552 60.9876 175.218 53.9786 174.53 47C174.33 45.19 174.53 43.33 174.53 41.5C174.46 39.38 175.75 38.5 177.53 38.5C179.31 38.5 180.32 39.29 180.6 41.44C181.75 50.26 181.54 59.11 181.5 67.95C181.5 72.34 180.62 72.75 176.03 70.95" stroke="black" stroke-width="2" stroke-linecap="round" stroke-linejoin="round"/>
<path d="M2.5 39C6 39.26 6.7 41.48 6.5 44.5C5.96 53.5 8.25 62.5 7.31 71.98C6.41 73.29 4.5 73.17 1.85 72.78L1 51" stroke="black" stroke-width="2" stroke-linecap="round" stroke-linejoin="round"/>
<path d="M48.5 40.4999C52.34 38.3999 54.36 39.3599 54.5 43.4999C54.74 51.4999 56.1 59.4999 55.55 67.4999C55.5832 68.6786 55.7339 69.8511 56 70.9999" stroke="black" stroke-width="2" stroke-linecap="round" stroke-linejoin="round"/>
<path d="M84.5 40.5C80 37.83 78.92 38.23 79 43C79.22 52.34 79.64 61.67 80 71" stroke="black" stroke-width="2" stroke-linecap="round" stroke-linejoin="round"/>
<path d="M163 40C167.5 38.24 168.71 39 169 44.5C169.3 51 169.34 57.5 169.54 64C169.61 66.17 169.1 68.39 170.01 70.48C168.13 71.84 166.23 73.18 164.01 71" stroke="black" stroke-width="2" stroke-linecap="round" stroke-linejoin="round"/>
<path d="M205.5 45.2499C206.95 46.2499 208.08 46.9399 210.06 45.5899C214.53 42.5899 219.31 42.2299 224.55 44.3699C228.034 45.7471 231.754 46.4266 235.5 46.3699C240.5 46.2799 245.5 47.9899 250.5 47.0099" stroke="black" stroke-width="2" stroke-linecap="round" stroke-linejoin="round"/>
<path d="M604.5 51H577.5" stroke="black" stroke-width="2" stroke-linecap="round" stroke-linejoin="round"/>
<path d="M413.5 58H387.5" stroke="black" stroke-width="2" stroke-linecap="round" stroke-linejoin="round"/>
<path d="M203.5 24.5C199.96 22.93 197.68 26.18 195.13 27.29C192.01 28.64 192.6 32.37 192.61 36C192.61 42.16 193.29 48.32 193.11 54.5C192.94 60.15 193.67 65.83 194 71.5" stroke="black" stroke-width="2" stroke-linecap="round" stroke-linejoin="round"/>
<path d="M591.5 40.9999C591.6 37.4099 592.59 33.9999 590.16 30.3899C586.74 25.2499 584.78 23.5599 578.5 23.9999" stroke="black" stroke-width="2" stroke-linecap="round" stroke-linejoin="round"/>
<path d="M150.5 71.5C147.03 72.9 145.35 72.05 144.92 68.01C144.16 61.01 144.67 54.01 144.53 47.01C144.39 39.83 144.48 40.01 137.53 39.35C135.76 39.18 134.18 38.3 132.53 39.51" stroke="black" stroke-width="2" stroke-linecap="round" stroke-linejoin="round"/>
<path d="M213 66.5C212.933 68.3608 212.41 70.1768 211.478 71.7888C210.546 73.4008 209.233 74.7597 207.654 75.7466C206.075 76.7335 204.278 77.3182 202.421 77.4496C200.563 77.5809 198.702 77.2549 197 76.5L192.5 74.5" stroke="black" stroke-width="2" stroke-linecap="round" stroke-linejoin="round"/>
<path d="M91 39.4999C95.22 37.9299 96.69 38.8899 97 43.9999C97.34 50.4899 97.38 56.9999 97.53 63.4999C97.4476 65.1663 97.471 66.8364 97.6 68.4999C97.82 69.9499 97.54 72.0899 100.04 71.9999C103.21 71.8799 106.37 71.6799 109.54 71.5099" stroke="black" stroke-width="2" stroke-linecap="round" stroke-linejoin="round"/>
<path d="M346.5 76.9999C346.23 79.2699 347.67 80.1099 349.5 79.9399C350.717 79.769 351.957 79.9538 353.072 80.4719C354.186 80.99 355.126 81.8193 355.78 82.8599C358.45 78.6799 358.1 76.7199 354.5 75.0199C352.21 73.9399 350.31 71.9099 347.5 72.0199" stroke="black" stroke-width="2" stroke-linecap="round" stroke-linejoin="round"/>
<path d="M312.5 48H331.5" stroke="black" stroke-width="2" stroke-linecap="round" stroke-linejoin="round"/>
<path d="M460 60C465.16 60.32 470.37 59.34 475.5 60.5" stroke="black" stroke-width="2" stroke-linecap="round" stroke-linejoin="round"/>
<path d="M605.25 4.5L589.5 1" stroke="black" stroke-width="2" stroke-linecap="round" stroke-linejoin="round"/>
<path d="M217 41.9999C216.27 34.6899 211.23 29.9999 204 30.8799C200.36 31.3099 199.94 35.1699 197.87 35.5199L199.51 70.5199" stroke="black" stroke-width="2" stroke-linecap="round" stroke-linejoin="round"/>
<path d="M518.5 60.5001C513.869 59.68 509.131 59.68 504.5 60.5001" stroke="black" stroke-width="2" stroke-linecap="round" stroke-linejoin="round"/>
<path d="M605 66.5C602.62 64.5 599.75 65.03 597 65C595.17 65 593.33 65 591.5 65" stroke="black" stroke-width="2" stroke-linecap="round" stroke-linejoin="round"/>
<path d="M226 18C226.38 22.62 230.53 27.64 234.49 27.36C237.43 27.16 238.32 24.81 237 22" stroke="black" stroke-width="2" stroke-linecap="round" stroke-linejoin="round"/>
<path d="M209 33.5C203.85 35.58 202.93 37.99 205 44" stroke="black" stroke-width="2" stroke-linecap="round" stroke-linejoin="round"/>
<path d="M246 48C246.835 52.7973 246.835 57.7027 246 62.5" stroke="black" stroke-width="2" stroke-linecap="round" stroke-linejoin="round"/>
<path d="M89.5 84C91.75 89.24 92 89.31 97 87.55C97.87 87.24 99 85.74 100 87.55" stroke="black" stroke-width="2" stroke-linecap="round" stroke-linejoin="round"/>
<path d="M518.5 61.5C514.88 62.66 511.16 61.68 507.5 62" stroke="black" stroke-width="2" stroke-linecap="round" stroke-linejoin="round"/>
<path d="M487.5 61H476.5" stroke="black" stroke-width="2" stroke-linecap="round" stroke-linejoin="round"/>
<path d="M208.5 55H225.5" stroke="black" stroke-width="2" stroke-linecap="round" stroke-linejoin="round"/>
<path d="M226.5 16L236.5 21" stroke="black" stroke-width="2" stroke-linecap="round" stroke-linejoin="round"/>
<path d="M408.5 61H398.5" stroke="black" stroke-width="2" stroke-linecap="round" stroke-linejoin="round"/>
<path d="M211 31.5C210.46 27.71 208.38 25.5 204.5 25" stroke="black" stroke-width="2" stroke-linecap="round" stroke-linejoin="round"/>
<path d="M452.5 60.4999C455.16 60.2199 457.5 58.9599 460.25 61.7499C461.64 63.1699 465.67 61.9999 468.5 61.9999" stroke="black" stroke-width="2" stroke-linecap="round" stroke-linejoin="round"/>
<path d="M595.5 32C599.15 33 600.37 38.2 605 37.5" stroke="black" stroke-width="2" stroke-linecap="round" stroke-linejoin="round"/>
<path d="M497.5 60.5C494.557 59.6702 491.443 59.6702 488.5 60.5" stroke="black" stroke-width="2" stroke-linecap="round" stroke-linejoin="round"/>
<path d="M89.5 79C92.27 81.2 96.71 80.69 98.5 84.5" stroke="black" stroke-width="2" stroke-linecap="round" stroke-linejoin="round"/>
<path d="M376 59.9999C378.5 60.2399 381.06 59.4699 383.5 60.4999" stroke="black" stroke-width="2" stroke-linecap="round" stroke-linejoin="round"/>
<path d="M590.5 65.5C588.06 66.8 585.8 65.68 583.5 65" stroke="black" stroke-width="2" stroke-linecap="round" stroke-linejoin="round"/>
<path d="M206.5 98C208.7 101.11 212.67 101 215.5 102.94C217.21 104.11 220.11 103.81 219.96 107" stroke="black" stroke-width="2" stroke-linecap="round" stroke-linejoin="round"/>
<path d="M247.5 49.9999C251.55 49.7399 255.41 51.7499 259.5 50.9999" stroke="black" stroke-width="2" stroke-linecap="round" stroke-linejoin="round"/>
<path d="M37.5 71.5C39.67 74.5 41.83 72.44 44 71.5" stroke="black" stroke-width="2" stroke-linecap="round" stroke-linejoin="round"/>
<path d="M226.5 30L220 35.5" stroke="black" stroke-width="2" stroke-linecap="round" stroke-linejoin="round"/>
<path d="M207.5 107.5C212.5 106.73 216.21 109.5 220 112" stroke="black" stroke-width="2" stroke-linecap="round" stroke-linejoin="round"/>
<path d="M192 37.5C188.53 39.27 184.61 38.5 181 39.5" stroke="black" stroke-width="2" stroke-linecap="round" stroke-linejoin="round"/>
<path d="M35.5 40.5001C33.67 38.7001 31.83 37.7101 30 40.5001" stroke="black" stroke-width="2" stroke-linecap="round" stroke-linejoin="round"/>
<path d="M155.5 39.5C155.33 39.33 155.08 38.99 155.01 39.03C151.57 40.71 147.93 37.8 144.5 39.5" stroke="black" stroke-width="2" stroke-linecap="round" stroke-linejoin="round"/>
<path d="M389.5 61.9999C389.5 60.5699 389.66 59.1799 387.5 60.4499C386.538 60.8015 385.524 60.9874 384.5 60.9999" stroke="black" stroke-width="2" stroke-linecap="round" stroke-linejoin="round"/>
<path d="M497.5 61.5C495.92 62.56 494.16 61.73 492.5 62" stroke="black" stroke-width="2" stroke-linecap="round" stroke-linejoin="round"/>
<path d="M182 71C183.67 72.58 185.33 72.58 187 71" stroke="black" stroke-width="2" stroke-linecap="round" stroke-linejoin="round"/>
<path d="M214 103C212.94 104.58 213.77 106.34 213.5 108" stroke="black" stroke-width="2" stroke-linecap="round" stroke-linejoin="round"/>
<path d="M11 39.5C9.16 38.29 7.73 38.97 6.5 40.5" stroke="black" stroke-width="2" stroke-linecap="round" stroke-linejoin="round"/>
<path d="M413 59.9999C414.49 60.2699 416.11 59.3799 417.5 60.4999" stroke="black" stroke-width="2" stroke-linecap="round" stroke-linejoin="round"/>
<path d="M591.5 15C591.39 17.67 592.02 20.39 591 23" stroke="black" stroke-width="2" stroke-linecap="round" stroke-linejoin="round"/>
<path d="M20 72C20.2238 72.3035 20.507 72.5583 20.8324 72.7489C21.1577 72.9395 21.5185 73.0619 21.8927 73.1087C22.2668 73.1554 22.6466 73.1256 23.0089 73.021C23.3712 72.9163 23.7084 72.7391 24 72.5" stroke="black" stroke-width="2" stroke-linecap="round" stroke-linejoin="round"/>
<path d="M390 60C392.41 61.48 395.08 59.2 397.5 60.5" stroke="black" stroke-width="2" stroke-linecap="round" stroke-linejoin="round"/>
<path d="M351.5 65.5V69" stroke="black" stroke-width="2" stroke-linecap="round" stroke-linejoin="round"/>
<path d="M59.5 39.5001C57.5 38.2301 55.89 38.7701 54.5 40.5001" stroke="black" stroke-width="2" stroke-linecap="round" stroke-linejoin="round"/>
<path d="M414.5 62C412.41 62.92 412.07 58 409.5 60.5" stroke="black" stroke-width="2" stroke-linecap="round" stroke-linejoin="round"/>
<path d="M168.5 40.5C170.29 37.85 172.35 38.32 174.5 40" stroke="black" stroke-width="2" stroke-linecap="round" stroke-linejoin="round"/>
<path d="M90.5 72C93.09 71.45 95.36 71.45 95.5 75" stroke="black" stroke-width="2" stroke-linecap="round" stroke-linejoin="round"/>
<path d="M121.5 71.5C120 72.26 118.5 73.31 117 71.5" stroke="black" stroke-width="2" stroke-linecap="round" stroke-linejoin="round"/>
</svg>
