<svg width="37" height="37" viewBox="0 0 37 37" fill="none" xmlns="http://www.w3.org/2000/svg">
<path d="M31.083 2.788C29.359 0.964 26.841 0 23.801 0C16.934 0 10.864 5.067 9.68401 11.787C9.18401 14.662 9.64601 17.319 10.985 19.384L10.082 20.197C9.87301 20.443 9.72301 20.664 9.76401 20.931C9.78201 21.046 9.96701 21.389 10.33 21.843C9.69001 22.023 8.99201 22.455 8.77701 22.614C8.33901 22.938 7.98301 23.228 7.97801 23.232L6.88001 24.219C6.88001 24.219 1.20301 29.33 0.543007 30.043C0.311007 30.294 0.149007 30.492 0.0980067 30.606C0.0100067 30.799 -0.0199933 31.053 0.0150067 31.318C0.0660067 31.714 0.320007 32.512 1.20801 33.327C1.78801 33.857 2.79201 34.556 3.55101 34.745C3.71401 34.783 4.14901 34.801 4.49601 34.681C4.88301 34.546 5.20101 34.196 5.20401 34.192C7.34501 31.467 9.75801 28.49 11.963 25.401C11.972 25.388 12.449 24.726 12.696 23.899C13.272 24.242 13.701 24.399 13.812 24.403C14.113 24.416 14.358 24.198 14.577 23.941L15.459 22.884C16.731 23.359 18.148 23.619 19.677 23.619C25.745 23.619 30.993 19.657 32.735 13.76L32.782 13.6H26.785L26.755 13.681C25.775 16.273 23.159 18.155 20.535 18.155C18.86 18.155 17.497 17.592 16.595 16.529C15.626 15.386 15.264 13.718 15.576 11.834C16.251 8.086 19.227 5.468 22.813 5.468C25.622 5.468 27.309 7.085 27.441 9.904L27.447 10.023H33.394L33.401 9.905C33.562 7.024 32.761 4.565 31.083 2.788Z" fill="#E0078B"/>
</svg>
