<svg width="330" height="60" viewBox="0 0 330 60" fill="none" xmlns="http://www.w3.org/2000/svg">
<path d="M308.64 5.23991C318.632 4.71256 324.087 13.532 327.364 22.7332C328.318 25.3882 328.876 28.2067 329.452 30.9707C331.037 38.4081 329.2 44.9545 323.727 50.1552C318.074 55.5559 311.899 60.393 303.527 59.9747C295.479 59.5565 288.044 56.7561 281.724 51.7736C274.181 45.8273 271.714 33.7711 276.035 24.8608C282.21 12.1318 292.544 5.69452 308.604 5.23991H308.64ZM306.786 9.07681C303.797 8.24033 301.078 9.4405 298.45 10.1679C288.872 12.841 282.426 19.5146 279.456 28.7341C277.259 35.5714 277.907 43.0815 283.759 48.1913C290.438 54.0103 298.432 57.1925 307.56 56.1924C308.46 56.1015 309.36 55.6287 310.17 55.1741C313.789 53.1556 317.264 50.9553 320.252 48.0094C324.483 43.8452 326.284 38.8445 325.293 33.0619C324.375 27.6612 323.061 22.2604 320.216 17.5143C317.174 12.4409 313.267 8.49491 306.767 9.07681H306.786Z" fill="white"/>
<path d="M0.802092 3.70645C7.51713 -1.2005 14.6989 -0.0695489 21.9706 0.641868C25.8308 1.02494 29.8168 0.0399141 33.7489 0.660124C34.8441 0.824297 35.9393 1.15264 36.9986 1.48099C37.6989 1.69989 38.3632 2.06472 38.2016 3.04975C38.022 4.08952 37.1423 4.16248 36.4959 4.07127C29.7809 3.10447 22.9222 5.01984 16.3328 3.48756C11.6826 2.41131 7.94802 4.29018 3.87232 5.47587C2.31026 5.93191 2.54365 7.2088 2.66933 8.23033C3.85434 17.3328 3.53116 26.4353 2.66933 35.5378C2.3282 39.1314 2.83096 39.8063 6.24234 39.5509C15.4351 38.8395 24.6099 39.5509 33.7848 39.6604C35.9034 39.6786 37.8245 39.1861 39.7816 38.4747C40.4459 38.2375 41.218 38.7118 41.5771 39.4962C41.9721 40.3353 41.595 40.992 40.9846 41.4663C39.0814 42.9438 36.8191 43.0715 34.5568 43.0351C27.4288 42.9256 20.3188 42.7432 13.1908 42.6885C10.0128 42.6702 6.81687 42.8891 3.6389 43.0351C1.34071 43.1445 0.353238 42.1959 0.137782 39.7516C-0.25722 35.1547 0.281412 30.6491 0.694368 26.107C1.41255 18.5185 1.16115 10.9483 0.820009 3.68819L0.802092 3.70645Z" fill="white"/>
<path d="M163.199 4.69396C165.488 4.56725 167.85 4.74826 170.047 4.24143C174.605 3.17348 177.535 4.73018 179.933 8.62186C182.295 12.4773 184.766 16.3147 187.933 19.6453C188.849 20.6046 189.874 21.7811 188.354 22.9939C186.926 24.1343 185.865 23.0301 184.949 22.0527C182.331 19.2833 179.86 16.3328 178.194 12.9661C175.997 8.51325 172.701 7.3367 168.014 7.93402C163.09 8.56755 158.055 8.42273 153.148 7.753C149.816 7.30048 148.224 8.58564 146.851 11.1741C145.514 13.672 143.976 16.0613 142.475 18.4687C141.981 19.2651 141.431 20.0797 140.754 20.7132C139.857 21.5459 138.996 23.0844 137.477 21.6726C136.232 20.496 137.532 19.7358 138.154 18.8488C140.443 15.6088 142.621 12.2782 144.965 9.07439C147.455 5.67143 150.549 3.64413 155.181 4.40436C157.78 4.83878 160.508 4.47675 163.181 4.47675C163.181 4.53106 163.181 4.58537 163.181 4.65777L163.199 4.69396Z" fill="white"/>
<path d="M154.954 45.3026C159.585 46.7197 164.94 46.1124 170.168 46.7749C175.052 47.4006 174.546 48.0448 176.192 43.2045C177.693 38.8243 179.936 34.8306 182.596 31.0946C183.464 29.8799 184.568 28.7573 185.762 27.8555C186.738 27.1193 188.059 27.2665 188.837 28.242C189.506 29.0885 188.909 30.0272 188.258 30.7817C183.79 36.1373 180.769 42.2659 179.032 49.0386C178.489 51.1551 177.458 52.793 175.106 51.9465C169.48 49.9404 163.565 50.6582 157.812 49.7564C156.51 49.5539 155.189 49.4619 153.868 49.3699C152.403 49.2778 151.082 48.7441 151.336 47.0694C151.571 45.505 152.982 45.1553 154.936 45.2842L154.954 45.3026Z" fill="white"/>
<path d="M259.424 28.7701C255.983 25.0445 252.579 26.0804 249.156 28.0432C248.821 28.2249 248.337 28.4793 248.077 28.3885C243.147 26.4802 238.329 28.5702 233.455 28.6974C232.209 28.7337 230.888 28.3339 230.87 27.0073C230.851 25.5534 232.321 25.3535 233.474 25.408C238.069 25.6624 242.571 23.3181 247.259 25.0264C248.114 25.3353 249.398 24.5357 250.253 24.2994C250.737 23.3544 250.253 22.9909 249.863 22.6456C248.784 21.737 246.366 21.4644 247.296 19.538C248.207 17.6297 250.291 18.1931 251.798 19.0836C255.778 21.4825 260.076 23.209 264.28 25.1354C266.438 26.1168 266.642 27.3162 265.005 29.0427C261.992 32.2231 258.569 35.1127 256.578 39.0927C255.964 40.3285 254.923 40.7283 253.732 40.2194C252.393 39.6561 252.449 38.4021 252.858 37.3117C253.825 34.7674 255.797 32.8955 257.527 30.8782C258.141 30.1695 258.792 29.4971 259.443 28.8065L259.424 28.7701Z" fill="white"/>
<path d="M44.3724 22.0366C44.3724 16.9457 44.3412 11.8731 44.3881 6.78224C44.3881 5.47783 44.5131 4.10094 44.9037 2.92335C45.2318 1.92693 46.0442 0.966764 47.1848 1.41968C48.4347 1.92695 48.2941 3.05017 47.841 4.17342C47.0598 6.14814 47.2161 8.2497 47.3098 10.2969C47.7785 20.8046 46.3099 31.3848 48.2004 41.8382C48.4191 43.0883 48.0598 44.2115 46.8723 44.3383C45.8099 44.447 45.0131 43.6137 44.8724 42.3455C44.6381 40.2983 44.4193 38.233 44.3881 36.1677C44.31 31.4573 44.3724 26.7469 44.3568 22.0547L44.3724 22.0366Z" fill="white"/>
<path d="M119.796 21.1935C116.84 18.733 114.363 16.6796 111.903 14.6262C111.185 14.0243 110.468 13.2808 111.134 12.3604C111.715 11.5638 112.757 11.5992 113.577 12.0948C116.909 14.2013 119.694 17.0867 123.162 19.0162C124.272 19.6358 124.033 21.0165 123.213 21.8839C120.155 25.1941 116.704 28.1326 114.226 32.0093C113.799 32.6819 113.031 32.8059 112.381 32.2925C111.766 31.7969 111.664 30.9649 111.886 30.2745C112.398 28.6637 113.441 27.3891 114.602 26.2385C116.225 24.61 117.9 23.0345 119.813 21.1758L119.796 21.1935Z" fill="white"/>
<path d="M138.232 24.7861C139.386 24.7317 140.242 25.3124 140.615 26.1471C142.904 31.0829 145.101 36.0731 147.28 41.0634C147.484 41.517 147.373 42.1884 147.224 42.6965C146.944 43.6764 146.237 44.3478 145.157 44.3478C144.338 44.3478 143.761 43.8397 143.575 43.0232C142.42 37.6519 139.144 33.0971 137.375 27.9617C136.91 26.6008 136.463 25.4394 138.213 24.7861H138.232Z" fill="white"/>
<path d="M100.165 18.2609C100.874 18.435 101.265 18.4872 101.62 18.6264C103.112 19.2183 105.929 18.992 105.63 20.8895C105.294 23.0656 102.926 21.8296 101.265 21.7774C97.255 21.6555 93.2258 21.76 89.2154 21.8122C88.2641 21.8122 87.3128 22.1255 86.3801 22.0559C85.6153 22.0037 84.8879 21.5685 84.7946 20.7154C84.6827 19.845 85.3729 19.4272 86.1003 19.2357C86.8278 19.0443 87.6299 18.992 88.3947 18.9746C92.4424 18.8702 96.5089 19.2531 100.165 18.2957V18.2609Z" fill="white"/>
<path d="M209.611 28.6653C209.164 28.6653 208.931 28.7336 208.775 28.6653C206.966 27.7776 203.134 28.4946 203.503 26.2582C203.912 23.7317 207.024 25.1486 209.086 25.4559C209.281 25.4901 209.495 25.473 209.67 25.5413C211.129 26.0363 214.008 24.5341 213.911 26.9923C213.833 28.6824 211.032 28.2898 209.631 28.6824L209.611 28.6653Z" fill="white"/>
<path d="M224.614 24.8063C224.795 24.8478 225.518 24.8063 226.111 25.1803C227.065 25.7412 227.278 26.78 226.407 27.6527C225.897 28.1513 225.173 28.5253 224.532 28.5461C223.068 28.6292 221.291 29.294 220.502 26.9463C220.074 25.6789 221.719 24.7232 224.63 24.7855L224.614 24.8063Z" fill="white"/>
<path d="M58.6957 18.6228C61.458 18.013 64.5015 18.1738 67.8261 19.105C64.5443 21.5327 64.0859 21.5327 58.6957 18.6228Z" fill="white"/>
<path d="M75.1245 18.2609C76.5196 18.367 77.9912 18.5793 78.2397 19.7205C78.4117 20.5166 77.5135 21.0076 76.3477 20.8351C75.029 20.6493 73.3089 20.5697 73.0605 19.4153C72.8885 18.6457 74.0542 18.367 75.1245 18.2609Z" fill="white"/>
<path d="M113.831 18.2666C115.041 18.1931 116 18.8295 116.083 20.2245C116.146 21.2035 115.353 22.0356 114.457 22.1579C113.247 22.3048 112.329 21.4237 112.183 20.1511C112.079 19.1966 112.871 18.4379 113.831 18.291V18.2666Z" fill="white"/>
</svg>
