<svg width="192" height="78" viewBox="0 0 192 78" fill="none" xmlns="http://www.w3.org/2000/svg">
<path d="M36.6449 21.4206C33.5696 25.4793 33.2938 25.6484 29.2119 24.0419C27.8743 23.5204 27.4467 24.3801 26.6607 24.9297C23.2407 27.3113 21.1446 26.4376 20.1792 22.2803C20.1103 21.9985 20 21.7025 20 21.4206C20.1517 14.3744 20.9101 7.39858 22.5098 0.535523C22.5512 0.35232 22.9511 0.267758 23.42 0C24.7852 1.5079 23.9854 3.28359 23.8475 4.87604C23.4613 9.25881 22.9235 13.6134 22.4409 17.9962C22.3995 18.433 22.3443 18.884 22.3581 19.3209C22.4409 20.7583 22.3167 22.3789 23.8061 23.1681C24.7163 23.6613 27.0192 21.6884 27.3916 19.8987C27.7777 18.0103 28.1777 16.1923 29.2671 14.5717C31.7769 10.8231 34.0385 10.8512 36.2587 14.7126C36.4794 15.079 36.5759 15.5159 37.1137 15.5159C40.975 10.964 44.4364 12.1619 47.6357 19.349C48.3528 17.672 48.8631 16.0232 49.7319 14.5999C51.0144 12.4719 52.4072 12.1055 54.4482 12.9933C57.3028 14.2193 58.1578 15.3327 57.551 17.8552C57.1649 19.49 57.2062 20.9838 57.4821 22.6044C58.075 26.2403 58.0474 29.9184 57.9371 33.5966C57.9095 34.3294 57.8406 35.0763 57.6751 35.7809C57.2338 37.627 56.8615 39.8395 54.5861 39.9946C52.8623 40.1073 51.9108 38.4444 51.2212 36.9647C50.3249 35.0622 50.7248 32.3142 51.8832 31.1727C52.3796 30.6935 52.9588 30.6794 53.4553 30.9331C54.0069 31.2149 54.2137 31.7645 53.9379 32.4128C53.4691 33.512 53.1381 34.6394 53.7725 35.795C53.8828 35.9923 54.2413 36.0487 54.4895 36.1755C55.6479 32.7792 55.6893 28.8192 54.5447 22.6749C52.0625 23.8446 49.6767 23.1258 47.1255 22.6044C43.4573 21.8434 45.3328 17.4888 42.6299 16.3755C41.0026 17.5029 41.8438 19.4336 41.1543 20.8287C40.6579 21.8434 40.6303 23.309 39.3202 23.6332C37.8033 23.9996 37.7481 22.1816 36.6449 21.4488V21.4206ZM34.6315 18.1512C34.5488 17.6861 34.5074 17.1083 34.3419 16.5446C34.1488 15.8682 33.942 15.079 33.1008 14.9945C32.2596 14.8958 31.8735 15.6286 31.4597 16.1923C31.2115 16.5446 31.0322 16.9533 30.8392 17.3338C29.9704 19.0108 31.1977 20.3496 31.5839 21.8011C31.6804 22.1393 32.301 22.1957 32.7147 21.9421C34.0661 21.1106 34.4936 19.7718 34.6315 18.1371V18.1512ZM51.2764 20.7583C53.6483 20.406 54.7102 19.0531 54.4482 16.6292C54.3792 16.0373 54.1172 15.5441 53.5104 15.3327C52.8761 15.1213 52.3382 15.4454 52.0349 15.8964C51.0833 17.3479 50.2559 18.8699 51.2764 20.7583Z" fill="white"/>
<path d="M158.027 13.3874C161.242 9.52182 162.337 9.31099 166.506 11.0259C167.743 11.5319 168.511 12.2769 168.81 13.4577C169.28 15.3131 169.763 17.1405 170.716 18.8273C171.101 19.516 171.157 20.3032 170.489 20.8233C169.507 21.5683 168.881 20.7811 168.298 20.1064C167.914 19.6707 167.658 19.0943 166.975 19.024C162.494 22.5101 160.502 22.9177 158.013 19.1084C156.775 20.9638 155.566 22.8615 153.176 23.0723C150.658 23.2972 149.207 21.4277 147.243 19.5863C146.717 21.7088 146.93 23.5503 147.073 25.3214C147.314 28.2592 147.144 31.1829 146.859 34.1067C146.703 35.6951 146.376 37.3116 145.892 38.8297C144.91 41.8799 143.118 43.5246 141.468 42.8498C139.092 41.88 138.395 39.912 138.779 37.3818C140.6 37.3116 140.273 39.4903 140.913 39.6028C142.335 39.912 142.748 39.3357 142.933 38.8718C144.953 33.6288 144.341 28.2592 143.929 22.7912C143.26 22.7912 142.805 22.6787 142.435 22.8052C138.736 24.0282 137.257 23.7751 135.848 21.5683C134.354 19.2489 134.895 15.3975 136.986 13.4717C139.561 11.0962 144.626 11.4897 146.959 14.3573C148.083 15.7348 148.766 14.8071 149.306 14.0621C152.45 9.7608 153.46 9.6343 157.97 13.4155L158.027 13.3874ZM143.075 17.1967C142.677 16.2409 142.719 14.8774 141.197 14.6665C139.547 14.4276 137.883 16.4236 137.94 18.5461C137.968 19.6706 138.338 20.5562 139.632 20.6687C141.055 20.7811 143.032 18.7992 143.061 17.1967H143.075ZM150.615 18.279C151.767 20.0361 153.147 20.2751 154.612 19.5441C155.694 18.9959 156.519 17.9136 156.348 16.7188C156.135 15.1304 155.409 13.7107 153.176 13.6826C152.891 15.5943 153.588 17.9839 150.615 18.2931V18.279ZM160.929 16.3392C160.929 17.3373 160.801 18.1666 161.569 18.5461C162.323 18.9116 163.02 18.4758 163.546 17.9276C164.044 17.3935 164.542 16.8172 164.855 16.1846C165.481 14.9477 165.979 13.5982 164.101 12.9657C162.38 12.3894 161.683 13.5561 161.199 14.8774C161 15.4256 160.986 16.0159 160.929 16.3392Z" fill="white"/>
<path d="M92.9776 62.3855C93.1958 64.3195 91.7848 65.1544 90.2138 65.6135C88.1336 66.2257 86.0243 66.1979 84.1186 64.89C82.5766 63.8186 81.6747 62.3298 81.1656 60.6184C80.831 59.5192 80.6565 58.3643 80.4092 57.2372C80.1037 55.7763 79.4781 53.9536 77.8343 54.3153C76.2342 54.6632 76.3942 56.6251 76.5688 58.0999C76.6997 59.2409 77.5871 60.2288 77.3252 61.4532C77.1943 62.0654 76.7724 62.4828 76.2051 62.7194C75.565 62.9837 75.0559 62.6777 74.634 62.2185C72.3938 59.7974 72.4665 55.1919 74.794 52.6178C76.8742 50.3081 78.0235 50.322 80.6564 52.6734C83.5804 49.7654 84.686 49.4037 86.6062 50.7533C88.9628 52.4091 89.0646 54.7884 86.6789 56.4024C85.1951 57.4182 83.3185 57.9886 84.6423 60.3401C85.9079 62.5942 87.4353 63.3316 90.2574 62.6916C91.0865 62.4968 91.8139 61.7593 92.9922 62.3576L92.9776 62.3855Z" fill="white"/>
<path d="M189.073 67.2096C189.073 66.1755 189.073 65.4389 189.073 64.7022C189.073 62.6057 189.328 60.7217 185.958 60.8208C183.509 60.8917 181.909 58.1435 182.121 55.7495C182.334 53.2563 184.075 51.4997 186.68 51.1597C186.978 51.1172 187.275 51.1455 187.558 51.1172C192.599 50.8056 192.415 50.7631 191.48 55.6928C190.843 59.0076 191.211 62.4215 191.565 65.8072C191.947 69.5045 191.82 73.2159 189.342 76.3183C187.742 78.3298 185.958 78.4998 183.948 77.0265C182.065 75.6525 181.47 73.4992 182.504 71.6152C182.914 70.8644 183.424 69.8728 184.457 70.142C185.873 70.5103 185.066 71.5443 184.741 72.2243C184.118 73.5559 184.316 74.6325 185.675 75.0858C187.048 75.5391 187.771 74.4342 188.393 73.3859C189.597 71.3177 188.932 69.0653 189.073 67.1954V67.2096ZM187.502 53.4688C186.086 53.4971 184.599 54.9845 184.712 56.3444C184.811 57.4777 185.392 58.3418 186.624 58.3418C188.719 58.3418 188.719 56.5994 188.96 55.2112C189.13 54.2054 188.606 53.5254 187.502 53.4688Z" fill="white"/>
<path d="M24.3969 56.0761C25.8933 56.8121 26.8101 55.5901 27.6999 56.2566C28.1718 56.6871 28.01 57.2426 27.7403 57.3954C23.8441 59.7284 24.3159 63.1307 25.5023 66.7414C25.6776 67.283 25.9068 67.8246 26.0012 68.3939C26.0956 69.005 25.799 69.5188 25.2732 69.8104C24.5317 70.2131 23.8845 69.9493 23.4801 69.2549C22.6037 67.7412 22.1993 66.047 22.1184 64.3111C22.0106 62.0475 21.3095 60.7283 18.7884 61.3393C17.8447 61.5615 16.8065 61.5476 15.9033 61.0894C15.4179 60.8394 15.0135 60.395 15 59.7562C15 59.0618 15.4988 58.7841 16.0516 58.6175C16.3212 58.5341 16.6043 58.5341 16.874 58.4786C19.9119 57.8583 21.4263 56.0113 21.4173 52.9376C21.4173 50.6323 21.323 48.3132 21.4848 46.008C21.6196 44.0082 22.4689 42.3696 24.68 42.0779C25.5158 41.9669 26.5809 41.8558 27.0123 42.6473C27.5786 43.7027 26.527 44.1055 25.7855 44.4665C24.5452 45.0637 24.3969 46.1885 24.3969 47.3689C24.3834 50.3685 24.3969 53.3681 24.3969 56.0761Z" fill="white"/>
<path d="M118.359 18.6196C118.704 17.9089 119.006 17.2267 119.351 16.5871C120.989 13.5171 122.785 13.1475 125.128 15.649C127.111 17.7668 128.188 20.3536 127.973 23.3242C127.93 23.9495 127.57 24.4897 126.953 24.6318C126.277 24.7739 125.947 24.2907 125.688 23.6937C124.768 21.6186 124.323 19.2734 122.196 17.4115C121.291 19.8277 120.702 21.9313 119.739 23.85C118.905 25.513 117.77 25.4135 116.793 23.8074C115.816 22.1871 116.031 20.0267 114.307 18.4917C112.769 19.9841 113.531 21.846 113.215 23.4379C113.042 24.3049 113.1 25.2145 112.899 26.0673C112.769 26.6074 112.324 27.176 111.62 26.9485C111.246 26.8348 110.729 26.4369 110.7 26.1384C110.47 23.1963 109.766 20.3394 109.033 17.4967C108.875 16.8714 109.306 16.3313 109.809 16.0044C112.654 14.1424 115.543 14.8389 117.684 17.8663C117.842 18.0937 118.058 18.2927 118.359 18.6054V18.6196Z" fill="white"/>
<path d="M108.986 12.7266C109.07 13.3779 108.676 13.8075 108.211 14.1816C107.183 14.9992 106.014 15.6644 105.127 16.6067C103.86 17.9509 102.888 19.5168 105.155 20.8887C106.733 21.831 106.437 23.0089 105.634 24.159C104.691 25.4894 103.634 25.0875 102.775 24.0205C101.789 22.7871 100.747 23.4384 99.6205 23.7572C95.9167 24.8103 94.9731 24.3115 93.2409 20.5561C92.4945 18.9486 93.5789 15.1655 95.1703 14.1955C96.5786 13.3363 98.1137 13.5857 99.3108 14.5142C101.099 15.8861 102.381 15.4288 103.789 13.9738C104.803 12.9345 106.113 12.2 107.634 12.0199C108.239 11.9506 108.803 12.0337 109 12.7404L108.986 12.7266ZM100.494 17.3966C99.367 18.0063 98.4939 18.4636 97.6349 18.9209C97.0011 19.2534 96.2688 19.6138 96.5927 20.4729C96.973 21.4984 97.8742 21.3459 98.7474 21.1796C100.719 20.8194 101.409 19.7662 100.494 17.3827V17.3966Z" fill="white"/>
<path d="M63.728 60.6704C65.2535 58.0517 65.3542 55.6136 65.8147 53.2657C65.9155 52.7497 66.0018 52.1821 66.7214 52.0402C67.556 51.8854 68.2756 52.1821 68.549 52.8529C69.1823 54.3622 69.801 55.8715 70.1896 57.4324C70.5925 59.0192 71.0962 60.5414 71.8445 62.0249C72.1899 62.7215 71.9453 63.3923 71.2546 63.7793C70.2184 64.3598 69.5996 63.689 69.0959 62.9924C68.362 61.9862 68.4051 60.6446 67.369 59.7416C67.1819 59.8964 66.8941 60.0125 66.8365 60.1931C66.3472 61.7153 66.2609 63.6245 63.8576 63.6761C61.7277 63.7148 60.9074 62.0636 60.0152 60.6704C59.1086 59.2643 58.6337 57.7034 58.2163 56.1296C57.9285 55.033 57.6839 53.7559 59.1805 53.4205C60.6772 53.0722 61.2096 54.2461 61.3679 55.3942C61.6126 57.1487 62.0875 58.787 63.7136 60.6833L63.728 60.6704Z" fill="white"/>
<path d="M49.0712 58.0854C47.8125 57.5002 46.7996 58.0987 45.7868 58.0588C44.9477 58.0189 44.3545 57.6598 44.0796 56.955C43.7757 56.1438 44.3979 55.3592 45.0056 55.3193C49.2304 55.0401 48.4635 52.4336 48.1886 49.9601C48.1018 49.2021 47.9571 48.1117 49.187 48.0053C50.1853 47.9255 50.7206 48.7633 50.9955 49.5612C51.2126 50.2128 51.2705 50.9043 51.3862 51.5825C51.6467 53.1916 52.4135 54.0826 54.3667 53.5108C54.7719 53.3911 55.2638 53.431 55.7123 53.4842C56.2911 53.564 57 53.6438 57 54.3619C57 54.7209 56.7396 55.3326 56.4792 55.3991C52.399 56.33 52.3556 59.0163 52.8765 62.0483C53.0212 62.8462 52.7752 63.8834 51.69 63.9898C50.576 64.1095 50.33 63.152 50.1274 62.3275C49.7657 60.8647 49.3895 59.4019 49.0568 58.0987L49.0712 58.0854Z" fill="white"/>
<path d="M40.7353 61.3273C37.7542 65.028 35.1287 64.861 32.7767 60.9795C31.7101 59.2266 31.2314 57.2789 31.0126 55.2616C30.9306 54.4965 31.2451 53.8148 32.0382 53.5922C33.0502 53.3279 33.7749 53.8565 33.898 54.8165C34.1715 56.8476 34.6091 58.7953 35.8671 60.4369C36.7697 61.6334 37.6175 61.703 38.4926 60.3257C39.5729 58.6423 39.5729 56.8059 39.5319 54.9138C39.5182 53.9956 39.8054 53.1053 40.8173 53.0079C41.8156 52.9105 42.4036 53.7313 42.4856 54.6078C42.7044 57.2093 42.8138 59.8109 44.906 61.7586C45.0838 61.9256 44.9881 62.6212 44.7966 62.9272C44.4821 63.4559 43.9214 63.5533 43.3061 63.4142C42.1301 63.1359 41.5147 62.0647 40.7079 61.3134L40.7353 61.3273Z" fill="white"/>
<path d="M92 17.2832C87.4154 19.0949 87.4009 21.5894 88.2279 24.4184C88.431 25.0874 88.3149 25.8678 88.2279 26.5924C88.1408 27.3589 87.7055 28 86.8205 28C86.0951 28 85.892 27.3589 85.8049 26.7736C85.5583 25.1988 85.3262 23.6101 85.1085 22.0354C84.9199 20.6836 84.3831 19.8474 82.7437 20.2794C82.1778 20.4327 81.5395 20.4327 80.9446 20.4466C79.7405 20.4745 78.188 20.6975 78.0139 19.1646C77.8253 17.3668 79.5954 17.8545 80.6545 17.6873C84.0639 17.1577 85.2972 17.3528 84.1365 13.0327C83.6867 11.3603 83.6287 9.56259 84.0495 7.84846C84.18 7.31889 84.7749 6.85902 85.4132 7.04019C85.776 7.13774 86.2547 7.56975 86.2982 7.90421C86.5013 9.33962 86.6609 10.789 86.6464 12.2383C86.6174 14.928 87.3283 17.0323 91.9855 17.2971L92 17.2832Z" fill="white"/>
<path d="M151.994 55.2182C152.758 54.075 153.372 52.9454 154.191 52.0064C155.487 50.5365 156.62 50.6726 157.466 52.4418C158.762 55.1773 158.721 58.1986 158.994 61.1382C159.035 61.5057 158.871 61.9548 158.312 62.0501C157.616 62.1726 157.179 61.7643 156.975 61.2607C156.156 59.3554 156.579 57.0827 155.296 55.2318C153.59 57.1371 154.218 59.6276 153.413 61.7099C153.208 62.227 153.167 62.853 152.499 62.9755C151.653 63.1252 151.107 62.5672 150.916 61.8732C150.247 59.5732 149.633 57.246 149.06 54.9187C148.869 54.1702 149.128 53.4217 149.92 53.2176C150.493 53.0679 150.916 53.5714 151.216 54.0886C151.421 54.4424 151.68 54.769 152.007 55.2182H151.994Z" fill="white"/>
<path d="M174.184 54.0336C172.739 56.3189 173.909 58.9986 172.305 60.9574C168.373 59.0122 168.012 56.9446 170.888 53.7343C172.03 52.4557 172.739 50.5513 174.979 51.0954C177.089 51.6123 177.827 53.3807 178.463 55.1898C179.229 57.4071 178.969 59.6515 178.911 61.896C178.911 62.5081 178.549 63.0386 177.87 62.9978C177.248 62.9706 176.743 62.4945 176.656 61.9232C176.439 60.6854 176.323 59.4203 176.222 58.1552C176.107 56.6181 175.976 55.1082 174.199 54.02L174.184 54.0336Z" fill="white"/>
<path d="M186.215 7C186.989 7 187.748 7.04408 188.347 7.61683C189.15 8.38049 189.339 9.20291 188.186 9.77566C187.514 10.0987 186.711 10.1428 185.996 10.3924C184.478 10.9064 184.142 11.8317 185.106 13.1828C185.456 13.6821 185.763 14.2108 186.04 14.7542C188.142 18.8515 185.266 23.1986 180.58 22.993C179.966 22.9636 179.382 22.7433 179.12 22.0971C178.74 21.1719 179.324 20.6726 180.025 20.2907C180.696 19.9383 181.412 19.6593 182.083 19.3068C183.514 18.5284 184.098 17.4857 183.047 15.9584C182.624 15.3269 182.244 14.6513 181.937 13.9611C180.331 10.3484 182.288 7.19092 186.215 7Z" fill="white"/>
<path d="M120.013 59.9023C120.013 59.5975 119.987 59.2926 120.013 59.0023C120.12 57.841 119.893 56.099 121.279 56.099C122.785 56.099 122.318 57.8409 122.425 58.9732C122.531 60.1055 121.865 61.6298 123.078 62.225C123.957 62.646 125.089 63.604 126.115 62.7911C127.141 61.9637 126.382 60.904 126.035 59.9459C125.596 58.6974 124.89 57.5651 124.836 56.128C124.77 54.2844 125.596 53.3118 127.181 53.0215C127.541 52.9489 128.034 53.065 128.327 53.2973C128.953 53.7909 128.647 54.386 128.194 54.7634C126.875 55.8957 127.434 57.1297 127.927 58.4071C128.314 59.3797 128.753 60.3523 128.926 61.3685C129.419 64.1992 127.368 66.3912 124.73 65.9412C121.186 65.346 120.053 63.9089 120 59.9023H120.013Z" fill="white"/>
<path d="M139.115 61.073C138.842 57.7329 139.484 55.5427 140.945 53.5852C142.438 51.5866 144.492 51.5045 146.306 53.1882C149.532 56.2135 147.895 63.0852 143.545 64.7552C141.619 65.4944 139.388 64.4952 139.051 62.6198C138.906 61.7985 139.115 60.9224 139.115 61.0593V61.073ZM144.043 54.8719C142.695 55.2963 142.566 56.4188 142.213 57.2949C141.699 58.5953 141.122 60.0053 142.342 61.2783C142.47 61.4152 143.032 61.4152 143.256 61.3057C144.846 60.5117 145.295 59.1018 145.471 57.7192C145.616 56.6241 145.423 55.4879 144.027 54.8856L144.043 54.8719Z" fill="white"/>
<path d="M108 53.577C110.693 54.2848 110.259 56.5354 111.704 57.7952C112.072 56.408 112.427 55.1482 112.755 53.8743C113.018 52.8693 113.346 51.9068 114.213 51.2981C114.699 50.9442 115.198 50.8593 115.697 51.2981C116.091 51.652 116.052 52.1191 115.855 52.4871C114.108 55.9975 114.449 59.9326 113.885 63.6837C113.727 64.6887 113.779 65.8635 112.466 65.9909C111.231 66.1042 110.89 65.1416 110.627 64.08C109.8 60.7253 108.946 57.3706 108 53.5912V53.577Z" fill="white"/>
<path d="M174.013 9.21486C174.013 7.67243 173.977 6.11506 174.025 4.57262C174.049 3.76397 174.313 2.98524 175.082 3.00021C175.766 3.00021 176.271 3.58426 176.331 4.42286C176.523 6.72903 176.607 9.05014 176.787 11.3713C177.015 14.2914 177.183 17.2415 177.796 20.1018C178.012 21.0901 178.3 22.4978 177.219 22.9021C175.862 23.4113 175.598 21.8239 175.334 20.6858C174.433 16.957 174.037 13.1084 174.001 9.21486H174.013Z" fill="white"/>
<path d="M5.58598 59.958C4.23454 59.774 2.38662 59.5618 0.731787 58.5713C0.193967 58.2458 -0.0955999 57.7223 0.0285124 57.1138C0.193995 56.2506 0.911052 55.8261 1.62815 56.0667C3.97249 56.8591 6.37202 57.0855 8.8129 57.0855C9.43346 57.0855 9.97126 57.4392 9.99884 58.0901C10.0264 58.6986 9.55756 59.1514 9.01974 59.4062C8.0958 59.8448 7.13046 60.0854 5.59975 59.9722L5.58598 59.958Z" fill="white"/>
<path d="M135.821 61.4918C135.84 62.0832 135.889 62.6746 135.869 63.266C135.84 64.218 136.386 65.646 135.44 65.9489C134.368 66.3095 134.153 64.6796 134.094 63.6122C133.958 61.2466 134.007 58.8666 134.016 56.501C134.016 55.6932 134.299 54.972 134.875 55.0008C135.45 55.0297 135.694 55.823 135.704 56.5875C135.743 58.2175 135.713 59.8474 135.713 61.4774C135.743 61.4774 135.782 61.4774 135.811 61.4774L135.821 61.4918Z" fill="white"/>
<path d="M167 60.6131C167 60.6131 166.999 61.3433 166.893 62.0734C166.826 62.4677 166.72 62.935 166.16 62.9934C165.52 63.0519 165.014 62.716 164.921 62.1464C164.547 59.8098 164.241 57.4586 164.001 55.1074C163.975 54.8153 164.401 54.348 164.707 54.1436C165.267 53.7931 165.707 54.129 166.053 54.6693C167.053 56.2465 167 58.0574 167 60.6276V60.6131Z" fill="white"/>
<path d="M1 12.051C3.05578 9.77187 5.86618 9.3436 7.60969 11.0108C7.96099 11.3474 8.05207 11.745 7.974 12.2345C7.88292 12.7851 7.51864 13.0146 7.1153 12.9993C5.3848 12.9381 3.6413 12.831 1.9108 12.7087C1.54649 12.6781 1.1041 12.6322 1.01302 12.0356L1 12.051Z" fill="white"/>
<path d="M74 18.7005C71.4191 20.5323 69.0427 19.9404 66.7557 19.784C66.4746 19.7616 66.0657 19.3707 66.0146 19.1027C65.9124 18.5889 66.3596 18.2649 66.9217 18.1979C69.1065 17.9187 71.2786 17.8181 74 18.7005Z" fill="white"/>
<path d="M166.239 48.0413C167.168 48.4469 167.104 49.3032 166.794 49.9792C166.42 50.8055 166.549 52.4731 165.065 51.8722C164.188 51.5116 163.788 50.6253 164.111 49.6187C164.459 48.537 165.169 47.8159 166.239 48.0413Z" fill="white"/>
<path d="M120.884 51C121.398 51.1044 121.9 51.2236 121.99 51.9243C122.08 52.7293 121.527 52.8933 121.051 52.9828C120.511 53.0722 120.073 52.8188 120.009 52.1032C119.931 51.3429 120.382 51.1193 120.897 51H120.884Z" fill="white"/>
</svg>
