<svg width="739" height="130" viewBox="0 0 739 130" fill="none" xmlns="http://www.w3.org/2000/svg">
<path d="M598.076 88.2955C597.535 88.2958 597.389 88.6447 597.193 88.9316C594.948 92.1468 592.703 95.3678 590.447 98.5763C590.317 98.7559 590.059 98.9214 590.204 99.1364C590.655 99.8176 590.139 100.242 589.795 100.637C587.938 102.773 585.439 105.38 583.171 107.031C582.201 107.737 581.027 107.867 579.829 107.731C578.888 107.623 578.555 107.22 578.743 106.315C579.257 103.828 579.979 100.384 580.546 97.9067C580.875 96.4594 580.9 94.9805 581.176 93.5297C581.559 91.516 581.994 89.5233 582.596 87.2299C581.756 88.1097 580.978 88.312 580.084 88.025C579.743 87.9149 579.341 87.8537 579.262 87.4373C579.183 87.0151 579.35 86.5266 579.696 86.3785C581.101 85.7703 581.847 84.4263 583 83.5315C583.936 82.8107 584.849 82.717 585.882 82.9366C586.498 83.0645 586.721 83.449 586.659 84.1206C586.517 85.6917 585.98 87.1667 585.646 88.6902C585.195 90.7407 584.652 92.7676 584.481 94.8714C584.33 96.7474 583.789 98.5512 583.429 100.39C583.218 101.463 582.864 103.498 582.521 104.521C582.937 104.648 583.122 104.519 583.302 104.378C584.735 103.237 586.384 101.133 587.828 100.005C588.486 99.4952 588.816 98.7529 589.293 98.114C591.738 94.8178 593.923 91.3403 596.227 87.9468C596.923 86.9227 597.278 85.7178 597.986 84.5945C596.545 84.566 595.187 84.3606 593.817 84.325C593.059 84.3053 592.283 84.2845 591.604 83.8705C591.422 83.7589 591.195 83.6384 591.23 83.3704C591.273 83.0619 591.501 82.9063 591.79 82.9073C592.819 82.9151 593.848 82.9405 594.881 82.9839C596.003 83.027 597.117 83.1049 598.239 83.1481C599.12 83.1815 599.378 83.0161 599.578 82.189C600.18 79.7194 601.241 74.5949 601.383 72.0368C601.419 71.4694 601.631 71.019 602.034 70.6162C602.921 69.7336 603.792 68.8323 604.668 67.9431C605.373 67.2251 606.161 67.2408 606.813 67.9996C607.103 68.3356 607.38 68.7001 607.584 69.0893C608.076 70.0493 608.312 70.9458 607.312 71.8387C606.769 72.3264 606.457 73.0464 606.203 73.7937C605.89 74.7193 605.25 75.5121 604.607 76.2577C603.594 77.4377 602.587 81.4612 602.248 82.9609C602.083 83.6963 602.135 83.8054 602.912 83.8967C605.097 84.1555 607.295 84.2213 609.49 84.3221C610.16 84.3536 610.834 84.3914 611.502 84.4522C611.806 84.4836 612.131 84.5457 612.405 84.6868C612.627 84.801 612.841 85.0498 612.794 85.3229C611.156 85.7927 612.498 85.7973 612.226 85.8208C611.87 85.8565 611.513 85.8158 611.156 85.7927C608.248 85.6047 605.338 85.44 602.433 85.2052C601.742 85.1487 601.523 85.3519 601.38 86.0124C600.845 88.5451 600.131 91.0309 599.59 93.5631C599.193 95.4349 598.592 97.2642 598.136 99.1264C597.767 100.636 597.561 102.179 597.196 103.736C599.425 101.489 601.713 99.3518 604.077 97.2018C604.453 97.9487 604.103 98.3491 603.842 98.7434C603.398 99.4138 602.932 100.071 602.449 100.715C601.31 102.21 600.222 103.732 599.315 105.383C599.122 105.729 598.865 106.059 598.566 106.315C597.929 106.879 598.506 105.771 598.019 106.468C597.669 106.968 597.219 107.28 596.616 107.411C595.242 107.71 593.4 108.813 593.526 107.411C593.747 104.905 594.467 102.502 594.961 100.049C595.542 97.1669 596.547 94.3826 597.139 91.5012C597.362 90.423 597.759 89.3795 598.089 88.2846L598.076 88.2955ZM605.468 70.1391C603.938 71.3091 603.844 71.5674 604.108 73.6876C605.169 71.9625 605.622 70.7797 605.468 70.1391Z" fill="#DD1E3E"/>
<path d="M588.135 71.7951C588.277 73.4591 587.894 73.9671 585.246 73.4615C584.879 73.3924 584.522 73.273 584.164 73.1648C583.484 72.9678 583.204 72.6437 583.499 72.0677C583.679 71.7166 583.775 71.3375 583.913 70.9667C584.095 70.4854 584.086 69.8388 584.802 69.7094C585.685 69.5455 586.64 69.5902 587.48 69.9732C587.911 70.1654 588.249 70.465 588.184 70.9198C588.143 71.2176 588.145 71.518 588.128 71.7889L588.135 71.7951Z" fill="#DD1E3E"/>
<path d="M495.237 95.8821C494.075 96.7489 493.496 98.0046 492.429 98.7737C490.492 100.174 489.199 102.134 487.722 103.944C486.805 105.074 485.769 106.103 484.872 107.251C483.918 108.471 482.545 109.119 481.018 109.522C479.132 110.015 477.897 109.29 476.812 107.471C475.908 105.961 475.896 104.227 476.059 102.502C476.095 102.106 476.431 101.538 475.943 101.332C475.429 101.114 475.242 101.749 475.011 102.079C474.554 102.726 474.044 103.286 473.343 103.696C472.744 104.047 472.278 104.567 471.929 105.149C471.494 105.872 470.893 106.44 470.339 107.051C469.142 108.378 467.601 108.437 465.989 108.185C465.258 108.073 465.091 107.516 465.122 106.871C465.178 105.608 465.235 104.344 465.297 103.081C465.32 102.615 465.406 102.141 465.225 101.527C464.011 102.376 463.424 103.555 462.698 104.597C461.879 105.775 460.887 106.772 459.771 107.638C458.807 108.386 456.107 108.547 455.258 107.768C454.251 106.847 453.566 105.65 453.65 104.176C453.682 103.57 453.985 102.957 453.652 102.18C452.617 103.248 451.652 104.245 450.693 105.247C449.709 106.276 448.659 107.211 447.41 107.933C446.932 108.211 446.432 108.349 445.892 108.438C443.732 108.81 442.469 107.677 441.818 105.932C441.064 103.908 441.128 101.822 441.419 99.7436C441.519 99.0274 441.613 98.305 441.752 97.588C441.88 96.9094 442.257 96.1808 440.941 96.1585C440.224 96.1486 440.119 95.4432 440.668 94.9021C440.978 94.5894 441.28 94.2641 441.643 94.0203C442.838 93.2165 443.217 91.9779 443.531 90.696C443.887 89.2348 444.164 87.7497 444.604 86.3121C444.983 85.0607 445.583 83.881 446.301 82.7753C446.6 82.3098 447.039 82.0133 447.597 81.8737C449.561 81.372 451.525 81.5077 453.415 82.1041C454.721 82.5155 455.946 83.9806 455.893 85.3971C455.849 86.6412 455.051 87.296 454.229 87.792C452.682 88.731 451.195 89.7515 449.681 90.7343C448.567 91.4535 447.58 92.3292 446.519 93.1109C446.011 93.4853 445.883 94.1001 445.753 94.6512C445.304 96.5353 444.79 98.4144 444.574 100.344C444.368 102.159 444.716 103.93 445.25 105.646C445.521 106.508 445.825 106.546 446.516 105.982C447.124 105.491 447.713 104.974 448.269 104.427C450.158 102.588 451.974 100.681 454.167 99.1729C454.517 98.9358 454.593 98.5516 454.687 98.1607C455.132 96.3724 455.454 94.5549 456.016 92.7895C456.516 91.2039 457.096 89.6677 458.164 88.3567C459.05 87.26 459.772 86.0649 460.769 85.0296C461.999 83.7469 463.457 83.1414 465.148 82.8942C466.074 82.7593 467 82.5862 467.937 82.6487C468.705 82.7021 469.149 82.3418 469.321 81.6368C469.848 79.4642 470.719 77.3924 471.33 75.2371C472.001 72.8637 472.322 70.4023 473.317 68.1048C473.728 67.1459 473.813 66.0284 473.926 64.9741C474.001 64.2839 474.3 64.0607 474.944 64.0148C477.54 63.8308 478.385 64.7177 477.879 67.2468C477.681 68.2457 477.36 69.2153 477.072 70.1906C476.067 73.5338 474.978 76.8598 474.071 80.2265C472.321 86.6907 470.378 93.1335 470.002 99.8866C469.946 100.876 469.613 101.859 469.818 102.97C470.483 102.738 470.907 102.334 471.272 101.905C471.863 101.204 472.662 100.874 473.46 100.493C475.082 99.7122 476.232 98.6098 476.85 96.7795C477.826 93.9022 477.98 90.858 478.982 88.0056C479.45 86.6821 479.807 85.3228 480.444 84.0531C480.976 82.9833 481.751 82.4373 482.942 82.3093C484.995 82.0861 486.942 82.337 488.802 83.2783C489.447 83.6021 489.637 84.0188 489.51 84.6846C489.393 85.2736 489.127 85.7894 488.809 86.2808C486.799 89.3846 484.704 92.4137 482.136 95.1025C481.291 95.9879 480.72 97.0076 480.795 98.3703C480.858 99.51 480.677 100.661 480.353 101.81C479.964 103.17 480.131 104.613 480.412 106.003C480.564 106.752 481.142 106.918 481.704 106.351C484.071 103.954 486.848 101.993 489.228 99.6148C490.396 98.4482 491.459 97.1692 492.528 95.9091C493.352 94.9413 494.202 93.9984 495.218 93.2304C495.796 92.7971 496.127 92.3309 496.234 91.5763C496.563 89.2231 497.028 86.8924 497.41 84.5445C497.518 83.8728 497.854 83.0176 496.602 83.0193C496.131 82.1243 495.304 82.3782 494.53 82.3695C493.646 82.3633 492.761 82.2933 491.876 82.2551C491.263 82.2303 490.761 81.9989 490.363 81.5167C490.838 80.8115 491.508 80.7841 492.198 80.7691C493.823 80.721 495.441 80.6412 497.066 80.6249C497.892 80.6197 498.239 80.2743 498.474 79.485C499.199 76.9638 499.75 74.4018 500.586 71.9101C501.21 70.0477 502.317 68.4362 503.241 66.7331C503.427 66.3912 503.744 66.142 504.182 66.107C505.264 66.0261 506.334 65.9709 507.421 66.113C509.738 66.426 510.57 68.4925 509.528 70.4405C507.891 73.4915 505.966 76.3257 503.471 78.7579C502.959 79.2599 502.952 79.2537 502.798 80.1496C503.179 80.46 503.64 80.3352 504.032 80.2566C506.383 79.7719 508.807 79.7128 511.129 79.0757C512.052 78.8198 512.994 79.0925 513.901 79.2831C514.595 79.4274 514.645 79.9427 514.088 80.4457C513.664 80.8247 513.144 80.9571 512.604 81.0263C511.825 81.1261 511.041 81.2579 510.254 81.2687C507.888 81.3202 505.57 81.8424 503.219 82.0274C502.543 82.0804 502.292 82.3855 502.176 83C501.517 86.527 500.833 90.0482 500.148 93.563C499.492 96.937 498.804 100.305 498.168 103.685C497.514 107.123 496.457 110.448 495.362 113.768C495.029 114.776 494.826 115.832 494.623 116.876C494.374 118.169 493.723 119.088 492.443 119.563C490.357 120.341 488.505 121.516 486.833 122.974C485.839 123.837 484.595 123.903 483.355 123.834C482.897 123.812 482.772 123.413 483.01 123.089C483.323 122.668 483.728 122.289 484.147 121.962C485.675 120.743 487.27 119.611 489.005 118.7C489.662 118.354 490.018 117.843 490.203 117.138C490.852 114.656 491.54 112.187 492.293 109.729C493.1 107.091 493.654 104.37 494.299 101.685C494.659 100.172 495.001 98.6603 495.309 97.1364C495.386 96.7777 495.584 96.3973 495.256 95.8625L495.237 95.8821ZM457.441 104.03C457.458 104.214 457.435 104.38 457.496 104.5C457.658 104.835 457.637 105.345 458.078 105.431C458.441 105.506 458.658 105.138 458.866 104.872C459.374 104.223 459.869 103.562 460.391 102.926C461.748 101.265 463.283 99.765 464.898 98.3529C465.657 97.6861 466.112 96.9431 466.218 95.8761C466.485 93.3267 467.095 90.8335 467.784 88.3641C468.071 87.3378 468.268 86.2944 468.47 85.2445C468.557 84.7963 468.525 84.2169 467.896 84.339C466.906 84.5262 465.856 84.5937 465.041 85.3574C462.385 87.8441 460.579 90.8223 459.519 94.2815C458.904 96.2839 458.568 98.3312 458.168 100.367C457.93 101.603 457.582 102.815 457.434 104.03L457.441 104.03ZM447.059 89.4526C447.158 89.5397 447.263 89.6331 447.362 89.7202C449.04 88.5744 450.725 87.4348 452.396 86.2764C452.733 86.0396 452.848 85.6737 452.864 85.2526C452.902 84.2955 452.237 83.392 451.23 83.0951C450.269 82.81 449.63 83.0853 449.019 84.0421C447.952 85.7101 447.704 87.6472 447.059 89.4526ZM482.231 90.8483C482.522 90.8866 482.727 90.8184 482.814 90.6507C483.793 88.8189 484.949 87.0916 486.059 85.3398C486.384 84.8291 486.515 84.3545 485.837 84.0186C485.27 83.7377 484.647 83.8915 484.363 84.4587C483.924 85.3225 483.484 86.1927 483.182 87.1046C482.77 88.3248 482.299 89.5399 482.231 90.8419L482.231 90.8483Z" fill="#DD1E3E"/>
<path d="M512.839 106.185C513.865 105.401 514.841 104.702 515.752 103.933C517.699 102.291 519.674 100.706 522.226 100.106C522.837 99.9649 523.07 99.5055 523.186 98.9463C523.555 97.0825 523.976 95.2367 524.287 93.3614C524.462 92.2953 524.74 91.2654 525.05 90.2475C525.606 88.4245 525.988 86.5732 526.241 84.6863C526.505 82.6904 526.966 82.4116 528.968 83.0207C529.2 83.0925 529.438 83.1449 529.67 83.223C530.392 83.4569 530.658 83.931 530.47 84.6838C530.24 85.6103 530.05 86.5487 529.793 87.6998C530.825 87.1846 531.49 86.5686 532.175 86.0034C533.45 84.9453 534.832 84.0642 536.266 83.2266C537.953 82.2428 539.7 82.2752 541.502 82.46C542.246 82.5334 542.78 82.9825 543.019 83.6684C543.456 84.9259 543.598 86.1707 543.244 87.5222C542.606 89.9742 541.691 92.3426 541.041 94.7885C540.207 97.9295 539.393 101.076 539.208 104.344C539.21 104.427 539.282 104.509 539.322 104.591C539.683 104.711 539.843 104.42 540.063 104.242C541.71 102.875 543.369 101.521 544.917 100.041C545.092 99.8709 545.253 99.5923 545.45 99.5624C546.878 99.3265 547.509 98.0137 548.581 97.3057C549.073 96.9814 549.247 96.4657 549.335 95.8175C549.792 92.6847 549.703 89.4678 550.506 86.3979C551.428 82.9031 551.316 83.3279 554.428 82.889C555.64 82.7154 556.854 82.6442 558.075 82.6176C558.676 82.6045 559.242 82.7202 559.796 82.9193C560.996 83.3475 561.079 83.6593 560.6 84.8664C559.945 86.5252 558.932 87.8783 557.68 89.1662C555.991 90.9052 554.523 92.8569 552.978 94.7271C552.66 95.1116 552.593 95.593 552.508 96.0812C552.212 97.777 552.339 99.4828 552.35 101.178C552.361 102.548 552.39 103.91 552.459 105.278C552.492 105.93 552.77 106.045 553.286 105.663C553.676 105.373 554.027 105.026 554.378 104.686C557.266 101.859 560.363 99.2506 563.074 96.248C563.699 95.5496 564.461 95.0019 565.39 94.7897C565.734 94.7119 566.21 94.5351 566.437 94.9781C566.631 95.3578 566.233 95.5713 566.014 95.8192C563.661 98.5389 561.282 101.234 558.643 103.691C557.326 104.916 556.12 106.241 554.534 107.146C553.339 107.825 552.07 108.019 550.733 107.997C550.061 107.986 549.651 107.675 549.42 107.046C549.243 106.583 549.175 106.105 549.139 105.619C548.994 103.626 549.11 101.626 549.194 99.6153C548.628 99.4548 548.312 99.9416 548.139 100.208C546.858 102.2 544.924 103.586 543.447 105.391C542.294 106.798 540.826 107.848 539.47 109.023C538.39 109.955 537.121 109.848 535.855 109.6C535.212 109.474 534.908 109.007 534.899 108.316C534.878 105.872 534.716 103.418 535.099 101.004C535.329 99.5267 535.893 98.1002 536.174 96.6158C536.622 94.264 537.643 92.0852 538.31 89.8054C538.702 88.4594 539.095 87.0942 539.141 85.6726C539.15 85.4868 539.171 85.2816 538.866 85.0834C537.447 85.7606 536.158 86.7614 534.881 87.7874C533.083 89.2408 531.819 91.1305 530.426 92.9462C528.541 95.4061 527.944 98.2668 527.084 101.095C526.416 103.291 525.971 105.522 525.579 107.77C525.517 108.136 525.338 108.46 525.021 108.582C523.942 108.996 522.804 109.008 521.74 108.621C521.076 108.38 521.169 107.68 521.316 107.082C521.669 105.666 522.022 104.251 522.388 102.842C522.465 102.552 522.568 102.281 522.297 101.896C521.474 102.567 520.611 103.181 519.852 103.908C518.329 105.342 516.779 106.733 515.157 108.061C513.498 109.415 511.618 110.064 509.479 109.97C508.192 109.915 507.82 109.558 507.824 108.278C507.829 107.35 507.86 106.415 508.019 105.503C508.646 101.95 509.304 98.4101 510.329 94.945C510.789 93.4056 511.171 91.8486 511.578 90.2976C511.637 90.0659 511.702 89.8213 511.55 89.5879C511.066 89.3808 510.812 89.7895 510.594 90.0502C509.715 91.106 508.543 91.0419 507.371 90.9779C506.916 90.9494 506.496 90.7729 506.357 90.2832C506.233 89.8444 506.521 89.5629 506.816 89.2878C508.333 87.8597 509.764 86.3119 511.4 85.0285C512.135 84.4493 513.015 83.9886 513.776 83.3898C514.423 82.8701 516.778 83.4588 517.427 83.8926C517.823 84.1528 517.718 84.6094 517.585 84.9643C516.755 87.1069 516.401 89.3735 515.764 91.5695C514.616 95.5364 513.384 99.4924 513.059 103.653C512.999 104.447 512.607 105.217 512.832 106.179L512.839 106.185ZM552.825 92.1195C553.477 91.5358 553.825 91.0291 554.185 90.5221C554.632 89.8853 555.045 89.198 555.61 88.6865C556.356 88.0112 556.812 87.1694 557.26 86.3213C558.36 84.224 558.194 83.9781 555.855 84.0738C554.538 84.128 554.502 84.2056 553.966 85.4459C553.411 86.7186 553.383 88.0887 553.13 89.406C552.975 90.1965 552.627 90.9784 552.831 92.113L552.825 92.1195Z" fill="#DD1E3E"/>
<path d="M444.599 82.7826C444.226 83.4561 443.641 83.4495 443.05 83.4882C441.507 83.5863 439.914 83.4401 438.459 84.0532C436.481 84.8844 434.835 86.1346 434.306 88.4071C433.684 91.0821 433.075 93.7568 432.951 96.5307C432.887 97.9921 432.569 99.4589 432.187 100.875C431.587 103.117 431.268 105.398 431.025 107.69C430.899 108.875 430.75 109.053 429.619 109.077C427.197 109.13 426.638 108.839 426.988 106.215C427.19 104.699 427.603 103.243 428.125 101.804C428.863 99.7592 429.064 97.5973 429.271 95.4352C429.498 93.0271 429.643 90.6338 429.438 88.2159C429.337 87.0747 428.996 86.0033 428.819 84.8896C428.76 84.5162 428.576 84.2618 428.211 84.1406C427.981 84.0616 427.75 83.9762 427.538 83.8645C426.965 83.5669 426.896 83.0258 426.973 82.4686C427.061 81.84 427.543 81.7714 428.064 81.7472C428.927 81.7025 429.753 82.2337 430.643 81.9171C430.901 81.8275 431.091 82.056 431.128 82.3329C431.204 82.8997 431.651 83.2647 431.872 83.7573C432.199 84.5059 432.32 84.4775 433.014 83.9585C433.521 83.5793 433.891 83.0609 434.476 82.7575C435.752 82.0902 437.118 81.7633 438.523 81.7198C439.927 81.6763 441.334 81.7684 442.735 81.8736C443.404 81.9236 444.082 82.0962 444.599 82.7891L444.599 82.7826Z" fill="#DD1E3E"/>
<path d="M518.863 73.6036C518.65 73.6082 518.431 73.6302 518.218 73.6176C516.457 73.4949 515.443 73.1719 516.201 71.522C516.276 71.3594 516.307 71.1804 516.325 71.0075C516.388 70.316 516.379 69.5973 517.17 69.12C518.206 68.4935 519.376 68.2035 520.654 68.285C521.811 68.3576 522.124 68.7131 521.875 69.6444C521.613 70.6221 521.272 71.59 520.967 72.5628C520.755 73.2307 520.219 73.5798 519.359 73.61C519.196 73.6136 519.033 73.6171 518.877 73.6205L518.877 73.609L518.863 73.6036Z" fill="#DD1E3E"/>
<path d="M501.844 93.5608C502.387 93.1195 502.937 93.0093 503.551 93.0328C503.827 93.0431 504.082 93.1398 504.117 93.36C504.158 93.5963 503.901 93.6756 503.632 93.7346C503.04 93.8702 502.503 93.7632 501.844 93.5608Z" fill="#DD1E3E"/>
<path d="M413.795 97.4342C414.118 97.8102 413.7 98.0668 413.416 98.228C410.292 100.031 408.107 102.555 405.086 104.418C403.098 105.647 400.945 106.727 398.807 107.802C397.837 108.291 396.559 107.993 395.723 107.372C393.933 106.053 393.712 104.424 394.098 102.705C394.43 101.224 394.351 99.7082 394.95 98.2519C395.171 97.7087 394.737 97.476 394.019 97.7266C392.387 98.2996 390.856 99.0039 389.46 99.8813C388.679 100.371 387.796 100.86 386.723 99.9649C385.595 101.767 384.546 103.445 383.497 105.116C382.826 106.178 382.132 107.241 381.462 108.303C381.107 108.858 380.602 109.228 379.758 108.924C379.245 108.739 378.985 108.834 378.528 109.061C377.778 109.431 377.258 109.145 377.376 108.44C377.51 107.629 377.502 106.924 376.981 106.137C376.65 105.635 376.91 104.883 377.029 104.256C377.4 102.233 377.928 100.222 378.188 98.1862C378.48 95.9241 379.198 93.7037 379.222 91.4237C379.222 90.6299 379.577 89.9077 379.821 89.1616C379.955 88.7497 380.373 88.3439 379.971 87.9022C379.45 87.8604 379.364 88.129 379.214 88.3797C376.114 93.5486 372.825 98.6399 369.472 103.719C368.597 105.038 367.666 106.339 366.767 107.647C366.656 107.808 366.561 107.963 366.325 108.052C365.031 108.536 363.012 107.79 362.57 106.715C362.152 105.695 362.089 104.644 362.121 103.606C362.215 99.9589 361.908 96.33 361.537 92.701C361.284 90.224 361.994 87.8126 362.562 85.3953C362.704 84.7925 363.383 84.5239 363.895 84.1538C364.519 83.7122 364.858 82.9661 366.009 83.0914C367.579 83.2705 369.275 83.1571 370.576 84.3329C368.013 84.9298 367.153 86.2966 366.806 88.1648C366.467 90.0032 366.538 91.8893 365.883 93.6978C365.852 93.7813 365.852 93.8828 365.875 93.9664C366.491 96.3121 366.065 98.6816 366.238 101.039C366.278 101.63 366.285 102.221 366.262 102.812C366.238 103.349 366.262 103.868 366.735 104.429C367.689 103.767 368.037 102.925 368.541 102.191C370.821 98.8965 373.006 95.56 375.207 92.2354C377.076 89.3943 378.741 86.4697 380.91 83.742C381.146 83.4436 381.178 82.9601 381.809 83.0138C382.432 83.0675 382.251 83.5928 382.487 83.8852C382.842 84.309 382.748 84.7268 382.527 85.1864C382.101 86.0877 382.014 87.0486 381.769 87.9857C381.146 90.3971 381.099 92.8562 380.444 95.2616C380.05 96.7239 380.223 98.2519 379.805 99.7321C379.553 100.621 379.435 101.529 379.19 102.418C378.733 104.042 379.411 105.641 379.151 107.277C379.924 107.294 380.074 106.912 380.279 106.608C381.833 104.304 383.213 101.935 384.688 99.6068C385.698 98.0131 386.873 96.4672 388.143 94.981C389.263 93.6739 389.957 92.2235 390.833 90.8328C391.424 89.8957 391.937 88.9109 392.3 87.9081C392.757 86.6487 393.83 85.3297 391.748 84.1001C393.688 84.1479 394.359 84.5478 394.501 85.6162C394.643 86.6249 394.43 87.6157 393.948 88.5587C393.065 90.2956 392.237 92.0504 391.211 93.7396C390.415 95.0527 389.35 96.2762 388.403 97.5356C388.253 97.7326 388.048 97.9117 387.946 98.1206C387.796 98.4369 387.259 98.7771 387.764 99.0935C388.182 99.3501 388.529 98.9562 388.829 98.7891C390.849 97.6669 393.065 96.7538 394.895 95.4227C395.692 94.8438 396.11 94.2171 396.26 93.4232C396.599 91.6266 396.954 89.8301 397.514 88.0574C398.003 86.5413 399.17 85.3297 400.424 84.1897C401.324 83.3719 402.775 83.6226 404.013 83.6942C405.536 83.7778 406.735 84.2971 407.382 85.4431C407.855 86.2787 408.47 87.0546 408.612 87.9798C408.707 88.5707 408.612 89.0243 407.918 89.4063C405.591 90.6836 403.864 92.4802 401.332 93.6082C400.211 94.1096 399.446 94.9333 399.139 96.0972C398.563 98.2758 398.137 100.472 397.632 102.657C397.435 103.51 397.451 104.382 397.545 105.247C397.624 105.975 397.956 106.101 398.823 105.689C399.888 105.182 401.016 104.71 401.915 104.065C403.225 103.128 404.692 102.346 405.978 101.379C408.107 99.7739 410.695 98.604 413.274 97.4521C413.424 97.3864 413.589 97.3208 413.779 97.4282L413.795 97.4342ZM400.495 91.3222C400.748 91.2864 400.969 91.3043 401.071 91.2267C402.183 90.4747 403.272 89.7107 404.368 88.9467C404.637 88.7617 404.842 88.5528 404.857 88.2543C404.913 87.1859 404.439 86.2966 403.406 85.4252C401.805 87.3113 400.535 89.1079 400.495 91.3163V91.3222Z" fill="#DD1E3E"/>
<path d="M339.895 97.5046C339.922 98.2826 340.118 99.1103 339.937 99.832C339.671 100.867 338.539 100.111 337.895 100.563C337.081 101.132 336.036 101.041 335.109 101.105C332.611 101.28 332.101 100.797 331.848 98.3102C331.776 97.6371 331.556 97.0168 331.43 96.3695C331.236 95.3668 331.53 94.9193 332.548 94.7089C334.443 94.3248 336.371 94.2495 338.292 94.405C339.759 94.5287 339.762 94.608 339.876 96.0507C339.917 96.5341 339.91 97.0192 339.927 97.5035C339.919 97.5037 339.903 97.5043 339.895 97.5046Z" fill="#DD1E3E"/>
<path d="M306.399 99.0084C306.434 98.2044 306.698 96.8837 306.517 95.5547C306.44 94.9533 306.813 94.7098 307.29 94.4864C309.403 93.5224 311.799 94.329 312.793 96.3688C312.87 96.5251 312.908 96.7224 312.89 96.89C312.756 98.2698 312.661 99.664 312.439 101.031C312.274 102.014 311.908 102.226 310.907 102.014C310.019 101.831 309.131 101.687 308.231 101.615C306.708 101.493 306.441 101.129 306.407 99.0081L306.399 99.0084Z" fill="#DD1E3E"/>
<path d="M319.436 98.6246C319.404 97.7276 319.361 97.1806 319.366 96.6399C319.387 95.3993 319.577 95.1542 320.865 95.1728C322.193 95.19 323.524 95.2866 324.841 95.4632C325.991 95.6138 326.258 95.978 326.338 97.1277C326.371 97.6114 326.348 98.0971 326.349 98.5819C326.357 100.847 325.766 101.456 323.441 101.577C323.259 101.583 323.076 101.589 322.893 101.588C319.665 101.55 319.55 101.442 319.428 98.6408L319.436 98.6246Z" fill="#DD1E3E"/>
<path d="M168.521 86.9166C169.62 86.1057 170.175 85.146 170.884 84.3494C171.988 83.1093 173.315 82.1214 174.662 81.2111C177.598 79.227 181.408 80.7404 182.385 84.1678C182.474 84.4845 182.49 84.9054 182.855 84.9568C183.256 85.0063 183.558 84.7252 183.702 84.317C183.984 83.5153 184.733 83.0595 185.203 82.3975C185.768 81.6088 186.526 81.3313 187.474 81.3292C188.884 81.3161 189.081 81.3339 189.509 82.6756C189.753 83.4271 190.14 83.4987 190.721 83.2667C191.535 82.9431 192.325 82.571 193.114 82.1916C195.694 80.9562 198.403 80.7431 200.878 82.0724C202.235 82.7985 203.165 82.876 204.39 82.1225C204.824 81.8557 205.466 81.9491 205.993 81.7986C207.111 81.4798 208.437 81.6357 209.205 80.4784C211.059 80.1192 212.9 79.9109 214.698 80.7628C215.79 81.2818 216.619 82.0225 217.022 83.1584C217.929 85.7104 218.375 88.2949 217.56 90.9773C217.13 92.3804 216.767 93.7943 216.368 95.2386C217.877 94.9127 219.041 93.5693 219.529 92.1843C220.487 89.4798 221.334 86.717 223.301 84.4574C225.69 81.7172 228.666 80.4529 232.3 80.6106C232.96 80.6387 233.625 80.6308 234.28 80.5662C234.971 80.5068 235.584 80.7447 236.209 80.9248C236.533 81.0142 236.793 81.2716 236.798 81.6287C236.8 81.9288 236.539 82.1933 236.302 82.2206C235.165 82.3331 234.286 83.182 233.046 83.1429C230.321 83.0567 228.218 84.4089 227.08 86.7444C226.124 88.7055 225.029 90.6384 224.505 92.8187C223.974 95.0066 223.835 97.2158 223.682 99.4401C223.618 100.373 224.007 101.138 224.46 101.878C224.969 102.707 225.41 102.833 226.233 102.273C227.181 101.628 228.067 100.886 228.937 100.138C230.878 98.4586 233.086 97.2937 235.584 96.6704C235.955 96.5785 236.342 96.5072 236.719 96.5223C237.197 96.5389 237.515 97.4435 238.124 96.8096C238.822 96.0779 239.995 95.7061 240.126 94.5338C240.267 93.2823 240.917 92.0814 240.843 90.8632C240.735 89.0179 241.871 87.7046 242.444 86.1648C242.804 85.2015 243.266 84.2683 243.736 83.3419C244.944 80.9596 246.583 79.0611 249.424 78.6119C251.59 78.2642 253.557 79.0425 255.469 79.8595C256.432 80.2712 256.492 80.8398 255.881 81.7025C255.404 82.3649 254.851 82.9742 254.328 83.6034C253.161 85.0113 251.207 85.6619 250.463 87.5184C250.438 87.3197 250.413 87.128 250.387 86.9293C247.692 87.7779 246.142 89.2068 245.721 91.2814C246.459 91.6698 246.864 90.7612 247.599 90.828C247.822 91.4591 247.398 91.9184 247.076 92.365C246.658 92.9383 246.252 93.5825 245.688 93.9709C244.635 94.7006 244.417 95.7276 244.412 96.8287C244.405 98.0085 244.269 99.224 244.98 100.314C245.351 100.88 245.674 101.091 246.277 100.615C247.393 99.7314 248.571 98.9161 249.672 98.0193C251.798 96.2871 254.034 94.7061 256.341 93.2355C257.494 92.5002 258.324 91.6755 258.785 90.3135C259.432 88.3981 260.823 86.8563 262.083 85.2931C263.688 83.2893 265.383 81.352 267.033 79.3886C268.419 77.7399 271.018 77.6471 272.536 79.1935C272.934 79.6005 273.162 80.0597 273.251 80.6267C273.362 81.3211 273.487 82.029 273.726 82.6878C274.393 84.5596 274.737 86.4707 274.73 88.4511C274.726 88.7658 274.657 89.0984 274.89 89.393C275.379 89.5877 275.58 89.1692 275.812 88.9135C276.801 87.8155 277.767 86.7117 278.642 85.5128C280.243 83.3162 281.957 81.192 283.618 79.0349C283.882 78.6917 284.159 78.3334 284.325 77.9382C284.85 76.6942 285.798 76.2991 287.098 76.3849C287.961 76.4375 288.649 76.7071 288.862 77.5603C289.453 79.8724 291.021 81.8162 291.257 84.2765C291.378 85.5493 292.251 86.6951 292.2 88.1346C293.447 87.916 293.499 86.362 294.753 86.1359C294.832 87.1823 294.16 87.8554 293.659 88.4833C292.799 89.5599 292.762 90.5984 293.134 91.8289C293.989 94.6196 294.197 97.4817 293.872 100.387C293.783 101.15 293.43 101.698 292.695 102.017C291.889 102.369 291.093 102.756 290.32 103.17C288.599 104.101 286.802 103.921 285.008 103.54C284.137 103.36 283.539 102.735 283.326 101.896C282.688 99.3649 283.41 97.1022 286.207 95.862C287.492 95.291 288.148 94.3258 288.89 93.3344C289.146 92.9843 289.023 92.5908 288.945 92.2305C288.14 88.5078 287.456 84.7569 286.18 81.153C286.129 81.0057 286.098 80.8358 285.696 80.7721C285.255 80.8965 284.919 81.3724 284.532 81.8297C282.719 84.0022 280.907 86.1746 279.049 88.3067C278.15 89.3354 277.192 90.3244 276.163 91.2244C275.218 92.0555 274.818 92.9424 274.975 94.2275C275.199 96.0594 275.186 97.9257 275.337 99.7687C275.438 101.071 274.974 101.983 273.952 102.868C272.716 103.937 271.412 104.566 269.798 104.562C268.047 104.551 266.348 105.245 264.553 104.822C263.394 104.549 262.364 104.098 261.503 103.302C260.779 102.641 260.788 102.284 261.455 101.518C262.122 100.745 262.925 100.079 263.97 100.15C264.98 100.223 265.573 99.6833 266.037 99.0502C266.784 98.0299 267.676 97.1517 268.577 96.2874C269.656 95.2488 270.236 94.0947 270.085 92.5233C269.826 89.9285 270 87.3028 269.54 84.7119C269.445 84.181 269.436 83.6168 268.82 83.0646C267.504 84.402 266.174 85.7403 264.86 87.0992C264.476 87.4919 264.169 87.9591 263.769 88.3242C263.253 88.8029 262.89 89.1802 263.346 89.9771C263.667 90.5457 263.142 91.1392 262.647 91.4738C259.591 93.5287 257.023 96.1645 254.168 98.4586C253.572 98.9416 252.977 99.4389 252.481 100.017C251.155 101.562 249.418 102.601 247.611 103.293C245.315 104.177 242.923 103.837 240.893 102.297C240.183 101.757 239.84 100.925 239.79 100.006C239.752 99.3149 239.497 99.0287 238.729 99.3997C238.017 99.739 237.235 99.7319 236.498 99.3436C235.648 98.897 234.945 99.1358 234.256 99.7598C233.168 100.756 232.033 101.705 230.892 102.654C228.387 104.736 225.528 105.386 222.395 104.457C220.446 103.878 218.972 102.73 218.63 100.575C218.529 99.9305 218.391 99.5164 217.584 99.9895C216.94 100.368 217.14 99.4135 216.744 99.3137C215.954 100.873 215.949 100.909 214.142 100.536C213.534 100.412 213.195 100.695 212.813 100.988C211.723 101.813 210.685 102.67 209.471 103.359C206.959 104.776 204.266 105.282 201.447 105.322C198.598 105.364 197.071 103.897 196.789 101.139C196.382 97.1515 197.157 93.3562 198.515 89.629C199.226 87.6815 199.989 85.7668 201.483 84.1264C199.707 83.1375 198.044 82.6285 196.254 83.8919C195.773 84.2328 195.18 84.4942 194.601 84.626C192.893 85.0129 192.233 86.3072 191.776 87.7333C190.201 92.6447 188.663 97.5613 187.132 102.485C186.861 103.364 186.622 104.264 186.505 105.178C186.399 106.006 185.855 106.25 185.2 106.436C185.043 106.481 184.869 106.476 184.711 106.492C182.356 106.7 181.996 106.326 182.393 104.074C183.317 98.8915 184.277 93.7136 185.404 88.5623C185.82 86.6524 185.798 86.6393 183.829 86.4973C182.66 86.4115 182.733 86.4289 182.48 87.6222C182.227 88.8084 182.481 90.0096 182.177 91.1914C181.594 93.4822 180.612 95.6233 179.345 97.5872C177.752 100.055 176.166 102.537 174.031 104.634C172.947 105.701 171.895 106.445 170.28 106.162C169.477 106.021 168.619 106.218 167.809 106.091C167.006 105.963 166.242 105.619 165.359 105.346C164.624 106.587 164.453 108.084 163.764 109.372C162.557 111.626 162.378 114.159 161.925 116.593C161.226 120.334 160.146 123.982 159.469 127.721C159.263 128.841 158.621 129.269 157.486 129.296C155.571 129.337 154.6 128.125 155.24 126.074C156.365 122.445 156.909 118.663 158.269 115.1C159.091 112.946 159.262 110.649 159.733 108.422C160.84 103.164 161.758 97.8743 162.976 92.6466C163.203 91.6548 163.519 90.6868 163.845 89.5109C163.112 89.737 162.925 90.1476 162.687 90.5467C161.353 92.7358 159.966 94.892 158.669 97.1005C157.201 99.6043 155.138 101.691 153.669 104.194C153.18 105.036 152.34 105.161 150.738 104.834C151.475 103.364 152.205 101.916 153.283 100.727C154.62 99.2529 155.656 97.5662 156.583 95.857C157.653 93.8825 158.838 91.9947 160.127 90.1869C161.565 88.178 162.593 85.9485 163.935 83.8948C164.555 82.9458 165.063 81.9172 165.654 80.9483C166.318 79.8611 167.757 79.3317 168.94 79.6598C169.499 79.815 169.55 80.2339 169.532 80.6852C169.488 81.9957 169.255 83.2809 168.897 84.5371C168.69 85.2561 168.505 85.9668 168.488 86.9613L168.521 86.9166ZM211.982 82.2987C211.405 83.5241 210.44 83.5915 209.432 83.5539C208.931 83.5314 208.452 83.6292 207.967 83.763C206.285 84.2271 205.32 85.481 204.565 86.8878C203.895 88.1326 203.479 89.5064 202.786 90.731C200.836 94.212 201.187 97.9669 201.363 101.696C201.419 102.85 201.833 102.999 202.879 102.427C204.796 101.371 206.616 100.12 208.607 99.2176C210.025 98.5678 210.698 97.5158 211.148 96.2188C212.155 93.34 212.889 90.3833 213.295 87.366C213.533 85.6303 213.259 83.9369 211.983 82.313L211.982 82.2987ZM178.855 87.3425C178.734 85.6764 178.867 84.404 178.132 83.2792C177.895 82.9134 177.681 82.7107 177.211 82.9796C174.212 84.7526 171.82 87.1714 170.235 90.1963C168.749 93.0299 167.494 96.0081 166.534 99.0773C166.251 99.9863 165.666 100.926 167.065 101.5C167.376 101.626 167.335 102.064 167.375 102.391C167.546 103.675 168.695 103.898 169.62 104.29C170.443 104.638 170.812 103.86 171.2 103.403C173.504 100.696 175.716 97.908 177.135 94.6278C178.194 92.175 179.281 89.6993 178.862 87.3421L178.855 87.3425ZM289.74 97.4906C289.715 97.0203 289.708 96.6347 289.673 96.2578C289.654 96.0586 289.691 95.8064 289.411 95.7146C289.168 95.635 288.971 95.7387 288.836 95.9106C288.039 96.9408 287.211 97.9441 286.475 99.021C286.012 99.6969 286.349 101.337 286.913 101.742C287.433 102.106 288.763 101.569 289.297 100.746C289.437 100.531 289.516 100.248 289.545 99.9889C289.642 99.1258 289.863 98.2773 289.733 97.491L289.74 97.4906ZM270.365 98.5551C269.577 98.6913 269.316 99.4776 268.68 99.7556C267.713 100.18 267.133 101.092 266.321 101.715C266.008 101.954 265.936 102.208 266.099 102.549C266.271 102.912 266.605 102.936 266.935 102.875C267.25 102.815 267.569 102.712 267.859 102.574C269.473 101.799 270.719 100.773 270.365 98.548L270.365 98.5551ZM248.974 83.3257C249.815 82.8363 250.459 82.1862 251.04 81.0321C249.799 81.6149 249.367 82.4535 248.974 83.3257ZM218.549 98.4569C218.53 98.1005 218.428 97.8345 218.077 97.8896C217.69 97.9537 217.592 98.2807 217.596 98.6236C217.597 98.9023 217.65 99.2068 217.997 99.202C218.517 99.1877 218.546 98.7859 218.549 98.4569Z" fill="#DD1E3E"/>
<path d="M721.296 21.0416C722.919 21.0517 724.274 20.3353 725.666 19.8646C727.176 19.3534 728.724 19.1878 730.262 18.8916C730.635 18.8235 731.048 18.824 731.245 19.1592C731.516 19.624 731.019 19.8789 730.794 20.1831C730.669 20.3469 730.4 20.4208 730.187 20.5169C730.021 20.5891 729.799 20.5853 729.681 20.6951C727.584 22.6713 724.617 22.6538 722.147 23.7745C721.445 24.0946 721.117 24.439 721.026 25.1718C720.637 28.3729 720.199 31.567 719.786 34.7684C719.765 34.9304 719.808 35.1067 719.82 35.3605C720.855 35.404 721.708 34.6271 722.753 34.8167C723.104 34.8798 723.606 34.4247 723.768 35.0761C723.888 35.5743 723.696 35.9394 723.192 36.233C722.255 36.7727 721.416 37.4724 720.462 37.974C719.414 38.531 718.998 39.3003 718.779 40.4509C718.438 42.2965 718.455 44.1896 717.914 46.0078C717.771 46.4875 717.908 47.0393 717.919 47.6626C721.137 46.5904 723.948 44.9173 726.766 43.2518C730.427 41.0866 733.916 38.655 737.65 36.6041C738.162 36.3257 738.51 36.1657 738.86 36.6445C739.21 37.1233 738.753 37.3699 738.456 37.6368C734.063 41.6081 729.361 45.1846 724.032 47.9022C721.738 49.0737 719.312 50.0089 716.919 50.9974C715.751 51.4796 714.529 51.2315 713.34 50.9906C712.709 50.8631 712.369 50.5073 712.38 49.7528C712.393 48.2285 712.255 46.7224 712.706 45.2136C712.894 44.5869 713.136 43.8822 712.732 43.0503C711.853 43.6968 711.003 44.2273 709.903 44.0772C709.448 44.0159 709.12 44.3526 708.839 44.6653C707.279 46.4013 705.386 47.7736 703.607 49.2825C703.152 49.6675 702.634 50.046 702.332 50.5285C701.279 52.194 699.68 52.1758 698.014 51.9509C697.272 51.8483 696.836 51.4634 696.957 50.6223C697.345 47.8293 697.368 45.0195 697.51 42.2076C697.556 41.2216 697.761 40.2175 698.087 39.2804C699.079 36.4384 698.994 33.3611 700.138 30.5625C700.329 30.0897 700.487 29.5866 700.18 28.8685C699.045 29.9274 697.955 30.8315 697.003 31.8564C694.911 34.1251 692.698 36.2804 690.622 38.5564C688.475 40.9029 687.88 43.6842 687.589 46.6295C687.467 47.8555 687.41 49.1034 687.112 50.2939C686.629 52.2189 683.669 53.0633 682.08 51.821C681.758 51.565 681.736 51.2267 681.722 50.8729C681.648 49.4117 681.559 47.9509 682.163 46.5395C682.385 46.0199 682.733 45.5059 682.596 44.8925C682.121 44.6006 681.898 45.0201 681.695 45.2315C679.553 47.4086 677.095 49.2064 674.45 50.7612C674.08 50.9832 673.758 51.2351 673.501 51.5628C672.139 53.2569 670.35 53.2881 668.417 52.7907C667.785 52.6247 667.516 52.2446 667.514 51.652C667.506 51.1826 667.521 50.7128 667.561 50.2426C667.969 45.3941 668.394 40.5453 668.802 35.6968C668.96 33.816 669.414 31.9994 669.859 30.1674C670.089 29.1936 669.966 29.011 668.971 28.936C667.704 28.8427 666.424 28.865 665.171 28.6175C664.596 28.5044 664.002 28.6302 663.643 29.0136C662.441 30.3046 661.011 31.3532 659.858 32.7511C658.028 34.9767 657.715 37.5606 657.346 40.107C656.991 42.5531 656.349 44.935 655.858 47.345C655.66 48.326 655.495 49.3064 655.384 50.2858C655.281 51.1882 654.835 51.6116 654.013 51.9261C653.183 52.2408 652.349 52.263 651.504 52.2008C649.912 52.0824 649.708 51.8088 650.039 50.2791C650.864 46.5086 651.665 42.7231 652.682 38.9877C653.294 36.7295 653.54 34.3777 653.945 32.0692C653.989 31.8376 654.008 31.6063 653.814 31.4019C653.342 31.2331 653.004 31.5007 652.699 31.7831C651.924 32.5048 651.065 32.9662 649.942 32.8703C648.938 32.7801 648.802 33.6137 648.59 34.2486C648.152 35.5878 648.042 37.0059 647.492 38.324C646.523 40.65 645.681 43.0353 644.6 45.3171C642.743 49.2288 637.343 51.9939 633.03 51.4072C632.727 51.3663 632.463 51.2555 632.182 51.1372C630.764 50.5309 630.685 50.563 630.471 51.9907C629.845 56.2195 629.123 60.4423 628.959 64.7324C628.898 66.2036 628.477 67.6348 628.072 69.0427C627.825 69.8937 627.665 70.7586 627.561 71.6301C627.345 73.4119 626.362 74.4835 624.53 74.7926C623.88 74.904 623.196 74.9082 622.535 74.8813C621.477 74.8459 621.273 74.5801 621.565 73.5359C622.365 70.5971 622.941 67.616 623.589 64.6491C624.112 62.2308 624.379 59.7785 624.71 57.3405C625.07 54.725 625.789 52.1724 626.213 49.5712C626.572 47.3174 627.001 45.0624 627.168 42.7812C627.367 40.03 627.9 37.3267 628.53 34.6372C628.811 33.4393 628.821 32.2153 628.881 31.052C628.318 30.7078 628.142 31.1419 627.924 31.3612C625.719 33.5317 623.44 35.6266 621.51 38.0463C620.856 38.8659 620.828 39.5206 621.178 40.4382C622.12 42.9078 622.927 45.4183 623.426 48.0189C623.628 49.0852 623.435 49.8891 622.55 50.6742C621.25 51.8361 619.917 52.5136 618.065 52.5382C615.751 52.5709 613.48 52.3411 611.2 52.0654C610.068 51.9312 609.84 51.5811 610.299 50.5494C610.521 50.0529 610.624 49.5662 610.726 49.041C610.886 48.1762 611.133 47.279 611.774 46.6367C612.993 45.407 613.874 43.9292 615.045 42.6619C616.192 41.418 616.725 40.0541 616.019 38.35C615.148 36.2485 614.165 34.1798 613.863 31.9222C613.077 31.9975 612.934 32.4618 612.686 32.8587C609.978 37.1624 607.879 41.7941 605.114 46.0602C604.99 46.2548 604.875 46.48 604.831 46.704C604.474 48.5806 602.892 49.0931 601.351 49.6434C601.003 49.7726 600.591 49.8568 600.331 49.5534C600.023 49.1894 600.191 48.7939 600.463 48.4274C601.869 46.5171 603.218 44.5308 604.143 42.375C605.29 39.7072 606.749 37.2187 608.177 34.7077C609.751 31.9324 611.502 29.2618 612.707 26.2929C613.141 25.2077 615.537 24.3962 616.659 24.8692C617.276 25.1278 617.508 25.6856 617.543 26.3085C617.682 28.7845 618.304 31.1674 618.895 33.5662C619.083 34.3172 619.271 35.0451 619.759 35.6832C620.34 35.7269 620.562 35.2381 620.867 34.9172C623.272 32.3583 625.669 29.7919 628.042 27.2028C628.643 26.5458 629.187 25.8359 629.708 25.1264C630.858 23.5669 632.51 23.4226 634.24 23.6695C635.268 23.8132 635.376 24.0807 635.125 25.1472C634.754 26.6854 634.383 28.2236 633.98 29.7546C633.831 30.3345 633.722 30.8983 633.899 31.4878C634.474 31.6394 634.609 31.1752 634.843 30.8633C636.226 29.0073 637.683 27.2731 639.81 26.0815C641.881 24.9216 643.993 24.6846 646.274 25.0219C647.063 25.139 647.53 25.4618 647.948 26.1472C648.611 27.244 649.107 28.3283 649.003 29.6232C648.977 29.9623 648.927 30.325 649.26 30.704C650.014 30.6293 650.424 29.9602 650.87 29.506C651.808 28.5737 652.86 27.7856 653.896 26.9747C655.12 26.022 657.266 25.923 658.52 26.7016C659.171 27.1059 658.875 27.9115 659.337 28.4114C660.726 27.7561 662.149 27.2848 663.606 26.913C665.308 26.4677 666.965 26.5696 668.605 27.149C669.99 27.6405 670.014 27.6555 670.918 26.5699C671.595 25.7499 672.51 25.7493 673.411 25.8798C674.24 25.9962 675.212 26.087 675.825 26.5612C676.704 27.2386 675.628 28.0424 675.514 28.7987C675.328 30.0027 674.76 31.144 674.494 32.3494C673.771 35.5639 673.343 38.8118 673.281 42.1072C673.253 43.6932 673.137 45.2731 673.061 46.8523C673.05 47.1296 672.968 47.4235 673.3 47.7795C674.381 47.2911 675.38 46.6425 676.29 45.9108C678.204 44.3611 680.305 43.0775 682.431 41.8474C683.234 41.387 683.583 40.8421 683.681 40.0707C684.247 35.5889 685.403 31.1969 685.897 26.7086C686.104 24.8655 686.229 24.7786 688.164 24.8603C688.227 24.8592 688.283 24.8582 688.346 24.8571C690.846 25.0059 691.406 25.635 690.7 27.9795C690.015 30.2389 689.952 32.5722 689.701 35.0165C690.779 33.897 691.857 32.7775 692.943 31.6579C695.061 29.4889 697.211 27.3578 699.28 25.1512C700.834 23.5 702.689 23.6138 704.646 24.1031C705.509 24.3189 705.649 25.0323 705.733 25.7543C705.949 27.6209 705.239 29.3343 704.792 31.0893C703.549 35.9601 701.979 40.7827 702.092 45.8838C702.092 45.9299 702.157 45.975 702.198 46.0282C702.606 46.1827 702.872 45.924 703.154 45.7036C704.417 44.704 705.681 43.7122 706.952 42.7125C707.564 42.2246 708.226 41.8667 709.009 41.6529C710.545 41.2489 711.875 40.4175 713.131 39.4797C713.532 39.1802 713.884 38.8662 713.947 38.3648C714.457 34.3535 715.446 30.4108 715.702 26.3731C715.701 26.3116 715.7 26.2577 715.715 26.1959C715.867 25.3388 715.58 24.8359 714.61 24.8451C713.226 24.8539 712.249 24.055 711.265 23.2717C710.782 22.8876 710.852 22.3938 711.455 22.2678C712.58 22.0327 713.722 21.8434 714.866 21.7542C715.716 21.6855 716.02 21.3569 716.022 20.5487C716.024 18.8476 716.138 17.1446 716.14 15.4436C716.138 12.588 717.705 10.3286 719.064 7.98037C719.295 7.57609 719.756 7.53726 720.152 7.43029C721.363 7.09358 722.558 7.24204 723.741 7.54467C724.556 7.74596 724.77 8.18864 724.231 8.76762C723.623 9.43248 723.174 10.1715 722.678 10.9114C721.508 12.6713 721.279 14.6149 721.25 16.6089C721.228 18.064 721.293 19.5176 721.319 21.0181L721.296 21.0416ZM644.103 31.4252C644.141 30.4085 643.885 29.4355 643.653 28.4697C643.55 28.0251 643.508 27.4562 642.934 27.3508C642.351 27.2455 641.936 27.6145 641.546 28.0293C638.477 31.3078 635.924 34.9161 634.069 38.9663C632.675 42.0078 632.643 44.7536 633.975 47.2036C634.032 47.3104 634.058 47.4254 634.123 47.5243C635.335 49.4812 636.831 49.5244 638.134 47.639C640.236 44.5928 641.649 41.2123 642.894 37.7962C643.63 35.7745 644.038 33.6122 644.095 31.433L644.103 31.4252ZM613.822 50.08C614.776 50.0248 615.392 50.6837 616.207 50.8927C616.758 51.037 617.229 51.1366 617.74 50.7813C618.8 50.0392 619.251 48.9769 618.919 47.7281C618.638 46.6554 618.317 45.5912 617.996 44.5192C617.887 44.1594 617.965 43.6654 617.248 43.5778C615.979 45.5781 613.827 47.1551 613.806 50.0802L613.822 50.08Z" fill="#DD1E3E"/>
<path d="M675.156 10.994C677.778 11.0118 678.338 11.6376 678.01 14.2571C677.912 15.0374 677.791 15.8181 677.709 16.5982C677.634 17.2748 677.268 17.734 676.668 17.9669C675.572 18.3992 674.429 18.4986 673.325 18.0332C672.292 17.5984 672.006 17.1029 672.36 16.0241C672.722 14.8976 672.782 13.7843 672.77 12.6246C672.751 11.1234 672.814 11.0825 674.243 11.0099C674.545 10.9967 674.847 10.9994 675.148 10.9941L675.156 10.994Z" fill="#DD1E3E"/>
<path d="M559.161 24.3354C559.262 24.2762 559.379 24.2244 559.464 24.142C559.956 23.6558 559.873 22.6493 560.8 22.5692C561.893 22.4675 562.976 22.525 564.022 22.8939C564.723 23.1397 564.719 23.72 564.483 24.237C562.735 28.1291 562.143 32.3545 560.893 36.3803C559.878 39.6348 559.757 43.0171 559.158 46.3287C558.631 49.2403 558.25 52.1945 557.579 55.0714C557.206 56.6741 557.175 58.2967 556.882 59.9045C556.289 63.1841 555.471 66.4079 554.509 69.5811C553.853 71.7421 552.68 73.651 550.723 74.9751C549.9 75.5364 549.045 75.8604 548.066 76.0456C546.092 76.4166 544.092 76.4864 542.114 76.7463C541.576 76.8207 541.026 76.7922 540.477 76.7796C540.024 76.7636 539.643 76.5543 539.523 76.0816C539.384 75.5301 539.831 75.3476 540.198 75.1678C540.917 74.8168 541.71 74.7415 542.484 74.619C543.259 74.4966 544.041 74.3659 544.817 74.2832C547.185 74.0177 548.474 72.4625 549.141 70.4124C550.269 66.9711 551.18 63.4579 551.882 59.8963C552.462 56.9272 553.138 53.9786 553.75 51.0163C554.144 49.1188 554.443 47.2087 554.614 45.2713C554.649 44.8965 554.637 44.563 554.236 44.2273C553.246 45.2316 552.475 46.3792 551.573 47.3964C550.402 48.709 548.904 49.4926 547.437 50.283C545.869 51.1246 544.107 50.2959 543.491 48.6006C543.078 47.4625 542.822 46.2712 542.748 45.0577C542.726 44.6531 542.906 44.1302 542.422 43.9166C541.905 43.6803 541.529 44.0829 541.142 44.3746C539.424 45.7063 537.748 47.0922 536.203 48.6246C535.159 49.6626 534.02 50.513 532.475 50.6465C530.62 50.8066 530.194 50.4321 530.233 48.5946C530.289 45.8584 530.576 43.1539 531.286 40.5061C532.13 37.3529 532.364 34.0541 533.488 30.9627C533.561 30.7535 533.48 30.494 533.472 30.2717C533 29.9464 532.775 30.3279 532.544 30.5585C530.355 32.7333 528.231 34.9615 526.173 37.251C525.691 37.7845 525.758 38.3385 525.739 38.9353C525.664 41.1078 526.018 43.2733 525.681 45.4629C525.395 47.309 524.839 48.9022 523.447 50.2464C522.271 51.3923 520.99 51.7947 519.483 51.434C518.128 51.1077 516.761 50.8932 515.386 50.663C513.907 50.4047 513.823 50.0658 514.37 48.6557C514.997 47.0283 515.967 45.6829 517.189 44.4798C518.572 43.12 519.718 41.5539 520.905 40.0261C521.323 39.4869 521.614 38.9363 521.572 38.2065C521.401 35.359 521.27 32.518 521.115 29.6699C521.104 29.3603 521.015 29.0694 520.617 28.8369C519.648 29.753 518.638 30.6705 517.851 31.8028C516.095 34.3202 514.315 36.8225 512.835 39.521C512.477 40.1774 511.931 40.713 511.332 41.0758C509.844 41.9623 508.67 43.1637 507.53 44.4197C505.938 46.1683 504.023 47.5546 502.224 49.072C501.645 49.5611 500.986 49.8226 500.285 50.006C497.537 50.7458 495.976 49.5048 495.954 46.6202C495.952 46.1116 496.299 45.559 495.788 45.0364C494.675 45.9416 493.561 46.831 492.472 47.7433C492.156 48.0167 491.922 48.3825 491.623 48.6791C491.208 49.099 491.389 49.9352 490.639 50.0965C489.685 50.3047 488.707 50.307 487.74 50.1659C486.909 50.0439 486.51 49.5174 486.574 48.6249C486.68 47.111 486.643 45.5942 486.805 44.0863C487.133 40.9591 486.919 37.7872 487.501 34.6749C487.569 34.3308 487.595 33.9483 487.392 33.5977C486.653 33.5838 486.85 34.2446 486.665 34.6246C485.162 37.7929 483.659 40.9532 482.148 44.1138C481.815 44.8169 481.685 45.6401 481.389 46.2705C480.397 48.3796 479.287 50.5009 477.342 51.928C476.373 52.6374 475.192 52.0587 474.161 51.888C471.307 51.4313 469.328 49.8233 468.426 46.9934C468.176 46.2152 468.165 45.4366 468.194 44.6646C468.283 42.6586 468.612 40.6997 469.751 38.9669C470.25 38.2103 470.594 37.3716 470.841 36.4887C471.589 33.784 472.878 31.3147 474.297 28.9362C475.101 27.5888 476.304 26.5214 477.566 25.5633C478.046 25.1968 478.594 24.9551 479.257 25.0591C480.456 25.2557 481.645 25.1665 482.864 25.0126C484.17 24.8478 485.492 24.9288 486.816 25.3038C488.574 25.7988 489.012 25.3543 489.362 23.5537C490.252 18.9762 490.79 14.3552 491.256 9.72095C491.445 7.86236 491.866 6.01954 492.608 4.28472C493.012 3.33271 493.456 2.40312 493.523 1.35955C493.575 0.554964 493.987 0.532619 494.628 0.685093C495.534 0.899866 496.23 1.24914 496.173 2.34007C496.157 2.57906 496.159 2.84926 496.253 3.06055C497.964 6.53784 496.486 9.93576 496.017 13.354C494.169 15.7633 494.868 18.7116 494.485 21.3956C494.145 23.7284 493.542 26.0069 493.266 28.3533C493.033 30.3406 492.584 32.2877 492.048 34.2141C491.998 34.3907 491.893 34.5613 491.899 34.7359C492.081 38.1315 491.133 41.4711 491.402 44.8716C491.428 45.1568 491.345 45.5015 491.692 45.6563C492.039 45.8111 492.27 45.5805 492.469 45.3669C493.884 43.7914 495.324 42.2309 496.691 40.6173C497.362 39.8229 497.644 38.7877 497.864 37.7944C498.512 34.966 499.305 32.1723 499.697 29.2892C499.817 28.3948 500.08 27.5113 500.36 26.6511C500.754 25.4291 501.912 25.1185 502.947 24.9472C504.749 24.6538 506.6 24.8435 508.363 25.2667C510.311 25.7313 510.78 27.3364 509.616 29.0462C509.344 29.4452 508.99 29.7913 508.644 30.1214C506.199 32.472 504.401 35.3883 502.005 37.785C501.121 38.6663 501.036 39.8536 500.796 40.9588C500.407 42.7926 500.026 44.634 499.933 46.5131C499.913 46.8715 499.857 47.3026 500.167 47.5382C500.624 47.8799 500.973 47.3988 501.276 47.1895C502.106 46.5962 502.942 45.9708 503.664 45.2541C505.516 43.4328 507.202 41.4187 509.154 39.7211C511.954 37.2865 513.451 33.9356 515.632 31.0696C516.955 29.3383 518.196 27.5543 519.461 25.7774C519.772 25.3373 520.057 24.8663 520.311 24.3885C520.654 23.7486 521.104 23.4229 521.89 23.4034C524.098 23.3502 524.303 23.5417 524.666 25.7466C525.058 28.0857 525.275 30.4308 525.326 32.7977C525.34 33.2025 525.231 33.7309 525.745 33.8799C526.122 33.9859 526.388 33.6111 526.633 33.3481C529.162 30.6686 531.683 27.9815 534.221 25.3096C534.566 24.9478 534.749 24.5122 534.948 24.0681C535.56 22.6796 538.223 22.2449 539.232 23.3621C539.596 23.7707 539.525 24.258 539.526 24.7349C539.532 26.2608 539.258 27.7488 538.768 29.1886C537.219 33.7892 536.512 38.5829 535.445 43.2938C535.328 43.8066 535.204 44.3594 535.516 44.8572C535.847 45.0046 536.138 44.915 536.394 44.755C538.301 43.5915 540.19 42.381 542.122 41.2643C542.777 40.8838 542.967 40.4082 543.133 39.7029C544.293 34.9252 545.897 30.3147 548.524 26.1057C549.412 24.6838 550.711 23.8753 552.254 23.4399C553.844 22.987 555.499 23.0484 557.136 23.0231C558.121 23.0125 558.653 23.6696 559.169 24.3589C558.391 25.0458 557.44 25.1347 556.455 25.1452C554.627 25.1693 553.304 25.9706 552.294 27.5479C549.996 31.1493 548.326 34.991 547.462 39.1623C547.006 41.3481 546.829 43.5878 546.987 45.8317C547.015 46.1804 546.999 46.6102 547.424 46.7305C547.745 46.8226 548 46.607 548.182 46.3464C549.591 44.3657 551.543 42.9066 553.141 41.1021C555.366 38.5922 555.391 38.6152 556.267 35.4609C557.17 32.2102 557.753 28.8754 559.075 25.7452C559.273 25.2773 559.161 24.7884 559.12 24.313L559.161 24.3354ZM488.313 26.9684C486.671 26.1594 485.155 25.9897 483.681 26.3194C483.05 26.4607 482.57 26.6126 481.873 26.462C479.727 25.9965 478.284 26.5635 477.503 28.0851C475.195 32.5691 473.387 37.2264 472.952 42.3127C472.778 44.3695 472.77 46.4204 473.72 48.3584C474.002 48.9288 474.351 49.1471 474.831 48.7727C477.416 46.7827 481.007 45.8069 481.754 41.9497C481.774 41.8377 481.899 41.7539 481.951 41.6487C483.182 38.8953 484.356 36.1121 485.652 33.3962C486.637 31.327 486.784 28.9294 488.314 26.9763L488.313 26.9684ZM516.531 48.3975C517.351 48.8776 518.055 49.0199 518.766 49.1063C520.322 49.2984 520.812 48.9713 521.365 47.5054C521.815 46.2974 521.698 44.9979 521.981 43.764C522.043 43.4837 522.054 43.1335 521.692 43.0031C521.33 42.8727 521.149 43.1572 520.958 43.3785C519.52 45.0025 518.091 46.6341 516.539 48.3972L516.531 48.3975ZM503.183 32.3707C504.867 30.9766 506.063 29.5041 507.186 27.9706C507.376 27.7096 507.325 27.3934 507.07 27.1559C506.109 26.2675 504.17 26.7405 503.872 27.983C503.553 29.3135 503.17 30.6543 503.191 32.3784L503.183 32.3707Z" fill="#DD1E3E"/>
<path d="M573.531 27.4976C574.598 26.6496 575.619 25.8271 576.64 25.0284C577.259 24.5457 577.928 24.117 578.514 23.6037C580.379 21.9489 582.632 22.0531 584.878 22.1813C586.065 22.2511 586.669 22.9374 586.965 24.3419C587.213 25.5414 587.097 26.7616 586.956 27.9588C586.531 31.5027 585.915 35.0135 585.258 38.5258C584.856 40.6621 584.924 42.8455 584.354 45.1784C587.449 44.8001 589.834 42.7774 592.774 42.7542C592.878 43.8951 592.045 44.1865 591.431 44.5895C589.963 45.5469 588.246 46.2347 587.032 47.4376C585.219 49.2257 583.067 49.285 580.845 49.4023C580.607 49.4106 580.366 49.3316 580.126 49.3002C579.247 49.164 578.864 48.6607 578.977 47.7825C579.225 45.8026 579.426 43.8164 579.731 41.8425C580.442 37.1838 581.21 32.531 581.938 27.8796C582.022 27.3441 581.987 26.789 581.968 26.2492C581.958 25.9634 581.986 25.6127 581.601 25.5148C581.272 25.4309 581.048 25.6136 580.8 25.813C579.116 27.1834 577.406 28.5307 575.713 29.8934C574.948 30.5083 574.346 31.2526 573.785 32.0511C573.611 32.2956 573.545 32.6715 573.319 32.8145C571.445 34.0086 571.667 36.0198 571.355 37.8032C570.879 40.5461 570.53 43.3084 570.045 46.0437C569.686 48.0433 568.547 49.1085 566.866 49.2308C565.391 49.3379 564.698 48.6149 564.949 47.1516C565.42 44.4725 565.899 41.793 566.442 39.1273C566.781 37.4621 566.897 35.773 567.084 34.0894C567.381 31.4401 567.95 28.8371 568.687 26.2758C568.921 25.4489 569.099 24.6399 569.021 23.7763C568.97 23.2137 569.096 22.7245 569.616 22.3566C570.469 21.7466 572.973 21.7624 573.789 22.3778C574.198 22.6894 574.251 23.077 574.162 23.5014C574.02 24.2137 573.87 24.9264 573.672 25.6248C573.51 26.2028 573.267 26.7597 573.548 27.5209L573.531 27.4976Z" fill="#DD1E3E"/>
<path d="M538.894 14.1458C538.472 14.1208 538.043 14.1357 537.635 14.0546C536.53 13.8309 536.091 13.2978 536.154 12.159C536.21 11.2589 536.361 10.3554 536.537 9.47494C536.774 8.28237 537.167 7.91893 538.323 7.79907C539.598 7.67505 541.235 7.42713 541.922 8.42849C542.609 9.43779 542.042 10.9598 541.561 12.2166C541.088 13.4571 540.403 14.3474 538.894 14.1458Z" fill="#DD1E3E"/>
<path d="M430.14 42.4221C429.131 42.6015 428.526 43.0827 427.985 43.5701C426.149 45.1979 423.964 46.4788 422.355 48.3305C421.691 49.0995 420.856 49.1803 419.897 49.0132C419.202 48.9003 418.663 48.6229 418.85 47.9284C419.098 47.027 418.078 46.5815 418.127 45.7497C418.194 44.572 418.166 43.3959 418.504 42.2428C419.257 39.7001 420.057 37.1712 420.689 34.6011C421.188 32.5849 421.495 30.5206 421.817 28.4706C421.889 28.0208 422.141 27.384 421.57 27.0925C421.128 26.8649 420.624 27.212 420.238 27.4687C418.427 28.6622 416.516 29.6883 414.844 31.1073C412.999 32.669 412.219 34.5431 411.874 36.6816C411.234 40.6637 410.003 44.5605 409.619 48.5823C409.559 49.2525 409.191 49.5825 408.458 49.61C407.24 49.6606 406.029 49.6744 404.881 49.1871C403.734 48.7071 403.668 48.6053 403.91 47.4098C404.336 45.3213 405.249 43.3272 405.403 41.1847C405.416 41.0226 405.397 40.8612 405.394 40.648C404.635 40.5509 404.27 41.1088 403.91 41.4681C402.241 43.0929 400.451 44.6022 398.823 46.2705C397.516 47.617 396.034 48.9885 393.787 49.013C393.421 49.0194 393.055 49.0552 392.696 49.0174C390.749 48.8381 390.261 48.3098 390.533 46.5035C391.155 42.4555 391.826 38.4141 392.464 34.3732C392.816 32.1536 393.136 29.9346 393.503 27.7221C393.59 27.1838 393.339 27.0043 392.845 26.9615C392.111 26.8934 391.388 27.031 390.673 27.1612C389.378 27.3897 388.14 27.1907 386.944 26.7115C386.471 26.5212 386.029 26.2863 386.107 25.7628C386.186 25.2393 386.661 25.106 387.195 25.0894C388.835 25.024 390.475 24.9292 392.115 24.8638C393.93 24.788 394.118 24.5641 394.343 22.8982C394.803 19.5664 395.61 14.2357 396.422 10.9566C396.526 10.5209 396.694 10.0988 396.869 9.67658C397.428 8.33584 397.467 8.32045 398.996 8.72027C400.765 9.17473 401.114 9.58042 400.543 11.0758C399.354 14.1924 398.912 19.4505 398.475 22.6643C398.362 23.4973 398.62 23.7134 399.492 23.4628C400.547 23.165 401.594 22.8893 402.692 22.826C403.6 22.7734 404.53 22.6837 405.389 23.029C405.79 23.1911 406.468 23.2455 406.367 23.8429C406.295 24.2853 405.754 24.3462 405.341 24.3829C403.328 24.5651 401.461 25.3036 399.507 25.676C398.133 25.9353 397.635 26.5984 397.473 27.844C396.763 33.2319 395.948 38.6142 395.19 43.9955C395.126 44.4305 394.998 44.8813 395.237 45.3477C395.995 45.4227 396.448 44.878 396.952 44.5457C399.678 42.77 402.257 40.8057 405.105 39.1823C406.178 38.5753 406.169 38.5093 405.605 37.2249C405.455 36.8819 405.571 36.674 405.759 36.4869C407.122 35.1468 407.594 33.4105 407.851 31.7294C408.265 28.9793 409.352 26.4233 410.111 23.7775C411.237 19.8237 412.474 14.4855 413.073 10.4306C413.337 8.66114 413.745 8.30105 415.261 8.43636C417.072 8.59593 418.15 9.62868 418.095 11.0562C417.954 15.309 416.495 20.7099 415.131 24.7267C414.904 25.4072 414.725 26.1016 414.529 26.7595C415.092 27.0364 415.317 26.6943 415.576 26.4985C417.298 25.1669 419.44 24.6295 421.476 23.9542C423.044 23.4415 424.592 24.0027 426.006 24.6913C426.609 24.9897 426.881 25.5291 426.941 26.2193C427.091 27.9741 426.698 29.665 426.418 31.3759C425.835 34.9672 424.477 38.3956 423.906 42.2C425.483 41.7166 426.661 40.7474 428.012 40.1135C428.708 39.7851 429.321 39.2965 429.95 38.859C430.494 38.4818 430.924 38.0257 431.072 37.376C431.762 34.474 432.693 31.634 433.647 28.7936C434.041 27.6249 433.787 26.3277 434.533 25.2117C434.797 24.8173 435.038 24.4896 435.504 24.2755C437.52 23.3506 443.964 24.1573 445.539 25.8211C446.326 26.653 446.544 27.3037 445.859 28.1981C444.908 29.428 443.934 30.6436 442.886 31.7944C441.674 33.1318 440.139 34.1807 438.545 35.0689C437.117 35.866 436.372 37.0041 436.005 38.3562C435.668 39.5975 435.603 40.9075 435.458 42.1896C435.375 42.8896 435.372 43.603 435.324 44.523C437.885 42.912 440.031 41.2126 442.25 39.6076C444.933 37.6709 447.754 35.9156 450.691 34.3422C451.362 33.9848 452.139 33.7727 452.901 33.5903C453.543 33.432 453.958 33.9101 453.689 34.4516C453.542 34.7483 453.309 35.0613 453.017 35.2355C451.109 36.3792 449.833 38.1442 448.038 39.4036C445.519 41.1536 443.041 42.9396 440.595 44.7766C439.423 45.6574 438.3 46.6183 437.299 47.6653C436.509 48.4953 435.667 48.6938 434.557 48.5367C432.536 48.2411 430.554 46.5035 430.476 44.7694C430.439 44.0053 430.083 43.2761 430.116 42.4078L430.14 42.4221ZM438.567 31.2815C440.083 30.0858 440.843 28.418 442.055 27.0805C442.203 26.9235 442.278 26.6501 442.108 26.4546C441.652 25.8963 440.935 25.9456 440.297 25.8758C439.722 25.8123 439.418 26.1706 439.274 26.6437C438.868 28.0333 438.966 29.517 438.352 30.8734C438.321 30.9328 438.435 31.0485 438.559 31.2816L438.567 31.2815Z" fill="#DD1E3E"/>
<path d="M334.339 43.4995C333.419 43.9016 330.391 44.326 329.455 44.7132C327.305 45.5919 325.072 44.2218 324.981 41.973C324.966 41.5263 325.042 41.0646 324.823 40.5434C323.804 40.7965 322.982 41.4369 322.228 42.0698C320.688 43.358 318.84 44.1994 317.354 45.5621C316.795 46.0684 316.011 46.2099 315.256 46.2248C313.664 46.2546 312.94 45.5174 313.046 43.9165C313.378 38.7042 313.966 33.5142 314.366 28.3168C314.713 23.7225 315.694 19.2325 316.418 14.7052C316.712 12.866 317.233 11.0566 317.572 9.21739C317.904 7.44521 318.553 7.04311 319.987 7.44521C321.632 7.89942 322.446 9.03869 321.88 10.4386C320.258 14.4818 319.821 18.7857 319.149 23.0002C318.546 26.7903 318.025 30.6251 317.904 34.4896C317.829 36.8128 317.452 39.1212 317.218 41.4369C317.195 41.6529 317.218 41.8762 317.218 42.2039C318.41 42.2039 319.262 41.4741 320.175 41.005C321.541 40.3051 322.778 39.3594 324.144 38.6372C324.83 38.2723 325.132 37.8106 325.366 37.1256C326.189 34.7056 326.694 32.2037 327.381 29.7539C327.984 27.6168 328.754 25.5543 329.803 23.5885C330.112 23.0002 330.557 22.6577 331.236 22.4864C332.413 22.196 333.771 22.1588 334.299 20.6994C334.427 20.3494 334.888 20.4015 335.227 20.409C336.781 20.4536 340.42 20.5877 341.937 21.0121C343.159 21.3546 343.808 22.0992 343.913 23.2832C344.132 25.7255 344.026 28.1455 343.325 30.5283C342.555 33.1345 341.823 35.7406 340.586 38.1829C340.073 39.2031 339.439 40.1413 338.941 41.1614C338.474 42.122 337.802 42.9857 337.606 44.0952C337.485 44.7802 337.259 45.6291 336.255 45.577C335.818 45.5546 335.373 45.3312 334.973 45.1228C334.467 44.8621 334.671 44.3186 334.58 43.8941C334.558 43.7899 334.475 43.708 334.354 43.4995H334.339ZM329.003 40.4168C329.003 40.3274 329.003 40.4987 329.003 40.6625C329.018 42.0028 329.131 42.0326 330.353 41.6231C332.443 40.9231 336.12 39.7615 336.633 37.5128C336.723 37.133 336.972 36.798 337.123 36.4257C338.511 33.1196 339.552 29.7167 340.005 26.1574C340.096 25.4277 340.05 24.6831 340.043 23.9459C340.043 23.6332 339.869 23.4321 339.537 23.3725C338.345 23.1715 333.711 24.4001 333.22 25.4947C332.021 28.1902 331.07 30.99 330.323 33.8344C329.78 35.9044 329.063 37.967 329.003 40.4093V40.4168Z" fill="#DD1E3E"/>
<path d="M368.559 21.0151C371.165 20.6167 372.891 22.0333 372.886 24.4511C372.879 25.6598 372.689 26.7901 372.171 27.9297C371.027 30.4478 369.652 32.7676 367.931 34.9626C365.902 37.5369 364.045 40.2599 362.369 43.0928C361.729 44.1722 361.004 45.2088 360.25 46.2127C359.412 47.323 357.744 47.0943 357.302 45.7878C357.024 44.9594 356.905 44.0672 356.904 43.1486C356.899 40.3142 357.647 37.575 357.898 34.7831C358.157 31.9836 358.463 29.1861 358.737 26.3952C358.789 25.8243 358.795 25.2514 358.825 24.6639C358.085 24.6086 357.931 25.0181 357.802 25.4051C356.843 28.3079 355.249 30.9245 354.022 33.706C352.724 36.6571 351.533 39.6521 350.273 42.6205C349.989 43.2914 350.27 43.9158 350.268 44.5673C350.267 45.8234 349.852 46.1589 348.616 45.8703C346.709 45.4194 346.239 44.8183 346.059 42.8086C345.985 41.9654 346.081 41.1373 346.1 40.2981C346.205 35.4508 346.075 30.617 345.741 25.7823C345.618 24.042 346.136 22.4548 346.953 20.9747C347.599 19.809 348.045 19.7811 349.494 20.5028C350.698 21.104 350.789 21.312 350.318 22.5872C349.548 24.6739 349.758 26.8497 349.815 28.9797C349.896 32.0136 350.18 35.0483 350.388 38.1976C351.282 37.6629 351.47 36.7289 351.751 35.9559C352.568 33.7064 353.668 31.5867 354.676 29.424C355.789 27.0458 356.856 24.6422 357.954 22.2556C358.156 21.8246 358.388 21.3949 358.651 20.998C358.904 20.6163 359.148 20.1243 359.767 20.3943C360.31 20.6296 360.689 21.0227 360.564 21.6375C360.335 22.7582 360.239 23.8846 360.19 25.0208C360.047 28.312 359.857 31.5934 359.457 34.8657C359.259 36.4666 358.99 38.0645 358.792 39.6654C358.724 40.2277 358.617 40.8119 358.833 41.4807C359.49 41.1556 359.529 40.5527 359.792 40.1323C361.307 37.6929 362.943 35.3215 364.728 33.09C366.588 30.7675 367.944 28.2193 368.975 25.453C369.562 23.8845 369.409 22.4255 368.551 21.0069L368.559 21.0151Z" fill="#DD1E3E"/>
<path d="M282.287 14.455C284.092 14.3134 285.662 14.1423 287.247 14.1802C287.9 14.1971 288.467 14.3771 289.027 14.6775C289.377 14.8719 289.514 15.1327 289.478 15.5024C289.428 15.9856 289.096 16.18 288.664 16.2235C288.44 16.2457 288.201 16.2615 287.982 16.2235C286.128 15.8585 284.362 16.3574 282.59 16.7742C281.985 16.9191 281.795 17.224 281.738 17.8351C281.539 20.0449 281.339 22.2548 281.004 24.4437C280.1 30.3963 279.127 36.3384 278.17 42.287C278.068 42.9011 277.906 43.5115 277.705 44.1021C277.209 45.5593 276.483 45.9221 275.102 45.3235C273.427 44.5943 271.857 43.6408 270.482 42.457C269.329 41.4609 268.364 40.25 267.329 39.1112C267.151 38.913 266.915 38.6213 267.1 38.3542C267.332 38.009 267.699 38.1197 268.023 38.2632C269.43 38.9051 270.728 39.7192 271.905 40.7287C272.541 41.279 273.205 41.8049 273.88 42.3677C274.714 41.6004 274.649 40.6225 274.728 39.7701C275.054 36.4198 275.979 33.1723 276.457 29.8494C276.962 26.3598 277.459 22.8782 277.798 19.3696C277.89 18.3814 277.715 18.2354 276.762 18.5607C275.311 19.0614 273.877 19.6058 272.462 20.1941C271.52 20.586 270.609 20.7586 269.665 20.3036C269.316 20.1392 268.895 20.002 268.87 19.5014C268.834 18.9565 269.155 18.5979 269.62 18.4922C270.308 18.3419 270.85 17.8113 271.505 17.7381C272.331 17.6535 271.892 16.6704 272.456 16.5807C273.012 16.4915 273.479 17.0905 274.084 16.9456C276.129 16.4583 278.045 15.8445 278.636 13.4364C278.95 12.1711 279.333 10.9387 279.471 9.61755C279.705 7.3679 279.914 5.08986 280.679 2.92516C281.051 1.85848 281.389 1.6487 282.416 1.87334C283.192 2.04704 283.94 2.35012 284.627 2.76213C285.149 3.07251 285.482 3.45542 285.311 4.16394C285.194 4.65154 285.229 5.18155 285.232 5.69113C285.241 7.18255 284.69 8.38098 283.708 9.52538C282.56 10.8757 282.808 12.6962 282.271 14.4485L282.287 14.455Z" fill="#DD1E3E"/>
<path d="M294.498 42.7917C293.239 43.4348 291.979 44.0626 290.736 44.7116C288.546 45.8452 286.628 45.326 285.2 43.2532C284.415 42.1051 283.988 40.8781 283.903 39.4893C283.774 37.2556 283.983 35.0614 284.416 32.9115C284.773 31.1565 285.357 29.4611 285.691 27.7009C285.989 26.1301 286.795 24.8038 287.392 23.385C287.725 22.5906 288.525 22.3002 289.304 22.0893C289.698 21.9835 290.133 21.9039 290.051 21.3413C289.859 20.0572 290.905 19.8088 291.654 19.4236C293.301 18.5749 295.092 18.8224 296.859 19.119C298.88 19.449 300.396 20.7007 301.84 22.0919C302.664 22.8959 302.738 23.9151 302.471 24.8643C301.767 27.3689 301.407 29.9586 300.79 32.4844C300.476 33.771 300.258 35.0857 300.029 36.386C299.932 36.9609 299.856 37.4174 300.756 37.6025C301.602 37.7782 301.647 38.4066 300.893 38.8696C299.749 39.5771 299.147 40.5638 298.846 41.8877C298.639 42.7761 298.157 43.5871 297.777 44.4254C297.375 45.3203 296.455 45.7322 295.569 45.422C294.651 45.0999 294.566 44.3986 294.783 43.5787C294.844 43.3555 294.835 43.117 294.499 42.7993L294.498 42.7917ZM287.735 39.7556C287.863 40.4984 287.872 41.0227 288.103 41.5145C288.622 42.592 288.856 42.7048 289.947 42.2196C291.393 41.571 292.798 40.8343 294.266 40.2373C295.34 39.8003 295.874 39.0375 295.997 37.9113C296.265 35.4863 296.915 33.15 297.285 30.7446C297.639 28.4568 298.384 26.2644 298.575 23.9407C298.726 22.0543 296.311 20.1692 294.597 20.8478C293.822 21.1509 293.692 21.5981 294.296 22.2258C294.646 22.5883 295.02 22.9636 294.785 23.4148C294.531 23.8914 293.984 23.6358 293.532 23.586C292.222 23.4391 291.241 23.8966 290.602 25.1192C289.771 26.711 289.224 28.3947 288.837 30.153C288.131 33.384 287.678 36.6408 287.735 39.7556Z" fill="#DD1E3E"/>
<path d="M306.725 42.0676C308.233 41.6321 309.527 41.0225 310.945 40.8737C311.229 40.844 311.54 40.7162 311.705 41.0263C311.893 41.3732 311.745 41.7063 311.444 41.9236C309.614 43.2354 307.595 44.1855 305.374 44.5196C303.443 44.8088 302.424 43.6003 302.696 41.3931C303.123 37.8873 303.654 34.3937 304.155 30.9009C304.784 26.5667 305.511 22.2449 306.057 17.8978C306.499 14.3916 306.835 10.8806 307.006 7.3514C307.021 7.06664 307.051 6.78148 307.126 6.51013C307.407 5.49261 307.969 4.96175 308.703 4.95783C309.533 4.95888 310.406 5.69974 310.573 6.6683C310.678 7.27924 310.695 7.92239 310.666 8.54428C310.372 14.5761 309.598 20.5605 308.637 26.5273C308.005 30.4575 307.516 34.4065 306.988 38.3489C306.831 39.5129 306.42 40.6685 306.733 42.0674L306.725 42.0676Z" fill="#DD1E3E"/>
<path d="M237.215 40.2971C240.777 37.2785 244.475 34.8251 248.086 32.2601C248.517 31.9552 248.972 31.6653 249.436 31.3976C249.723 31.2266 250.083 30.9441 250.386 31.3307C250.642 31.6578 250.386 31.9478 250.202 32.2601C250.019 32.5798 249.731 32.7731 249.468 33.0035C245.418 36.4384 241.68 40.1632 237.886 43.8286C236.768 44.9066 235.554 45.1594 234.1 44.9661C232.894 44.8025 232.494 44.4457 232.526 43.2784C232.566 41.8063 232.678 40.3342 232.894 38.877C233.453 35.1819 233.597 31.4348 234.419 27.762C234.483 27.4646 234.611 27.0929 234.108 26.7583C233.062 27.7695 232.55 29.1226 231.68 30.2452C230.905 31.2489 230.322 32.379 229.308 33.2191C228.732 33.695 228.724 34.2451 228.844 34.9143C229.188 36.8696 229.603 38.8101 229.603 40.8175C229.603 42.6688 228.868 43.9773 227.079 44.7877C225.713 45.4048 224.371 46.059 223.013 46.6835C221.951 47.1742 220.897 47.1073 219.858 46.6166C219.052 46.23 218.189 45.9252 217.438 45.4568C216.256 44.7208 216.2 44.0814 217.183 43.1149C217.894 42.416 218.62 41.6948 219.459 41.1595C221.688 39.732 222.998 37.6057 224.563 35.6652C224.851 35.3083 224.898 34.9366 224.827 34.5425C224.283 31.5314 223.565 28.5575 222.343 25.7026C222.303 25.6134 222.175 25.5539 222.071 25.4647C218.78 28.3494 216.168 31.7396 214.371 35.5983C213.389 37.7098 212.614 39.9179 211.632 42.0442C211.224 42.929 210.753 43.7765 210.018 44.4903C209.084 45.3899 207.606 45.5758 206.552 44.9066C206.04 44.5869 206.168 44.1111 206.176 43.6799C206.2 41.2338 206.568 38.8175 206.847 36.3938C207.063 34.55 207.374 32.721 207.215 30.6467C205.992 31.301 205.218 32.2452 204.587 33.063C202.454 35.799 200.018 38.3566 198.452 41.4569C198.173 42.0071 198.133 42.4755 198.181 43.0628C198.301 44.3639 197.829 44.8472 196.416 45.1445C195.138 45.4122 194.027 45.0405 193.021 44.3267C192.438 43.9178 192.246 43.3528 192.302 42.6762C192.622 38.6688 193.149 34.6838 193.612 30.6913C193.956 27.762 194.786 24.8996 194.93 21.948C195.018 20.2157 195.393 20.0224 197.23 20.4759C197.702 20.5949 198.189 20.6915 198.604 20.9071C199.387 21.3086 199.722 22.0744 199.411 22.7212C198.58 24.4015 198.524 26.2379 198.197 28.0074C197.694 30.7359 197.414 33.5017 197.047 36.2525C197.015 36.4756 196.991 36.6986 197.206 36.8622C197.47 36.9291 197.702 36.8399 197.869 36.6689C200.617 33.7991 203.484 31.0184 206.08 28.0297C207.015 26.9591 207.702 25.7918 208.045 24.4387C208.357 23.2194 208.964 22.0967 209.826 21.1227C210.689 20.1414 212.263 20.0968 213.181 20.9815C213.429 21.2194 213.413 21.4722 213.261 21.7547C211.424 25.1301 211.168 28.8029 210.937 32.4757C210.865 33.5463 210.777 34.6095 210.697 35.6875C211.392 35.7841 211.4 35.2414 211.56 34.9589C212.183 33.8585 212.67 32.6987 213.373 31.6355C214.866 29.3531 216.927 27.4869 218.62 25.3531C219.627 24.0818 220.937 23.0335 221.767 21.6357C222.287 20.7659 223.109 20.7064 223.972 20.9146C224.851 21.1227 225.785 21.3532 225.921 22.4313C226.36 25.9702 227.542 29.3308 228.7 32.84C230.034 31.9255 230.609 30.5798 231.456 29.4646C232.502 28.0817 233.389 26.5873 234.324 25.1301C234.603 24.6989 234.875 24.2379 235.01 23.7547C235.617 21.5837 235.266 21.2194 232.902 21.5837C231.32 21.8291 229.755 21.9331 228.213 21.4201C227.87 21.3086 227.526 21.1822 227.223 21.0187C226.911 20.8477 226.584 20.6097 226.752 20.2083C226.895 19.8663 227.223 19.7027 227.622 19.7027C227.806 19.7027 227.998 19.673 228.165 19.7176C230.194 20.2008 232.159 19.5763 234.148 19.4202C235.578 19.3087 235.633 19.0484 235.865 17.7102C236.424 14.4761 236.544 11.175 237.534 8.00035C237.958 6.65465 238.181 6.387 239.236 6.55057C240.817 6.78848 241.72 7.53196 241.576 8.63974C241.249 11.1155 240.833 13.5764 240.45 16.0448C240.434 16.1563 240.362 16.2604 240.338 16.3719C239.947 18.2157 240.146 18.3793 242.111 18.1563C245.745 17.7474 249.404 17.7325 253.062 17.7771C253.301 17.7771 253.557 17.7994 253.781 17.8663C254.004 17.9332 254.236 18.0522 254.252 18.3198C254.268 18.6767 253.988 18.8254 253.693 18.8774C253.333 18.9369 252.966 18.9072 252.607 18.9369C248.725 19.2269 244.835 19.3979 240.993 20.0893C239.987 20.2677 239.699 20.6618 239.579 21.4945C238.852 26.4907 238.03 31.472 237.598 36.5053C237.502 37.68 237.039 38.825 237.239 40.3268L237.215 40.2971ZM225.474 40.5498C225.482 40.1558 225.625 39.7469 225.194 39.5982C224.771 39.4495 224.563 39.8361 224.307 40.0592C223.772 40.5201 223.309 41.0852 222.71 41.4495C221.632 42.0963 221.105 42.981 220.713 44.1111C220.434 44.9215 220.945 44.9884 221.32 44.8769C222.598 44.4977 223.756 43.8435 224.779 43.0479C225.609 42.4011 225.25 41.3454 225.482 40.5498H225.474Z" fill="#DD1E3E"/>
<path d="M172.757 63.0766C172.217 63.0766 172.034 63.0846 171.851 63.0766C171.414 63.0528 170.946 62.9813 170.858 62.4729C170.763 61.901 171.192 61.5197 171.669 61.4323C174.044 60.9954 175.958 59.5179 178.111 58.5965C179.008 58.2152 179.612 57.6274 179.882 56.5153C180.653 53.2823 181.066 49.9857 181.757 46.7368C182.305 44.1392 182.821 41.5337 183.266 38.9124C183.902 35.2266 184.617 31.5487 185.355 27.8788C185.967 24.8602 186.944 21.9211 187.325 18.8549C187.365 18.5531 187.468 18.275 187.754 18.0923C188.35 17.711 191.122 18.0923 191.567 18.6087C191.932 19.0376 191.782 19.4745 191.71 19.967C191.408 22.1277 190.63 24.1691 190.129 26.2742C189.502 28.9194 188.962 31.5805 188.382 34.2336C187.683 37.4825 187.238 40.7712 186.539 44.0201C185.88 47.0863 185.435 50.2002 184.863 53.2902C184.585 54.7677 184.211 56.2293 183.902 57.6989C183.767 58.3502 183.417 58.803 182.774 58.9857C180.708 59.5656 178.977 60.8286 177.078 61.7421C175.593 62.4571 173.988 62.7271 172.765 63.0687L172.757 63.0766Z" fill="#DD1E3E"/>
<path d="M189.341 7.011C187.363 6.98717 186.759 6.04982 187.546 4.18309C187.712 3.79386 187.848 3.41257 187.927 2.98362C188.149 1.81592 188.483 1.60938 189.651 1.80797C191.454 2.10982 191.811 2.44346 192.097 3.94479C192.177 4.34991 192.161 4.64382 191.795 4.88213C191.422 5.12043 191.279 5.49378 191.112 5.8989C190.699 6.93156 190.485 7.01894 189.333 7.011H189.341Z" fill="#DD1E3E"/>
<path d="M88.5686 41.2323C89.2279 41.2641 89.4027 40.9861 89.5616 40.7557C91.1344 38.46 93.2235 36.7363 95.5987 35.362C96.4804 34.8536 96.8617 34.1943 97.1397 33.2729C97.807 31.0804 98.4186 28.8642 99.6022 26.8545C100.69 25.0036 102.255 23.5261 104.082 22.7477C105.917 21.9692 107.728 21.008 109.706 20.5076C111.525 20.0469 113.631 20.6029 114.409 22.557C114.679 23.2402 114.854 24.1934 116.141 23.9948C117.388 23.7962 117.412 23.9471 117.555 22.6206C117.666 21.572 118.007 21.1987 119.008 21.159C119.612 21.1351 120.208 21.1907 120.78 21.4608C122.035 22.0645 122.337 22.557 122.019 23.8836C121.804 24.7971 121.407 25.6709 121.733 26.9975C122.551 25.8457 123.338 25.0592 124.259 24.4158C124.958 23.9233 125.673 23.5261 126.523 23.3196C127.905 22.986 129.359 23.2243 130.709 22.422C131.511 21.9454 132.56 22.7238 133.513 22.8748C136.246 23.3037 137.04 24.7336 136.135 27.3629C135.722 28.5623 135.237 29.738 134.752 30.9057C133.513 33.8845 133.037 37.0619 132.314 40.1758C132.234 40.5174 132.083 40.9384 132.457 41.1688C132.846 41.4071 133.1 41.0258 133.394 40.8192C136.119 38.9287 139.113 37.4512 141.679 35.3144C142.013 35.0363 142.68 34.4962 143.101 35.0522C143.546 35.64 142.823 36.0372 142.45 36.347C141.139 37.4194 139.733 38.3488 138.43 39.445C135.904 41.5659 133.116 43.3771 131.511 46.4512C130.987 47.46 129.74 47.0311 128.827 46.9119C127.992 46.8087 127.413 46.2447 127.476 45.2676C127.54 44.2985 127.5 43.3135 127.675 42.3682C128.342 38.746 128.787 35.084 130.026 31.565C130.606 29.9207 131.194 28.2684 131.71 26.6003C131.805 26.2984 132.052 25.8854 131.599 25.6391C131.289 25.4723 131.027 25.6788 130.773 25.8457C129.653 26.5685 128.533 27.2755 127.421 27.9984C126.038 28.896 124.616 29.738 122.901 29.6109C121.701 29.5235 120.962 30.6197 120.462 32.5738C119.429 36.6012 118.635 40.6921 117.706 44.7434C117.571 45.3312 117.586 46.1653 116.657 46.2367C115.529 46.3162 114.473 46.1176 113.646 45.2835C113.345 44.9817 113.559 44.6163 113.662 44.2667C115.195 38.9684 116.149 33.5509 116.983 28.1096C117.062 27.6012 117.205 27.1563 116.482 27.0054C115.926 26.8942 115.537 26.8704 115.505 27.6091C115.41 29.6268 114.719 31.5094 114.179 33.4238C113.567 35.6003 112.423 37.5386 111.263 39.445C110.731 40.3188 109.857 40.9225 108.952 41.4468C107.435 42.3206 106.092 43.4565 104.678 44.4812C102.486 46.0699 100.198 47.5236 97.942 49.0329C97.6243 49.2473 97.2906 49.3586 96.7743 48.9693C98.0612 47.6507 99.1494 46.1811 100.095 44.5527C100.111 44.3065 99.8802 44.1873 99.6578 44.1238C96.822 43.3771 96.3136 41.1132 96.0673 38.6665C96.0197 38.2217 96.5678 37.6577 95.9561 37.3559C95.4239 37.0858 95.122 37.6974 94.7487 37.9596C92.9058 39.2385 91.8096 41.1688 90.5704 42.9402C89.7125 44.1635 88.513 44.9737 87.536 46.0382C86.964 46.6578 86.1776 46.4433 85.4945 46.205C84.7239 45.9428 84.6366 45.2835 84.7398 44.5607C85.0973 41.979 85.4547 39.4053 85.7804 36.8236C85.8996 35.8942 86.3047 34.9807 86.0823 34.0513C85.4865 33.8448 85.3594 34.2738 85.145 34.5279C84.017 35.8863 83.1591 37.4194 82.4124 39.0081C81.7928 40.3426 81.0302 41.5739 79.9896 42.6065C79.4971 43.099 79.2349 43.6869 78.9093 44.2667C78.1864 45.5933 77.2491 45.9349 75.9066 45.3074C71.9745 43.4803 71.9904 42.5668 72.7212 38.738C73.3647 35.3541 74.5562 32.1052 75.7001 28.8483C75.9781 28.054 76.3117 27.2675 76.5183 26.4494C77.0346 24.392 78.5041 23.0495 79.9578 21.6753C80.4344 21.2225 80.911 21.2861 81.4671 21.3814C83.4927 21.723 85.5183 22.0327 87.5439 22.3584C88.1635 22.4538 88.4574 22.3584 88.6401 21.5959C89.3153 18.7759 89.3868 15.8368 90.2368 13.0486C90.3559 12.6435 90.3797 12.2066 90.5386 11.8173C91.2615 10.0221 91.9843 8.22686 92.4927 6.35218C92.8422 5.06532 93.3904 4.76347 94.423 4.98589C95.694 5.26392 96.2659 6.03444 96.0991 7.28952C95.8687 9.10859 94.7884 10.6496 94.3912 12.429C93.8193 14.963 92.9137 17.4096 92.6596 20.023C92.5483 21.2066 92.0956 22.3505 92.7231 23.5261C92.9137 23.8915 92.6278 24.3284 92.4212 24.7177C91.1741 27.0928 90.6022 29.6586 90.0144 32.2561C89.3471 35.2031 89.2677 38.2138 88.5845 41.2244L88.5686 41.2323ZM112.129 26.0919C112.026 25.3532 112.137 24.2331 111.47 23.2878C111.216 22.9304 110.683 22.5411 110.588 23.2163C110.461 24.1378 109.913 24.106 109.333 24.0901C108.086 24.0504 107.172 24.6859 106.259 25.4167C104.813 26.5765 103.844 28.0698 103.002 29.6903C101.993 31.6365 101.501 33.7574 100.794 35.8069C100.262 37.3559 100.166 38.9922 100.397 40.6286C100.54 41.6692 101.08 42.1299 101.93 41.8837C104.495 41.1449 106.728 39.8025 108.237 37.5942C109.524 35.7036 110.437 33.5668 111.16 31.3902C111.692 29.7857 112.113 28.1493 112.137 26.0998L112.129 26.0919ZM76.4865 42.1061C77.7177 41.1926 78.6471 40.1758 79.227 38.9446C80.9905 35.2031 83.7866 32.1528 86.0426 28.745C86.8131 27.5853 87.6948 26.5606 88.0285 25.1784C88.2985 24.0504 88.2191 23.8757 87.1149 23.7486C86.6383 23.6929 86.1379 23.6056 85.7089 23.9154C85.3356 24.1775 84.8749 24.3523 84.5174 24.1298C83.0002 23.1766 82.2058 24.2172 81.3479 25.1705C80.9428 25.6232 80.6727 26.1475 80.4106 26.7036C79.5606 28.5147 79.092 30.4529 78.4406 32.3355C77.5906 34.7901 76.9154 37.3003 76.4229 39.8581C76.2879 40.5492 76.1211 41.2402 76.4785 42.114L76.4865 42.1061Z" fill="#DD1E3E"/>
<path d="M153.181 41.3434C153.642 41.5579 154.015 41.3116 154.373 41.1289C158.289 39.1112 162.213 37.1015 166.113 35.0521C167.289 34.4325 168.393 33.6938 169.537 33.0186C169.863 32.82 170.26 32.669 170.498 33.0583C170.72 33.4157 170.474 33.797 170.18 34.0035C168.433 35.1951 166.701 36.4104 164.906 37.5146C161.156 39.8262 157.351 42.0424 153.618 44.3778C152.816 44.8783 152.244 45.6806 151.148 45.6885C149.686 45.6885 149.138 45.331 148.931 43.9012C148.852 43.369 148.772 42.7971 148.86 42.2728C149.416 38.9285 149.71 35.5525 150.29 32.2083C150.869 28.88 151.179 25.5039 151.847 22.1835C152.005 21.3812 151.719 20.9285 150.814 20.9046C149.972 20.8887 149.122 20.7934 148.288 20.6663C147.756 20.5869 147.231 20.4042 146.715 20.2294C146.167 20.0308 145.698 19.6734 145.865 19.03C146.016 18.4342 146.54 18.2118 147.144 18.2833C148.343 18.4262 149.551 18.5851 150.742 18.7599C152.347 18.9902 152.339 18.9982 152.601 17.481C153.181 14.1447 153.761 10.8084 154.357 7.48003C154.571 6.25673 154.817 6.06608 156.057 6.217C156.589 6.28055 157.129 6.30438 157.629 6.60624C158.321 7.02725 158.638 7.48003 158.432 8.3856C157.852 10.9116 157.391 13.4615 156.891 16.0114C156.835 16.3053 156.835 16.6151 156.827 16.917C156.772 18.5375 156.772 18.5136 158.471 18.5454C159.679 18.5692 160.886 18.7281 162.054 19.0617C162.411 19.165 162.785 19.3239 162.856 19.7131C162.952 20.2215 162.475 20.4201 162.173 20.6902C161.824 21 161.371 20.9126 160.958 20.9285C159.989 20.9523 159.02 20.9523 158.05 20.9841C156.065 21.0476 156.025 21.0794 155.739 22.9382C155.381 25.2656 155.008 27.5931 154.714 29.9285C154.309 33.2251 153.967 36.5296 153.189 39.7706C153.07 40.279 152.903 40.835 153.181 41.3593V41.3434Z" fill="#DD1E3E"/>
<path d="M148.565 8.12366C148.613 8.58439 148.653 9.06894 148.716 9.54556C148.764 9.91096 148.859 10.3161 148.597 10.5941C147.429 11.8651 147.08 13.5888 146.135 14.9869C145.729 15.5906 145.3 16.1625 144.721 16.6233C144.395 16.8775 144.101 17.2746 143.632 16.8854C143.235 16.5597 143.251 16.1149 143.481 15.7336C144.196 14.5659 144.419 13.2631 144.617 11.9445C144.848 10.4114 144.713 8.96568 143.783 7.62322C143.092 6.63028 143.553 5.69293 144.729 5.62939C145.96 5.55789 147.12 5.9789 148.216 6.49523C148.97 6.84475 148.621 7.52789 148.565 8.11572V8.12366Z" fill="#DD1E3E"/>
<path d="M58.8246 32.1431C58.3838 33.5029 57.7049 34.3584 56.9644 35.1239C54.4077 37.7445 51.7365 40.2481 49.0211 42.7066C47.7516 43.8594 46.2529 44.6338 44.86 45.5794C43.6875 46.3629 42.4003 46.3539 41.1661 45.9757C39.0238 45.3183 38.6711 44.2736 39.1031 42.4815C39.7291 39.8969 40.1082 37.2582 40.6019 34.6286C39.8701 34.2504 39.4734 34.9618 38.918 35.0609C38.3361 35.1599 37.8424 35.1239 37.5251 34.5476C37.1812 33.9082 37.578 33.5209 38.0099 33.1607C38.1157 33.0706 38.2215 32.9896 38.345 32.9265C40.9898 31.7198 42.1182 29.4144 42.7618 26.7037C42.9998 25.7131 43.4142 24.7585 43.7844 23.8039C44.7718 21.2913 46.9141 19.9585 49.0123 18.5986C49.2239 18.4635 49.5413 18.3915 49.7793 18.4365C51.613 18.8148 53.4997 19.0219 55.0425 20.3007C56.2767 21.3273 56.4002 22.2009 55.3158 23.3896C54.108 24.7134 52.5035 25.4789 51.0224 26.4065C50.564 26.6947 50.0702 26.9108 49.6118 27.19C47.3196 28.6219 45.9444 30.504 45.5741 33.4038C45.2391 36.0335 44.9481 38.7262 44.0577 41.2657C43.9431 41.5899 43.7933 41.9412 44.19 42.1483C44.5426 42.3284 44.8335 42.0943 45.098 41.8781C46.7025 40.6353 48.2806 39.3656 49.9116 38.1678C52.574 36.2136 55.2805 34.3134 57.9694 32.3952C58.1193 32.2871 58.3309 32.2871 58.8422 32.1431H58.8246ZM48.0249 25.0737C49.603 24.4703 50.8461 23.3806 52.2214 22.48C52.6093 22.2279 52.768 21.8226 52.574 21.4354C52.3713 21.0211 51.9128 21.0662 51.5161 21.1112C51.0312 21.1742 50.6697 21.4444 50.2995 21.7596C49.2768 22.6421 48.501 23.7138 48.0249 25.0737Z" fill="#DD1E3E"/>
<path d="M17.1806 48.1837C18.0654 46.7972 18.7188 45.7232 19.4313 44.6809C19.8982 43.9993 20.187 43.4098 19.7474 42.5451C19.2284 41.5384 19.6464 40.4499 19.8363 39.421C20.4672 36.0009 21.1564 32.6032 21.8252 29.1888C22.726 24.601 23.7037 20.0339 24.5184 15.4264C25.0386 12.5036 25.3301 9.53757 25.7077 6.59121C25.7163 6.48745 25.5832 6.36943 25.4835 6.21072C24.5143 6.9225 24.273 8.09673 23.7081 9.02178C20.2602 14.6432 16.7328 20.2163 13.7798 26.1171C12.5744 28.5358 11.1369 30.7808 9.64282 33.0218C8.3618 34.9521 7.45254 37.1456 6.51007 39.2862C5.92744 40.6059 4.92262 41.817 5.2425 43.4699C5.35221 44.0206 4.79263 44.3276 4.22754 44.2891C3.59667 44.2475 2.95292 44.1698 2.33246 44.0431C0.373915 43.6255 -0.174489 42.893 0.108804 40.9008C0.519591 38.0073 0.620007 35.0973 0.468404 32.193C0.365148 30.2664 0.694533 28.3633 0.790413 26.4641C1.06458 21.3011 1.08401 16.1162 2.10297 11.0117C3.10404 6.0119 4.81505 4.7508 9.6401 3.1867C10.855 2.78783 12.0314 3.24406 12.962 4.15457C13.6865 4.86995 13.5708 5.50804 12.667 6.02635C12.6048 6.06047 12.5427 6.09458 12.4694 6.11106C8.11649 7.14273 7.27247 10.5836 6.78439 14.3172C6.10038 19.5949 6.13243 24.9245 5.55307 30.2201C5.33646 32.2246 5.45147 34.2716 5.42112 36.2674C5.98236 36.3624 6.07397 36.0541 6.18208 35.8191C6.9947 34.0747 7.96642 32.4271 9.13703 30.9005C11.0059 28.4733 12.1115 25.6058 13.6038 22.9626C16.6677 17.5282 20.0396 12.279 23.4216 7.03818C24.3809 5.55084 25.1801 3.95745 26.2994 2.57617C26.7 2.07875 27.0854 1.42378 27.845 1.82701C28.5945 2.22187 28.8968 2.82865 28.6246 3.78135C27.4986 7.68933 27.5228 11.7848 26.6821 15.7398C25.9642 19.131 25.6649 22.5936 24.7479 25.9574C23.7748 29.5137 23.4128 33.1976 22.774 36.8243C22.6488 37.5569 22.0817 38.2669 22.5085 39.0955C23.1651 39.2094 23.326 38.6511 23.5614 38.282C26.4537 33.5847 29.3256 28.8706 32.2068 24.1557C35.3551 19.0125 38.051 13.6419 40.4997 8.1364C40.8223 7.4127 40.9438 6.64306 41.133 5.89491C41.4299 4.71527 41.3743 3.66348 40.3546 2.79906C39.885 2.39568 39.413 1.87091 39.7624 1.13523C40.1509 0.3209 40.9097 0.33127 41.6088 0.497139C43.3913 0.931827 45.2572 0.3012 47.033 1.14819C48.4173 1.81808 48.4696 1.68202 48.3727 3.28192C48.2828 4.66595 48.0736 5.97739 46.6754 6.70285C46.1855 6.95635 46.1238 7.47691 45.9049 7.91922C44.1144 11.5363 42.8356 15.4124 40.6999 18.8479C37.8925 23.3592 35.4134 28.0725 32.2868 32.3809C30.8351 34.384 29.7718 36.6299 28.1129 38.5221C26.4707 40.394 24.6926 42.1201 22.9562 43.8888C22.0624 44.7991 21.189 45.7261 20.3257 46.6615C19.6064 47.4425 18.8522 48.1521 17.1898 48.1828L17.1806 48.1837Z" fill="#DD1E3E"/>
</svg>
