<svg width="1278" height="570" viewBox="0 0 1278 570" fill="none" xmlns="http://www.w3.org/2000/svg">
<path d="M193.866 23L197.981 25.3759V20.6241L193.866 23ZM1069.57 23L1065.45 20.6241V25.3759L1069.57 23ZM1088.5 39.8722L1086.12 43.9834L1090.87 43.9912L1088.5 39.8722ZM1087.68 544.389L1090.06 540.277L1085.31 540.27L1087.68 544.389ZM245.717 544.389L249.832 546.765L249.832 542.013L245.717 544.389ZM800.439 544.389L796.324 542.013L796.324 546.765L800.439 544.389ZM193.866 544.389L197.981 546.765V542.013L193.866 544.389ZM237.487 544.389L233.372 542.013V546.765L237.487 544.389ZM437.191 40.2837H826.634V39.4606H437.191V40.2837ZM826.634 526.11H437.191V526.933H826.634V526.11ZM437.191 526.11C303.034 526.11 194.278 417.354 194.278 283.197H193.455C193.455 417.809 302.579 526.933 437.191 526.933V526.11ZM1069.55 283.197C1069.55 417.354 960.791 526.11 826.634 526.11V526.933C961.246 526.933 1070.37 417.809 1070.37 283.197H1069.55ZM826.634 40.2837C960.791 40.2837 1069.55 149.04 1069.55 283.197H1070.37C1070.37 148.585 961.245 39.4606 826.634 39.4606V40.2837ZM437.191 39.4606C302.579 39.4606 193.455 148.585 193.455 283.197H194.278C194.278 149.04 303.034 40.2837 437.191 40.2837V39.4606ZM441.497 64.8931H822.942V64.07H441.497V64.8931ZM822.942 501.501H441.498V502.324H822.942V501.501ZM441.498 501.501C320.932 501.501 223.193 403.763 223.193 283.197H222.37C222.37 404.217 320.477 502.324 441.498 502.324V501.501ZM1041.25 283.197C1041.25 403.763 943.508 501.501 822.942 501.501V502.324C943.963 502.324 1042.07 404.217 1042.07 283.197H1041.25ZM822.942 64.8931C943.508 64.8931 1041.25 162.631 1041.25 283.197H1042.07C1042.07 162.177 943.962 64.07 822.942 64.07V64.8931ZM441.497 64.07C320.477 64.07 222.37 162.177 222.37 283.197H223.193C223.193 162.631 320.931 64.8931 441.497 64.8931V64.07ZM444.266 77.8128H819.558V76.9897H444.266V77.8128ZM819.558 490.427H444.266V491.25H819.558V490.427ZM444.266 490.427C330.326 490.427 237.959 398.06 237.959 284.12H237.136C237.136 398.514 329.871 491.25 444.266 491.25V490.427ZM1025.87 284.12C1025.87 398.06 933.498 490.427 819.558 490.427V491.25C933.953 491.25 1026.69 398.514 1026.69 284.12H1025.87ZM819.558 77.8128C933.498 77.8128 1025.87 170.18 1025.87 284.12H1026.69C1026.69 169.725 933.953 76.9897 819.558 76.9897V77.8128ZM444.266 76.9897C329.871 76.9897 237.136 169.725 237.136 284.12H237.959C237.959 170.18 330.326 77.8128 444.266 77.8128V76.9897ZM446.419 88.8873H816.79V88.0643H446.419V88.8873ZM816.79 477.507H446.419V478.33H816.79V477.507ZM446.419 477.507C339.105 477.507 252.109 390.512 252.109 283.197H251.286C251.286 390.966 338.65 478.33 446.419 478.33V477.507ZM1011.1 283.197C1011.1 390.512 924.104 477.507 816.79 477.507V478.33C924.559 478.33 1011.92 390.966 1011.92 283.197H1011.1ZM816.79 88.8873C924.104 88.8873 1011.1 175.883 1011.1 283.197H1011.92C1011.92 175.428 924.558 88.0643 816.79 88.0643V88.8873ZM446.419 88.0643C338.65 88.0643 251.286 175.428 251.286 283.197H252.109C252.109 175.883 339.105 88.8873 446.419 88.8873V88.0643ZM448.573 101.192H812.791V100.369H448.573V101.192ZM812.791 465.817H448.573V466.64H812.791V465.817ZM448.573 465.817C347.884 465.817 266.26 384.193 266.26 283.504H265.437C265.437 384.648 347.43 466.64 448.573 466.64V465.817ZM995.104 283.504C995.104 384.193 913.479 465.817 812.791 465.817V466.64C913.934 466.64 995.927 384.648 995.927 283.504H995.104ZM812.791 101.192C913.479 101.192 995.104 182.816 995.104 283.504H995.927C995.927 182.361 913.934 100.369 812.791 100.369V101.192ZM448.573 100.369C347.43 100.369 265.437 182.361 265.437 283.504H266.26C266.26 182.816 347.884 101.192 448.573 101.192V100.369ZM450.726 113.497H809.407V112.674H450.726V113.497ZM809.407 452.898H450.726V453.721H809.407V452.898ZM450.726 452.898C357.003 452.898 281.025 376.92 281.025 283.197H280.202C280.202 377.375 356.549 453.721 450.726 453.721V452.898ZM979.108 283.197C979.108 376.92 903.13 452.898 809.407 452.898V453.721C903.585 453.721 979.931 377.375 979.931 283.197H979.108ZM809.407 113.497C903.13 113.497 979.108 189.474 979.108 283.197H979.931C979.931 189.02 903.584 112.674 809.407 112.674V113.497ZM450.726 112.674C356.548 112.674 280.202 189.02 280.202 283.197H281.025C281.025 189.474 357.003 113.497 450.726 113.497V112.674ZM453.802 125.801H804.485V124.978H453.802V125.801ZM804.485 441.823H453.802V442.646H804.485V441.823ZM453.802 441.823C366.535 441.823 295.791 371.079 295.791 283.812H294.968C294.968 371.534 366.081 442.646 453.802 442.646V441.823ZM962.496 283.812C962.496 371.079 891.752 441.823 804.485 441.823V442.646C892.207 442.646 963.319 371.534 963.319 283.812H962.496ZM804.485 125.801C891.752 125.801 962.496 196.545 962.496 283.812H963.319C963.319 196.09 892.207 124.978 804.485 124.978V125.801ZM453.802 124.978C366.08 124.978 294.968 196.09 294.968 283.812H295.791C295.791 196.545 366.535 125.801 453.802 125.801V124.978ZM455.033 137.491H801.409V136.668H455.033V137.491ZM801.409 428.903H455.033V429.726H801.409V428.903ZM455.033 428.903C374.561 428.903 309.326 363.668 309.326 283.197H308.503C308.503 364.123 374.107 429.726 455.033 429.726V428.903ZM947.115 283.197C947.115 363.668 881.88 428.903 801.409 428.903V429.726C882.335 429.726 947.938 364.123 947.938 283.197H947.115ZM801.409 137.491C881.88 137.491 947.115 202.726 947.115 283.197H947.938C947.938 202.271 882.335 136.668 801.409 136.668V137.491ZM455.033 136.668C374.107 136.668 308.503 202.271 308.503 283.197H309.326C309.326 202.726 374.561 137.491 455.033 137.491V136.668ZM439.344 53.2035H825.711V52.3804H439.344V53.2035ZM825.711 515.036H439.344V515.859H825.711V515.036ZM439.344 515.036C311.813 515.036 208.428 411.651 208.428 284.12H207.605C207.605 412.106 311.358 515.859 439.344 515.859V515.036ZM1056.63 284.12C1056.63 411.651 953.242 515.036 825.711 515.036V515.859C953.697 515.859 1057.45 412.106 1057.45 284.12H1056.63ZM825.711 53.2035C953.242 53.2035 1056.63 156.588 1056.63 284.12H1057.45C1057.45 156.134 953.697 52.3804 825.711 52.3804V53.2035ZM439.344 52.3804C311.358 52.3804 207.605 156.134 207.605 284.12H208.428C208.428 156.588 311.813 53.2035 439.344 53.2035V52.3804ZM193.866 526.522L478.104 526.522L478.104 525.699L193.866 525.699L193.866 526.522ZM193.866 515.448L478.104 515.448L478.104 514.625L193.866 514.625L193.866 515.448ZM193.866 501.912L478.104 501.912L478.104 501.089L193.866 501.089L193.866 501.912ZM193.866 490.838L478.104 490.838L478.104 490.015L193.866 490.015L193.866 490.838ZM193.866 477.918L478.104 477.918L478.104 477.095L193.866 477.095L193.866 477.918ZM193.866 466.229L478.104 466.229L478.104 465.406L193.866 465.406L193.866 466.229ZM193.866 453.309L478.104 453.309L478.104 452.486L193.866 452.486L193.866 453.309ZM193.866 442.235L478.104 442.235L478.104 441.412L193.866 441.412L193.866 442.235ZM193.866 429.315L478.104 429.315L478.104 428.492L193.866 428.492L193.866 429.315ZM193.866 429.315L193.866 526.522L194.689 526.522L194.689 429.315L193.866 429.315ZM478.104 429.315V526.522H478.927V429.315H478.104ZM800.486 429.315V526.522H801.309V429.315H800.486ZM800.486 39.8723V137.079H801.309V39.8723H800.486ZM478.104 39.8723V137.079H478.927V39.8723H478.104ZM446.112 113.7V126.005H446.935V113.7H446.112ZM422.118 103.241V115.546H422.941V103.241H422.118ZM397.508 94.6279V108.163H398.331V94.6279H397.508ZM367.362 92.1671V105.702H368.185V92.1671H367.362ZM333.524 93.3975V110.009H334.347V93.3975H333.524ZM301.532 98.3192V114.93H302.355V98.3192H301.532ZM270.77 105.702V126.005H271.593V105.702H270.77ZM188.105 220.116L188.105 23.4115L187.282 23.4115L187.282 220.116L188.105 220.116ZM197.57 23.4115H1065.87V22.5885H197.57V23.4115ZM1088.08 43.5751L1087.27 540.684L1088.09 540.686L1088.9 43.5765L1088.08 43.5751ZM249.421 544.801L796.735 544.801L796.735 543.978L249.421 543.978L249.421 544.801ZM197.57 544.801H233.783V543.978H197.57V544.801ZM1076.98 220.116V23.4115H1076.15V220.116H1076.98ZM891.795 34.9338H1088.5V34.1108H891.795V34.9338ZM812.784 544.389H1069.57V543.566H812.784V544.389Z" fill="black"/>
<path d="M168.534 246.144C168.174 246.144 167.894 246.064 167.694 245.904C167.494 245.736 167.342 245.484 167.238 245.148H167.142L166.662 246H166.158L168.222 237.756H167.142L167.238 237.336L169.398 236.88L168.066 242.064L168.162 242.1C168.322 241.756 168.482 241.436 168.642 241.14C168.81 240.836 168.986 240.576 169.17 240.36C169.354 240.144 169.55 239.976 169.758 239.856C169.966 239.728 170.198 239.664 170.454 239.664C170.862 239.664 171.158 239.816 171.342 240.12C171.534 240.416 171.63 240.844 171.63 241.404C171.63 241.732 171.598 242.076 171.534 242.436C171.47 242.796 171.378 243.152 171.258 243.504C171.138 243.856 170.986 244.192 170.802 244.512C170.626 244.832 170.422 245.112 170.19 245.352C169.966 245.592 169.714 245.784 169.434 245.928C169.154 246.072 168.854 246.144 168.534 246.144ZM168.282 245.532C168.714 245.532 169.11 245.34 169.47 244.956C169.83 244.572 170.11 244.012 170.31 243.276C170.342 243.148 170.374 243 170.406 242.832C170.446 242.664 170.482 242.492 170.514 242.316C170.546 242.14 170.57 241.972 170.586 241.812C170.61 241.652 170.622 241.516 170.622 241.404C170.622 241.092 170.59 240.852 170.526 240.684C170.462 240.516 170.334 240.432 170.142 240.432C169.966 240.432 169.786 240.504 169.602 240.648C169.418 240.784 169.238 240.964 169.062 241.188C168.886 241.404 168.718 241.652 168.558 241.932C168.398 242.204 168.254 242.472 168.126 242.736C167.998 243 167.886 243.248 167.79 243.48C167.702 243.712 167.638 243.896 167.598 244.032L167.55 244.2C167.438 244.584 167.442 244.904 167.562 245.16C167.69 245.408 167.93 245.532 168.282 245.532Z" fill="black"/>
<path d="M1102.06 462.144C1101.82 462.144 1101.64 462.076 1101.52 461.94C1101.4 461.796 1101.34 461.632 1101.34 461.448C1101.34 461.36 1101.35 461.268 1101.37 461.172C1101.38 461.076 1101.4 460.988 1101.43 460.908L1102.48 457.056C1102.51 456.952 1102.52 456.86 1102.52 456.78C1102.52 456.548 1102.41 456.432 1102.18 456.432C1101.97 456.432 1101.72 456.54 1101.45 456.756C1101.18 456.964 1100.91 457.244 1100.64 457.596C1100.36 457.948 1100.11 458.348 1099.88 458.796C1099.66 459.244 1099.48 459.708 1099.36 460.188L1098.91 462H1097.95L1100.01 453.756H1098.93L1099.03 453.336L1101.19 452.88L1099.83 458.136L1099.93 458.172C1100.1 457.86 1100.27 457.556 1100.44 457.26C1100.63 456.956 1100.82 456.688 1101.03 456.456C1101.24 456.216 1101.46 456.024 1101.7 455.88C1101.94 455.736 1102.21 455.664 1102.5 455.664C1102.84 455.664 1103.09 455.76 1103.24 455.952C1103.4 456.136 1103.48 456.372 1103.48 456.66C1103.48 456.836 1103.45 457.04 1103.38 457.272L1102.28 461.364L1102.5 461.46L1103.88 460.08L1104.16 460.308L1103.31 461.304C1103.03 461.64 1102.8 461.864 1102.6 461.976C1102.41 462.088 1102.23 462.144 1102.06 462.144Z" fill="black"/>
<path d="M450.422 124V123.124H452.822V116.368H452.738L450.626 118.336L450.038 117.7L452.258 115.624H453.83V123.124H456.038V124H450.422Z" fill="black"/>
<path d="M431.846 113H426.254V111.968L429.05 109.448C429.458 109.08 429.794 108.704 430.058 108.32C430.322 107.928 430.454 107.516 430.454 107.084V106.94C430.454 106.436 430.322 106.048 430.058 105.776C429.794 105.496 429.402 105.356 428.882 105.356C428.37 105.356 427.974 105.488 427.694 105.752C427.422 106.008 427.218 106.352 427.082 106.784L426.182 106.448C426.262 106.2 426.37 105.96 426.506 105.728C426.65 105.488 426.83 105.276 427.046 105.092C427.262 104.908 427.522 104.76 427.826 104.648C428.138 104.536 428.498 104.48 428.906 104.48C429.322 104.48 429.69 104.54 430.01 104.66C430.338 104.78 430.61 104.948 430.826 105.164C431.05 105.38 431.218 105.636 431.33 105.932C431.45 106.228 431.51 106.552 431.51 106.904C431.51 107.224 431.462 107.524 431.366 107.804C431.278 108.084 431.15 108.352 430.982 108.608C430.822 108.864 430.626 109.116 430.394 109.364C430.17 109.604 429.918 109.844 429.638 110.084L427.298 112.124H431.846V113Z" fill="black"/>
<path d="M404.642 99.176C405.226 99.176 405.662 99.048 405.95 98.792C406.246 98.528 406.394 98.192 406.394 97.784V97.7C406.394 97.252 406.25 96.916 405.962 96.692C405.682 96.468 405.314 96.356 404.858 96.356C404.41 96.356 404.046 96.456 403.766 96.656C403.494 96.848 403.27 97.104 403.094 97.424L402.338 96.848C402.442 96.68 402.57 96.516 402.722 96.356C402.874 96.188 403.05 96.04 403.25 95.912C403.458 95.784 403.694 95.68 403.958 95.6C404.23 95.52 404.538 95.48 404.882 95.48C405.242 95.48 405.578 95.528 405.89 95.624C406.202 95.712 406.474 95.848 406.706 96.032C406.938 96.208 407.118 96.428 407.246 96.692C407.382 96.956 407.45 97.256 407.45 97.592C407.45 97.864 407.406 98.108 407.318 98.324C407.238 98.54 407.122 98.728 406.97 98.888C406.826 99.048 406.654 99.184 406.454 99.296C406.254 99.408 406.042 99.492 405.818 99.548V99.596C406.05 99.644 406.274 99.724 406.49 99.836C406.706 99.94 406.898 100.08 407.066 100.256C407.234 100.424 407.366 100.632 407.462 100.88C407.566 101.12 407.618 101.396 407.618 101.708C407.618 102.068 407.546 102.4 407.402 102.704C407.266 103 407.07 103.256 406.814 103.472C406.566 103.68 406.262 103.844 405.902 103.964C405.55 104.084 405.158 104.144 404.726 104.144C404.358 104.144 404.03 104.104 403.742 104.024C403.462 103.944 403.21 103.836 402.986 103.7C402.77 103.564 402.578 103.412 402.41 103.244C402.25 103.076 402.106 102.9 401.978 102.716L402.734 102.14C402.846 102.308 402.962 102.46 403.082 102.596C403.202 102.732 403.338 102.852 403.49 102.956C403.65 103.052 403.83 103.128 404.03 103.184C404.23 103.24 404.462 103.268 404.726 103.268C405.318 103.268 405.77 103.132 406.082 102.86C406.402 102.588 406.562 102.2 406.562 101.696V101.6C406.562 101.104 406.406 100.72 406.094 100.448C405.79 100.176 405.33 100.04 404.714 100.04H403.718V99.176H404.642Z" fill="black"/>
<path d="M375.938 100V98.356H371.81V97.468L375.434 91.624H376.898V97.528H378.146V98.356H376.898V100H375.938ZM372.71 97.528H375.938V92.404H375.89L372.71 97.528Z" fill="black"/>
<path d="M343.414 94.5H339.67L339.43 97.704H339.514C339.722 97.424 339.954 97.204 340.21 97.044C340.466 96.876 340.818 96.792 341.266 96.792C341.634 96.792 341.97 96.852 342.274 96.972C342.586 97.084 342.854 97.252 343.078 97.476C343.302 97.7 343.478 97.972 343.606 98.292C343.734 98.604 343.798 98.964 343.798 99.372C343.798 99.78 343.734 100.156 343.606 100.5C343.478 100.836 343.29 101.128 343.042 101.376C342.794 101.616 342.494 101.804 342.142 101.94C341.79 102.076 341.39 102.144 340.942 102.144C340.59 102.144 340.274 102.104 339.994 102.024C339.722 101.944 339.478 101.836 339.262 101.7C339.054 101.564 338.87 101.412 338.71 101.244C338.55 101.076 338.406 100.9 338.278 100.716L339.034 100.14C339.146 100.308 339.258 100.46 339.37 100.596C339.49 100.732 339.626 100.852 339.778 100.956C339.93 101.052 340.102 101.128 340.294 101.184C340.486 101.24 340.71 101.268 340.966 101.268C341.542 101.268 341.982 101.112 342.286 100.8C342.598 100.488 342.754 100.056 342.754 99.504V99.408C342.754 98.856 342.598 98.424 342.286 98.112C341.974 97.8 341.526 97.644 340.942 97.644C340.542 97.644 340.23 97.712 340.006 97.848C339.79 97.984 339.59 98.152 339.406 98.352L338.554 98.232L338.854 93.624H343.414V94.5Z" fill="black"/>
<path d="M309.014 106.144C308.574 106.144 308.178 106.072 307.826 105.928C307.474 105.776 307.174 105.564 306.926 105.292C306.686 105.012 306.498 104.672 306.362 104.272C306.234 103.872 306.17 103.424 306.17 102.928C306.17 102.304 306.262 101.72 306.446 101.176C306.638 100.624 306.878 100.124 307.166 99.676C307.462 99.22 307.79 98.82 308.15 98.476C308.51 98.124 308.862 97.84 309.206 97.624H310.502C310.046 97.952 309.638 98.272 309.278 98.584C308.926 98.896 308.614 99.224 308.342 99.568C308.07 99.904 307.842 100.268 307.658 100.66C307.474 101.044 307.322 101.48 307.202 101.968L307.262 101.992C307.462 101.648 307.726 101.364 308.054 101.14C308.382 100.908 308.806 100.792 309.326 100.792C309.694 100.792 310.03 100.852 310.334 100.972C310.638 101.092 310.902 101.264 311.126 101.488C311.35 101.712 311.522 101.984 311.642 102.304C311.77 102.624 311.834 102.98 311.834 103.372C311.834 103.78 311.766 104.156 311.63 104.5C311.494 104.836 311.302 105.128 311.054 105.376C310.814 105.616 310.518 105.804 310.166 105.94C309.822 106.076 309.438 106.144 309.014 106.144ZM309.002 105.292C309.578 105.292 310.022 105.136 310.334 104.824C310.654 104.512 310.814 104.072 310.814 103.504V103.408C310.814 102.84 310.654 102.4 310.334 102.088C310.022 101.776 309.578 101.62 309.002 101.62C308.426 101.62 307.978 101.776 307.658 102.088C307.346 102.4 307.19 102.84 307.19 103.408V103.504C307.19 104.072 307.346 104.512 307.658 104.824C307.978 105.136 308.426 105.292 309.002 105.292Z" fill="black"/>
<path d="M277.478 113L280.754 105.488H277.082V107.048H276.182V104.624H281.774V105.512L278.558 113H277.478Z" fill="black"/>
<path d="M173.423 437V436.124H175.823V429.368H175.739L173.627 431.336L173.039 430.7L175.259 428.624H176.831V436.124H179.039V437H173.423Z" fill="black"/>
<path d="M178.847 452H173.255V450.968L176.051 448.448C176.459 448.08 176.795 447.704 177.059 447.32C177.323 446.928 177.455 446.516 177.455 446.084V445.94C177.455 445.436 177.323 445.048 177.059 444.776C176.795 444.496 176.403 444.356 175.883 444.356C175.371 444.356 174.975 444.488 174.695 444.752C174.423 445.008 174.219 445.352 174.083 445.784L173.183 445.448C173.263 445.2 173.371 444.96 173.507 444.728C173.651 444.488 173.831 444.276 174.047 444.092C174.263 443.908 174.523 443.76 174.827 443.648C175.139 443.536 175.499 443.48 175.907 443.48C176.323 443.48 176.691 443.54 177.011 443.66C177.339 443.78 177.611 443.948 177.827 444.164C178.051 444.38 178.219 444.636 178.331 444.932C178.451 445.228 178.511 445.552 178.511 445.904C178.511 446.224 178.463 446.524 178.367 446.804C178.279 447.084 178.151 447.352 177.983 447.608C177.823 447.864 177.627 448.116 177.395 448.364C177.171 448.604 176.919 448.844 176.639 449.084L174.299 451.124H178.847V452Z" fill="black"/>
<path d="M175.643 462.176C176.227 462.176 176.663 462.048 176.951 461.792C177.247 461.528 177.395 461.192 177.395 460.784V460.7C177.395 460.252 177.251 459.916 176.963 459.692C176.683 459.468 176.315 459.356 175.859 459.356C175.411 459.356 175.047 459.456 174.767 459.656C174.495 459.848 174.271 460.104 174.095 460.424L173.339 459.848C173.443 459.68 173.571 459.516 173.723 459.356C173.875 459.188 174.051 459.04 174.251 458.912C174.459 458.784 174.695 458.68 174.959 458.6C175.231 458.52 175.539 458.48 175.883 458.48C176.243 458.48 176.579 458.528 176.891 458.624C177.203 458.712 177.475 458.848 177.707 459.032C177.939 459.208 178.119 459.428 178.247 459.692C178.383 459.956 178.451 460.256 178.451 460.592C178.451 460.864 178.407 461.108 178.319 461.324C178.239 461.54 178.123 461.728 177.971 461.888C177.827 462.048 177.655 462.184 177.455 462.296C177.255 462.408 177.043 462.492 176.819 462.548V462.596C177.051 462.644 177.275 462.724 177.491 462.836C177.707 462.94 177.899 463.08 178.067 463.256C178.235 463.424 178.367 463.632 178.463 463.88C178.567 464.12 178.619 464.396 178.619 464.708C178.619 465.068 178.547 465.4 178.403 465.704C178.267 466 178.071 466.256 177.815 466.472C177.567 466.68 177.263 466.844 176.903 466.964C176.551 467.084 176.159 467.144 175.727 467.144C175.359 467.144 175.031 467.104 174.743 467.024C174.463 466.944 174.211 466.836 173.987 466.7C173.771 466.564 173.579 466.412 173.411 466.244C173.251 466.076 173.107 465.9 172.979 465.716L173.735 465.14C173.847 465.308 173.963 465.46 174.083 465.596C174.203 465.732 174.339 465.852 174.491 465.956C174.651 466.052 174.831 466.128 175.031 466.184C175.231 466.24 175.463 466.268 175.727 466.268C176.319 466.268 176.771 466.132 177.083 465.86C177.403 465.588 177.563 465.2 177.563 464.696V464.6C177.563 464.104 177.407 463.72 177.095 463.448C176.791 463.176 176.331 463.04 175.715 463.04H174.719V462.176H175.643Z" fill="black"/>
<path d="M176.939 482V480.356H172.811V479.468L176.435 473.624H177.899V479.528H179.147V480.356H177.899V482H176.939ZM173.711 479.528H176.939V474.404H176.891L173.711 479.528Z" fill="black"/>
<path d="M178.415 489.5H174.671L174.431 492.704H174.515C174.723 492.424 174.955 492.204 175.211 492.044C175.467 491.876 175.819 491.792 176.267 491.792C176.635 491.792 176.971 491.852 177.275 491.972C177.587 492.084 177.855 492.252 178.079 492.476C178.303 492.7 178.479 492.972 178.607 493.292C178.735 493.604 178.799 493.964 178.799 494.372C178.799 494.78 178.735 495.156 178.607 495.5C178.479 495.836 178.291 496.128 178.043 496.376C177.795 496.616 177.495 496.804 177.143 496.94C176.791 497.076 176.391 497.144 175.943 497.144C175.591 497.144 175.275 497.104 174.995 497.024C174.723 496.944 174.479 496.836 174.263 496.7C174.055 496.564 173.871 496.412 173.711 496.244C173.551 496.076 173.407 495.9 173.279 495.716L174.035 495.14C174.147 495.308 174.259 495.46 174.371 495.596C174.491 495.732 174.627 495.852 174.779 495.956C174.931 496.052 175.103 496.128 175.295 496.184C175.487 496.24 175.711 496.268 175.967 496.268C176.543 496.268 176.983 496.112 177.287 495.8C177.599 495.488 177.755 495.056 177.755 494.504V494.408C177.755 493.856 177.599 493.424 177.287 493.112C176.975 492.8 176.527 492.644 175.943 492.644C175.543 492.644 175.231 492.712 175.007 492.848C174.791 492.984 174.591 493.152 174.407 493.352L173.555 493.232L173.855 488.624H178.415V489.5Z" fill="black"/>
<path d="M176.015 512.144C175.575 512.144 175.179 512.072 174.827 511.928C174.475 511.776 174.175 511.564 173.927 511.292C173.687 511.012 173.499 510.672 173.363 510.272C173.235 509.872 173.171 509.424 173.171 508.928C173.171 508.304 173.263 507.72 173.447 507.176C173.639 506.624 173.879 506.124 174.167 505.676C174.463 505.22 174.791 504.82 175.151 504.476C175.511 504.124 175.863 503.84 176.207 503.624H177.503C177.047 503.952 176.639 504.272 176.279 504.584C175.927 504.896 175.615 505.224 175.343 505.568C175.071 505.904 174.843 506.268 174.659 506.66C174.475 507.044 174.323 507.48 174.203 507.968L174.263 507.992C174.463 507.648 174.727 507.364 175.055 507.14C175.383 506.908 175.807 506.792 176.327 506.792C176.695 506.792 177.031 506.852 177.335 506.972C177.639 507.092 177.903 507.264 178.127 507.488C178.351 507.712 178.523 507.984 178.643 508.304C178.771 508.624 178.835 508.98 178.835 509.372C178.835 509.78 178.767 510.156 178.631 510.5C178.495 510.836 178.303 511.128 178.055 511.376C177.815 511.616 177.519 511.804 177.167 511.94C176.823 512.076 176.439 512.144 176.015 512.144ZM176.003 511.292C176.579 511.292 177.023 511.136 177.335 510.824C177.655 510.512 177.815 510.072 177.815 509.504V509.408C177.815 508.84 177.655 508.4 177.335 508.088C177.023 507.776 176.579 507.62 176.003 507.62C175.427 507.62 174.979 507.776 174.659 508.088C174.347 508.4 174.191 508.84 174.191 509.408V509.504C174.191 510.072 174.347 510.512 174.659 510.824C174.979 511.136 175.427 511.292 176.003 511.292Z" fill="black"/>
<path d="M174.479 527L177.755 519.488H174.083V521.048H173.183V518.624H178.775V519.512L175.559 527H174.479Z" fill="black"/>
<path d="M274.612 13.144C274.236 13.144 273.9 13.108 273.604 13.036C273.308 12.964 273.04 12.868 272.8 12.748C272.56 12.62 272.344 12.468 272.152 12.292C271.968 12.116 271.8 11.924 271.648 11.716L272.176 11.284C272.488 11.684 272.832 11.992 273.208 12.208C273.584 12.416 274.06 12.52 274.636 12.52C275.308 12.52 275.824 12.372 276.184 12.076C276.544 11.772 276.724 11.336 276.724 10.768C276.724 10.248 276.572 9.864 276.268 9.616C275.972 9.368 275.548 9.2 274.996 9.112L274.06 8.956C273.644 8.884 273.296 8.776 273.016 8.632C272.744 8.488 272.524 8.32 272.356 8.128C272.188 7.928 272.068 7.708 271.996 7.468C271.932 7.228 271.9 6.98 271.9 6.724C271.9 5.972 272.144 5.412 272.632 5.044C273.128 4.668 273.792 4.48 274.624 4.48C275.304 4.48 275.86 4.592 276.292 4.816C276.732 5.032 277.084 5.332 277.348 5.716L276.844 6.16C276.604 5.824 276.308 5.564 275.956 5.38C275.612 5.196 275.16 5.104 274.6 5.104C273.976 5.104 273.488 5.24 273.136 5.512C272.792 5.776 272.62 6.172 272.62 6.7C272.62 7.188 272.764 7.56 273.052 7.816C273.34 8.064 273.768 8.232 274.336 8.32L275.26 8.476C275.684 8.548 276.036 8.66 276.316 8.812C276.596 8.956 276.82 9.128 276.988 9.328C277.156 9.528 277.272 9.748 277.336 9.988C277.408 10.228 277.444 10.48 277.444 10.744C277.444 11.512 277.196 12.104 276.7 12.52C276.204 12.936 275.508 13.144 274.612 13.144ZM282.167 5.248V13H281.447V5.248H278.579V4.624H285.035V5.248H282.167ZM291.378 13L290.586 10.444H287.418L286.614 13H285.87L288.534 4.624H289.482L292.134 13H291.378ZM289.038 5.392H288.954L287.586 9.82H290.406L289.038 5.392ZM294.482 13H293.762V4.624H296.762C297.506 4.624 298.07 4.836 298.454 5.26C298.838 5.676 299.03 6.248 299.03 6.976C299.03 7.656 298.854 8.2 298.502 8.608C298.158 9.016 297.646 9.24 296.966 9.28H296.786L299.054 13H298.25L296.042 9.316H294.482V13ZM296.75 8.704C297.254 8.704 297.634 8.568 297.89 8.296C298.146 8.024 298.274 7.68 298.274 7.264V6.688C298.274 6.272 298.146 5.928 297.89 5.656C297.634 5.384 297.254 5.248 296.75 5.248H294.482V8.704H296.75ZM303.753 5.248V13H303.033V5.248H300.165V4.624H306.621V5.248H303.753Z" fill="black"/>
<path d="M329.515 13.144C329.347 13.144 329.211 13.096 329.107 13C329.011 12.896 328.963 12.764 328.963 12.604C328.963 12.54 328.971 12.468 328.987 12.388C329.003 12.3 329.019 12.22 329.035 12.148L330.259 7.264H329.227L329.335 6.856H329.827C330.043 6.856 330.203 6.824 330.307 6.76C330.411 6.688 330.503 6.56 330.583 6.376L331.087 5.2H331.459L331.051 6.856H332.647L332.551 7.264H330.943L329.623 12.544L329.827 12.64L331.651 11.38L331.843 11.584L330.535 12.616C330.391 12.728 330.271 12.82 330.175 12.892C330.079 12.964 329.995 13.016 329.923 13.048C329.851 13.088 329.783 13.112 329.719 13.12C329.655 13.136 329.587 13.144 329.515 13.144ZM336.605 13.144C336.429 13.144 336.289 13.096 336.185 13C336.081 12.896 336.029 12.764 336.029 12.604C336.029 12.54 336.037 12.468 336.053 12.388C336.069 12.308 336.085 12.228 336.101 12.148L337.229 7.984C337.261 7.88 337.277 7.776 337.277 7.672C337.277 7.392 337.137 7.252 336.857 7.252C336.673 7.252 336.481 7.312 336.281 7.432C336.081 7.544 335.877 7.704 335.669 7.912C335.485 8.096 335.301 8.312 335.117 8.56C334.941 8.8 334.769 9.06 334.601 9.34C334.441 9.62 334.297 9.912 334.169 10.216C334.041 10.52 333.941 10.816 333.869 11.104L333.401 13H332.717L334.829 4.54H333.773L333.845 4.24L335.669 3.904L334.289 9.34L334.361 9.376C334.513 9.088 334.681 8.788 334.865 8.476C335.057 8.156 335.265 7.868 335.489 7.612C335.713 7.348 335.953 7.132 336.209 6.964C336.473 6.796 336.761 6.712 337.073 6.712C337.385 6.712 337.609 6.792 337.745 6.952C337.889 7.112 337.961 7.32 337.961 7.576C337.961 7.664 337.953 7.752 337.937 7.84C337.921 7.928 337.901 8.02 337.877 8.116L336.689 12.544L336.905 12.64L338.381 11.272L338.585 11.452L337.649 12.448C337.385 12.728 337.177 12.912 337.025 13C336.881 13.096 336.741 13.144 336.605 13.144ZM340.074 13.144C339.914 13.144 339.782 13.096 339.678 13C339.574 12.896 339.522 12.764 339.522 12.604C339.522 12.54 339.53 12.468 339.546 12.388C339.562 12.308 339.578 12.228 339.594 12.148L340.77 7.384H339.714L339.786 7.084L341.622 6.76L340.17 12.544L340.386 12.64L341.862 11.272L342.066 11.452L341.13 12.448C340.874 12.72 340.67 12.904 340.518 13C340.366 13.096 340.218 13.144 340.074 13.144ZM341.67 5.188C341.526 5.188 341.418 5.148 341.346 5.068C341.274 4.988 341.238 4.896 341.238 4.792C341.238 4.76 341.238 4.728 341.238 4.696C341.246 4.664 341.258 4.624 341.274 4.576C341.314 4.472 341.378 4.384 341.466 4.312C341.554 4.232 341.666 4.192 341.802 4.192C341.946 4.192 342.054 4.232 342.126 4.312C342.198 4.392 342.234 4.484 342.234 4.588C342.234 4.62 342.23 4.652 342.222 4.684C342.222 4.716 342.214 4.756 342.198 4.804C342.158 4.908 342.094 5 342.006 5.08C341.918 5.152 341.806 5.188 341.67 5.188ZM343.495 13.144C343.111 13.144 342.823 13.08 342.631 12.952C342.447 12.816 342.355 12.644 342.355 12.436C342.355 12.3 342.399 12.18 342.487 12.076C342.583 11.972 342.711 11.92 342.871 11.92C343.007 11.92 343.115 11.96 343.195 12.04C343.283 12.112 343.327 12.22 343.327 12.364C343.327 12.54 343.255 12.688 343.111 12.808L343.123 12.868C343.155 12.884 343.219 12.892 343.315 12.892C343.483 12.892 343.663 12.876 343.855 12.844C344.055 12.804 344.239 12.736 344.407 12.64C344.575 12.536 344.715 12.4 344.827 12.232C344.939 12.064 344.995 11.848 344.995 11.584C344.995 11.424 344.975 11.28 344.935 11.152C344.895 11.024 344.835 10.9 344.755 10.78C344.683 10.66 344.591 10.536 344.479 10.408C344.367 10.272 344.235 10.124 344.083 9.964C343.883 9.74 343.715 9.524 343.579 9.316C343.451 9.1 343.387 8.832 343.387 8.512C343.387 8.24 343.439 7.992 343.543 7.768C343.647 7.544 343.791 7.356 343.975 7.204C344.159 7.044 344.375 6.924 344.623 6.844C344.879 6.756 345.151 6.712 345.439 6.712C345.823 6.712 346.107 6.78 346.291 6.916C346.475 7.044 346.567 7.208 346.567 7.408C346.567 7.552 346.519 7.676 346.423 7.78C346.335 7.884 346.211 7.936 346.051 7.936C345.915 7.936 345.803 7.896 345.715 7.816C345.635 7.736 345.595 7.628 345.595 7.492C345.595 7.404 345.615 7.32 345.655 7.24C345.695 7.16 345.747 7.096 345.811 7.048L345.787 6.976C345.763 6.968 345.707 6.964 345.619 6.964C345.451 6.964 345.275 6.984 345.091 7.024C344.907 7.056 344.735 7.12 344.575 7.216C344.423 7.312 344.295 7.444 344.191 7.612C344.087 7.78 344.035 7.996 344.035 8.26C344.035 8.42 344.055 8.568 344.095 8.704C344.135 8.832 344.191 8.96 344.263 9.088C344.343 9.208 344.439 9.332 344.551 9.46C344.663 9.588 344.795 9.736 344.947 9.904C345.155 10.128 345.323 10.348 345.451 10.564C345.579 10.772 345.643 11.028 345.643 11.332C345.643 11.612 345.587 11.864 345.475 12.088C345.363 12.312 345.211 12.504 345.019 12.664C344.827 12.816 344.599 12.932 344.335 13.012C344.071 13.1 343.791 13.144 343.495 13.144ZM350.422 13.144C350.262 13.144 350.13 13.096 350.026 13C349.922 12.896 349.87 12.764 349.87 12.604C349.87 12.54 349.878 12.468 349.894 12.388C349.91 12.308 349.926 12.228 349.942 12.148L351.118 7.384H350.062L350.134 7.084L351.97 6.76L350.518 12.544L350.734 12.64L352.21 11.272L352.414 11.452L351.478 12.448C351.222 12.72 351.018 12.904 350.866 13C350.714 13.096 350.566 13.144 350.422 13.144ZM352.018 5.188C351.874 5.188 351.766 5.148 351.694 5.068C351.622 4.988 351.586 4.896 351.586 4.792C351.586 4.76 351.586 4.728 351.586 4.696C351.594 4.664 351.606 4.624 351.622 4.576C351.662 4.472 351.726 4.384 351.814 4.312C351.902 4.232 352.014 4.192 352.15 4.192C352.294 4.192 352.402 4.232 352.474 4.312C352.546 4.392 352.582 4.484 352.582 4.588C352.582 4.62 352.578 4.652 352.57 4.684C352.57 4.716 352.562 4.756 352.546 4.804C352.506 4.908 352.442 5 352.354 5.08C352.266 5.152 352.154 5.188 352.018 5.188ZM353.843 13.144C353.459 13.144 353.171 13.08 352.979 12.952C352.795 12.816 352.703 12.644 352.703 12.436C352.703 12.3 352.747 12.18 352.835 12.076C352.931 11.972 353.059 11.92 353.219 11.92C353.355 11.92 353.463 11.96 353.543 12.04C353.631 12.112 353.675 12.22 353.675 12.364C353.675 12.54 353.603 12.688 353.459 12.808L353.471 12.868C353.503 12.884 353.567 12.892 353.663 12.892C353.831 12.892 354.011 12.876 354.203 12.844C354.403 12.804 354.587 12.736 354.755 12.64C354.923 12.536 355.063 12.4 355.175 12.232C355.287 12.064 355.343 11.848 355.343 11.584C355.343 11.424 355.323 11.28 355.283 11.152C355.243 11.024 355.183 10.9 355.103 10.78C355.031 10.66 354.939 10.536 354.827 10.408C354.715 10.272 354.583 10.124 354.431 9.964C354.231 9.74 354.063 9.524 353.927 9.316C353.799 9.1 353.735 8.832 353.735 8.512C353.735 8.24 353.787 7.992 353.891 7.768C353.995 7.544 354.139 7.356 354.323 7.204C354.507 7.044 354.723 6.924 354.971 6.844C355.227 6.756 355.499 6.712 355.787 6.712C356.171 6.712 356.455 6.78 356.639 6.916C356.823 7.044 356.915 7.208 356.915 7.408C356.915 7.552 356.867 7.676 356.771 7.78C356.683 7.884 356.559 7.936 356.399 7.936C356.263 7.936 356.151 7.896 356.063 7.816C355.983 7.736 355.943 7.628 355.943 7.492C355.943 7.404 355.963 7.32 356.003 7.24C356.043 7.16 356.095 7.096 356.159 7.048L356.135 6.976C356.111 6.968 356.055 6.964 355.967 6.964C355.799 6.964 355.623 6.984 355.439 7.024C355.255 7.056 355.083 7.12 354.923 7.216C354.771 7.312 354.643 7.444 354.539 7.612C354.435 7.78 354.383 7.996 354.383 8.26C354.383 8.42 354.403 8.568 354.443 8.704C354.483 8.832 354.539 8.96 354.611 9.088C354.691 9.208 354.787 9.332 354.899 9.46C355.011 9.588 355.143 9.736 355.295 9.904C355.503 10.128 355.671 10.348 355.799 10.564C355.927 10.772 355.991 11.028 355.991 11.332C355.991 11.612 355.935 11.864 355.823 12.088C355.711 12.312 355.559 12.504 355.367 12.664C355.175 12.816 354.947 12.932 354.683 13.012C354.419 13.1 354.139 13.144 353.843 13.144ZM360.817 7.228H360.277L360.373 6.856H362.365L362.269 7.228H361.465L361.393 12.148H361.453L364.093 6.832H364.681L364.609 12.148H364.693L367.153 7.228H366.349L366.445 6.856H368.281L368.185 7.228H367.645L364.597 13H364.045L364.081 7.744H364.009L361.405 13H360.805L360.817 7.228ZM371.867 13.144C371.691 13.144 371.551 13.096 371.447 13C371.343 12.896 371.291 12.764 371.291 12.604C371.291 12.54 371.299 12.468 371.315 12.388C371.331 12.308 371.347 12.228 371.363 12.148L372.491 7.984C372.523 7.88 372.539 7.776 372.539 7.672C372.539 7.392 372.399 7.252 372.119 7.252C371.935 7.252 371.743 7.312 371.543 7.432C371.343 7.544 371.139 7.704 370.931 7.912C370.747 8.096 370.563 8.312 370.379 8.56C370.203 8.8 370.031 9.06 369.863 9.34C369.703 9.62 369.559 9.912 369.431 10.216C369.303 10.52 369.203 10.816 369.131 11.104L368.663 13H367.979L370.091 4.54H369.035L369.107 4.24L370.931 3.904L369.551 9.34L369.623 9.376C369.775 9.088 369.943 8.788 370.127 8.476C370.319 8.156 370.527 7.868 370.751 7.612C370.975 7.348 371.215 7.132 371.471 6.964C371.735 6.796 372.023 6.712 372.335 6.712C372.647 6.712 372.871 6.792 373.007 6.952C373.151 7.112 373.223 7.32 373.223 7.576C373.223 7.664 373.215 7.752 373.199 7.84C373.183 7.928 373.163 8.02 373.139 8.116L371.951 12.544L372.167 12.64L373.643 11.272L373.847 11.452L372.911 12.448C372.647 12.728 372.439 12.912 372.287 13C372.143 13.096 372.003 13.144 371.867 13.144ZM376.044 13.144C375.54 13.144 375.176 12.996 374.952 12.7C374.736 12.396 374.628 11.944 374.628 11.344C374.628 11.056 374.652 10.74 374.7 10.396C374.756 10.052 374.836 9.708 374.94 9.364C375.044 9.02 375.176 8.688 375.336 8.368C375.504 8.048 375.7 7.768 375.924 7.528C376.156 7.28 376.416 7.084 376.704 6.94C377 6.788 377.328 6.712 377.688 6.712C377.848 6.712 378.008 6.732 378.168 6.772C378.336 6.804 378.484 6.864 378.612 6.952C378.748 7.04 378.856 7.16 378.936 7.312C379.024 7.456 379.068 7.64 379.068 7.864C379.068 8.112 379.008 8.348 378.888 8.572C378.768 8.788 378.568 8.984 378.288 9.16C378.016 9.336 377.656 9.488 377.208 9.616C376.76 9.736 376.208 9.82 375.552 9.868C375.496 10.116 375.444 10.376 375.396 10.648C375.356 10.912 375.336 11.168 375.336 11.416C375.336 11.592 375.348 11.756 375.372 11.908C375.404 12.052 375.452 12.18 375.516 12.292C375.588 12.396 375.68 12.48 375.792 12.544C375.912 12.608 376.06 12.64 376.236 12.64C376.604 12.64 376.964 12.488 377.316 12.184C377.676 11.872 378.012 11.432 378.324 10.864L378.612 10.996C378.22 11.764 377.82 12.316 377.412 12.652C377.012 12.98 376.556 13.144 376.044 13.144ZM375.612 9.592C376.532 9.488 377.228 9.312 377.7 9.064C378.172 8.808 378.408 8.428 378.408 7.924C378.408 7.708 378.348 7.516 378.228 7.348C378.116 7.18 377.908 7.096 377.604 7.096C377.188 7.096 376.808 7.288 376.464 7.672C376.12 8.056 375.836 8.696 375.612 9.592ZM381.282 7.384H380.226L380.286 7.084L382.098 6.76L381.486 9.208L381.558 9.232C381.694 8.912 381.838 8.604 381.99 8.308C382.142 8.004 382.306 7.736 382.482 7.504C382.666 7.264 382.862 7.072 383.07 6.928C383.286 6.784 383.522 6.712 383.778 6.712C384.034 6.712 384.23 6.776 384.366 6.904C384.51 7.032 384.582 7.188 384.582 7.372C384.582 7.532 384.526 7.676 384.414 7.804C384.31 7.924 384.174 7.984 384.006 7.984C383.854 7.984 383.734 7.94 383.646 7.852C383.566 7.764 383.526 7.656 383.526 7.528C383.526 7.44 383.55 7.356 383.598 7.276C383.646 7.188 383.702 7.12 383.766 7.072L383.718 7.012H383.694C383.486 7.012 383.262 7.14 383.022 7.396C382.79 7.644 382.554 7.96 382.314 8.344C382.234 8.472 382.13 8.652 382.002 8.884C381.882 9.116 381.754 9.372 381.618 9.652C381.49 9.932 381.366 10.22 381.246 10.516C381.126 10.812 381.034 11.092 380.97 11.356L380.562 13H379.878L381.282 7.384ZM386.169 13.144C385.665 13.144 385.301 12.996 385.077 12.7C384.861 12.396 384.753 11.944 384.753 11.344C384.753 11.056 384.777 10.74 384.825 10.396C384.881 10.052 384.961 9.708 385.065 9.364C385.169 9.02 385.301 8.688 385.461 8.368C385.629 8.048 385.825 7.768 386.049 7.528C386.281 7.28 386.541 7.084 386.829 6.94C387.125 6.788 387.453 6.712 387.813 6.712C387.973 6.712 388.133 6.732 388.293 6.772C388.461 6.804 388.609 6.864 388.737 6.952C388.873 7.04 388.981 7.16 389.061 7.312C389.149 7.456 389.193 7.64 389.193 7.864C389.193 8.112 389.133 8.348 389.013 8.572C388.893 8.788 388.693 8.984 388.413 9.16C388.141 9.336 387.781 9.488 387.333 9.616C386.885 9.736 386.333 9.82 385.677 9.868C385.621 10.116 385.569 10.376 385.521 10.648C385.481 10.912 385.461 11.168 385.461 11.416C385.461 11.592 385.473 11.756 385.497 11.908C385.529 12.052 385.577 12.18 385.641 12.292C385.713 12.396 385.805 12.48 385.917 12.544C386.037 12.608 386.185 12.64 386.361 12.64C386.729 12.64 387.089 12.488 387.441 12.184C387.801 11.872 388.137 11.432 388.449 10.864L388.737 10.996C388.345 11.764 387.945 12.316 387.537 12.652C387.137 12.98 386.681 13.144 386.169 13.144ZM385.737 9.592C386.657 9.488 387.353 9.312 387.825 9.064C388.297 8.808 388.533 8.428 388.533 7.924C388.533 7.708 388.473 7.516 388.353 7.348C388.241 7.18 388.033 7.096 387.729 7.096C387.313 7.096 386.933 7.288 386.589 7.672C386.245 8.056 385.961 8.696 385.737 9.592ZM391.562 15.544C391.306 15.544 391.102 15.484 390.95 15.364C390.798 15.244 390.722 15.092 390.722 14.908C390.722 14.74 390.774 14.596 390.878 14.476C390.982 14.356 391.122 14.296 391.298 14.296C391.45 14.296 391.566 14.34 391.646 14.428C391.726 14.516 391.766 14.628 391.766 14.764C391.766 14.972 391.686 15.12 391.526 15.208L391.586 15.256H391.634C391.97 15.184 392.27 15.024 392.534 14.776C392.806 14.536 393.07 14.18 393.326 13.708L393.614 13.192L393.11 7.228H392.57L392.666 6.856H394.706L394.61 7.228H393.806L394.166 12.22H394.238L397.046 7.228H396.23L396.326 6.856H398.186L398.09 7.228H397.538L393.614 13.948C393.278 14.524 392.942 14.932 392.606 15.172C392.27 15.42 391.922 15.544 391.562 15.544ZM399.546 12.76C399.818 12.76 400.062 12.696 400.278 12.568C400.494 12.432 400.686 12.252 400.854 12.028C401.03 11.804 401.178 11.544 401.298 11.248C401.418 10.944 401.518 10.628 401.598 10.3C401.67 10.028 401.726 9.796 401.766 9.604C401.806 9.412 401.838 9.252 401.862 9.124C401.886 8.988 401.902 8.872 401.91 8.776C401.918 8.68 401.922 8.588 401.922 8.5C401.922 8.292 401.906 8.104 401.874 7.936C401.842 7.76 401.786 7.612 401.706 7.492C401.626 7.364 401.518 7.268 401.382 7.204C401.254 7.132 401.09 7.096 400.89 7.096C400.618 7.096 400.374 7.164 400.158 7.3C399.942 7.428 399.746 7.604 399.57 7.828C399.402 8.052 399.258 8.316 399.138 8.62C399.018 8.916 398.918 9.228 398.838 9.556C398.766 9.836 398.71 10.072 398.67 10.264C398.63 10.448 398.598 10.608 398.574 10.744C398.55 10.872 398.534 10.984 398.526 11.08C398.518 11.176 398.514 11.268 398.514 11.356C398.514 11.564 398.53 11.756 398.562 11.932C398.594 12.1 398.65 12.248 398.73 12.376C398.81 12.496 398.914 12.592 399.042 12.664C399.178 12.728 399.346 12.76 399.546 12.76ZM399.534 13.144C398.942 13.144 398.51 12.96 398.238 12.592C397.966 12.216 397.83 11.708 397.83 11.068C397.83 10.58 397.902 10.08 398.046 9.568C398.19 9.048 398.394 8.576 398.658 8.152C398.93 7.728 399.254 7.384 399.63 7.12C400.006 6.848 400.43 6.712 400.902 6.712C401.494 6.712 401.926 6.9 402.198 7.276C402.47 7.652 402.606 8.16 402.606 8.8C402.606 9.296 402.534 9.8 402.39 10.312C402.246 10.824 402.038 11.292 401.766 11.716C401.502 12.132 401.178 12.476 400.794 12.748C400.418 13.012 399.998 13.144 399.534 13.144ZM404.699 13.144C404.387 13.144 404.163 13.064 404.027 12.904C403.891 12.736 403.823 12.524 403.823 12.268C403.823 12.18 403.831 12.092 403.847 12.004C403.863 11.916 403.883 11.824 403.907 11.728L405.071 7.384H404.015L404.087 7.084L405.935 6.76L404.555 11.872C404.523 11.976 404.507 12.08 404.507 12.184C404.507 12.464 404.647 12.604 404.927 12.604C405.111 12.604 405.303 12.548 405.503 12.436C405.703 12.316 405.907 12.152 406.115 11.944C406.291 11.768 406.471 11.556 406.655 11.308C406.839 11.06 407.011 10.796 407.171 10.516C407.339 10.236 407.487 9.944 407.615 9.64C407.743 9.336 407.843 9.04 407.915 8.752L408.383 6.856H409.067L407.627 12.544L407.843 12.64L409.319 11.272L409.523 11.452L408.587 12.448C408.331 12.728 408.127 12.912 407.975 13C407.831 13.096 407.691 13.144 407.555 13.144C407.379 13.144 407.243 13.096 407.147 13C407.051 12.904 407.003 12.776 407.003 12.616C407.003 12.552 407.011 12.472 407.027 12.376C407.051 12.272 407.071 12.184 407.087 12.112L407.495 10.516L407.411 10.492C407.259 10.78 407.091 11.084 406.907 11.404C406.723 11.716 406.519 12 406.295 12.256C406.071 12.512 405.827 12.724 405.563 12.892C405.299 13.06 405.011 13.144 404.699 13.144ZM413.9 13.144C413.484 13.144 413.192 12.992 413.024 12.688C412.856 12.384 412.772 11.98 412.772 11.476C412.772 11.14 412.8 10.788 412.856 10.42C412.92 10.052 413.012 9.692 413.132 9.34C413.252 8.988 413.4 8.652 413.576 8.332C413.752 8.012 413.952 7.732 414.176 7.492C414.408 7.252 414.664 7.064 414.944 6.928C415.232 6.784 415.54 6.712 415.868 6.712C416.188 6.712 416.448 6.784 416.648 6.928C416.856 7.072 417.004 7.312 417.092 7.648H417.164L417.56 6.856H417.932L416.492 12.544L416.708 12.64L418.184 11.272L418.388 11.452L417.452 12.448C417.196 12.728 416.992 12.912 416.84 13C416.696 13.096 416.556 13.144 416.42 13.144C416.252 13.144 416.12 13.096 416.024 13C415.928 12.904 415.88 12.776 415.88 12.616C415.88 12.552 415.884 12.472 415.892 12.376C415.908 12.28 415.924 12.196 415.94 12.124L416.336 10.612L416.252 10.576C416.108 10.896 415.952 11.212 415.784 11.524C415.624 11.828 415.448 12.1 415.256 12.34C415.064 12.58 414.856 12.776 414.632 12.928C414.408 13.072 414.164 13.144 413.9 13.144ZM414.116 12.592C414.268 12.592 414.428 12.544 414.596 12.448C414.772 12.344 414.944 12.192 415.112 11.992C415.304 11.776 415.488 11.528 415.664 11.248C415.84 10.96 416 10.672 416.144 10.384C416.296 10.088 416.424 9.804 416.528 9.532C416.632 9.26 416.708 9.028 416.756 8.836L416.804 8.632C416.916 8.16 416.908 7.796 416.78 7.54C416.652 7.284 416.4 7.156 416.024 7.156C415.496 7.156 415.036 7.38 414.644 7.828C414.26 8.276 413.968 8.888 413.768 9.664C413.688 9.968 413.62 10.292 413.564 10.636C413.516 10.972 413.492 11.252 413.492 11.476C413.492 11.812 413.532 12.084 413.612 12.292C413.692 12.492 413.86 12.592 414.116 12.592ZM420.552 7.384H419.496L419.556 7.084L421.368 6.76L420.756 9.208L420.828 9.232C420.964 8.912 421.108 8.604 421.26 8.308C421.412 8.004 421.576 7.736 421.752 7.504C421.936 7.264 422.132 7.072 422.34 6.928C422.556 6.784 422.792 6.712 423.048 6.712C423.304 6.712 423.5 6.776 423.636 6.904C423.78 7.032 423.852 7.188 423.852 7.372C423.852 7.532 423.796 7.676 423.684 7.804C423.58 7.924 423.444 7.984 423.276 7.984C423.124 7.984 423.004 7.94 422.916 7.852C422.836 7.764 422.796 7.656 422.796 7.528C422.796 7.44 422.82 7.356 422.868 7.276C422.916 7.188 422.972 7.12 423.036 7.072L422.988 7.012H422.964C422.756 7.012 422.532 7.14 422.292 7.396C422.06 7.644 421.824 7.96 421.584 8.344C421.504 8.472 421.4 8.652 421.272 8.884C421.152 9.116 421.024 9.372 420.888 9.652C420.76 9.932 420.636 10.22 420.516 10.516C420.396 10.812 420.304 11.092 420.24 11.356L419.832 13H419.148L420.552 7.384ZM425.438 13.144C424.934 13.144 424.57 12.996 424.346 12.7C424.13 12.396 424.022 11.944 424.022 11.344C424.022 11.056 424.046 10.74 424.094 10.396C424.15 10.052 424.23 9.708 424.334 9.364C424.438 9.02 424.57 8.688 424.73 8.368C424.898 8.048 425.094 7.768 425.318 7.528C425.55 7.28 425.81 7.084 426.098 6.94C426.394 6.788 426.722 6.712 427.082 6.712C427.242 6.712 427.402 6.732 427.562 6.772C427.73 6.804 427.878 6.864 428.006 6.952C428.142 7.04 428.25 7.16 428.33 7.312C428.418 7.456 428.462 7.64 428.462 7.864C428.462 8.112 428.402 8.348 428.282 8.572C428.162 8.788 427.962 8.984 427.682 9.16C427.41 9.336 427.05 9.488 426.602 9.616C426.154 9.736 425.602 9.82 424.946 9.868C424.89 10.116 424.838 10.376 424.79 10.648C424.75 10.912 424.73 11.168 424.73 11.416C424.73 11.592 424.742 11.756 424.766 11.908C424.798 12.052 424.846 12.18 424.91 12.292C424.982 12.396 425.074 12.48 425.186 12.544C425.306 12.608 425.454 12.64 425.63 12.64C425.998 12.64 426.358 12.488 426.71 12.184C427.07 11.872 427.406 11.432 427.718 10.864L428.006 10.996C427.614 11.764 427.214 12.316 426.806 12.652C426.406 12.98 425.95 13.144 425.438 13.144ZM425.006 9.592C425.926 9.488 426.622 9.312 427.094 9.064C427.566 8.808 427.802 8.428 427.802 7.924C427.802 7.708 427.742 7.516 427.622 7.348C427.51 7.18 427.302 7.096 426.998 7.096C426.582 7.096 426.202 7.288 425.858 7.672C425.514 8.056 425.23 8.696 425.006 9.592Z" fill="black"/>
<path d="M196.078 566V557.624H201.214V558.248H196.798V561.44H200.866V562.064H196.798V566H196.078ZM203.153 566V565.424H205.349V558.2H203.153V557.624H208.265V558.2H206.069V565.424H208.265V566H203.153ZM211.069 558.548H211.009V566H210.349V557.624H211.369L214.741 565.028H214.801V557.624H215.461V566H214.441L211.069 558.548ZM217.544 566V565.424H219.74V558.2H217.544V557.624H222.656V558.2H220.46V565.424H222.656V566H217.544ZM227.295 566.144C226.919 566.144 226.583 566.108 226.287 566.036C225.991 565.964 225.723 565.868 225.483 565.748C225.243 565.62 225.027 565.468 224.835 565.292C224.651 565.116 224.483 564.924 224.331 564.716L224.859 564.284C225.171 564.684 225.515 564.992 225.891 565.208C226.267 565.416 226.743 565.52 227.319 565.52C227.991 565.52 228.507 565.372 228.867 565.076C229.227 564.772 229.407 564.336 229.407 563.768C229.407 563.248 229.255 562.864 228.951 562.616C228.655 562.368 228.231 562.2 227.679 562.112L226.743 561.956C226.327 561.884 225.979 561.776 225.699 561.632C225.427 561.488 225.207 561.32 225.039 561.128C224.871 560.928 224.751 560.708 224.679 560.468C224.615 560.228 224.583 559.98 224.583 559.724C224.583 558.972 224.827 558.412 225.315 558.044C225.811 557.668 226.475 557.48 227.307 557.48C227.987 557.48 228.543 557.592 228.975 557.816C229.415 558.032 229.767 558.332 230.031 558.716L229.527 559.16C229.287 558.824 228.991 558.564 228.639 558.38C228.295 558.196 227.843 558.104 227.283 558.104C226.659 558.104 226.171 558.24 225.819 558.512C225.475 558.776 225.303 559.172 225.303 559.7C225.303 560.188 225.447 560.56 225.735 560.816C226.023 561.064 226.451 561.232 227.019 561.32L227.943 561.476C228.367 561.548 228.719 561.66 228.999 561.812C229.279 561.956 229.503 562.128 229.671 562.328C229.839 562.528 229.955 562.748 230.019 562.988C230.091 563.228 230.127 563.48 230.127 563.744C230.127 564.512 229.879 565.104 229.383 565.52C228.887 565.936 228.191 566.144 227.295 566.144ZM236.327 562.064H232.655V566H231.935V557.624H232.655V561.44H236.327V557.624H237.047V566H236.327V562.064Z" fill="black"/>
<path d="M267.728 566.144C267.56 566.144 267.424 566.096 267.32 566C267.224 565.896 267.176 565.764 267.176 565.604C267.176 565.54 267.184 565.468 267.2 565.388C267.216 565.3 267.232 565.22 267.248 565.148L268.472 560.264H267.44L267.548 559.856H268.04C268.256 559.856 268.416 559.824 268.52 559.76C268.624 559.688 268.716 559.56 268.796 559.376L269.3 558.2H269.672L269.264 559.856H270.86L270.764 560.264H269.156L267.836 565.544L268.04 565.64L269.864 564.38L270.056 564.584L268.748 565.616C268.604 565.728 268.484 565.82 268.388 565.892C268.292 565.964 268.208 566.016 268.136 566.048C268.064 566.088 267.996 566.112 267.932 566.12C267.868 566.136 267.8 566.144 267.728 566.144ZM274.818 566.144C274.642 566.144 274.502 566.096 274.398 566C274.294 565.896 274.242 565.764 274.242 565.604C274.242 565.54 274.25 565.468 274.266 565.388C274.282 565.308 274.298 565.228 274.314 565.148L275.442 560.984C275.474 560.88 275.49 560.776 275.49 560.672C275.49 560.392 275.35 560.252 275.07 560.252C274.886 560.252 274.694 560.312 274.494 560.432C274.294 560.544 274.09 560.704 273.882 560.912C273.698 561.096 273.514 561.312 273.33 561.56C273.154 561.8 272.982 562.06 272.814 562.34C272.654 562.62 272.51 562.912 272.382 563.216C272.254 563.52 272.154 563.816 272.082 564.104L271.614 566H270.93L273.042 557.54H271.986L272.058 557.24L273.882 556.904L272.502 562.34L272.574 562.376C272.726 562.088 272.894 561.788 273.078 561.476C273.27 561.156 273.478 560.868 273.702 560.612C273.926 560.348 274.166 560.132 274.422 559.964C274.686 559.796 274.974 559.712 275.286 559.712C275.598 559.712 275.822 559.792 275.958 559.952C276.102 560.112 276.174 560.32 276.174 560.576C276.174 560.664 276.166 560.752 276.15 560.84C276.134 560.928 276.114 561.02 276.09 561.116L274.902 565.544L275.118 565.64L276.594 564.272L276.798 564.452L275.862 565.448C275.598 565.728 275.39 565.912 275.238 566C275.094 566.096 274.954 566.144 274.818 566.144ZM278.287 566.144C278.127 566.144 277.995 566.096 277.891 566C277.787 565.896 277.735 565.764 277.735 565.604C277.735 565.54 277.743 565.468 277.759 565.388C277.775 565.308 277.791 565.228 277.807 565.148L278.983 560.384H277.927L277.999 560.084L279.835 559.76L278.383 565.544L278.599 565.64L280.075 564.272L280.279 564.452L279.343 565.448C279.087 565.72 278.883 565.904 278.731 566C278.579 566.096 278.431 566.144 278.287 566.144ZM279.883 558.188C279.739 558.188 279.631 558.148 279.559 558.068C279.487 557.988 279.451 557.896 279.451 557.792C279.451 557.76 279.451 557.728 279.451 557.696C279.459 557.664 279.471 557.624 279.487 557.576C279.527 557.472 279.591 557.384 279.679 557.312C279.767 557.232 279.879 557.192 280.015 557.192C280.159 557.192 280.267 557.232 280.339 557.312C280.411 557.392 280.447 557.484 280.447 557.588C280.447 557.62 280.443 557.652 280.435 557.684C280.435 557.716 280.427 557.756 280.411 557.804C280.371 557.908 280.307 558 280.219 558.08C280.131 558.152 280.019 558.188 279.883 558.188ZM281.708 566.144C281.324 566.144 281.036 566.08 280.844 565.952C280.66 565.816 280.568 565.644 280.568 565.436C280.568 565.3 280.612 565.18 280.7 565.076C280.796 564.972 280.924 564.92 281.084 564.92C281.22 564.92 281.328 564.96 281.408 565.04C281.496 565.112 281.54 565.22 281.54 565.364C281.54 565.54 281.468 565.688 281.324 565.808L281.336 565.868C281.368 565.884 281.432 565.892 281.528 565.892C281.696 565.892 281.876 565.876 282.068 565.844C282.268 565.804 282.452 565.736 282.62 565.64C282.788 565.536 282.928 565.4 283.04 565.232C283.152 565.064 283.208 564.848 283.208 564.584C283.208 564.424 283.188 564.28 283.148 564.152C283.108 564.024 283.048 563.9 282.968 563.78C282.896 563.66 282.804 563.536 282.692 563.408C282.58 563.272 282.448 563.124 282.296 562.964C282.096 562.74 281.928 562.524 281.792 562.316C281.664 562.1 281.6 561.832 281.6 561.512C281.6 561.24 281.652 560.992 281.756 560.768C281.86 560.544 282.004 560.356 282.188 560.204C282.372 560.044 282.588 559.924 282.836 559.844C283.092 559.756 283.364 559.712 283.652 559.712C284.036 559.712 284.32 559.78 284.504 559.916C284.688 560.044 284.78 560.208 284.78 560.408C284.78 560.552 284.732 560.676 284.636 560.78C284.548 560.884 284.424 560.936 284.264 560.936C284.128 560.936 284.016 560.896 283.928 560.816C283.848 560.736 283.808 560.628 283.808 560.492C283.808 560.404 283.828 560.32 283.868 560.24C283.908 560.16 283.96 560.096 284.024 560.048L284 559.976C283.976 559.968 283.92 559.964 283.832 559.964C283.664 559.964 283.488 559.984 283.304 560.024C283.12 560.056 282.948 560.12 282.788 560.216C282.636 560.312 282.508 560.444 282.404 560.612C282.3 560.78 282.248 560.996 282.248 561.26C282.248 561.42 282.268 561.568 282.308 561.704C282.348 561.832 282.404 561.96 282.476 562.088C282.556 562.208 282.652 562.332 282.764 562.46C282.876 562.588 283.008 562.736 283.16 562.904C283.368 563.128 283.536 563.348 283.664 563.564C283.792 563.772 283.856 564.028 283.856 564.332C283.856 564.612 283.8 564.864 283.688 565.088C283.576 565.312 283.424 565.504 283.232 565.664C283.04 565.816 282.812 565.932 282.548 566.012C282.284 566.1 282.004 566.144 281.708 566.144ZM288.635 566.144C288.475 566.144 288.343 566.096 288.239 566C288.135 565.896 288.083 565.764 288.083 565.604C288.083 565.54 288.091 565.468 288.107 565.388C288.123 565.308 288.139 565.228 288.155 565.148L289.331 560.384H288.275L288.347 560.084L290.183 559.76L288.731 565.544L288.947 565.64L290.423 564.272L290.627 564.452L289.691 565.448C289.435 565.72 289.231 565.904 289.079 566C288.927 566.096 288.779 566.144 288.635 566.144ZM290.231 558.188C290.087 558.188 289.979 558.148 289.907 558.068C289.835 557.988 289.799 557.896 289.799 557.792C289.799 557.76 289.799 557.728 289.799 557.696C289.807 557.664 289.819 557.624 289.835 557.576C289.875 557.472 289.939 557.384 290.027 557.312C290.115 557.232 290.227 557.192 290.363 557.192C290.507 557.192 290.615 557.232 290.687 557.312C290.759 557.392 290.795 557.484 290.795 557.588C290.795 557.62 290.791 557.652 290.783 557.684C290.783 557.716 290.775 557.756 290.759 557.804C290.719 557.908 290.655 558 290.567 558.08C290.479 558.152 290.367 558.188 290.231 558.188ZM292.055 566.144C291.671 566.144 291.383 566.08 291.191 565.952C291.007 565.816 290.915 565.644 290.915 565.436C290.915 565.3 290.959 565.18 291.047 565.076C291.143 564.972 291.271 564.92 291.431 564.92C291.567 564.92 291.675 564.96 291.755 565.04C291.843 565.112 291.887 565.22 291.887 565.364C291.887 565.54 291.815 565.688 291.671 565.808L291.683 565.868C291.715 565.884 291.779 565.892 291.875 565.892C292.043 565.892 292.223 565.876 292.415 565.844C292.615 565.804 292.799 565.736 292.967 565.64C293.135 565.536 293.275 565.4 293.387 565.232C293.499 565.064 293.555 564.848 293.555 564.584C293.555 564.424 293.535 564.28 293.495 564.152C293.455 564.024 293.395 563.9 293.315 563.78C293.243 563.66 293.151 563.536 293.039 563.408C292.927 563.272 292.795 563.124 292.643 562.964C292.443 562.74 292.275 562.524 292.139 562.316C292.011 562.1 291.947 561.832 291.947 561.512C291.947 561.24 291.999 560.992 292.103 560.768C292.207 560.544 292.351 560.356 292.535 560.204C292.719 560.044 292.935 559.924 293.183 559.844C293.439 559.756 293.711 559.712 293.999 559.712C294.383 559.712 294.667 559.78 294.851 559.916C295.035 560.044 295.127 560.208 295.127 560.408C295.127 560.552 295.079 560.676 294.983 560.78C294.895 560.884 294.771 560.936 294.611 560.936C294.475 560.936 294.363 560.896 294.275 560.816C294.195 560.736 294.155 560.628 294.155 560.492C294.155 560.404 294.175 560.32 294.215 560.24C294.255 560.16 294.307 560.096 294.371 560.048L294.347 559.976C294.323 559.968 294.267 559.964 294.179 559.964C294.011 559.964 293.835 559.984 293.651 560.024C293.467 560.056 293.295 560.12 293.135 560.216C292.983 560.312 292.855 560.444 292.751 560.612C292.647 560.78 292.595 560.996 292.595 561.26C292.595 561.42 292.615 561.568 292.655 561.704C292.695 561.832 292.751 561.96 292.823 562.088C292.903 562.208 292.999 562.332 293.111 562.46C293.223 562.588 293.355 562.736 293.507 562.904C293.715 563.128 293.883 563.348 294.011 563.564C294.139 563.772 294.203 564.028 294.203 564.332C294.203 564.612 294.147 564.864 294.035 565.088C293.923 565.312 293.771 565.504 293.579 565.664C293.387 565.816 293.159 565.932 292.895 566.012C292.631 566.1 292.351 566.144 292.055 566.144ZM299.03 560.228H298.49L298.586 559.856H300.578L300.482 560.228H299.678L299.606 565.148H299.666L302.306 559.832H302.894L302.822 565.148H302.906L305.366 560.228H304.562L304.658 559.856H306.494L306.398 560.228H305.858L302.81 566H302.258L302.294 560.744H302.222L299.618 566H299.018L299.03 560.228ZM310.08 566.144C309.904 566.144 309.764 566.096 309.66 566C309.556 565.896 309.504 565.764 309.504 565.604C309.504 565.54 309.512 565.468 309.528 565.388C309.544 565.308 309.56 565.228 309.576 565.148L310.704 560.984C310.736 560.88 310.752 560.776 310.752 560.672C310.752 560.392 310.612 560.252 310.332 560.252C310.148 560.252 309.956 560.312 309.756 560.432C309.556 560.544 309.352 560.704 309.144 560.912C308.96 561.096 308.776 561.312 308.592 561.56C308.416 561.8 308.244 562.06 308.076 562.34C307.916 562.62 307.772 562.912 307.644 563.216C307.516 563.52 307.416 563.816 307.344 564.104L306.876 566H306.192L308.304 557.54H307.248L307.32 557.24L309.144 556.904L307.764 562.34L307.836 562.376C307.988 562.088 308.156 561.788 308.34 561.476C308.532 561.156 308.74 560.868 308.964 560.612C309.188 560.348 309.428 560.132 309.684 559.964C309.948 559.796 310.236 559.712 310.548 559.712C310.86 559.712 311.084 559.792 311.22 559.952C311.364 560.112 311.436 560.32 311.436 560.576C311.436 560.664 311.428 560.752 311.412 560.84C311.396 560.928 311.376 561.02 311.352 561.116L310.164 565.544L310.38 565.64L311.856 564.272L312.06 564.452L311.124 565.448C310.86 565.728 310.652 565.912 310.5 566C310.356 566.096 310.216 566.144 310.08 566.144ZM314.257 566.144C313.753 566.144 313.389 565.996 313.165 565.7C312.949 565.396 312.841 564.944 312.841 564.344C312.841 564.056 312.865 563.74 312.913 563.396C312.969 563.052 313.049 562.708 313.153 562.364C313.257 562.02 313.389 561.688 313.549 561.368C313.717 561.048 313.913 560.768 314.137 560.528C314.369 560.28 314.629 560.084 314.917 559.94C315.213 559.788 315.541 559.712 315.901 559.712C316.061 559.712 316.221 559.732 316.381 559.772C316.549 559.804 316.697 559.864 316.825 559.952C316.961 560.04 317.069 560.16 317.149 560.312C317.237 560.456 317.281 560.64 317.281 560.864C317.281 561.112 317.221 561.348 317.101 561.572C316.981 561.788 316.781 561.984 316.501 562.16C316.229 562.336 315.869 562.488 315.421 562.616C314.973 562.736 314.421 562.82 313.765 562.868C313.709 563.116 313.657 563.376 313.609 563.648C313.569 563.912 313.549 564.168 313.549 564.416C313.549 564.592 313.561 564.756 313.585 564.908C313.617 565.052 313.665 565.18 313.729 565.292C313.801 565.396 313.893 565.48 314.005 565.544C314.125 565.608 314.273 565.64 314.449 565.64C314.817 565.64 315.177 565.488 315.529 565.184C315.889 564.872 316.225 564.432 316.537 563.864L316.825 563.996C316.433 564.764 316.033 565.316 315.625 565.652C315.225 565.98 314.769 566.144 314.257 566.144ZM313.825 562.592C314.745 562.488 315.441 562.312 315.913 562.064C316.385 561.808 316.621 561.428 316.621 560.924C316.621 560.708 316.561 560.516 316.441 560.348C316.329 560.18 316.121 560.096 315.817 560.096C315.401 560.096 315.021 560.288 314.677 560.672C314.333 561.056 314.049 561.696 313.825 562.592ZM319.495 560.384H318.439L318.499 560.084L320.311 559.76L319.699 562.208L319.771 562.232C319.907 561.912 320.051 561.604 320.203 561.308C320.355 561.004 320.519 560.736 320.695 560.504C320.879 560.264 321.075 560.072 321.283 559.928C321.499 559.784 321.735 559.712 321.991 559.712C322.247 559.712 322.443 559.776 322.579 559.904C322.723 560.032 322.795 560.188 322.795 560.372C322.795 560.532 322.739 560.676 322.627 560.804C322.523 560.924 322.387 560.984 322.219 560.984C322.067 560.984 321.947 560.94 321.859 560.852C321.779 560.764 321.739 560.656 321.739 560.528C321.739 560.44 321.763 560.356 321.811 560.276C321.859 560.188 321.915 560.12 321.979 560.072L321.931 560.012H321.907C321.699 560.012 321.475 560.14 321.235 560.396C321.003 560.644 320.767 560.96 320.527 561.344C320.447 561.472 320.343 561.652 320.215 561.884C320.095 562.116 319.967 562.372 319.831 562.652C319.703 562.932 319.579 563.22 319.459 563.516C319.339 563.812 319.247 564.092 319.183 564.356L318.775 566H318.091L319.495 560.384ZM324.382 566.144C323.878 566.144 323.514 565.996 323.29 565.7C323.074 565.396 322.966 564.944 322.966 564.344C322.966 564.056 322.99 563.74 323.038 563.396C323.094 563.052 323.174 562.708 323.278 562.364C323.382 562.02 323.514 561.688 323.674 561.368C323.842 561.048 324.038 560.768 324.262 560.528C324.494 560.28 324.754 560.084 325.042 559.94C325.338 559.788 325.666 559.712 326.026 559.712C326.186 559.712 326.346 559.732 326.506 559.772C326.674 559.804 326.822 559.864 326.95 559.952C327.086 560.04 327.194 560.16 327.274 560.312C327.362 560.456 327.406 560.64 327.406 560.864C327.406 561.112 327.346 561.348 327.226 561.572C327.106 561.788 326.906 561.984 326.626 562.16C326.354 562.336 325.994 562.488 325.546 562.616C325.098 562.736 324.546 562.82 323.89 562.868C323.834 563.116 323.782 563.376 323.734 563.648C323.694 563.912 323.674 564.168 323.674 564.416C323.674 564.592 323.686 564.756 323.71 564.908C323.742 565.052 323.79 565.18 323.854 565.292C323.926 565.396 324.018 565.48 324.13 565.544C324.25 565.608 324.398 565.64 324.574 565.64C324.942 565.64 325.302 565.488 325.654 565.184C326.014 564.872 326.35 564.432 326.662 563.864L326.95 563.996C326.558 564.764 326.158 565.316 325.75 565.652C325.35 565.98 324.894 566.144 324.382 566.144ZM323.95 562.592C324.87 562.488 325.566 562.312 326.038 562.064C326.51 561.808 326.746 561.428 326.746 560.924C326.746 560.708 326.686 560.516 326.566 560.348C326.454 560.18 326.246 560.096 325.942 560.096C325.526 560.096 325.146 560.288 324.802 560.672C324.458 561.056 324.174 561.696 323.95 562.592ZM329.775 568.544C329.519 568.544 329.315 568.484 329.163 568.364C329.011 568.244 328.935 568.092 328.935 567.908C328.935 567.74 328.987 567.596 329.091 567.476C329.195 567.356 329.335 567.296 329.511 567.296C329.663 567.296 329.779 567.34 329.859 567.428C329.939 567.516 329.979 567.628 329.979 567.764C329.979 567.972 329.899 568.12 329.739 568.208L329.799 568.256H329.847C330.183 568.184 330.483 568.024 330.747 567.776C331.019 567.536 331.283 567.18 331.539 566.708L331.827 566.192L331.323 560.228H330.783L330.879 559.856H332.919L332.823 560.228H332.019L332.379 565.22H332.451L335.259 560.228H334.443L334.539 559.856H336.399L336.303 560.228H335.751L331.827 566.948C331.491 567.524 331.155 567.932 330.819 568.172C330.483 568.42 330.135 568.544 329.775 568.544ZM337.759 565.76C338.031 565.76 338.275 565.696 338.491 565.568C338.707 565.432 338.899 565.252 339.067 565.028C339.243 564.804 339.391 564.544 339.511 564.248C339.631 563.944 339.731 563.628 339.811 563.3C339.883 563.028 339.939 562.796 339.979 562.604C340.019 562.412 340.051 562.252 340.075 562.124C340.099 561.988 340.115 561.872 340.123 561.776C340.131 561.68 340.135 561.588 340.135 561.5C340.135 561.292 340.119 561.104 340.087 560.936C340.055 560.76 339.999 560.612 339.919 560.492C339.839 560.364 339.731 560.268 339.595 560.204C339.467 560.132 339.303 560.096 339.103 560.096C338.831 560.096 338.587 560.164 338.371 560.3C338.155 560.428 337.959 560.604 337.783 560.828C337.615 561.052 337.471 561.316 337.351 561.62C337.231 561.916 337.131 562.228 337.051 562.556C336.979 562.836 336.923 563.072 336.883 563.264C336.843 563.448 336.811 563.608 336.787 563.744C336.763 563.872 336.747 563.984 336.739 564.08C336.731 564.176 336.727 564.268 336.727 564.356C336.727 564.564 336.743 564.756 336.775 564.932C336.807 565.1 336.863 565.248 336.943 565.376C337.023 565.496 337.127 565.592 337.255 565.664C337.391 565.728 337.559 565.76 337.759 565.76ZM337.747 566.144C337.155 566.144 336.723 565.96 336.451 565.592C336.179 565.216 336.043 564.708 336.043 564.068C336.043 563.58 336.115 563.08 336.259 562.568C336.403 562.048 336.607 561.576 336.871 561.152C337.143 560.728 337.467 560.384 337.843 560.12C338.219 559.848 338.643 559.712 339.115 559.712C339.707 559.712 340.139 559.9 340.411 560.276C340.683 560.652 340.819 561.16 340.819 561.8C340.819 562.296 340.747 562.8 340.603 563.312C340.459 563.824 340.251 564.292 339.979 564.716C339.715 565.132 339.391 565.476 339.007 565.748C338.631 566.012 338.211 566.144 337.747 566.144ZM342.912 566.144C342.6 566.144 342.376 566.064 342.24 565.904C342.104 565.736 342.036 565.524 342.036 565.268C342.036 565.18 342.044 565.092 342.06 565.004C342.076 564.916 342.096 564.824 342.12 564.728L343.284 560.384H342.228L342.3 560.084L344.148 559.76L342.768 564.872C342.736 564.976 342.72 565.08 342.72 565.184C342.72 565.464 342.86 565.604 343.14 565.604C343.324 565.604 343.516 565.548 343.716 565.436C343.916 565.316 344.12 565.152 344.328 564.944C344.504 564.768 344.684 564.556 344.868 564.308C345.052 564.06 345.224 563.796 345.384 563.516C345.552 563.236 345.7 562.944 345.828 562.64C345.956 562.336 346.056 562.04 346.128 561.752L346.596 559.856H347.28L345.84 565.544L346.056 565.64L347.532 564.272L347.736 564.452L346.8 565.448C346.544 565.728 346.34 565.912 346.188 566C346.044 566.096 345.904 566.144 345.768 566.144C345.592 566.144 345.456 566.096 345.36 566C345.264 565.904 345.216 565.776 345.216 565.616C345.216 565.552 345.224 565.472 345.24 565.376C345.264 565.272 345.284 565.184 345.3 565.112L345.708 563.516L345.624 563.492C345.472 563.78 345.304 564.084 345.12 564.404C344.936 564.716 344.732 565 344.508 565.256C344.284 565.512 344.04 565.724 343.776 565.892C343.512 566.06 343.224 566.144 342.912 566.144ZM351.765 560.228H351.225L351.321 559.856H353.313L353.217 560.228H352.413L352.341 565.148H352.401L355.041 559.832H355.629L355.557 565.148H355.641L358.101 560.228H357.297L357.393 559.856H359.229L359.133 560.228H358.593L355.545 566H354.993L355.029 560.744H354.957L352.353 566H351.753L351.765 560.228ZM359.873 566.144C359.713 566.144 359.581 566.096 359.477 566C359.373 565.896 359.321 565.764 359.321 565.604C359.321 565.54 359.329 565.468 359.345 565.388C359.361 565.308 359.377 565.228 359.393 565.148L360.569 560.384H359.513L359.585 560.084L361.421 559.76L359.969 565.544L360.185 565.64L361.661 564.272L361.865 564.452L360.929 565.448C360.673 565.72 360.469 565.904 360.317 566C360.165 566.096 360.017 566.144 359.873 566.144ZM361.469 558.188C361.325 558.188 361.217 558.148 361.145 558.068C361.073 557.988 361.037 557.896 361.037 557.792C361.037 557.76 361.037 557.728 361.037 557.696C361.045 557.664 361.057 557.624 361.073 557.576C361.113 557.472 361.177 557.384 361.265 557.312C361.353 557.232 361.465 557.192 361.601 557.192C361.745 557.192 361.853 557.232 361.925 557.312C361.997 557.392 362.033 557.484 362.033 557.588C362.033 557.62 362.029 557.652 362.021 557.684C362.021 557.716 362.013 557.756 361.997 557.804C361.957 557.908 361.893 558 361.805 558.08C361.717 558.152 361.605 558.188 361.469 558.188ZM363.162 566.144C363.002 566.144 362.87 566.096 362.766 566C362.662 565.896 362.61 565.764 362.61 565.604C362.61 565.54 362.618 565.468 362.634 565.388C362.65 565.308 362.666 565.228 362.682 565.148L364.59 557.54H363.534L363.606 557.24L365.43 556.904L363.258 565.544L363.474 565.64L364.95 564.272L365.154 564.452L364.218 565.448C363.954 565.728 363.746 565.912 363.594 566C363.45 566.096 363.306 566.144 363.162 566.144ZM366.455 566.144C366.295 566.144 366.163 566.096 366.059 566C365.955 565.896 365.903 565.764 365.903 565.604C365.903 565.54 365.911 565.468 365.927 565.388C365.943 565.308 365.959 565.228 365.975 565.148L367.883 557.54H366.827L366.899 557.24L368.723 556.904L366.551 565.544L366.767 565.64L368.243 564.272L368.447 564.452L367.511 565.448C367.247 565.728 367.039 565.912 366.887 566C366.743 566.096 366.599 566.144 366.455 566.144ZM373.659 566.144C373.339 566.144 373.075 566.072 372.867 565.928C372.659 565.784 372.511 565.544 372.423 565.208H372.351L371.955 566H371.583L373.707 557.54H372.651L372.723 557.24L374.547 556.904L373.179 562.244L373.263 562.28C373.407 561.968 373.559 561.66 373.719 561.356C373.879 561.044 374.055 560.768 374.247 560.528C374.439 560.288 374.647 560.092 374.871 559.94C375.095 559.788 375.343 559.712 375.615 559.712C376.031 559.712 376.323 559.864 376.491 560.168C376.659 560.464 376.743 560.864 376.743 561.368C376.743 561.704 376.711 562.06 376.647 562.436C376.591 562.804 376.503 563.164 376.383 563.516C376.263 563.868 376.115 564.204 375.939 564.524C375.763 564.844 375.559 565.124 375.327 565.364C375.103 565.604 374.851 565.796 374.571 565.94C374.291 566.076 373.987 566.144 373.659 566.144ZM373.491 565.7C374.019 565.7 374.475 565.476 374.859 565.028C375.251 564.58 375.547 563.968 375.747 563.192C375.827 562.888 375.891 562.568 375.939 562.232C375.995 561.888 376.023 561.604 376.023 561.38C376.023 561.044 375.983 560.776 375.903 560.576C375.823 560.368 375.655 560.264 375.399 560.264C375.247 560.264 375.083 560.316 374.907 560.42C374.739 560.516 374.571 560.664 374.403 560.864C374.211 561.08 374.027 561.332 373.851 561.62C373.675 561.9 373.511 562.188 373.359 562.484C373.215 562.772 373.091 563.052 372.987 563.324C372.883 563.596 372.807 563.828 372.759 564.02L372.711 564.224C372.599 564.696 372.607 565.06 372.735 565.316C372.863 565.572 373.115 565.7 373.491 565.7ZM379.226 566.144C378.722 566.144 378.358 565.996 378.134 565.7C377.918 565.396 377.81 564.944 377.81 564.344C377.81 564.056 377.834 563.74 377.882 563.396C377.938 563.052 378.018 562.708 378.122 562.364C378.226 562.02 378.358 561.688 378.518 561.368C378.686 561.048 378.882 560.768 379.106 560.528C379.338 560.28 379.598 560.084 379.886 559.94C380.182 559.788 380.51 559.712 380.87 559.712C381.03 559.712 381.19 559.732 381.35 559.772C381.518 559.804 381.666 559.864 381.794 559.952C381.93 560.04 382.038 560.16 382.118 560.312C382.206 560.456 382.25 560.64 382.25 560.864C382.25 561.112 382.19 561.348 382.07 561.572C381.95 561.788 381.75 561.984 381.47 562.16C381.198 562.336 380.838 562.488 380.39 562.616C379.942 562.736 379.39 562.82 378.734 562.868C378.678 563.116 378.626 563.376 378.578 563.648C378.538 563.912 378.518 564.168 378.518 564.416C378.518 564.592 378.53 564.756 378.554 564.908C378.586 565.052 378.634 565.18 378.698 565.292C378.77 565.396 378.862 565.48 378.974 565.544C379.094 565.608 379.242 565.64 379.418 565.64C379.786 565.64 380.146 565.488 380.498 565.184C380.858 564.872 381.194 564.432 381.506 563.864L381.794 563.996C381.402 564.764 381.002 565.316 380.594 565.652C380.194 565.98 379.738 566.144 379.226 566.144ZM378.794 562.592C379.714 562.488 380.41 562.312 380.882 562.064C381.354 561.808 381.59 561.428 381.59 560.924C381.59 560.708 381.53 560.516 381.41 560.348C381.298 560.18 381.09 560.096 380.786 560.096C380.37 560.096 379.99 560.288 379.646 560.672C379.302 561.056 379.018 561.696 378.794 562.592Z" fill="black"/>
<path d="M209.368 17.144C208.96 17.144 208.664 16.996 208.48 16.7C208.296 16.396 208.204 15.964 208.204 15.404C208.204 15.076 208.236 14.732 208.3 14.372C208.364 14.012 208.456 13.656 208.576 13.304C208.696 12.952 208.844 12.616 209.02 12.296C209.204 11.976 209.408 11.696 209.632 11.456C209.864 11.216 210.12 11.024 210.4 10.88C210.68 10.736 210.98 10.664 211.3 10.664C211.66 10.664 211.94 10.748 212.14 10.916C212.34 11.076 212.492 11.324 212.596 11.66H212.692L213.172 10.808H213.676L212.26 16.364L212.476 16.46L213.856 15.08L214.144 15.308L213.292 16.304C213.004 16.64 212.772 16.864 212.596 16.976C212.42 17.088 212.248 17.144 212.08 17.144C211.84 17.144 211.664 17.08 211.552 16.952C211.448 16.816 211.396 16.656 211.396 16.472C211.396 16.384 211.404 16.28 211.42 16.16C211.444 16.04 211.464 15.944 211.48 15.872L211.768 14.744L211.672 14.708C211.504 15.068 211.336 15.4 211.168 15.704C211.008 16 210.832 16.256 210.64 16.472C210.456 16.68 210.26 16.844 210.052 16.964C209.844 17.084 209.616 17.144 209.368 17.144ZM209.692 16.376C209.86 16.376 210.032 16.316 210.208 16.196C210.384 16.068 210.556 15.904 210.724 15.704C210.9 15.496 211.064 15.264 211.216 15.008C211.376 14.752 211.52 14.492 211.648 14.228C211.784 13.956 211.9 13.696 211.996 13.448C212.1 13.192 212.18 12.968 212.236 12.776L212.284 12.608C212.396 12.224 212.388 11.908 212.26 11.66C212.14 11.404 211.904 11.276 211.552 11.276C211.12 11.276 210.724 11.468 210.364 11.852C210.004 12.236 209.724 12.796 209.524 13.532C209.492 13.66 209.456 13.808 209.416 13.976C209.384 14.144 209.352 14.316 209.32 14.492C209.288 14.668 209.26 14.836 209.236 14.996C209.22 15.156 209.212 15.292 209.212 15.404C209.212 15.716 209.244 15.956 209.308 16.124C209.372 16.292 209.5 16.376 209.692 16.376Z" fill="black"/>
<path d="M1086.48 23.144C1086.17 23.144 1085.93 23.076 1085.76 22.94C1085.6 22.796 1085.52 22.616 1085.52 22.4C1085.52 22.184 1085.59 22 1085.72 21.848C1085.86 21.688 1086.03 21.608 1086.25 21.608C1086.43 21.608 1086.57 21.66 1086.67 21.764C1086.77 21.868 1086.83 22 1086.83 22.16C1086.83 22.272 1086.81 22.376 1086.77 22.472C1086.73 22.568 1086.67 22.644 1086.61 22.7L1086.67 22.76C1086.97 22.696 1087.29 22.424 1087.61 21.944C1087.93 21.456 1088.25 20.816 1088.55 20.024L1087.94 17.48L1087.75 17.432L1086.66 18.524L1086.39 18.284L1087.07 17.516C1087.35 17.188 1087.58 16.964 1087.74 16.844C1087.9 16.724 1088.06 16.664 1088.22 16.664C1088.4 16.664 1088.54 16.712 1088.64 16.808C1088.74 16.904 1088.81 17.024 1088.84 17.168L1089.21 19.16H1089.31C1089.41 18.92 1089.51 18.664 1089.62 18.392C1089.74 18.12 1089.88 17.872 1090.03 17.648C1090.24 17.336 1090.47 17.096 1090.71 16.928C1090.96 16.752 1091.23 16.664 1091.52 16.664C1091.83 16.664 1092.07 16.736 1092.23 16.88C1092.39 17.016 1092.48 17.192 1092.48 17.408C1092.48 17.624 1092.41 17.812 1092.27 17.972C1092.14 18.124 1091.96 18.2 1091.75 18.2C1091.56 18.2 1091.42 18.148 1091.31 18.044C1091.22 17.94 1091.17 17.808 1091.17 17.648C1091.17 17.536 1091.19 17.432 1091.23 17.336C1091.27 17.24 1091.32 17.164 1091.39 17.108L1091.33 17.048C1091.02 17.112 1090.71 17.388 1090.38 17.876C1090.06 18.364 1089.75 19.004 1089.44 19.796L1090.05 22.328L1090.25 22.376L1091.34 21.284L1091.6 21.524L1090.93 22.292C1090.79 22.46 1090.67 22.6 1090.56 22.712C1090.45 22.816 1090.36 22.904 1090.27 22.976C1090.18 23.04 1090.1 23.084 1090.02 23.108C1089.94 23.132 1089.86 23.144 1089.78 23.144C1089.6 23.144 1089.46 23.096 1089.35 23C1089.24 22.904 1089.18 22.784 1089.15 22.64L1088.78 20.648H1088.69C1088.59 20.888 1088.48 21.144 1088.36 21.416C1088.25 21.688 1088.12 21.936 1087.97 22.16C1087.76 22.472 1087.53 22.716 1087.28 22.892C1087.03 23.06 1086.77 23.144 1086.48 23.144Z" fill="black"/>
<path d="M1085.13 564.118C1085.68 563.786 1086.2 563.416 1086.71 563.026C1087.05 562.76 1087.48 562.717 1087.83 562.927C1088.02 563.046 1088.05 563.171 1087.89 563.294C1087.5 563.581 1087.12 563.9 1086.69 564.116C1086.13 564.397 1085.65 564.769 1085.22 565.197C1084.95 565.457 1084.68 565.518 1084.34 565.477C1083.92 565.425 1083.84 565.308 1083.86 564.875C1083.91 563.5 1084.22 562.157 1084.38 560.796C1084.48 559.963 1084.63 559.137 1084.76 558.31C1084.78 558.181 1084.78 558.053 1084.74 557.928C1084.64 557.897 1084.59 557.969 1084.55 558.035C1083.6 559.538 1082.51 560.938 1081.41 562.33C1080.95 562.91 1080.6 563.576 1080.14 564.155C1079.97 564.369 1079.79 564.576 1079.61 564.786C1079.58 564.823 1079.55 564.86 1079.51 564.887C1079.36 564.991 1079.2 565.046 1079.07 564.9C1078.94 564.752 1079.01 564.578 1079.15 564.48C1079.34 564.345 1079.5 564.19 1079.62 563.999C1080.7 562.253 1082.12 560.753 1083.27 559.057C1083.67 558.474 1084.04 557.874 1084.45 557.256C1084.28 557.157 1084.14 557.199 1084.01 557.218C1083.54 557.278 1083.08 557.306 1082.61 557.313C1082.36 557.317 1082.12 557.282 1081.9 557.176C1081.8 557.127 1081.7 557.049 1081.73 556.915C1081.75 556.77 1081.87 556.75 1081.98 556.744C1082.67 556.702 1083.36 556.584 1084.06 556.601C1084.25 556.606 1084.44 556.579 1084.64 556.592C1084.89 556.61 1084.99 556.48 1085 556.255C1085.04 555.821 1085.1 555.387 1085.1 554.952C1085.1 553.931 1085.36 552.978 1085.75 552.046C1085.82 551.866 1085.93 551.785 1086.12 551.719C1086.71 551.515 1087.26 551.65 1087.82 551.839C1088.2 551.971 1088.29 552.169 1088.15 552.549C1087.96 553.016 1087.74 553.46 1087.45 553.872C1087.02 554.48 1086.6 555.091 1086.18 555.703C1086.12 555.796 1086.06 555.898 1086.03 556.004C1085.92 556.427 1086 556.515 1086.43 556.512C1087.16 556.509 1087.88 556.514 1088.61 556.508C1088.92 556.505 1089.22 556.582 1089.49 556.734C1089.59 556.789 1089.71 556.851 1089.68 556.983C1089.65 557.144 1089.5 557.153 1089.37 557.151C1088.92 557.144 1088.47 557.124 1088.02 557.105C1087.4 557.08 1086.79 557.117 1086.18 557.138C1085.94 557.148 1085.83 557.231 1085.82 557.478C1085.76 559.14 1085.39 560.77 1085.26 562.427C1085.23 562.903 1085.09 563.377 1085.06 563.861C1085.06 563.939 1085.04 564.018 1085.13 564.122L1085.13 564.118ZM1086.23 554.566C1086.61 554.1 1086.96 553.629 1087.2 553.091C1087.28 552.917 1087.36 552.739 1087.41 552.555C1087.48 552.34 1087.35 552.236 1087.16 552.166C1086.97 552.098 1086.83 552.084 1086.72 552.297C1086.36 553.008 1086.16 553.752 1086.23 554.566Z" fill="black"/>
<path d="M1074.95 565.589C1074.29 565.581 1074.19 565.394 1074.51 564.823C1074.69 564.501 1074.87 564.177 1075.05 563.853C1075.5 563.049 1075.92 562.229 1076.3 561.395C1076.77 560.4 1077.1 559.352 1077.48 558.323C1077.78 557.507 1078.03 556.672 1078.53 555.942C1078.79 555.572 1078.95 555.521 1079.34 555.712C1079.58 555.83 1079.62 555.937 1079.48 556.167C1079.33 556.415 1079.15 556.646 1079.04 556.916C1078.86 557.378 1078.74 557.866 1078.59 558.34C1077.9 560.447 1076.98 562.45 1075.97 564.42C1075.82 564.721 1075.61 564.993 1075.49 565.312C1075.4 565.572 1075.18 565.606 1074.95 565.585L1074.95 565.589Z" fill="black"/>
<path d="M1070.92 556.529C1071.29 554.893 1071.77 553.303 1072.08 551.672C1072.14 551.356 1072.19 551.036 1072.25 550.72C1072.3 550.442 1072.36 550.397 1072.64 550.429C1072.8 550.447 1072.96 550.489 1073.1 550.572C1073.25 550.661 1073.34 550.786 1073.3 550.971C1073.26 551.24 1073.22 551.513 1073.16 551.781C1072.93 552.9 1072.63 554.005 1072.34 555.112C1072.13 555.922 1071.96 556.742 1071.69 557.535C1071.61 557.742 1071.65 557.983 1071.62 558.207C1071.49 559.1 1071.31 559.981 1071.13 560.866C1070.93 561.908 1070.71 562.951 1070.62 564.009C1070.6 564.213 1070.46 564.404 1070.55 564.645C1070.83 564.537 1071.08 564.404 1071.3 564.218C1071.61 563.959 1071.93 563.714 1072.24 563.455C1072.42 563.306 1072.61 563.262 1072.82 563.354C1072.96 563.411 1073.12 563.457 1073.13 563.628C1073.15 563.792 1072.99 563.817 1072.88 563.884C1072.81 563.928 1072.74 563.967 1072.69 564.025C1072.09 564.649 1071.29 564.989 1070.63 565.505C1070.47 565.628 1070.29 565.692 1070.09 565.675C1069.7 565.64 1069.44 565.348 1069.48 564.959C1069.51 564.676 1069.57 564.396 1069.51 564.009C1069.03 564.551 1068.4 564.803 1068.05 565.392C1067.93 565.595 1067.65 565.577 1067.44 565.617C1066.72 565.751 1066.16 565.416 1065.62 565.006C1065.02 564.538 1064.86 563.906 1065.01 563.19C1065.13 562.556 1065.33 561.944 1065.6 561.353C1066.13 560.177 1066.7 559.019 1067.16 557.813C1067.41 557.154 1067.87 556.63 1068.35 556.119C1068.7 555.741 1069.09 555.726 1069.54 555.87C1069.89 555.984 1070.22 556.15 1070.54 556.342C1070.65 556.405 1070.73 556.52 1070.93 556.523L1070.92 556.529ZM1070.7 557.677C1070.73 557.166 1070.61 556.959 1070.3 556.809C1069.98 556.658 1069.74 556.698 1069.48 556.997C1069.04 557.508 1068.62 558.037 1068.36 558.678C1067.86 559.952 1067.26 561.18 1066.69 562.423C1066.41 563.033 1066.28 563.678 1066.26 564.343C1066.24 564.776 1066.43 564.938 1066.85 564.878C1067.09 564.844 1067.34 564.785 1067.57 564.867C1067.76 564.935 1067.87 564.862 1068 564.754C1068.47 564.359 1068.93 563.959 1069.41 563.573C1069.61 563.407 1069.68 563.203 1069.73 562.954C1069.94 561.898 1070.08 560.828 1070.31 559.773C1070.48 559.037 1070.69 558.305 1070.7 557.677H1070.7Z" fill="black"/>
<path d="M1056.87 560.77C1058.01 560.831 1059.14 560.561 1060.28 560.635C1060.73 560.664 1061.18 560.677 1061.63 560.709C1061.89 560.727 1062.12 560.864 1062.33 561.004C1062.5 561.11 1062.58 561.273 1062.51 561.461C1062.44 561.639 1062.28 561.579 1062.13 561.569C1061.17 561.503 1060.21 561.455 1059.24 561.59C1058.56 561.687 1057.86 561.596 1057.17 561.678C1056.72 561.732 1056.3 561.503 1055.92 561.245C1055.84 561.189 1055.77 561.107 1055.81 560.998C1055.84 560.913 1055.93 560.891 1056.01 560.879C1056.29 560.844 1056.57 560.74 1056.87 560.772L1056.87 560.77Z" fill="black"/>
<path d="M1059.53 559.248C1058.81 559.259 1058.08 559.267 1057.36 559.282C1056.86 559.294 1056.41 559.123 1055.99 558.885C1055.92 558.848 1055.85 558.794 1055.8 558.74C1055.73 558.682 1055.71 558.603 1055.74 558.519C1055.77 558.427 1055.86 558.424 1055.94 558.429C1056.11 558.438 1056.29 558.458 1056.47 558.453C1057.67 558.428 1058.88 558.419 1060.09 558.361C1060.6 558.336 1061.11 558.281 1061.61 558.458C1061.76 558.513 1061.92 558.565 1062.03 558.681C1062.13 558.778 1062.3 558.852 1062.22 559.032C1062.17 559.173 1062.02 559.178 1061.89 559.184C1061.57 559.201 1061.25 559.224 1060.93 559.234C1060.46 559.247 1060 559.249 1059.53 559.256L1059.53 559.246L1059.53 559.248Z" fill="black"/>
<path d="M1043.21 563.924C1043.36 563.698 1043.46 563.503 1043.6 563.359C1044.73 562.216 1045.59 560.865 1046.58 559.617C1047.36 558.643 1048.05 557.612 1048.81 556.632C1049.18 556.16 1049.45 555.623 1049.68 555.069C1049.77 554.852 1049.88 554.669 1050.15 554.642C1050.6 554.599 1050.84 554.814 1050.85 555.264C1050.87 556.182 1050.86 557.099 1050.82 558.021C1050.76 559.327 1050.89 560.632 1051.02 561.933C1051.03 561.998 1051.04 562.061 1051.05 562.124C1051.2 562.894 1050.94 563.482 1050.35 564.008C1049.83 564.465 1049.28 564.714 1048.61 564.727C1047.83 564.739 1047.06 564.741 1046.29 564.672C1046.19 564.663 1046.09 564.659 1046 564.626C1045.9 564.589 1045.86 564.506 1045.9 564.393C1046.04 564.084 1046.73 563.726 1047.05 563.806C1047.13 563.825 1047.22 563.85 1047.27 563.904C1047.63 564.335 1048.11 564.059 1048.54 564.124C1048.85 564.17 1049.07 563.953 1049.29 563.752C1049.74 563.346 1049.94 562.896 1049.86 562.255C1049.7 560.942 1049.62 559.62 1049.66 558.293C1049.68 557.846 1049.8 557.399 1049.71 556.945C1049.51 556.905 1049.47 557.079 1049.39 557.184C1048.33 558.567 1047.27 559.954 1046.22 561.339C1045.57 562.187 1044.85 562.965 1044.11 563.731C1043.88 563.974 1043.61 564.056 1043.21 563.928L1043.21 563.924Z" fill="black"/>
<path d="M67.7364 50.8153C67.5471 50.9004 67.3985 51.0208 67.2804 51.1562C67.016 51.4611 66.6955 51.7157 66.4496 52.0289C65.9165 52.71 65.2352 53.2383 64.6578 53.8724C64.5929 53.9444 64.533 54.0095 64.5104 54.1048C64.4008 54.5625 64.2016 54.9924 64.1342 55.4649C64.0966 55.7284 64.022 55.9991 63.9084 56.2379C63.5905 56.8981 63.4887 57.6239 63.2434 58.3038C63.07 58.7826 62.9574 59.2794 62.7317 59.7451C62.3445 60.5452 61.7136 61.0526 60.9206 61.3648C60.1042 61.6874 59.2364 61.7679 58.3666 61.8127C58.3531 61.8129 58.3397 61.8147 58.3262 61.8131C58.1862 61.7875 57.9726 61.8084 57.9524 61.649C57.9232 61.4321 58.1666 61.5246 58.2821 61.4623C58.5666 61.3082 58.8862 61.444 59.1867 61.3594C59.3495 61.3135 59.5278 61.3014 59.6975 61.2691C60.5744 61.0969 61.1987 60.5947 61.5791 59.7912C61.9776 58.9502 62.229 58.0531 62.4974 57.1643C62.6096 56.7914 62.6728 56.4037 62.8391 56.0472C62.8737 55.9739 62.8914 55.8956 62.8518 55.8145C62.7086 55.8059 62.6392 55.9237 62.5387 55.9791C61.9915 56.2853 61.4239 56.4135 60.8088 56.1976C60.6433 56.14 60.5463 56.0426 60.4839 55.8752C60.3661 55.5624 60.2652 55.2461 60.1907 54.8921C59.9061 55.1956 59.5751 55.4197 59.2987 55.7044C59.1571 55.8502 58.9917 55.9656 58.8433 56.0996C58.4848 56.4259 58.0758 56.4285 57.6387 56.333C57.4515 56.2925 57.3528 56.1968 57.3743 55.9997C57.422 55.5731 57.382 55.1373 57.4887 54.717C57.5048 54.6523 57.5261 54.5876 57.5354 54.5196C57.5448 54.4533 57.5491 54.3803 57.4797 54.3403C57.4051 54.2969 57.3536 54.3569 57.3069 54.4015C57.0086 54.6898 56.6968 54.9647 56.4172 55.2748C56.0745 55.6553 55.672 55.965 55.2372 56.2361C54.901 56.445 54.5439 56.4182 54.1896 56.3439C53.9281 56.2907 53.7496 55.9633 53.8005 55.6861C53.8546 55.3885 53.9407 55.0939 53.9068 54.7514C53.6501 54.8322 53.5106 55.0153 53.3591 55.1764C53.0162 55.5433 52.6322 55.8461 52.1749 56.0597C51.8533 56.209 51.5249 56.1938 51.1927 56.1447C51.0292 56.121 50.9423 56.0201 50.9521 55.8332C50.9686 55.4817 51.0508 55.1397 51.1027 54.7946C51.1184 54.6909 51.1763 54.5918 51.1096 54.4873C50.9965 54.463 50.9403 54.5553 50.8701 54.6103C50.2223 55.1145 49.5077 55.5107 48.8016 55.9205C48.487 56.102 48.1517 56.0665 47.8309 55.9799C47.5405 55.9015 47.3368 55.4182 47.4412 55.1048C47.81 53.9943 48.052 52.8392 48.5694 51.7831C48.8693 51.1689 49.0557 50.4914 49.4894 49.9505C49.84 49.514 50.2725 49.1886 50.8772 49.223C51.2764 49.2459 51.674 49.1127 52.0756 49.2052C52.1971 49.2328 52.2791 49.1827 52.308 49.0483C52.5167 48.0871 52.9331 47.1882 53.1552 46.2286C53.3033 45.5871 53.4244 44.9358 53.6805 44.3237C53.8349 43.9572 53.8399 43.9554 54.2492 43.9766C54.3688 43.9821 54.4918 43.9893 54.6049 44.0237C54.8008 44.0828 54.8763 44.211 54.7991 44.3934C54.505 45.0771 54.4185 45.8181 54.2038 46.5247C53.9955 47.2076 53.7838 47.8887 53.5941 48.5765C53.372 49.3799 53.1701 50.1883 52.9632 50.9967C52.6511 52.2119 52.4976 53.456 52.3238 54.6968C52.3159 54.7478 52.2946 54.8024 52.3406 54.8528C52.4305 54.9147 52.4886 54.8343 52.5453 54.7895C53.0895 54.3544 53.5996 53.8771 54.1865 53.4992C54.3202 53.4129 54.359 53.2615 54.403 53.1218C54.6621 52.3112 55.0734 51.5668 55.3765 50.7743C55.4617 50.5528 55.5946 50.3833 55.8003 50.2573C55.9926 50.1381 56.1832 50.0105 56.3311 49.8307C56.4425 49.6938 56.6038 49.6666 56.7635 49.6446C57.1467 49.5913 57.5316 49.5346 57.9167 49.4983C58.169 49.4736 58.425 49.4878 58.6635 49.5939C58.7261 49.6221 58.7905 49.6656 58.7896 49.7369C58.7904 49.8133 58.7183 49.8412 58.6546 49.8639C58.4885 49.9234 58.3153 49.9405 58.142 49.9491C57.3916 49.9825 56.8567 50.3412 56.5305 51.0201C56.1468 51.8202 55.7038 52.5938 55.4722 53.4585C55.3135 54.0542 55.1514 54.65 55.0908 55.2888C55.2893 55.2715 55.3872 55.138 55.504 55.0384C56.0446 54.5778 56.5663 54.0936 57.1752 53.7206C57.2655 53.6653 57.3573 53.588 57.4564 53.5716C57.7505 53.5227 57.8308 53.3148 57.8854 53.0647C58.1698 51.7785 58.7517 50.6097 59.3031 49.4293C59.3822 49.2622 59.4992 49.1879 59.6811 49.1962C59.8815 49.2043 60.0832 49.1767 60.2807 49.2204C60.5776 49.2835 60.6137 49.3578 60.4836 49.629C60.2266 50.163 59.9612 50.692 59.7161 51.2309C59.1813 52.4009 58.8577 53.6349 58.6471 54.9016C58.6408 54.9374 58.6564 54.9779 58.6618 55.0152C58.8155 55.0628 58.8917 54.95 58.97 54.8694C59.2449 54.5932 59.5606 54.3641 59.861 54.1182C59.8927 54.0924 59.9243 54.0531 59.9579 54.0493C60.3682 54.0077 60.3816 53.6799 60.4424 53.3806C60.5721 52.7461 60.7591 52.1297 60.9563 51.5149C61.1715 50.8489 61.3411 50.1699 61.5648 49.5073C61.6268 49.3233 61.7185 49.246 61.9001 49.2254C62.1691 49.1937 62.4315 49.174 62.6854 49.3003C62.8174 49.3651 62.8671 49.4494 62.8029 49.5893C62.5181 50.2016 62.4345 50.8848 62.1429 51.4939C62.0358 51.7156 62.0267 51.9635 61.9618 52.1968C61.8304 52.6632 61.7107 53.1312 61.5894 53.601C61.4472 54.1575 61.4312 54.7195 61.513 55.2855C61.5184 55.3262 61.5172 55.367 61.5311 55.4059C61.5815 55.5564 61.5919 55.7498 61.7709 55.7988C61.9498 55.8478 62.0085 55.6622 62.105 55.5593C62.4446 55.1976 62.7621 54.8124 63.1255 54.4776C63.3673 54.2544 63.4992 53.9984 63.5886 53.697C63.7625 53.1028 63.933 52.5069 64.1254 51.9193C64.3847 51.1273 64.6626 50.3402 64.9354 49.5532C64.9746 49.4424 64.99 49.3048 65.1344 49.2727C65.3427 49.2264 65.5577 49.1834 65.7655 49.2542C65.8753 49.2921 65.9202 49.4002 65.8929 49.521C65.8655 49.6384 65.8399 49.7592 65.7973 49.87C65.4432 50.7716 65.236 51.7226 64.9242 52.6373C64.9177 52.6578 64.9348 52.6881 64.9402 52.7152C65.04 52.7668 65.0812 52.6764 65.1311 52.6267C65.699 52.0385 66.2804 51.462 66.8244 50.8521C67.1538 50.4837 67.439 50.0716 67.7124 49.658C67.9146 49.352 68.2082 49.2606 68.5293 49.2199C68.7831 49.1867 68.9072 49.2991 68.9016 49.5622C68.8892 50.1411 68.8869 50.7234 68.8222 51.296C68.7745 51.7158 68.794 52.1314 68.8202 52.5419C68.8582 53.1084 68.8574 53.6719 68.86 54.2371C68.8616 54.546 68.8968 54.8545 68.9035 55.1634C68.9074 55.3738 68.9857 55.6191 68.8208 55.7855C68.5676 56.0393 68.3197 56.3135 67.9383 56.3838C67.026 56.5546 66.1314 56.4877 65.2496 56.1915C65.0958 56.1405 65.0379 56.0698 65.0462 55.9051C65.0615 55.6011 65.1377 55.3202 65.3084 55.0689C65.3449 55.0142 65.3846 54.9544 65.4364 54.9148C65.6201 54.7771 65.8387 54.751 66.0447 54.8117C66.2288 54.8657 66.1316 55.067 66.17 55.2007C66.2277 55.4021 66.0906 55.6497 66.264 55.8142C66.4137 55.9569 66.6439 55.9222 66.8347 55.9762C66.9749 56.0154 67.1232 56.0359 67.2697 56.0395C67.625 56.0476 67.8201 55.8673 67.8281 55.5091C67.8381 55.0236 67.8313 54.5382 67.8262 54.0528C67.8174 53.0685 67.8071 52.0841 67.7984 51.1015C67.7975 51.0217 67.8101 50.9401 67.7399 50.8237L67.7364 50.8153ZM52.1319 49.7529C52.1308 49.651 52.0867 49.6142 52.0092 49.6082C51.342 49.5541 50.7611 49.7028 50.3889 50.3229C50.3194 50.4373 50.2567 50.5568 50.199 50.6779C50.0524 50.9799 49.9159 51.2886 49.7642 51.5872C49.2233 52.6503 48.9375 53.8024 48.601 54.9364C48.5734 55.0301 48.5576 55.1304 48.6391 55.1991C48.7291 55.2745 48.816 55.2057 48.8946 55.1574C49.1689 54.9898 49.4397 54.8155 49.7158 54.6531C50.1759 54.3851 50.5861 54.0193 51.1271 53.9117C51.2799 53.8813 51.2939 53.7674 51.3127 53.6416C51.3822 53.2029 51.4466 52.7627 51.5396 52.3289C51.6953 51.6059 51.8712 50.886 52.0386 50.1646C52.0724 50.02 52.1046 49.8754 52.1336 49.7511L52.1319 49.7529Z" fill="black"/>
<path d="M42.642 50.8586C42.8892 51.165 43.2445 51.3157 43.5034 51.5732C44.5635 52.6273 45.2815 53.8171 44.9811 55.4039C44.8598 56.0435 44.4148 56.4507 43.9716 56.8356C43.2767 57.4406 42.4334 57.6731 41.5121 57.6381C41.0281 57.6209 40.5461 57.5995 40.0657 57.5456C39.5366 57.4862 39.1172 57.2405 38.7917 56.8354C38.3674 56.3052 38.1312 55.6998 38.0834 55.0173C38.0521 54.5602 38.2964 54.2039 38.5287 53.8681C38.9311 53.2865 39.2865 52.6667 39.7688 52.1432C39.8231 52.0837 39.867 52.0101 39.9316 51.9687C40.4446 51.6462 40.8281 51.1888 41.2438 50.7107C40.8885 50.3648 40.6358 49.9263 40.1214 49.7244C39.709 49.5621 39.4148 49.2277 39.2658 48.7861C39.0937 48.2756 39.1294 47.8016 39.5031 47.387C39.7945 47.0627 40.09 46.7445 40.3834 46.4222C40.7331 46.0404 41.1788 45.8975 41.685 45.8982C42.5144 45.8996 43.2331 46.1929 43.8447 46.7353C44.5732 47.3822 44.6533 48.6154 44.0166 49.3519C43.5768 49.8628 43.1083 50.3495 42.642 50.8586ZM43.7468 54.6058C43.7552 53.8576 43.4597 53.2163 43.1015 52.596C42.8903 52.2343 42.661 51.883 42.3388 51.6018C42.1931 51.4752 42.0628 51.4522 41.9138 51.5859C41.8413 51.6497 41.7626 51.7075 41.6921 51.7733C40.9553 52.46 40.399 53.2913 39.8159 54.1025C39.4132 54.6638 39.3932 55.2677 39.658 55.8951C39.7852 56.1947 39.9689 56.4591 40.1567 56.7213C40.2722 56.8828 40.436 56.9908 40.6316 57.0355C41.2919 57.1891 41.9093 57.1338 42.4451 56.6626C42.6264 56.5042 42.8054 56.3193 43.0199 56.2256C43.3376 56.086 43.4833 55.8304 43.59 55.5446C43.7007 55.2426 43.7807 54.9266 43.7448 54.6058L43.7468 54.6058ZM43.1788 47.9804C43.1852 47.6246 43.0743 47.3249 42.9188 47.0399C42.5644 46.3931 42.1222 46.2961 41.5477 46.7616C41.2111 47.0355 40.9157 47.3619 40.6694 47.7142C40.1126 48.5068 40.3693 49.3315 41.2558 49.7226C41.413 49.7921 41.5841 49.8248 41.6836 50.0068C41.7707 50.1664 41.9042 50.0979 41.9965 49.9872C42.2776 49.6569 42.571 49.3347 42.8235 48.9844C43.0399 48.6853 43.2112 48.3521 43.1788 47.9804Z" fill="black"/>
<path d="M23.2692 55.9562C23.8187 55.6271 24.3434 55.2597 24.8516 54.8722C25.1985 54.6083 25.629 54.5672 25.9728 54.779C26.1672 54.899 26.197 55.0247 26.0275 55.1464C25.6382 55.4311 25.2593 55.7481 24.8306 55.9621C24.2704 56.2404 23.7864 56.6094 23.3497 57.0348C23.0841 57.2938 22.8063 57.3536 22.4724 57.3104C22.051 57.2559 21.9725 57.1388 21.9903 56.7056C22.049 55.3307 22.3662 53.9897 22.5348 52.6299C22.6378 51.7974 22.7938 50.9724 22.9253 50.1457C22.9463 50.0174 22.9531 49.8892 22.9132 49.7636C22.8112 49.7321 22.7652 49.8038 22.7211 49.8693C21.7612 51.3675 20.6659 52.7615 19.5543 54.1475C19.0908 54.7256 18.7441 55.39 18.2765 55.9662C18.1039 56.1794 17.9231 56.3846 17.7444 56.5939C17.7123 56.6308 17.6801 56.6678 17.6397 56.6946C17.4965 56.7978 17.3324 56.8524 17.2048 56.7053C17.0752 56.5562 17.1465 56.3827 17.2858 56.2857C17.4755 56.1515 17.6385 55.9973 17.7585 55.807C18.8521 54.0675 20.2736 52.5745 21.4328 50.8851C21.8333 50.3036 22.2132 49.7059 22.6214 49.0897C22.4577 48.9898 22.3159 49.0319 22.1839 49.0496C21.719 49.1074 21.2517 49.1326 20.7821 49.1376C20.5362 49.1402 20.298 49.1041 20.0773 48.9966C19.9751 48.9469 19.8808 48.8686 19.9017 48.7342C19.9225 48.5896 20.0443 48.5701 20.1581 48.5648C20.8509 48.527 21.5389 48.412 22.2343 48.4331C22.4275 48.4392 22.6224 48.4127 22.8157 48.427C23.07 48.4466 23.1662 48.3176 23.1842 48.0917C23.2203 47.6583 23.2848 47.2246 23.2863 46.7896C23.2877 45.769 23.5562 44.8168 23.9489 43.8877C24.0242 43.708 24.1332 43.6276 24.3216 43.5626C24.913 43.3611 25.4695 43.4996 26.0204 43.691C26.406 43.8252 26.4955 44.0234 26.3451 44.4031C26.1609 44.8686 25.9318 45.3122 25.6393 45.7218C25.2107 46.3281 24.7861 46.9364 24.3636 47.5466C24.2995 47.6388 24.2437 47.741 24.2143 47.847C24.1029 48.269 24.177 48.3577 24.61 48.3572C25.3358 48.3577 26.0616 48.3663 26.7874 48.3647C27.1025 48.3634 27.394 48.4416 27.666 48.5953C27.7642 48.6512 27.8827 48.713 27.8577 48.8454C27.8269 49.0063 27.6724 49.014 27.5484 49.0113C27.097 49.0018 26.6455 48.9801 26.1939 48.9585C25.5797 48.9304 24.9681 48.9633 24.3544 48.982C24.1126 48.9906 24.0097 49.073 23.9981 49.3191C23.9201 50.9808 23.5449 52.6091 23.41 54.2653C23.3703 54.7415 23.235 55.2145 23.2035 55.6987C23.1982 55.776 23.1808 55.8555 23.2713 55.9602L23.2692 55.9562ZM24.4187 46.4096C24.798 45.9462 25.1529 45.4769 25.3993 44.9397C25.4788 44.766 25.5542 44.5884 25.6092 44.4048C25.676 44.1907 25.5509 44.0863 25.3611 44.0151C25.1733 43.9459 25.0288 43.9312 24.9213 44.1437C24.5608 44.853 24.3511 45.5952 24.4187 46.4096Z" fill="black"/>
<path d="M33.3184 50.6459C33.9487 50.6575 34.4631 50.6622 34.9789 50.6039C35.45 50.5522 35.8144 50.7923 36.1588 51.0692C36.2367 51.1314 36.2945 51.2162 36.2509 51.3224C36.2133 51.4122 36.1217 51.405 36.0425 51.4079C35.6727 51.4281 35.301 51.4666 34.9309 51.4562C33.6437 51.419 32.3547 51.4082 31.0761 51.2205C30.7218 51.1693 30.3814 51.0814 30.0844 50.8711C29.9881 50.803 29.8998 50.7206 29.927 50.5943C29.9599 50.4374 30.0986 50.4806 30.2043 50.4795C30.3648 50.4778 30.5314 50.4659 30.6863 50.4988C31.5969 50.6823 32.5171 50.6157 33.3204 50.6438L33.3184 50.6459Z" fill="black"/>
<path d="M35.6857 53.4262C34.8807 53.4347 34.1896 53.4339 33.4985 53.4514C32.8584 53.4683 32.2163 53.4974 31.5763 53.5367C31.3853 53.5489 31.1969 53.6037 31.0082 53.6464C30.5682 53.7466 30.1824 53.5982 29.8141 53.3805C29.7303 53.3305 29.6603 53.252 29.6693 53.1442C29.6782 53.0221 29.7879 53.0108 29.8791 52.9854C30.2987 52.8692 30.7245 52.7671 31.1594 52.7483C32.2363 52.7023 33.3133 52.6584 34.3907 52.6532C34.905 52.6498 35.3423 52.8647 35.6857 53.4242L35.6857 53.4262Z" fill="black"/>
<path d="M27.132 35.3137C27.4654 35.208 27.7358 34.9763 28.0224 34.7832C28.307 34.5921 28.5956 34.586 28.9006 34.6795C29.2157 34.7751 29.2665 34.9702 29.0286 35.204C28.5713 35.6553 28.1525 36.1533 27.561 36.4542C27.3475 36.5619 27.1666 36.7347 26.9694 36.8729C26.8027 36.9908 26.6807 37.2022 26.4368 37.1677C26.1014 37.1189 25.7619 37.0762 25.4631 36.8993C25.3228 36.816 25.2944 36.69 25.3269 36.5253C25.4773 35.7386 25.6135 34.9478 25.766 34.092C25.3615 34.3726 25.0687 34.6917 24.7313 34.9539C24.0035 35.515 23.4567 36.2875 22.6578 36.7611C22.0785 37.1046 21.4747 37.3344 20.7795 37.0843C20.379 36.94 20.1656 36.7062 20.1493 36.2732C20.1432 36.0964 20.1432 35.9134 20.1798 35.7427C20.3811 34.7954 20.6006 33.8542 20.9218 32.9394C21.2674 31.9555 21.7939 31.0774 22.4688 30.2785C23.2697 29.3312 23.3408 29.3109 24.5178 28.9633C25.2334 28.7518 25.9103 28.7661 26.6055 28.9795C26.6665 28.9978 26.7275 29.0222 26.7905 29.0344C27.0914 29.0954 27.1463 29.069 27.2357 28.7661C27.3475 28.3961 27.4796 28.0282 27.5427 27.648C27.7114 26.6194 28.1159 25.6701 28.4676 24.7025C28.6322 24.2471 28.7928 23.7918 28.9412 23.3324C29.0246 23.0742 29.1791 22.9705 29.4494 23.0071C29.736 23.0458 30.0328 23.0356 30.2625 23.2592C30.3906 23.3832 30.4516 23.5052 30.3581 23.6861C29.8235 24.7106 29.5246 25.8226 29.24 26.9284C28.803 28.6319 28.2948 30.313 27.809 32.0003C27.5183 33.0085 27.2499 34.0209 27.1056 35.0617C27.0954 35.1389 27.0548 35.2182 27.1361 35.3158L27.132 35.3137ZM21.6333 35.95C21.7146 35.9764 21.7776 35.9642 21.8284 35.9175C22.5562 35.2467 23.4059 34.7466 24.2149 34.1896C24.6276 33.905 25.0565 33.6367 25.5912 33.6916C25.8188 33.716 25.894 33.6062 25.9489 33.407C26.2356 32.3336 26.5364 31.2624 26.8271 30.189C26.9958 29.567 26.9166 29.4755 26.2579 29.5243C26.1299 29.5345 26.0018 29.5568 25.8778 29.5914C25.5668 29.6768 25.2578 29.7682 24.9508 29.8638C24.591 29.9756 24.2719 30.1443 24.0503 30.4736C23.9344 30.6464 23.7718 30.7847 23.6254 30.9371C22.979 31.612 22.5135 32.4007 22.2492 33.2891C22.0561 33.9355 21.9118 34.5982 21.7227 35.2487C21.6577 35.4723 21.5642 35.7081 21.6353 35.948L21.6333 35.95Z" fill="black"/>
<path d="M45.0509 26.648C45.0285 25.9853 44.9127 25.4751 44.5854 25.0258C44.2581 24.5786 43.8312 24.357 43.2864 24.5217C42.5282 24.7493 41.7761 25.0014 41.1845 25.5686C41.0686 25.6804 40.9507 25.7881 40.8715 25.9345C40.7962 26.0707 40.7475 26.2739 40.5442 26.2353C40.2819 26.1865 39.9852 26.2008 39.7859 25.967C39.7026 25.8694 39.727 25.7536 39.7615 25.6438C39.8327 25.4242 39.9486 25.2311 40.1254 25.0807C40.8776 24.4424 41.7374 24.0196 42.7071 23.8264C43.4348 23.6821 44.0772 23.9261 44.6789 24.2981C45.2522 24.6538 45.6912 25.1437 46.0287 25.7251C46.2116 26.0402 46.3052 26.3878 46.2889 26.7435C46.2442 27.7213 45.9392 28.6157 45.2664 29.3415C44.8598 29.7805 44.3232 30.0672 43.8333 30.4046C43.5812 30.5774 43.3149 30.7339 43.073 30.921C42.7457 31.173 42.5729 31.5166 42.6054 31.9313C42.6298 32.2585 42.518 32.5696 42.5201 32.8928C42.5201 33.1123 42.3269 33.2221 42.1684 33.3217C41.898 33.4925 41.2983 33.3827 41.0849 33.1509C41.026 33.0879 40.9894 33.0147 41.0158 32.9334C41.2109 32.3459 41.1276 31.7158 41.3166 31.1263C41.3939 30.8864 41.4976 30.6668 41.6947 30.5266C42.0159 30.2989 42.3107 30.0489 42.6908 29.8781C43.4938 29.5183 44.1626 28.943 44.561 28.1238C44.807 27.6176 45.0956 27.1216 45.0509 26.6439V26.648Z" fill="black"/>
<path d="M31.993 33.3378C33.1314 33.4171 34.2657 33.165 35.4061 33.2565C35.8554 33.2931 36.3046 33.3134 36.7518 33.352C37.0161 33.3744 37.2377 33.5147 37.4511 33.659C37.6117 33.7667 37.691 33.9314 37.6178 34.1184C37.5467 34.2953 37.3881 34.2322 37.2417 34.22C36.2802 34.1387 35.3167 34.0757 34.3511 34.1956C33.662 34.281 32.9708 34.1794 32.2776 34.2505C31.8223 34.2973 31.4055 34.0615 31.0315 33.7972C30.9502 33.7403 30.8912 33.657 30.9299 33.5492C30.9604 33.4638 31.0457 33.4435 31.127 33.4333C31.4137 33.4029 31.6942 33.3032 31.991 33.3398L31.993 33.3378Z" fill="black"/>
<path d="M34.6759 31.8579C33.9522 31.8579 33.2285 31.8539 32.5028 31.8579C32.0027 31.862 31.5596 31.6831 31.1368 31.4392C31.0676 31.4005 31.0046 31.3457 30.9497 31.2908C30.8888 31.2318 30.8664 31.1525 30.8969 31.0692C30.9335 30.9777 31.0148 30.9757 31.0961 30.9818C31.273 30.994 31.4498 31.0163 31.6267 31.0143C32.8321 31.0082 34.0396 31.0184 35.2451 30.9797C35.7614 30.9635 36.2696 30.9167 36.7676 31.1017C36.9201 31.1586 37.0726 31.2135 37.1864 31.3314C37.2799 31.429 37.4466 31.5062 37.3714 31.6851C37.3124 31.8254 37.1701 31.8274 37.04 31.8315C36.7189 31.8437 36.3977 31.862 36.0745 31.8661C35.6069 31.8722 35.1414 31.8661 34.6738 31.8661V31.8559L34.6759 31.8579Z" fill="black"/>
<path d="M40.8026 35.9541C40.8026 35.761 40.7945 35.5679 40.8026 35.3748C40.8169 35.0597 40.8982 34.9885 41.2194 35.0109C41.4125 35.0251 41.5954 35.0861 41.7743 35.1613C42.0244 35.265 42.1504 35.4073 42.1341 35.7061C42.1138 36.0903 42.1565 36.4786 42.2968 36.8445C42.374 37.0478 42.2642 37.0966 42.0996 37.1331C41.7174 37.2165 41.3657 37.0701 41.012 36.9827C40.8453 36.9421 40.8087 36.751 40.8067 36.5822C40.8067 36.3729 40.8067 36.1635 40.8067 35.9541C40.8047 35.9541 40.8006 35.9541 40.7986 35.9541H40.8026Z" fill="black"/>
</svg>
