<svg width="64" height="68" viewBox="0 0 64 68" fill="none" xmlns="http://www.w3.org/2000/svg">
<g clip-path="url(#clip0_2150_62515)">
<path d="M27.8209 67.2881L27.8202 67.3142L27.8464 67.3142L36.5628 67.3142L36.5889 67.3142L36.5883 67.2881L35.9502 40.3242L59.0958 54.4125L59.1182 54.4262L59.1313 54.4034L63.4313 46.8844L63.4443 46.8616L63.4213 46.8492L39.5221 33.9737L63.4213 21.0982L63.4443 21.0858L63.4313 21.063L59.1313 13.544L59.1182 13.5212L59.0958 13.5349L35.9502 27.6232L36.5883 0.659296L36.5889 0.633149L36.5628 0.633149L27.8464 0.633149L27.8202 0.633149L27.8209 0.659296L28.459 27.6232L5.31335 13.5349L5.29093 13.5212L5.2779 13.544L0.977828 21.063L0.964822 21.0858L0.987885 21.0982L24.8871 33.9737L0.987885 46.8492L0.964822 46.8616L0.977827 46.8844L5.2779 54.4034L5.29093 54.4262L5.31335 54.4125L28.459 40.3242L27.8209 67.2881Z" fill="black" stroke="black" stroke-width="0.0510844"/>
</g>
<defs>
<clipPath id="clip0_2150_62515">
<rect width="64" height="68" fill="white"/>
</clipPath>
</defs>
</svg>
