<svg width="635" height="122" viewBox="0 0 635 122" fill="none" xmlns="http://www.w3.org/2000/svg">
<mask id="path-1-outside-1_2476_78711" maskUnits="userSpaceOnUse" x="1.96289" y="2.1958" width="630" height="118" fill="black">
<rect fill="white" x="1.96289" y="2.1958" width="630" height="118"/>
<path d="M49.3545 116.967L50.4352 71.2977L11.2334 95.1592L3.96289 82.4461L44.442 60.6383L3.96289 38.8305L11.2334 26.1174L50.4352 49.9789L49.3545 4.30964H64.092L63.0113 49.9789L102.213 26.1174L109.484 38.8305L69.0045 60.6383L109.484 82.4461L102.213 95.1592L63.0113 71.2977L64.092 116.967H49.3545Z"/>
<path d="M137.305 117.24V4.73397H154.359V53.6256H210.709V4.73397H227.819V117.24H210.709V68.1833H154.359V117.24H137.305Z"/>
<path d="M325.342 4.73397H342.451V78.7307C342.451 86.6046 340.593 93.5813 336.877 99.6607C333.161 105.704 327.936 110.465 321.202 113.944C314.469 117.386 306.577 119.108 297.525 119.108C288.511 119.108 280.637 117.386 273.903 113.944C267.17 110.465 261.945 105.704 258.229 99.6607C254.513 93.5813 252.655 86.6046 252.655 78.7307V4.73397H269.709V77.3573C269.709 82.4479 270.831 86.9709 273.075 90.9261C275.357 94.8814 278.576 97.9944 282.734 100.265C286.892 102.499 291.822 103.616 297.525 103.616C303.265 103.616 308.214 102.499 312.372 100.265C316.566 97.9944 319.767 94.8814 321.975 90.9261C324.22 86.9709 325.342 82.4479 325.342 77.3573V4.73397Z"/>
<path d="M367.246 117.24V4.73397H408.639C416.66 4.73397 423.302 6.05239 428.563 8.68925C433.825 11.2895 437.762 14.8236 440.374 19.2916C442.987 23.723 444.293 28.722 444.293 34.2887C444.293 38.9764 443.428 42.9317 441.699 46.1546C439.97 49.3408 437.652 51.9044 434.745 53.8454C431.875 55.7498 428.711 57.1414 425.252 58.0204V59.1191C429.005 59.3022 432.666 60.5108 436.235 62.7448C439.841 64.9421 442.821 68.0734 445.176 72.1386C447.531 76.2037 448.708 81.1478 448.708 86.9709C448.708 92.7207 447.347 97.8845 444.624 102.462C441.938 107.004 437.78 110.611 432.151 113.284C426.521 115.921 419.328 117.24 410.571 117.24H367.246ZM384.3 102.682H408.915C417.084 102.682 422.934 101.107 426.466 97.9578C429.998 94.8082 431.765 90.8712 431.765 86.1469C431.765 82.5944 430.863 79.335 429.06 76.3685C427.257 73.402 424.682 71.0399 421.333 69.282C418.022 67.5241 414.085 66.6451 409.522 66.6451H384.3V102.682ZM384.3 53.4059H407.149C410.976 53.4059 414.416 52.6734 417.47 51.2085C420.561 49.7436 423.008 47.6927 424.81 45.0559C426.65 42.3824 427.57 39.2328 427.57 35.6071C427.57 30.956 425.933 27.0557 422.658 23.9061C419.383 20.7565 414.361 19.1817 407.591 19.1817H384.3V53.4059Z"/>
<path d="M479.564 117.24V97.6831L520.792 61.7559C523.882 58.9726 526.513 56.4273 528.684 54.1201C530.855 51.7762 532.511 49.4323 533.651 47.0884C534.792 44.7079 535.362 42.126 535.362 39.3427C535.362 36.2297 534.681 33.5746 533.32 31.3772C531.959 29.1432 530.082 27.4219 527.691 26.2133C525.299 25.0048 522.558 24.4005 519.467 24.4005C516.34 24.4005 513.598 25.0414 511.243 26.3232C508.889 27.5684 507.049 29.3812 505.724 31.7617C504.437 34.1422 503.793 37.0354 503.793 40.4414H477.908C477.908 32.7872 479.637 26.1767 483.096 20.61C486.555 15.0433 491.411 10.7584 497.666 7.75536C503.958 4.71565 511.262 3.1958 519.577 3.1958C528.15 3.1958 535.601 4.6241 541.93 7.48069C548.258 10.3373 553.152 14.3292 556.611 19.4564C560.106 24.547 561.854 30.4616 561.854 37.2002C561.854 41.4851 560.989 45.7334 559.26 49.945C557.531 54.1567 554.422 58.8078 549.933 63.8984C545.481 68.989 539.152 75.0867 530.947 82.1916L517.425 94.6068V95.3209H563.234V117.24H479.564Z"/>
<path d="M630.94 4.73397V117.24H603.675V30.1137H603.013L577.735 45.4953V21.9834L605.607 4.73397H630.94Z"/>
</mask>
<path d="M49.3545 116.967L50.4352 71.2977L11.2334 95.1592L3.96289 82.4461L44.442 60.6383L3.96289 38.8305L11.2334 26.1174L50.4352 49.9789L49.3545 4.30964H64.092L63.0113 49.9789L102.213 26.1174L109.484 38.8305L69.0045 60.6383L109.484 82.4461L102.213 95.1592L63.0113 71.2977L64.092 116.967H49.3545Z" stroke="black" stroke-width="2" mask="url(#path-1-outside-1_2476_78711)"/>
<path d="M137.305 117.24V4.73397H154.359V53.6256H210.709V4.73397H227.819V117.24H210.709V68.1833H154.359V117.24H137.305Z" stroke="black" stroke-width="2" mask="url(#path-1-outside-1_2476_78711)"/>
<path d="M325.342 4.73397H342.451V78.7307C342.451 86.6046 340.593 93.5813 336.877 99.6607C333.161 105.704 327.936 110.465 321.202 113.944C314.469 117.386 306.577 119.108 297.525 119.108C288.511 119.108 280.637 117.386 273.903 113.944C267.17 110.465 261.945 105.704 258.229 99.6607C254.513 93.5813 252.655 86.6046 252.655 78.7307V4.73397H269.709V77.3573C269.709 82.4479 270.831 86.9709 273.075 90.9261C275.357 94.8814 278.576 97.9944 282.734 100.265C286.892 102.499 291.822 103.616 297.525 103.616C303.265 103.616 308.214 102.499 312.372 100.265C316.566 97.9944 319.767 94.8814 321.975 90.9261C324.22 86.9709 325.342 82.4479 325.342 77.3573V4.73397Z" stroke="black" stroke-width="2" mask="url(#path-1-outside-1_2476_78711)"/>
<path d="M367.246 117.24V4.73397H408.639C416.66 4.73397 423.302 6.05239 428.563 8.68925C433.825 11.2895 437.762 14.8236 440.374 19.2916C442.987 23.723 444.293 28.722 444.293 34.2887C444.293 38.9764 443.428 42.9317 441.699 46.1546C439.97 49.3408 437.652 51.9044 434.745 53.8454C431.875 55.7498 428.711 57.1414 425.252 58.0204V59.1191C429.005 59.3022 432.666 60.5108 436.235 62.7448C439.841 64.9421 442.821 68.0734 445.176 72.1386C447.531 76.2037 448.708 81.1478 448.708 86.9709C448.708 92.7207 447.347 97.8845 444.624 102.462C441.938 107.004 437.78 110.611 432.151 113.284C426.521 115.921 419.328 117.24 410.571 117.24H367.246ZM384.3 102.682H408.915C417.084 102.682 422.934 101.107 426.466 97.9578C429.998 94.8082 431.765 90.8712 431.765 86.1469C431.765 82.5944 430.863 79.335 429.06 76.3685C427.257 73.402 424.682 71.0399 421.333 69.282C418.022 67.5241 414.085 66.6451 409.522 66.6451H384.3V102.682ZM384.3 53.4059H407.149C410.976 53.4059 414.416 52.6734 417.47 51.2085C420.561 49.7436 423.008 47.6927 424.81 45.0559C426.65 42.3824 427.57 39.2328 427.57 35.6071C427.57 30.956 425.933 27.0557 422.658 23.9061C419.383 20.7565 414.361 19.1817 407.591 19.1817H384.3V53.4059Z" stroke="black" stroke-width="2" mask="url(#path-1-outside-1_2476_78711)"/>
<path d="M479.564 117.24V97.6831L520.792 61.7559C523.882 58.9726 526.513 56.4273 528.684 54.1201C530.855 51.7762 532.511 49.4323 533.651 47.0884C534.792 44.7079 535.362 42.126 535.362 39.3427C535.362 36.2297 534.681 33.5746 533.32 31.3772C531.959 29.1432 530.082 27.4219 527.691 26.2133C525.299 25.0048 522.558 24.4005 519.467 24.4005C516.34 24.4005 513.598 25.0414 511.243 26.3232C508.889 27.5684 507.049 29.3812 505.724 31.7617C504.437 34.1422 503.793 37.0354 503.793 40.4414H477.908C477.908 32.7872 479.637 26.1767 483.096 20.61C486.555 15.0433 491.411 10.7584 497.666 7.75536C503.958 4.71565 511.262 3.1958 519.577 3.1958C528.15 3.1958 535.601 4.6241 541.93 7.48069C548.258 10.3373 553.152 14.3292 556.611 19.4564C560.106 24.547 561.854 30.4616 561.854 37.2002C561.854 41.4851 560.989 45.7334 559.26 49.945C557.531 54.1567 554.422 58.8078 549.933 63.8984C545.481 68.989 539.152 75.0867 530.947 82.1916L517.425 94.6068V95.3209H563.234V117.24H479.564Z" stroke="black" stroke-width="2" mask="url(#path-1-outside-1_2476_78711)"/>
<path d="M630.94 4.73397V117.24H603.675V30.1137H603.013L577.735 45.4953V21.9834L605.607 4.73397H630.94Z" stroke="black" stroke-width="2" mask="url(#path-1-outside-1_2476_78711)"/>
<rect x="47.442" y="2.22913" width="3.60132" height="3.60132" fill="#E8FA48" stroke="black" stroke-width="1.20044"/>
<rect x="62.608" y="2.22913" width="3.60132" height="3.60132" fill="#E8FA48" stroke="black" stroke-width="1.20044"/>
<rect x="62.0846" y="46.6744" width="3.60132" height="3.60132" fill="#E8FA48" stroke="black" stroke-width="1.20044"/>
<rect x="47.9655" y="46.6744" width="3.60132" height="3.60132" fill="#E8FA48" stroke="black" stroke-width="1.20044"/>
<rect x="9.79358" y="23.6666" width="3.60132" height="3.60132" fill="#E8FA48" stroke="black" stroke-width="1.20044"/>
<rect x="1.94983" y="37.2628" width="3.60132" height="3.60132" fill="#E8FA48" stroke="black" stroke-width="1.20044"/>
<rect x="41.6901" y="58.7032" width="3.60132" height="3.60132" fill="#E8FA48" stroke="black" stroke-width="1.20044"/>
<rect x="67.8365" y="58.7032" width="3.60132" height="3.60132" fill="#E8FA48" stroke="black" stroke-width="1.20044"/>
<rect x="99.735" y="23.1432" width="3.60132" height="3.60132" fill="#E8FA48" stroke="black" stroke-width="1.20044"/>
<rect x="107.579" y="36.7394" width="3.60132" height="3.60132" fill="#E8FA48" stroke="black" stroke-width="1.20044"/>
<rect x="62.0846" y="71.2526" width="3.60132" height="3.60132" fill="#E8FA48" stroke="black" stroke-width="1.20044"/>
<rect x="62.608" y="115.701" width="3.60132" height="3.60132" fill="#E8FA48" stroke="black" stroke-width="1.20044"/>
<rect x="46.9205" y="115.701" width="3.60132" height="3.60132" fill="#E8FA48" stroke="black" stroke-width="1.20044"/>
<rect x="9.79358" y="93.2135" width="3.60132" height="3.60132" fill="#E8FA48" stroke="black" stroke-width="1.20044"/>
<rect x="1.42639" y="80.1412" width="3.60132" height="3.60132" fill="#E8FA48" stroke="black" stroke-width="1.20044"/>
<rect x="108.102" y="80.6642" width="3.60132" height="3.60132" fill="#E8FA48" stroke="black" stroke-width="1.20044"/>
<rect x="100.78" y="94.2604" width="3.60132" height="3.60132" fill="#E8FA48" stroke="black" stroke-width="1.20044"/>
<rect x="134.77" y="2.22913" width="3.60132" height="3.60132" fill="#E8FA48" stroke="black" stroke-width="1.20044"/>
<rect x="153.073" y="2.22913" width="3.60132" height="3.60132" fill="#E8FA48" stroke="black" stroke-width="1.20044"/>
<rect x="153.073" y="50.8585" width="3.60132" height="3.60132" fill="#E8FA48" stroke="black" stroke-width="1.20044"/>
<rect x="207.979" y="50.8585" width="3.60132" height="3.60132" fill="#E8FA48" stroke="black" stroke-width="1.20044"/>
<rect x="207.979" y="2.22913" width="3.60132" height="3.60132" fill="#E8FA48" stroke="black" stroke-width="1.20044"/>
<rect x="226.803" y="2.22913" width="3.60132" height="3.60132" fill="#E8FA48" stroke="black" stroke-width="1.20044"/>
<rect x="226.803" y="115.701" width="3.60132" height="3.60132" fill="#E8FA48" stroke="black" stroke-width="1.20044"/>
<rect x="250.335" y="2.22913" width="3.60132" height="3.60132" fill="#E8FA48" stroke="black" stroke-width="1.20044"/>
<rect x="268.114" y="2.22913" width="3.60132" height="3.60132" fill="#E8FA48" stroke="black" stroke-width="1.20044"/>
<rect x="323.02" y="2.22913" width="3.60132" height="3.60132" fill="#E8FA48" stroke="black" stroke-width="1.20044"/>
<rect x="323.02" y="75.4366" width="3.60132" height="3.60132" fill="#E8FA48" stroke="black" stroke-width="1.20044"/>
<rect x="340.799" y="85.8951" width="3.60132" height="3.60132" fill="#E8FA48" stroke="black" stroke-width="1.20044"/>
<rect x="250.858" y="85.8951" width="3.60132" height="3.60132" fill="#E8FA48" stroke="black" stroke-width="1.20044"/>
<rect x="268.637" y="75.4366" width="3.60132" height="3.60132" fill="#E8FA48" stroke="black" stroke-width="1.20044"/>
<rect x="271.774" y="88.5094" width="3.60132" height="3.60132" fill="#E8FA48" stroke="black" stroke-width="1.20044"/>
<rect x="271.774" y="112.564" width="3.60132" height="3.60132" fill="#E8FA48" stroke="black" stroke-width="1.20044"/>
<rect x="319.36" y="88.5094" width="3.60132" height="3.60132" fill="#E8FA48" stroke="black" stroke-width="1.20044"/>
<rect x="320.405" y="112.041" width="3.60132" height="3.60132" fill="#E8FA48" stroke="black" stroke-width="1.20044"/>
<rect x="296.352" y="101.058" width="3.60132" height="3.60132" fill="#E8FA48" stroke="black" stroke-width="1.20044"/>
<rect x="309.424" y="97.921" width="3.60132" height="3.60132" fill="#E8FA48" stroke="black" stroke-width="1.20044"/>
<rect x="282.233" y="97.921" width="3.60132" height="3.60132" fill="#E8FA48" stroke="black" stroke-width="1.20044"/>
<rect x="296.352" y="117.792" width="3.60132" height="3.60132" fill="#E8FA48" stroke="black" stroke-width="1.20044"/>
<rect x="341.323" y="2.22913" width="3.60132" height="3.60132" fill="#E8FA48" stroke="black" stroke-width="1.20044"/>
<rect x="364.854" y="2.22913" width="3.60132" height="3.60132" fill="#E8FA48" stroke="black" stroke-width="1.20044"/>
<rect x="364.854" y="116.225" width="3.60132" height="3.60132" fill="#E8FA48" stroke="black" stroke-width="1.20044"/>
<rect x="383.678" y="100.011" width="3.60132" height="3.60132" fill="#E8FA48" stroke="black" stroke-width="1.20044"/>
<rect x="383.678" y="65.5016" width="3.60132" height="3.60132" fill="#E8FA48" stroke="black" stroke-width="1.20044"/>
<rect x="383.678" y="50.8585" width="3.60132" height="3.60132" fill="#E8FA48" stroke="black" stroke-width="1.20044"/>
<rect x="425.512" y="56.61" width="3.60132" height="3.60132" fill="#E8FA48" stroke="black" stroke-width="1.20044"/>
<rect x="383.678" y="17.9156" width="3.60132" height="3.60132" fill="#E8FA48" stroke="black" stroke-width="1.20044"/>
<rect x="405.118" y="17.9156" width="3.60132" height="3.60132" fill="#E8FA48" stroke="black" stroke-width="1.20044"/>
<rect x="419.76" y="22.0997" width="3.60132" height="3.60132" fill="#E8FA48" stroke="black" stroke-width="1.20044"/>
<rect x="429.172" y="7.9801" width="3.60132" height="3.60132" fill="#E8FA48" stroke="black" stroke-width="1.20044"/>
<rect x="429.172" y="113.088" width="3.60132" height="3.60132" fill="#E8FA48" stroke="black" stroke-width="1.20044"/>
<rect x="419.76" y="46.151" width="3.60132" height="3.60132" fill="#E8FA48" stroke="black" stroke-width="1.20044"/>
<rect x="424.989" y="35.172" width="3.60132" height="3.60132" fill="#E8FA48" stroke="black" stroke-width="1.20044"/>
<rect x="429.172" y="83.8019" width="3.60132" height="3.60132" fill="#E8FA48" stroke="black" stroke-width="1.20044"/>
<rect x="437.016" y="62.3639" width="3.60132" height="3.60132" fill="#E8FA48" stroke="black" stroke-width="1.20044"/>
<rect x="437.016" y="49.2916" width="3.60132" height="3.60132" fill="#E8FA48" stroke="black" stroke-width="1.20044"/>
<rect x="442.768" y="28.3741" width="3.60132" height="3.60132" fill="#E8FA48" stroke="black" stroke-width="1.20044"/>
<rect x="475.712" y="38.8326" width="3.60132" height="3.60132" fill="#E8FA48" stroke="black" stroke-width="1.20044"/>
<rect x="502.903" y="38.8326" width="3.60132" height="3.60132" fill="#E8FA48" stroke="black" stroke-width="1.20044"/>
<rect x="477.28" y="95.8307" width="3.60132" height="3.60132" fill="#E8FA48" stroke="black" stroke-width="1.20044"/>
<rect x="477.28" y="115.701" width="3.60132" height="3.60132" fill="#E8FA48" stroke="black" stroke-width="1.20044"/>
<rect x="561.993" y="115.701" width="3.60132" height="3.60132" fill="#E8FA48" stroke="black" stroke-width="1.20044"/>
<rect x="561.993" y="93.2135" width="3.60132" height="3.60132" fill="#E8FA48" stroke="black" stroke-width="1.20044"/>
<rect x="516.499" y="92.17" width="3.60132" height="3.60132" fill="#E8FA48" stroke="black" stroke-width="1.20044"/>
<rect x="479.895" y="19.4825" width="3.60132" height="3.60132" fill="#E8FA48" stroke="black" stroke-width="1.20044"/>
<rect x="492.967" y="6.93323" width="3.60132" height="3.60132" fill="#E8FA48" stroke="black" stroke-width="1.20044"/>
<rect x="516.499" y="0.658813" width="3.60132" height="3.60132" fill="#E8FA48" stroke="black" stroke-width="1.20044"/>
<rect x="539.506" y="4.84289" width="3.60132" height="3.60132" fill="#E8FA48" stroke="black" stroke-width="1.20044"/>
<rect x="555.196" y="17.9156" width="3.60132" height="3.60132" fill="#E8FA48" stroke="black" stroke-width="1.20044"/>
<rect x="575.065" y="20.006" width="3.60132" height="3.60132" fill="#E8FA48" stroke="black" stroke-width="1.20044"/>
<rect x="602.258" y="2.74914" width="3.60132" height="3.60132" fill="#E8FA48" stroke="black" stroke-width="1.20044"/>
<rect x="629.971" y="2.74914" width="3.60132" height="3.60132" fill="#E8FA48" stroke="black" stroke-width="1.20044"/>
<rect x="629.971" y="116.225" width="3.60132" height="3.60132" fill="#E8FA48" stroke="black" stroke-width="1.20044"/>
<rect x="601.212" y="116.225" width="3.60132" height="3.60132" fill="#E8FA48" stroke="black" stroke-width="1.20044"/>
<rect x="601.212" y="29.4176" width="3.60132" height="3.60132" fill="#E8FA48" stroke="black" stroke-width="1.20044"/>
<rect x="575.065" y="44.0607" width="3.60132" height="3.60132" fill="#E8FA48" stroke="black" stroke-width="1.20044"/>
<rect x="560.424" y="30.9879" width="3.60132" height="3.60132" fill="#E8FA48" stroke="black" stroke-width="1.20044"/>
<rect x="555.196" y="53.9957" width="3.60132" height="3.60132" fill="#E8FA48" stroke="black" stroke-width="1.20044"/>
<rect x="529.049" y="80.6642" width="3.60132" height="3.60132" fill="#E8FA48" stroke="black" stroke-width="1.20044"/>
<rect x="520.682" y="57.6564" width="3.60132" height="3.60132" fill="#E8FA48" stroke="black" stroke-width="1.20044"/>
<rect x="527.481" y="50.8585" width="3.60132" height="3.60132" fill="#E8FA48" stroke="black" stroke-width="1.20044"/>
<rect x="532.186" y="41.9703" width="3.60132" height="3.60132" fill="#E8FA48" stroke="black" stroke-width="1.20044"/>
<rect x="532.186" y="33.0787" width="3.60132" height="3.60132" fill="#E8FA48" stroke="black" stroke-width="1.20044"/>
<rect x="526.958" y="25.7604" width="3.60132" height="3.60132" fill="#E8FA48" stroke="black" stroke-width="1.20044"/>
<rect x="517.022" y="22.6198" width="3.60132" height="3.60132" fill="#E8FA48" stroke="black" stroke-width="1.20044"/>
<rect x="508.655" y="25.2369" width="3.60132" height="3.60132" fill="#E8FA48" stroke="black" stroke-width="1.20044"/>
<rect x="503.95" y="31.5114" width="3.60132" height="3.60132" fill="#E8FA48" stroke="black" stroke-width="1.20044"/>
<rect x="447.475" y="89.5563" width="3.60132" height="3.60132" fill="#E8FA48" stroke="black" stroke-width="1.20044"/>
<rect x="419.76" y="68.1154" width="3.60132" height="3.60132" fill="#E8FA48" stroke="black" stroke-width="1.20044"/>
<rect x="420.282" y="97.921" width="3.60132" height="3.60132" fill="#E8FA48" stroke="black" stroke-width="1.20044"/>
<rect x="406.686" y="2.22913" width="3.60132" height="3.60132" fill="#E8FA48" stroke="black" stroke-width="1.20044"/>
<rect x="406.686" y="116.225" width="3.60132" height="3.60132" fill="#E8FA48" stroke="black" stroke-width="1.20044"/>
<rect x="405.118" y="51.382" width="3.60132" height="3.60132" fill="#E8FA48" stroke="black" stroke-width="1.20044"/>
<rect x="405.118" y="65.5016" width="3.60132" height="3.60132" fill="#E8FA48" stroke="black" stroke-width="1.20044"/>
<rect x="405.118" y="100.011" width="3.60132" height="3.60132" fill="#E8FA48" stroke="black" stroke-width="1.20044"/>
<rect x="0.600219" y="-0.600219" width="3.60132" height="3.60132" transform="matrix(1 0 0 -1 207.9 118.701)" fill="#E8FA48" stroke="black" stroke-width="1.20044"/>
<rect x="0.600219" y="-0.600219" width="3.60132" height="3.60132" transform="matrix(1 0 0 -1 207.9 70.0715)" fill="#E8FA48" stroke="black" stroke-width="1.20044"/>
<rect x="0.600219" y="-0.600219" width="3.60132" height="3.60132" transform="matrix(1 0 0 -1 152.473 70.0715)" fill="#E8FA48" stroke="black" stroke-width="1.20044"/>
<rect x="0.600219" y="-0.600219" width="3.60132" height="3.60132" transform="matrix(1 0 0 -1 152.473 118.701)" fill="#E8FA48" stroke="black" stroke-width="1.20044"/>
<rect x="0.600219" y="-0.600219" width="3.60132" height="3.60132" transform="matrix(1 0 0 -1 134.17 118.701)" fill="#E8FA48" stroke="black" stroke-width="1.20044"/>
<rect x="48.4889" y="71.2526" width="3.60132" height="3.60132" fill="#E8FA48" stroke="black" stroke-width="1.20044"/>
</svg>
