<svg width="627" height="116" viewBox="0 0 627 116" fill="none" xmlns="http://www.w3.org/2000/svg">
<path d="M45.4033 113.783L46.4841 68.1141L7.28224 91.9756L0.0117188 79.2625L40.4908 57.4547L0.0117188 35.6469L7.28224 22.9338L46.4841 46.7953L45.4033 1.12605H60.1408L59.0601 46.7953L98.2619 22.9338L105.532 35.6469L65.0534 57.4547L105.532 79.2625L98.2619 91.9756L59.0601 68.1141L60.1408 113.783H45.4033Z" fill="black"/>
<path d="M133.353 114.056V1.55037H150.408V50.442H206.758V1.55037H223.867V114.056H206.758V64.9997H150.408V114.056H133.353Z" fill="black"/>
<path d="M321.391 1.55037H338.5V75.5471C338.5 83.421 336.642 90.3977 332.926 96.4771C329.209 102.52 323.985 107.281 317.251 110.76C310.518 114.203 302.625 115.924 293.574 115.924C284.559 115.924 276.686 114.203 269.952 110.76C263.219 107.281 257.994 102.52 254.278 96.4771C250.562 90.3977 248.703 83.421 248.703 75.5471V1.55037H265.758V74.1737C265.758 79.2643 266.88 83.7873 269.124 87.7426C271.406 91.6978 274.625 94.8108 278.783 97.0814C282.941 99.3154 287.871 100.432 293.574 100.432C299.314 100.432 304.263 99.3154 308.421 97.0814C312.615 94.8108 315.816 91.6978 318.024 87.7426C320.268 83.7873 321.391 79.2643 321.391 74.1737V1.55037Z" fill="black"/>
<path d="M363.295 114.056V1.55037H404.688C412.709 1.55037 419.351 2.8688 424.612 5.50566C429.874 8.10589 433.811 11.64 436.423 16.108C439.036 20.5394 440.342 25.5384 440.342 31.1051C440.342 35.7929 439.477 39.7481 437.748 42.971C436.018 46.1572 433.7 48.7208 430.794 50.6618C427.924 52.5662 424.759 53.9579 421.301 54.8368V55.9355C425.054 56.1186 428.715 57.3272 432.284 59.5612C435.89 61.7585 438.87 64.8898 441.225 68.955C443.58 73.0201 444.757 77.9642 444.757 83.7873C444.757 89.5371 443.396 94.7009 440.673 99.2788C437.987 103.82 433.829 107.427 428.2 110.101C422.57 112.738 415.377 114.056 406.62 114.056H363.295ZM380.349 99.4985H404.964C413.132 99.4985 418.983 97.9237 422.515 94.7742C426.047 91.6246 427.813 87.6876 427.813 82.9633C427.813 79.4108 426.912 76.1514 425.109 73.1849C423.306 70.2185 420.73 67.8563 417.382 66.0984C414.071 64.3405 410.134 63.4615 405.571 63.4615H380.349V99.4985ZM380.349 50.2223H403.198C407.025 50.2223 410.465 49.4898 413.519 48.0249C416.61 46.56 419.056 44.5091 420.859 41.8723C422.699 39.1988 423.619 36.0492 423.619 32.4235C423.619 27.7724 421.982 23.8721 418.707 20.7225C415.432 17.5729 410.41 15.9981 403.64 15.9981H380.349V50.2223Z" fill="black"/>
<path d="M475.613 114.056V94.4995L516.84 58.5724C519.931 55.789 522.562 53.2437 524.733 50.9365C526.904 48.5926 528.559 46.2487 529.7 43.9048C530.841 41.5244 531.411 38.9424 531.411 36.1591C531.411 33.0461 530.73 30.391 529.369 28.1936C528.008 25.9596 526.131 24.2383 523.739 23.0298C521.348 21.8212 518.607 21.2169 515.516 21.2169C512.388 21.2169 509.647 21.8578 507.292 23.1396C504.937 24.3848 503.098 26.1976 501.773 28.5781C500.485 30.9586 499.842 33.8518 499.842 37.2578H473.957C473.957 29.6036 475.686 22.9931 479.145 17.4264C482.603 11.8597 487.46 7.57485 493.715 4.57177C500.007 1.53206 507.311 0.012207 515.626 0.012207C524.199 0.012207 531.65 1.4405 537.979 4.2971C544.307 7.15369 549.201 11.1456 552.66 16.2728C556.155 21.3634 557.903 27.278 557.903 34.0166C557.903 38.3015 557.038 42.5498 555.309 46.7614C553.58 50.9731 550.47 55.6242 545.981 60.7148C541.529 65.8054 535.201 71.9031 526.996 79.008L513.474 91.4232V92.1373H559.283V114.056H475.613Z" fill="black"/>
<path d="M626.989 1.55037V114.056H599.724V26.9301H599.062L573.784 42.3117V18.7998L601.656 1.55037H626.989Z" fill="black"/>
</svg>
