<svg width="21" height="21" viewBox="0 0 21 21" fill="none" xmlns="http://www.w3.org/2000/svg">
<path fill-rule="evenodd" clip-rule="evenodd" d="M19.9364 0.863602C20.1809 1.10808 20.2637 1.47098 20.1495 1.79731L13.8495 19.7973C13.7276 20.1456 13.4054 20.3842 13.0367 20.3993C12.668 20.4143 12.3274 20.2027 12.1776 19.8655L8.71816 12.0818L0.934482 8.62243C0.597269 8.47256 0.385712 8.13202 0.400754 7.76331C0.415797 7.3946 0.65439 7.07243 1.00269 6.95053L19.0027 0.650525C19.329 0.53631 19.6919 0.619128 19.9364 0.863602ZM10.4735 11.5993L12.9005 17.06L17.1477 4.92512L10.4735 11.5993ZM15.8749 3.65232L3.73997 7.89954L9.20069 10.3265L15.8749 3.65232Z" fill="#18191F"/>
</svg>
