<?xml version="1.0" encoding="utf-8"?>
<!DOCTYPE svg PUBLIC "-//W3C//DTD SVG 1.1//EN" "http://www.w3.org/Graphics/SVG/1.1/DTD/svg11.dtd">
<svg version="1.1" id="logo" xmlns="http://www.w3.org/2000/svg" xmlns:xlink="http://www.w3.org/1999/xlink" x="0px" y="0px" width="362.83px" height="89.85px" viewBox="0 0 362.83 89.85" enable-background="new 0 0 362.83 89.85" xml:space="preserve">
  <path fill="#FFFFFF" d="M37.063,3.16c0.63,28.454,3.06,57.877,10.741,85.354c0.532,1.896,2.935-0.945,2.634-2.266 c-1.6-7.007-5.123-13.746-8.406-20.073c-4.221-8.126-9.223-15.829-14.441-23.34c-3.83-5.509-7.952-10.814-12.138-16.058 c-2.395-3.002-4.889-5.925-7.381-8.849c-3.626-4.258,4.081-4.673,6.523-5.271c1.377-0.334,2.525-3.872,0.643-3.412 c-4.447,1.083-9.288,2.479-11.998,6.481c-0.316,0.466-0.625,1.503-0.19,2.004c17.087,19.632,38.738,44.444,44.754,70.783 c0.879-0.756,1.756-1.513,2.634-2.266c-7.617-27.25-10.01-56.374-10.637-84.61C39.75-0.612,37.031,1.718,37.063,3.16"/>
  <path fill="#FFFFFF" d="M36.177,15.894c33.95,4.333,69.572,14.863,98.048,34.114c0.635-1.095,1.265-2.191,1.899-3.287 c-13.018-4.219-26.33-7.679-39.748-10.351c-10.477-2.088-33.357-8.086-40.76,3.409c-1.261,1.958,0.732,3.065,1.974,1.138 c6.445-10.006,35.021-1.657,43.806,0.238c11.059,2.389,22.064,5.363,32.828,8.854c1.444,0.468,3.256-2.369,1.899-3.287 c-28.57-19.314-64.572-29.949-98.642-34.299C36.018,12.234,34.485,15.678,36.177,15.894"/>
  <path fill="#FFFFFF" d="M70.62,72.189c3.657,3.053,8.528,4.594,13.244,4.454c3.67-0.104,11.962-2.77,12.093-7.501 c0.167-6.044-13.752-5.526-17.173-4.895c-8.902,1.64-12.46,10.797-8.794,18.68c3.624,7.798,16.201,5.065,22.372,2.684 c1.296-0.501,2.377-4.078,0.643-3.408c-4.635,1.784-9.916,2.829-14.847,1.963c-8.406-1.477-9.443-13.646-1.318-16.187 c4.684-1.465,11.333-0.945,15.539,1.717c0.304,0.192,0.54,0.424,0.764,0.703c0.029,0.056,0.061,0.113,0.093,0.168 c0.94-1.875,0.268-1.653-2.022,0.662c-2.9,1.874-6.389,2.186-9.719,1.768c-3.167-0.4-6.521-2.048-8.976-4.097 C71.387,67.96,69.386,71.154,70.62,72.189"/>
  <path fill="#FFFFFF" d="M118.501,83.289c4.053-5.037,6.014-16.607-3.112-17.121c-6.737-0.379-13.943,6.444-16.09,12.362 c-3.139,8.657,8.467,10.562,14.307,8.335c6.441-2.457,11.652-9.014,14.803-14.951c-0.729-0.227-1.46-0.455-2.189-0.681 c-1.854,6.109-1.417,13.603,5.333,16.187c1.499,0.573,3.281-2.758,1.897-3.286c-5.449-2.088-6.276-7.886-4.824-12.675 c0.612-2.017-1.296-2.361-2.187-0.683c-4.254,8.02-13.262,17.406-22.951,12.104c-6.153-3.375,3.083-10.474,6.113-12.051 c7.377-3.834,12.938,3.732,7.502,10.487C115.888,82.828,116.913,85.264,118.501,83.289"/>
  <path fill="#FFFFFF" d="M146.937,26.253c-4.47,17.492-10.454,42.826-1.315,59.607c2.048,3.756,8.21,1.271,11.174,0.021 c11.332-4.774,16.934-18.686,20.466-29.388c0.791-2.396-1.791-2.087-2.406-0.224c-3.577,10.831-8.976,24.147-21.108,27.511 c-6.766,1.881-7.436-3.291-8.685-9.252c-3.254-15.549,0.651-33.753,4.537-48.95C150.212,23.173,147.331,24.718,146.937,26.253"/>
  <path fill="#FFFFFF" d="M165.529,67.97c5.167,6.415,10.332,12.827,15.501,19.24c1.076,1.336,3.275-1.722,2.353-2.865 c-5.166-6.413-10.333-12.827-15.5-19.24C166.805,63.764,164.605,66.823,165.529,67.97"/>
  <path fill="#FFFFFF" d="M240.945,38.312c5.243-1.98,13.367-8.985,2.972-11.062c-10.237-2.042-35.731-1.457-38.292,12.745 c-3.188,17.663,25.103,19.783,36.296,22.342c7.413,1.696,16.827,5.186,24.612,4.602c1.461-0.111,2.896-3.575,1.307-3.472 c-25.408,1.603-51.048,11.175-74.354,20.606c-1.286,0.518-2.355,4.104-0.645,3.41c23.053-9.322,48.55-18.96,73.691-20.545 c0.438-1.159,0.868-2.314,1.307-3.472c-9.598,0.719-21.306-3.824-30.431-5.944c-7.614-1.768-15.659-3.104-22.652-6.684 c-11.462-5.86-4.894-15.692,4.501-18.909c5.667-1.938,11.859-2.409,17.796-2.132c6.146,0.285,12.09,2.245,4.534,5.102 C240.285,35.391,239.203,38.971,240.945,38.312"/>
  <path fill="#FFFFFF" d="M278.418,20.375c-4.482,21.611-2.24,45.031,1.351,66.532c0.242,1.458,1.985,0,2.302-0.562 c3.254-5.727,7.984-12.97,7.862-19.767l-2.543,2.19c2.852,4.368,5.703,8.732,8.552,13.096c0.912,1.396,3.168-1.624,2.354-2.868 c-2.851-4.362-5.701-8.727-8.551-13.094c-0.935-1.434-2.558,1.374-2.545,2.197c0.102,5.826-4.313,12.199-7.103,17.109 c0.771-0.19,1.537-0.376,2.305-0.564c-3.487-20.905-5.686-43.923-1.321-64.945C281.585,17.261,278.745,18.802,278.418,20.375"/>
  <path fill="#FFFFFF" d="M310.996,84.646c-1.991-7.548-4.344-15.83-3.955-23.68c0.106-2.218-2.669,0.107-2.739,1.52 c-0.396,8.096,2.008,16.652,4.061,24.424C308.85,88.77,311.356,86.012,310.996,84.646"/>
  <path fill="#FFFFFF" d="M294.831,28.362c1.921,0.721,4.385,2.531,4.165,4.84c-0.237,2.478,2.503,0.965,2.658-0.675 c0.325-3.423-1.739-6.259-4.924-7.453C295.228,24.508,293.45,27.843,294.831,28.362"/>
  <path fill="#FFFFFF" d="M324.892,84.646c-3.979-9.228-4.776-19.904-4.823-29.799c-0.022-5.326,0.61-10.63,1.382-15.89 c0.398-2.447,0.874-4.878,1.427-7.292c1.028-4.847,5.237-6.904,6.687-1.181c0.711,2.817,2.673,21.626,0.4,22.996 c-1.223,0.736-1.862,4.285,0.052,3.131c3.126-1.884,3.126-7.257,3.333-10.327c0.144-2.083-1.848-32.679-7.998-26.796 c-4.251,4.068-4.76,11.091-5.919,16.552c-1.806,8.52-2.279,17.331-1.994,26.014c0.271,8.23,1.531,17.232,4.819,24.856 C323.043,88.73,325.456,85.949,324.892,84.646"/>
  <path fill="#FFFFFF" d="M307.432,58.08c5.256,5.1,12.827,11.68,20.566,11.527c1.488-0.027,2.922-3.502,1.31-3.473 c-7.253,0.141-14.576-6.123-19.52-10.922C308.523,53.986,306.403,57.084,307.432,58.08"/>
  <path fill="#FFFFFF" d="M335.837,21.332c1.943,21.635,3.876,43.467,3.74,65.204c-0.015,2.242,2.726-0.087,2.737-1.517 c0.138-21.739-1.797-43.569-3.742-65.208C338.369,17.554,335.705,19.878,335.837,21.332"/>
  <path fill="#FFFFFF" d="M328.021,61.333c4.541,2.268,9.212,4.299,13.939,6.136c4.568,1.771,11.584,5.027,16.502,3.08 c1.292-0.511,2.364-4.093,0.646-3.414c-5.138,2.032-12.954-2.024-17.622-3.891c-3.919-1.565-7.787-3.313-11.569-5.201 C328.502,57.335,326.647,60.645,328.021,61.333"/>
</svg>