<svg width="445" height="150" viewBox="0 0 445 150" fill="none" xmlns="http://www.w3.org/2000/svg">
<path d="M33.8856 90.8516H36.4852C38.4766 90.8516 40.024 91.3247 41.1274 92.2629C42.2321 93.2139 42.7855 94.4667 42.7855 96.0074C42.7855 97.5214 42.239 98.7509 41.1507 99.7042C40.0624 100.645 38.5068 101.118 36.4864 101.118H33.8868L33.8856 90.8516ZM69.9571 121.289C69.9571 117.091 68.9025 113.648 66.7865 110.948C64.674 108.249 61.5652 106.139 57.4602 104.625V104.431C60.7763 103.263 63.3643 101.518 65.224 99.1774C67.0895 96.8442 68.0182 93.9062 68.0182 90.3725C68.0182 83.5489 64.8336 78.8685 58.4552 76.3301C52.0769 73.7895 44.2537 72.5215 34.974 72.5215H14.1482H5.66895V142.739H36.4864C46.1168 142.739 54.0997 141.146 60.4443 137.955C66.7865 134.769 69.9571 129.211 69.9571 121.289ZM42.006 123.759C40.7592 124.827 38.9834 125.366 36.6798 125.366H33.8868V113.759H36.6798C38.952 113.759 40.7196 114.311 41.9792 115.396C43.2411 116.484 43.8762 117.884 43.8762 119.587C43.8762 121.289 43.2504 122.682 42.006 123.759Z" stroke="#BAA51B" stroke-width="2.3" stroke-miterlimit="3.86874"/>
<path d="M104.853 72.5215H75.9736V142.739H104.853V72.5215Z" stroke="#BAA51B" stroke-width="2.3" stroke-miterlimit="3.86874"/>
<path d="M179.743 96.3863V72.5215H111.676V96.3863H131.272V142.739H160.146V96.3863H179.743Z" stroke="#BAA51B" stroke-width="2.3" stroke-miterlimit="3.86874"/>
<path d="M243.47 114.616C241.134 115.911 238.54 116.943 235.703 117.719C232.862 118.497 229.99 118.877 227.089 118.877C224.054 118.877 221.444 118.417 219.251 117.502C217.052 116.59 215.386 115.319 214.235 113.698C213.077 112.064 212.505 110.216 212.505 108.135C212.505 106.046 213.077 104.19 214.235 102.568C215.385 100.941 217.052 99.6685 219.251 98.7513C221.444 97.8341 224.053 97.3784 227.089 97.3784C229.928 97.3784 232.738 97.749 235.514 98.4692C238.291 99.193 240.796 100.191 243.038 101.447V75.1744C240.859 74.0404 238.003 73.1232 234.471 72.4298C230.939 71.7363 227.304 71.3867 223.583 71.3867C215.885 71.3867 208.971 72.9624 202.852 76.0986C196.723 79.2371 191.927 83.5598 188.454 89.0735C184.985 94.5802 183.252 100.78 183.252 107.656C183.252 114.508 184.978 120.695 188.434 126.22C191.889 131.741 196.671 136.078 202.777 139.217C208.884 142.357 215.756 143.924 223.395 143.924C227.182 143.924 230.896 143.546 234.545 142.787C238.185 142.03 241.159 141.051 243.468 139.853V114.616H243.47Z" stroke="#BAA51B" stroke-width="2.3" stroke-miterlimit="3.86874"/>
<path d="M296.43 113.57C295.463 115.247 294.173 116.568 292.552 117.527C290.916 118.497 289.123 118.972 287.165 118.972C285.241 118.972 283.462 118.497 281.819 117.527C280.181 116.569 278.889 115.255 277.94 113.596C276.993 111.941 276.509 110.118 276.509 108.135C276.509 106.138 276.992 104.313 277.94 102.656C278.889 100.996 280.181 99.6852 281.819 98.7039C283.462 97.7272 285.241 97.2331 287.165 97.2331C289.102 97.2331 290.882 97.7272 292.525 98.7039C294.166 99.6852 295.463 101.01 296.431 102.68C297.388 104.356 297.868 106.174 297.868 108.135C297.866 110.09 297.386 111.901 296.43 113.57ZM321.16 126.046C324.632 120.51 326.366 114.376 326.366 107.654C326.366 100.935 324.645 94.7962 321.186 89.258C317.733 83.7175 312.999 79.3517 307.003 76.1654C301.006 72.9837 294.393 71.3848 287.165 71.3848C279.947 71.3848 273.339 72.9826 267.354 76.1654C261.371 79.3517 256.661 83.7175 253.202 89.258C249.744 94.7962 248.018 100.936 248.018 107.654C248.018 114.377 249.744 120.51 253.202 126.046C256.661 131.589 261.371 135.953 267.354 139.144C273.339 142.33 279.947 143.922 287.165 143.922C294.393 143.922 301 142.331 306.983 139.144C312.966 135.953 317.688 131.589 321.16 126.046Z" stroke="#BAA51B" stroke-width="2.3" stroke-miterlimit="3.86874"/>
<path d="M361.265 72.5215H332.385V142.739H361.265V72.5215Z" stroke="#BAA51B" stroke-width="2.3" stroke-miterlimit="3.86874"/>
<path d="M413.306 101.116L413.113 101.218L396.023 72.5215H369.84V142.739H396.59V113.247L396.782 113.144L414.246 142.739H440.051V72.5215H413.306V101.116Z" stroke="#BAA51B" stroke-width="2.3" stroke-miterlimit="3.86874"/>
<path d="M34.9329 28.453H35.2254L38.1722 40.1412H31.7659L34.9329 28.453ZM28.2714 53.362H41.4453L43.051 59.9083H66.601L46.6177 5.91797H24.4845L4.5 59.9083H26.5598L28.2714 53.362Z" stroke="#BAA51B" stroke-width="2.3" stroke-miterlimit="3.86874"/>
<path d="M91.7177 24.2702H92.0405C95.2471 24.2702 97.7814 25.0673 99.6528 26.6745C101.522 28.2723 102.454 30.4785 102.454 33.3012C102.454 35.0971 102.015 36.6751 101.145 38.034C100.271 39.3883 99.0399 40.4465 97.447 41.1982C95.8577 41.9499 94.0341 42.3252 91.9694 42.3252H91.7165L91.7177 24.2702ZM69.5088 59.9071H91.6419C97.6148 59.9071 102.998 58.8081 107.802 56.6135C112.606 54.4167 116.389 51.2805 119.139 47.2061C121.899 43.127 123.274 38.3674 123.274 32.9318C123.274 27.5206 121.899 22.7703 119.139 18.6784C116.39 14.5924 112.603 11.4422 107.789 9.23015C102.971 7.02164 97.5414 5.91797 91.4975 5.91797H69.51V40.4349V59.9071H69.5088Z" stroke="#BAA51B" stroke-width="2.3" stroke-miterlimit="3.86874"/>
<path d="M149.33 29.0946C150.063 27.8196 151.054 26.8022 152.318 26.054C153.581 25.3023 154.951 24.9223 156.432 24.9223C157.91 24.9223 159.281 25.3023 160.542 26.054C161.803 26.8033 162.806 27.8231 163.546 29.1086C164.283 30.3952 164.652 31.7949 164.652 33.3019C164.652 34.8041 164.283 36.1968 163.546 37.4858C162.806 38.7759 161.81 39.7852 160.562 40.5264C159.308 41.2688 157.938 41.6371 156.431 41.6371C154.95 41.6371 153.58 41.2688 152.317 40.5264C151.051 39.784 150.061 38.7806 149.329 37.5056C148.603 36.2306 148.241 34.8263 148.241 33.3019C148.243 31.767 148.604 30.3684 149.33 29.0946ZM141.202 57.1421C145.794 59.5942 150.879 60.8203 156.433 60.8203C161.988 60.8203 167.064 59.5931 171.663 57.1421C176.264 54.69 179.894 51.3382 182.567 47.0739C185.232 42.82 186.568 38.1058 186.568 32.9312C186.568 27.7613 185.241 23.046 182.584 18.7909C179.929 14.5277 176.29 11.1724 171.684 8.72269C167.068 6.26477 161.989 5.04688 156.433 5.04688C152.592 5.04688 148.978 5.62959 145.594 6.7997C145.221 6.93372 144.851 7.07007 144.483 7.21342C144.469 7.21809 144.456 7.22509 144.442 7.22975C144.12 7.35678 143.789 7.48964 143.464 7.62833C143.395 7.66212 143.327 7.6901 143.261 7.71923C142.988 7.8416 142.712 7.96981 142.442 8.09451C142.36 8.13763 142.277 8.17142 142.196 8.21338C141.866 8.37537 141.529 8.5432 141.201 8.72384C136.602 11.1736 132.971 14.5278 130.315 18.7921C130.165 19.0334 130.017 19.2769 129.874 19.5228C129.828 19.6021 129.785 19.6848 129.737 19.7664C129.644 19.9354 129.549 20.1009 129.458 20.2699C129.408 20.3654 129.355 20.4587 129.307 20.5519C129.223 20.7139 129.138 20.8771 129.057 21.0437C129.014 21.1346 128.966 21.2255 128.921 21.3188C128.823 21.5192 128.732 21.722 128.641 21.9225C128.593 22.032 128.543 22.1346 128.498 22.243C128.418 22.4294 128.336 22.6229 128.256 22.8094C128.209 22.9341 128.161 23.0506 128.118 23.1718C128.065 23.3105 128.008 23.4422 127.96 23.5774C127.913 23.7091 127.862 23.8443 127.817 23.983C127.772 24.1019 127.733 24.2219 127.692 24.3478C127.642 24.4911 127.597 24.6321 127.549 24.7755C127.52 24.8804 127.487 24.9806 127.458 25.0855C127.363 25.406 127.272 25.7253 127.188 26.0458C127.169 26.1169 127.152 26.1868 127.133 26.2556C127.09 26.4327 127.049 26.6134 127.011 26.7882C126.99 26.8721 126.97 26.9583 126.949 27.0458C126.913 27.2252 126.872 27.4059 126.839 27.5924C126.823 27.6669 126.808 27.745 126.794 27.8196C126.76 28.0107 126.721 28.2042 126.694 28.4047C126.691 28.4163 126.689 28.4256 126.689 28.4315C126.61 28.914 126.543 29.4011 126.491 29.8883C126.386 30.8871 126.329 31.901 126.329 32.9336C126.329 38.107 127.659 42.8212 130.316 47.0762C132.972 51.3382 136.603 54.6912 141.202 57.1421Z" stroke="#BAA51B" stroke-width="2.3" stroke-miterlimit="3.86874"/>
<path d="M218.432 30.3821C217.398 31.2807 215.923 31.7317 214.005 31.7317H213.39V21.9735H214.005C215.901 21.9735 217.367 22.4292 218.406 23.3347C219.452 24.2473 219.978 25.4313 219.978 26.8881C219.978 28.324 219.459 29.4859 218.432 30.3821ZM236.157 37.6277C238.428 34.5754 239.565 30.7376 239.565 26.1259C239.565 21.4187 238.337 17.5541 235.889 14.5461C233.433 11.5323 230.127 9.34473 225.968 7.97651C221.799 6.60361 217.065 5.91602 211.751 5.91602H191.186V59.9063H213.391V46.5468H214.081C218.858 46.5468 223.168 45.8301 227.003 44.3826C230.839 42.9386 233.888 40.687 236.157 37.6277Z" stroke="#BAA51B" stroke-width="2.3" stroke-miterlimit="3.86874"/>
<path d="M280.255 59.909V24.2721H295.327V5.91406L242.979 5.91872V24.2721H258.046V59.909H280.255Z" stroke="#BAA51B" stroke-width="2.3" stroke-miterlimit="3.86874"/>
<path d="M322.746 5.91406H300.531V59.909H322.746V5.91406Z" stroke="#BAA51B" stroke-width="2.3" stroke-miterlimit="3.86874"/>
<path d="M329.332 5.91406V59.909H349.901V37.2307L350.047 37.1561L363.473 59.909H383.317V5.91406H362.743V27.9071L362.598 27.9829L349.464 5.91406H329.332Z" stroke="#BAA51B" stroke-width="2.3" stroke-miterlimit="3.86874"/>
<path d="M392.088 18.8232C389.312 23.1318 387.934 27.9801 387.934 33.3726C387.934 38.5623 389.243 43.2427 391.848 47.408C394.458 51.5639 398.173 54.8447 403.004 57.2327C407.833 59.623 413.445 60.8199 419.821 60.8199C424.189 60.8199 428.181 60.3164 431.786 59.306C435.387 58.3025 438.292 57.08 440.501 55.65V29.1793H417.529V40.9048H422.953V43.8208C422.371 44.0142 421.629 44.1121 420.733 44.1121C418.87 44.1121 417.127 43.6937 415.53 42.8721C413.924 42.0434 412.64 40.864 411.671 39.3233C410.699 37.7826 410.21 35.9913 410.21 33.9518C410.21 31.9869 410.687 30.2282 411.637 28.6735C412.578 27.1211 413.999 25.8986 415.888 25.0175C417.789 24.1318 420.113 23.6877 422.885 23.6877C425.381 23.6877 428.267 24.07 431.545 24.8508C434.819 25.627 437.574 26.4766 439.812 27.3962V9.59404C437.671 8.3074 434.847 7.23404 431.334 6.35296C427.807 5.48121 424.154 5.04883 420.373 5.04883C419.972 5.04883 419.577 5.05348 419.183 5.06281C419.118 5.06281 419.052 5.06515 418.99 5.06748C418.656 5.07681 418.326 5.09078 417.998 5.10826C417.963 5.11059 417.921 5.11294 417.878 5.11527C417.524 5.13624 417.175 5.15371 416.82 5.18635C416.816 5.18635 416.807 5.18634 416.8 5.18868C414.874 5.34135 413.018 5.61873 411.225 6.02897C408.539 6.63616 406.004 7.52889 403.621 8.70599C398.701 11.1406 394.849 14.5192 392.088 18.8232Z" stroke="#BAA51B" stroke-width="2.3" stroke-miterlimit="3.86874"/>
<rect x="1.14783" y="-1.14783" width="6.88698" height="6.88698" transform="matrix(1 0 0 -1 0.5 144.806)" fill="#EEDB5F" stroke="#BAA51B" stroke-width="2.29566"/>
<rect x="1.14783" y="-1.14783" width="6.88698" height="6.88698" transform="matrix(1 0 0 -1 0.5 74.8059)" fill="#EEDB5F" stroke="#BAA51B" stroke-width="2.29566"/>
<rect x="1.14783" y="-1.14783" width="6.88698" height="6.88698" transform="matrix(1 0 0 -1 70.5 74.8059)" fill="#EEDB5F" stroke="#BAA51B" stroke-width="2.29566"/>
<rect x="1.14783" y="-1.14783" width="6.88698" height="6.88698" transform="matrix(1 0 0 -1 100.5 74.8059)" fill="#EEDB5F" stroke="#BAA51B" stroke-width="2.29566"/>
<rect x="1.14783" y="-1.14783" width="6.88698" height="6.88698" transform="matrix(1 0 0 -1 100.5 144.806)" fill="#EEDB5F" stroke="#BAA51B" stroke-width="2.29566"/>
<rect x="1.14783" y="-1.14783" width="6.88698" height="6.88698" transform="matrix(1 0 0 -1 70.5 144.806)" fill="#EEDB5F" stroke="#BAA51B" stroke-width="2.29566"/>
<rect x="1.14783" y="-1.14783" width="6.88698" height="6.88698" transform="matrix(1 0 0 -1 53.5 106.806)" fill="#EEDB5F" stroke="#BAA51B" stroke-width="2.29566"/>
<rect x="1.14783" y="-1.14783" width="6.88698" height="6.88698" transform="matrix(1 0 0 -1 37.5 74.8059)" fill="#EEDB5F" stroke="#BAA51B" stroke-width="2.29566"/>
<rect x="1.14783" y="-1.14783" width="6.88698" height="6.88698" transform="matrix(1 0 0 -1 37.5 144.806)" fill="#EEDB5F" stroke="#BAA51B" stroke-width="2.29566"/>
<rect x="1.14783" y="-1.14783" width="6.88698" height="6.88698" transform="matrix(1 0 0 -1 28.5 127.806)" fill="#EEDB5F" stroke="#BAA51B" stroke-width="2.29566"/>
<rect x="1.14783" y="-1.14783" width="6.88698" height="6.88698" transform="matrix(1 0 0 -1 28.5 92.8059)" fill="#EEDB5F" stroke="#BAA51B" stroke-width="2.29566"/>
<rect x="29.6478" y="110.066" width="6.88698" height="6.88698" fill="#EEDB5F" stroke="#BAA51B" stroke-width="2.29566"/>
<rect x="29.6478" y="98.0658" width="6.88698" height="6.88698" fill="#EEDB5F" stroke="#BAA51B" stroke-width="2.29566"/>
<rect x="107.648" y="69.0658" width="6.88698" height="6.88698" fill="#EEDB5F" stroke="#BAA51B" stroke-width="2.29566"/>
<rect x="175.648" y="69.0658" width="6.88698" height="6.88698" fill="#EEDB5F" stroke="#BAA51B" stroke-width="2.29566"/>
<rect x="175.648" y="93.0658" width="6.88698" height="6.88698" fill="#EEDB5F" stroke="#BAA51B" stroke-width="2.29566"/>
<rect x="108.648" y="93.0658" width="6.88698" height="6.88698" fill="#EEDB5F" stroke="#BAA51B" stroke-width="2.29566"/>
<rect x="127.648" y="93.0658" width="6.88698" height="6.88698" fill="#EEDB5F" stroke="#BAA51B" stroke-width="2.29566"/>
<rect x="156.648" y="93.0658" width="6.88698" height="6.88698" fill="#EEDB5F" stroke="#BAA51B" stroke-width="2.29566"/>
<rect x="156.648" y="139.066" width="6.88698" height="6.88698" fill="#EEDB5F" stroke="#BAA51B" stroke-width="2.29566"/>
<rect x="127.648" y="139.066" width="6.88698" height="6.88698" fill="#EEDB5F" stroke="#BAA51B" stroke-width="2.29566"/>
<rect x="239.648" y="135.066" width="6.88698" height="6.88698" fill="#EEDB5F" stroke="#BAA51B" stroke-width="2.29566"/>
<rect x="283.648" y="141.066" width="6.88698" height="6.88698" fill="#EEDB5F" stroke="#BAA51B" stroke-width="2.29566"/>
<rect x="283.648" y="115.066" width="6.88698" height="6.88698" fill="#EEDB5F" stroke="#BAA51B" stroke-width="2.29566"/>
<rect x="283.648" y="94.0658" width="6.88698" height="6.88698" fill="#EEDB5F" stroke="#BAA51B" stroke-width="2.29566"/>
<rect x="283.648" y="69.0658" width="6.88698" height="6.88698" fill="#EEDB5F" stroke="#BAA51B" stroke-width="2.29566"/>
<rect x="323.648" y="105.066" width="6.88698" height="6.88698" fill="#EEDB5F" stroke="#BAA51B" stroke-width="2.29566"/>
<rect x="243.648" y="105.066" width="6.88698" height="6.88698" fill="#EEDB5F" stroke="#BAA51B" stroke-width="2.29566"/>
<rect x="311.648" y="78.0658" width="6.88698" height="6.88698" fill="#EEDB5F" stroke="#BAA51B" stroke-width="2.29566"/>
<rect x="256.648" y="78.0658" width="6.88698" height="6.88698" fill="#EEDB5F" stroke="#BAA51B" stroke-width="2.29566"/>
<rect x="256.648" y="130.066" width="6.88698" height="6.88698" fill="#EEDB5F" stroke="#BAA51B" stroke-width="2.29566"/>
<rect x="311.648" y="130.066" width="6.88698" height="6.88698" fill="#EEDB5F" stroke="#BAA51B" stroke-width="2.29566"/>
<rect x="293.648" y="105.066" width="6.88698" height="6.88698" fill="#EEDB5F" stroke="#BAA51B" stroke-width="2.29566"/>
<rect x="273.648" y="105.066" width="6.88698" height="6.88698" fill="#EEDB5F" stroke="#BAA51B" stroke-width="2.29566"/>
<rect x="239.648" y="112.066" width="6.88698" height="6.88698" fill="#EEDB5F" stroke="#BAA51B" stroke-width="2.29566"/>
<rect x="239.648" y="98.0658" width="6.88698" height="6.88698" fill="#EEDB5F" stroke="#BAA51B" stroke-width="2.29566"/>
<rect x="239.648" y="72.0658" width="6.88698" height="6.88698" fill="#EEDB5F" stroke="#BAA51B" stroke-width="2.29566"/>
<rect x="197.648" y="74.0658" width="6.88698" height="6.88698" fill="#EEDB5F" stroke="#BAA51B" stroke-width="2.29566"/>
<rect x="197.648" y="135.066" width="6.88698" height="6.88698" fill="#EEDB5F" stroke="#BAA51B" stroke-width="2.29566"/>
<rect x="179.648" y="104.066" width="6.88698" height="6.88698" fill="#EEDB5F" stroke="#BAA51B" stroke-width="2.29566"/>
<rect x="328.648" y="70.0658" width="6.88698" height="6.88698" fill="#EEDB5F" stroke="#BAA51B" stroke-width="2.29566"/>
<rect x="356.648" y="70.0658" width="6.88698" height="6.88698" fill="#EEDB5F" stroke="#BAA51B" stroke-width="2.29566"/>
<rect x="357.648" y="138.066" width="6.88698" height="6.88698" fill="#EEDB5F" stroke="#BAA51B" stroke-width="2.29566"/>
<rect x="329.648" y="138.066" width="6.88698" height="6.88698" fill="#EEDB5F" stroke="#BAA51B" stroke-width="2.29566"/>
<rect x="366.648" y="138.066" width="6.88698" height="6.88698" fill="#EEDB5F" stroke="#BAA51B" stroke-width="2.29566"/>
<rect x="366.648" y="70.0658" width="6.88698" height="6.88698" fill="#EEDB5F" stroke="#BAA51B" stroke-width="2.29566"/>
<rect x="392.648" y="70.0658" width="6.88698" height="6.88698" fill="#EEDB5F" stroke="#BAA51B" stroke-width="2.29566"/>
<rect x="392.648" y="138.066" width="6.88698" height="6.88698" fill="#EEDB5F" stroke="#BAA51B" stroke-width="2.29566"/>
<rect x="409.648" y="138.066" width="6.88698" height="6.88698" fill="#EEDB5F" stroke="#BAA51B" stroke-width="2.29566"/>
<rect x="436.648" y="138.066" width="6.88698" height="6.88698" fill="#EEDB5F" stroke="#BAA51B" stroke-width="2.29566"/>
<rect x="435.648" y="70.0658" width="6.88698" height="6.88698" fill="#EEDB5F" stroke="#BAA51B" stroke-width="2.29566"/>
<rect x="409.648" y="70.0658" width="6.88698" height="6.88698" fill="#EEDB5F" stroke="#BAA51B" stroke-width="2.29566"/>
<rect x="409.648" y="96.0658" width="6.88698" height="6.88698" fill="#EEDB5F" stroke="#BAA51B" stroke-width="2.29566"/>
<rect x="436.648" y="51.0658" width="6.88698" height="6.88698" fill="#EEDB5F" stroke="#BAA51B" stroke-width="2.29566"/>
<rect x="436.648" y="26.0658" width="6.88698" height="6.88698" fill="#EEDB5F" stroke="#BAA51B" stroke-width="2.29566"/>
<rect x="436.648" y="23.0658" width="6.88698" height="6.88698" fill="#EEDB5F" stroke="#BAA51B" stroke-width="2.29566"/>
<rect x="436.648" y="7.0658" width="6.88698" height="6.88698" fill="#EEDB5F" stroke="#BAA51B" stroke-width="2.29566"/>
<rect x="414.648" y="25.0658" width="6.88698" height="6.88698" fill="#EEDB5F" stroke="#BAA51B" stroke-width="2.29566"/>
<rect x="414.648" y="37.0658" width="6.88698" height="6.88698" fill="#EEDB5F" stroke="#BAA51B" stroke-width="2.29566"/>
<rect x="419.648" y="37.0658" width="6.88698" height="6.88698" fill="#EEDB5F" stroke="#BAA51B" stroke-width="2.29566"/>
<rect x="397.648" y="7.0658" width="6.88698" height="6.88698" fill="#EEDB5F" stroke="#BAA51B" stroke-width="2.29566"/>
<rect x="397.648" y="51.0658" width="6.88698" height="6.88698" fill="#EEDB5F" stroke="#BAA51B" stroke-width="2.29566"/>
<rect x="384.648" y="29.0658" width="6.88698" height="6.88698" fill="#EEDB5F" stroke="#BAA51B" stroke-width="2.29566"/>
<rect x="379.648" y="56.0658" width="6.88698" height="6.88698" fill="#EEDB5F" stroke="#BAA51B" stroke-width="2.29566"/>
<rect x="379.648" y="3.0658" width="6.88698" height="6.88698" fill="#EEDB5F" stroke="#BAA51B" stroke-width="2.29566"/>
<rect x="359.648" y="3.0658" width="6.88698" height="6.88698" fill="#EEDB5F" stroke="#BAA51B" stroke-width="2.29566"/>
<rect x="359.648" y="23.0658" width="6.88698" height="6.88698" fill="#EEDB5F" stroke="#BAA51B" stroke-width="2.29566"/>
<rect x="359.648" y="56.0658" width="6.88698" height="6.88698" fill="#EEDB5F" stroke="#BAA51B" stroke-width="2.29566"/>
<rect x="346.648" y="56.0658" width="6.88698" height="6.88698" fill="#EEDB5F" stroke="#BAA51B" stroke-width="2.29566"/>
<rect x="325.648" y="56.0658" width="6.88698" height="6.88698" fill="#EEDB5F" stroke="#BAA51B" stroke-width="2.29566"/>
<rect x="325.648" y="3.0658" width="6.88698" height="6.88698" fill="#EEDB5F" stroke="#BAA51B" stroke-width="2.29566"/>
<rect x="345.648" y="3.0658" width="6.88698" height="6.88698" fill="#EEDB5F" stroke="#BAA51B" stroke-width="2.29566"/>
<rect x="346.648" y="35.0658" width="6.88698" height="6.88698" fill="#EEDB5F" stroke="#BAA51B" stroke-width="2.29566"/>
<rect x="318.648" y="56.0658" width="6.88698" height="6.88698" fill="#EEDB5F" stroke="#BAA51B" stroke-width="2.29566"/>
<rect x="296.648" y="56.0658" width="6.88698" height="6.88698" fill="#EEDB5F" stroke="#BAA51B" stroke-width="2.29566"/>
<rect x="276.648" y="56.0658" width="6.88698" height="6.88698" fill="#EEDB5F" stroke="#BAA51B" stroke-width="2.29566"/>
<rect x="254.648" y="56.0658" width="6.88698" height="6.88698" fill="#EEDB5F" stroke="#BAA51B" stroke-width="2.29566"/>
<rect x="254.648" y="21.0658" width="6.88698" height="6.88698" fill="#EEDB5F" stroke="#BAA51B" stroke-width="2.29566"/>
<rect x="276.648" y="21.0658" width="6.88698" height="6.88698" fill="#EEDB5F" stroke="#BAA51B" stroke-width="2.29566"/>
<rect x="239.648" y="21.0658" width="6.88698" height="6.88698" fill="#EEDB5F" stroke="#BAA51B" stroke-width="2.29566"/>
<rect x="239.648" y="3.0658" width="6.88698" height="6.88698" fill="#EEDB5F" stroke="#BAA51B" stroke-width="2.29566"/>
<rect x="291.648" y="3.0658" width="6.88698" height="6.88698" fill="#EEDB5F" stroke="#BAA51B" stroke-width="2.29566"/>
<rect x="291.648" y="21.0658" width="6.88698" height="6.88698" fill="#EEDB5F" stroke="#BAA51B" stroke-width="2.29566"/>
<rect x="209.648" y="56.0658" width="6.88698" height="6.88698" fill="#EEDB5F" stroke="#BAA51B" stroke-width="2.29566"/>
<rect x="187.648" y="56.0658" width="6.88698" height="6.88698" fill="#EEDB5F" stroke="#BAA51B" stroke-width="2.29566"/>
<rect x="187.648" y="3.0658" width="6.88698" height="6.88698" fill="#EEDB5F" stroke="#BAA51B" stroke-width="2.29566"/>
<rect x="209.648" y="3.0658" width="6.88698" height="6.88698" fill="#EEDB5F" stroke="#BAA51B" stroke-width="2.29566"/>
<rect x="209.648" y="18.0658" width="6.88698" height="6.88698" fill="#EEDB5F" stroke="#BAA51B" stroke-width="2.29566"/>
<rect x="209.648" y="28.0658" width="6.88698" height="6.88698" fill="#EEDB5F" stroke="#BAA51B" stroke-width="2.29566"/>
<rect x="209.648" y="43.0658" width="6.88698" height="6.88698" fill="#EEDB5F" stroke="#BAA51B" stroke-width="2.29566"/>
<rect x="235.648" y="21.0658" width="6.88698" height="6.88698" fill="#EEDB5F" stroke="#BAA51B" stroke-width="2.29566"/>
<rect x="66.6478" y="3.0658" width="6.88698" height="6.88698" fill="#EEDB5F" stroke="#BAA51B" stroke-width="2.29566"/>
<rect x="66.6478" y="56.0658" width="6.88698" height="6.88698" fill="#EEDB5F" stroke="#BAA51B" stroke-width="2.29566"/>
<rect x="88.6478" y="39.0658" width="6.88698" height="6.88698" fill="#EEDB5F" stroke="#BAA51B" stroke-width="2.29566"/>
<rect x="88.6478" y="22.0658" width="6.88698" height="6.88698" fill="#EEDB5F" stroke="#BAA51B" stroke-width="2.29566"/>
<rect x="88.6478" y="3.0658" width="6.88698" height="6.88698" fill="#EEDB5F" stroke="#BAA51B" stroke-width="2.29566"/>
<rect x="88.6478" y="56.0658" width="6.88698" height="6.88698" fill="#EEDB5F" stroke="#BAA51B" stroke-width="2.29566"/>
<rect x="119.648" y="31.0658" width="6.88698" height="6.88698" fill="#EEDB5F" stroke="#BAA51B" stroke-width="2.29566"/>
<rect x="152.648" y="57.0658" width="6.88698" height="6.88698" fill="#EEDB5F" stroke="#BAA51B" stroke-width="2.29566"/>
<rect x="152.648" y="2.0658" width="6.88698" height="6.88698" fill="#EEDB5F" stroke="#BAA51B" stroke-width="2.29566"/>
<rect x="182.648" y="31.0658" width="6.88698" height="6.88698" fill="#EEDB5F" stroke="#BAA51B" stroke-width="2.29566"/>
<rect x="122.648" y="31.0658" width="6.88698" height="6.88698" fill="#EEDB5F" stroke="#BAA51B" stroke-width="2.29566"/>
<rect x="175.648" y="11.0658" width="6.88698" height="6.88698" fill="#EEDB5F" stroke="#BAA51B" stroke-width="2.29566"/>
<rect x="129.648" y="12.0658" width="6.88698" height="6.88698" fill="#EEDB5F" stroke="#BAA51B" stroke-width="2.29566"/>
<rect x="132.648" y="49.0658" width="6.88698" height="6.88698" fill="#EEDB5F" stroke="#BAA51B" stroke-width="2.29566"/>
<rect x="174.648" y="49.0658" width="6.88698" height="6.88698" fill="#EEDB5F" stroke="#BAA51B" stroke-width="2.29566"/>
<rect x="62.6478" y="56.0658" width="6.88698" height="6.88698" fill="#EEDB5F" stroke="#BAA51B" stroke-width="2.29566"/>
<rect x="40.6478" y="56.0658" width="6.88698" height="6.88698" fill="#EEDB5F" stroke="#BAA51B" stroke-width="2.29566"/>
<rect x="23.6478" y="56.0658" width="6.88698" height="6.88698" fill="#EEDB5F" stroke="#BAA51B" stroke-width="2.29566"/>
<rect x="1.64783" y="56.0658" width="6.88698" height="6.88698" fill="#EEDB5F" stroke="#BAA51B" stroke-width="2.29566"/>
<rect x="21.6478" y="3.0658" width="6.88698" height="6.88698" fill="#EEDB5F" stroke="#BAA51B" stroke-width="2.29566"/>
<rect x="42.6478" y="3.0658" width="6.88698" height="6.88698" fill="#EEDB5F" stroke="#BAA51B" stroke-width="2.29566"/>
<rect x="31.6478" y="26.0658" width="6.88698" height="6.88698" fill="#EEDB5F" stroke="#BAA51B" stroke-width="2.29566"/>
<rect x="35.6478" y="36.0658" width="6.88698" height="6.88698" fill="#EEDB5F" stroke="#BAA51B" stroke-width="2.29566"/>
<rect x="27.6478" y="36.0658" width="6.88698" height="6.88698" fill="#EEDB5F" stroke="#BAA51B" stroke-width="2.29566"/>
<rect x="296.648" y="3.0658" width="6.88698" height="6.88698" fill="#EEDB5F" stroke="#BAA51B" stroke-width="2.29566"/>
<rect x="318.648" y="3.0658" width="6.88698" height="6.88698" fill="#EEDB5F" stroke="#BAA51B" stroke-width="2.29566"/>
</svg>
