<svg width="65" height="53" viewBox="0 0 65 53" fill="none" xmlns="http://www.w3.org/2000/svg">
<path d="M40.9437 12.0396C40.8385 12.1418 40.7247 12.2502 40.6428 12.352C40.5656 12.4484 40.519 12.5372 40.5438 12.6007C40.5747 12.6791 40.7082 12.7219 40.8741 12.7483C41.7992 12.8314 42.6741 12.9147 42.9122 12.9324C42.8262 13.6975 42.4189 15.6594 42.0844 17.3557C42.0697 17.4631 42.0741 17.5499 42.1171 17.5788C42.1286 17.5864 42.1422 17.5883 42.1569 17.5873C42.1613 17.587 42.1661 17.5853 42.1711 17.584C42.182 17.5815 42.1932 17.5777 42.2052 17.5715C42.2111 17.5685 42.217 17.5652 42.2232 17.5614C42.2359 17.5538 42.2489 17.5442 42.2624 17.5336C42.2683 17.529 42.2739 17.5249 42.2804 17.5197C42.2995 17.5031 42.3199 17.4851 42.3405 17.4641C42.4566 17.35 42.5954 17.1787 42.7189 17.036L44.3426 15.1988L46.8139 12.4002C46.8301 12.3809 46.8504 12.3605 46.8658 12.3398C46.9415 12.2545 47.0125 12.1736 47.0812 12.0965C47.2327 11.9179 47.3488 11.7468 47.3155 11.6338C47.2969 11.5641 47.187 11.527 47.0603 11.5028C46.4517 11.4222 45.7737 11.3317 45.0853 11.256C45.1498 10.7006 45.3148 9.70077 45.4816 8.69899L45.5624 8.1518C45.5756 8.07581 45.5948 7.98729 45.6107 7.89686C45.6372 7.77266 45.6605 7.64492 45.6708 7.54115C45.6773 7.44582 45.6749 7.37173 45.6458 7.34068C45.6402 7.33387 45.636 7.32843 45.6272 7.32543C45.6186 7.32271 45.6075 7.32516 45.5963 7.32707C45.5901 7.32815 45.5845 7.32897 45.5777 7.33142C45.568 7.33496 45.5574 7.34041 45.5464 7.3464C45.5394 7.35049 45.5326 7.35321 45.5249 7.35812C45.5123 7.36601 45.4987 7.37609 45.4849 7.38644C45.4778 7.39189 45.471 7.39625 45.4636 7.40197C45.4421 7.41913 45.4197 7.43819 45.3964 7.45917C45.2538 7.58827 45.0797 7.78002 44.9568 7.90585L43.8703 9.02693L43.3967 9.51665L41.0904 11.8958C41.0468 11.9399 40.9973 11.989 40.9437 12.0396Z" fill="black"/>
<path d="M29.1493 9.16117C29.0459 9.30634 28.9684 9.43708 28.9772 9.49619C28.9784 9.50327 28.9814 9.50953 28.9849 9.51552L28.9852 9.51607C28.989 9.52342 28.9934 9.52941 29.0014 9.53513C29.0132 9.54521 29.0297 9.55338 29.0497 9.56019C29.0907 9.57163 29.3866 9.56183 29.4741 9.55529C29.7101 9.53704 29.9456 9.52152 30.184 9.50899C30.2515 9.50545 30.3187 9.50327 30.3882 9.5C30.6959 9.48584 31.0021 9.47467 31.305 9.46813C31.5472 9.46241 31.7865 9.45887 32.0223 9.45669C32.0874 9.45615 32.1508 9.45587 32.2147 9.4556C32.4328 9.45451 32.6491 9.45397 32.8551 9.45588C32.7846 11.1211 32.6989 12.8867 32.6258 14.5677C32.6155 14.8273 32.6031 15.0847 32.5934 15.3391C32.5707 15.8811 32.5707 15.8811 32.5707 15.8811C32.5695 15.9195 32.5675 15.9601 32.566 16.0004C32.5595 16.2444 32.5595 16.5135 32.6161 16.5865C32.6175 16.5901 32.6202 16.5931 32.6229 16.5958C32.6329 16.6048 32.6444 16.6089 32.6567 16.6086C32.6576 16.6086 32.6588 16.608 32.6597 16.608C32.6709 16.6075 32.6833 16.6037 32.6962 16.5969C32.7007 16.5947 32.7051 16.5912 32.7095 16.5882C32.7195 16.5819 32.7298 16.5748 32.7404 16.5658C32.746 16.5612 32.7516 16.5555 32.7575 16.5503C32.7678 16.5408 32.7782 16.5307 32.7888 16.5193C32.7949 16.5124 32.8014 16.5054 32.8079 16.498C32.8182 16.4863 32.8286 16.474 32.8389 16.4612C32.8456 16.4528 32.8527 16.4441 32.8598 16.4354C32.8701 16.4223 32.8804 16.4084 32.8907 16.3948C32.8978 16.3852 32.9049 16.376 32.9119 16.3665C32.9226 16.352 32.9329 16.3373 32.9432 16.3223C32.95 16.3128 32.957 16.3033 32.9635 16.2937C32.9797 16.2709 32.9956 16.248 33.011 16.2256C33.011 16.2256 33.011 16.2256 33.2718 15.8566C34.9132 13.5354 37.0503 10.7055 38.9478 8.26289C39.5112 7.53621 39.6082 7.41364 39.6082 7.41364C39.6197 7.40084 39.6306 7.38668 39.6418 7.3736C39.8864 7.06828 40.1958 6.73953 40.3205 6.50965C40.3561 6.44264 40.3797 6.38245 40.3759 6.33478C40.3741 6.31218 40.3614 6.29475 40.3414 6.28058C40.3346 6.27541 40.3225 6.27323 40.3137 6.26914C40.2972 6.26152 40.2822 6.25335 40.2606 6.24844C40.2462 6.2449 40.2285 6.24381 40.2123 6.24136C40.1923 6.23837 40.1731 6.23482 40.151 6.23319C40.131 6.23183 40.1098 6.23183 40.0888 6.23128C40.0673 6.23074 40.0458 6.22938 40.024 6.22938C39.9474 6.23019 39.8743 6.23373 39.8251 6.23537C39.8251 6.23537 39.8251 6.23537 39.4526 6.25035C38.3699 6.29338 37.2604 6.34813 36.2048 6.41486C36.2844 4.69729 36.3852 2.72724 36.4689 1.02819C36.4904 0.556449 36.4904 0.556449 36.4904 0.556449C36.491 0.543375 36.4915 0.528122 36.4921 0.514231C36.5013 0.333922 36.5089 0.0912402 36.4485 0.020424C36.4382 0.00980152 36.4273 0.00163057 36.414 0.000268721C36.4061 -0.00082076 36.3964 0.0016306 36.3872 0.00353719C36.3807 0.00462667 36.3743 0.00517135 36.3672 0.00789506C36.3592 0.0108911 36.3501 0.0155214 36.3416 0.0201517C36.3342 0.0239649 36.3268 0.0272333 36.3189 0.0321359C36.3097 0.0378557 36.3 0.045482 36.29 0.0525637C36.2817 0.0588282 36.2732 0.0642758 36.2643 0.0716298C36.2543 0.0798009 36.2437 0.0898784 36.2331 0.0994113C36.224 0.107582 36.2148 0.115209 36.2057 0.124197C36.1939 0.135364 36.1818 0.147893 36.1697 0.159878C36.1609 0.169138 36.1518 0.177309 36.1426 0.187115C36.1294 0.201278 36.1155 0.216531 36.1017 0.231783C36.0934 0.241044 36.0849 0.24976 36.0766 0.259293C36.0584 0.279448 36.0404 0.300693 36.0221 0.321938C36.0174 0.327113 36.0133 0.332016 36.0088 0.337191C35.9856 0.364428 35.9623 0.392209 35.939 0.420536C35.8768 0.49571 35.8135 0.57388 35.7533 0.646876C35.7533 0.646876 35.7534 0.646876 35.3163 1.19516C35.2736 1.25018 35.2264 1.30901 35.1802 1.36566C33.9546 2.90946 31.6468 5.9058 31.6468 5.9058C31.5357 6.0488 31.4308 6.18471 31.3292 6.31381C31.2484 6.41922 31.1689 6.52435 31.0875 6.62976C31.0162 6.72291 30.052 7.97881 29.8427 8.25282C29.4806 8.72728 29.4806 8.72728 29.4806 8.72728C29.3886 8.84713 29.2554 9.01218 29.1493 9.16117Z" fill="black"/>
<path d="M22.8017 17.1448C22.8076 17.2301 22.8117 17.2933 22.815 17.3407C22.8226 17.4842 22.8226 17.4842 22.8226 17.4842C22.8244 17.5082 22.8264 17.533 22.8282 17.5586C22.8391 17.7168 22.8571 17.8922 22.901 17.9265L22.9019 17.9271C22.9081 17.9317 22.9149 17.9331 22.9219 17.9328C22.9343 17.9323 22.9479 17.9241 22.9623 17.9113C22.9647 17.9094 22.967 17.9075 22.9691 17.9053C22.9835 17.8911 22.9986 17.8729 23.0136 17.8511C23.0162 17.8476 23.0189 17.8437 23.021 17.8402C23.0369 17.8173 23.0525 17.7923 23.0681 17.7658C23.0699 17.7628 23.0719 17.7596 23.0737 17.7566C23.0899 17.7291 23.1055 17.7013 23.1206 17.6746C23.1206 17.6746 23.1206 17.6746 23.2588 17.4303C24.1331 15.8933 25.2851 14.012 26.3115 12.3852C26.6156 11.9009 26.6689 11.8189 26.6689 11.8189C26.6736 11.8102 26.6804 11.8012 26.6866 11.7922C26.8198 11.5885 26.9925 11.3665 27.0532 11.2164C27.0715 11.1728 27.083 11.1336 27.0768 11.1053C27.0756 11.0985 27.0726 11.0928 27.0703 11.0884C27.0414 11.0486 26.9424 11.0497 26.8522 11.0579C26.8443 11.0587 26.8378 11.0595 26.8298 11.0604C26.79 11.0647 26.7538 11.0699 26.7285 11.0726C26.7285 11.0726 26.7284 11.0726 26.4971 11.1026C25.824 11.1881 25.136 11.2832 24.4829 11.3826C24.4222 10.3075 24.3577 9.07314 24.3005 8.00899C24.2849 7.71429 24.2849 7.71429 24.2849 7.71429C24.2843 7.70584 24.2834 7.69686 24.2828 7.68732C24.2778 7.58382 24.2675 7.44709 24.2333 7.39371C24.2236 7.38036 24.2139 7.37165 24.2018 7.3711C24.1923 7.37083 24.1803 7.379 24.1691 7.38445C24.1614 7.38826 24.1546 7.38826 24.1461 7.39452C24.1343 7.40324 24.121 7.41795 24.1084 7.43075C24.0989 7.44028 24.0901 7.44682 24.0804 7.45799C24.068 7.47215 24.0547 7.49013 24.0421 7.50647C24.0306 7.52118 24.0194 7.53398 24.0076 7.55032C23.9828 7.58437 23.9575 7.62114 23.9321 7.659C23.8988 7.70966 23.8635 7.76141 23.8314 7.81071C23.8314 7.81071 23.8314 7.81071 23.5944 8.17623C23.5703 8.213 23.5446 8.25195 23.5202 8.29008C22.855 9.31937 21.6064 11.3148 21.6064 11.3148C21.5472 11.4095 21.4897 11.5008 21.4355 11.586C21.3925 11.6563 21.3492 11.7263 21.305 11.796C21.2658 11.8587 20.7465 12.6943 20.6334 12.8768C20.4383 13.1927 20.4383 13.1927 20.4383 13.1927C20.3876 13.2725 20.3151 13.3826 20.2582 13.4817C20.2034 13.5781 20.1627 13.6631 20.1737 13.7002C20.1754 13.7059 20.1784 13.7111 20.1816 13.7154C20.1913 13.725 20.2046 13.732 20.2226 13.7359C20.2279 13.7369 20.2426 13.7361 20.2579 13.7353C20.2647 13.735 20.2703 13.7348 20.2783 13.7342C20.2933 13.7331 20.3098 13.7315 20.3275 13.7296C20.3357 13.7288 20.3431 13.7282 20.3516 13.7271C20.3702 13.725 20.3882 13.7228 20.4062 13.7206C20.4138 13.7198 20.4218 13.7187 20.4291 13.7179C20.4524 13.7149 20.4731 13.7119 20.486 13.7097C20.6322 13.6857 20.7789 13.6626 20.9257 13.6422C20.9684 13.6356 21.0109 13.6313 21.0524 13.6253C21.2428 13.5994 21.4335 13.576 21.6218 13.555C21.9568 13.5171 22.2842 13.4861 22.5886 13.4621C22.6608 14.6655 22.7295 15.9521 22.8017 17.1448Z" fill="black"/>
<path d="M18.7262 49.8836C19.0273 49.8185 19.3235 49.7564 19.6164 49.6957C19.7016 49.678 19.7859 49.6608 19.8707 49.6436C20.0897 49.5987 20.3066 49.5551 20.5208 49.5126C20.5998 49.4968 20.6791 49.481 20.7575 49.4658C21.0401 49.4105 21.3191 49.3566 21.5932 49.3054C21.6062 49.3029 21.6182 49.3007 21.6312 49.2983C21.8932 49.2493 22.1505 49.2027 22.4042 49.1575L22.4586 49.1479C22.5146 49.1381 22.5701 49.1284 22.6258 49.1185C22.8277 49.0831 23.0266 49.0491 23.2234 49.0158C23.2909 49.0044 23.3587 48.993 23.4256 48.9818C23.6814 48.9396 23.9339 48.8984 24.1809 48.86C24.1965 48.8576 24.2115 48.8554 24.2274 48.853C24.4573 48.8173 24.6827 48.7835 24.9052 48.7511C24.9701 48.7416 25.034 48.7326 25.0977 48.7233C25.2821 48.6972 25.4637 48.6718 25.6425 48.6479C25.6971 48.6405 25.7522 48.6329 25.8064 48.6258C26.0336 48.5958 26.2573 48.5675 26.4756 48.5414C26.498 48.5386 26.5195 48.5362 26.5422 48.5337C26.7361 48.5109 26.9262 48.4893 27.1127 48.4692C27.1699 48.4632 27.2268 48.4572 27.2831 48.4512C27.4451 48.4343 27.604 48.4185 27.7602 48.4038C27.8059 48.3995 27.8524 48.3951 27.8975 48.3907C28.0944 48.373 28.2871 48.3564 28.4748 48.342C28.5004 48.3401 28.5249 48.3384 28.5505 48.3365C28.7111 48.3246 28.8679 48.3139 29.0217 48.3041C29.0715 48.3009 29.1208 48.2981 29.17 48.2951C29.3088 48.2872 29.4446 48.2802 29.5772 48.2742C29.6141 48.2725 29.6518 48.2706 29.688 48.269C29.8539 48.2622 30.0157 48.257 30.1725 48.2532C30.1985 48.2527 30.2229 48.2527 30.2482 48.2521C30.3776 48.2497 30.5037 48.248 30.6263 48.2477H30.7516C30.8612 48.248 30.9679 48.2494 31.0719 48.2516L31.0791 48.2517C31.1084 48.2522 31.1388 48.2527 31.1674 48.2535C31.2991 48.2567 31.427 48.2616 31.5493 48.2679C31.5702 48.269 31.59 48.2704 31.6109 48.2717C31.7108 48.2774 31.8077 48.284 31.9012 48.2913C31.9362 48.2943 31.9707 48.2973 32.0052 48.3003C32.0856 48.3077 32.1634 48.3158 32.2392 48.3246C32.2689 48.3281 32.2996 48.3311 32.3285 48.3349C32.4278 48.3474 32.5236 48.3611 32.6137 48.3763C32.6261 48.3785 32.6367 48.3809 32.6488 48.3828C32.7266 48.3965 32.8006 48.4109 32.871 48.4264C32.8969 48.4321 32.9217 48.4381 32.9467 48.4441C33.003 48.4575 33.0569 48.4716 33.1085 48.4863C33.1303 48.4926 33.153 48.4986 33.1742 48.5051C33.2426 48.5264 33.3077 48.5482 33.3667 48.5719C33.7412 48.7214 33.6982 49.0932 33.4109 49.5489C33.2352 49.8278 32.9797 50.1486 32.65 50.4474C32.076 50.9675 31.7255 51.2486 30.7801 51.8802V51.9012C30.9704 51.8416 31.1617 51.7837 31.3533 51.727C31.4196 51.7074 31.4859 51.6886 31.5525 51.6693C31.7008 51.6262 31.8496 51.5837 31.9987 51.5421C32.0738 51.5211 32.1487 51.5007 32.2241 51.48C32.3715 51.4399 32.5197 51.4004 32.6677 51.3618C32.7372 51.3435 32.807 51.3253 32.8766 51.3073C33.0596 51.2604 33.2429 51.215 33.4268 51.1703C33.4592 51.1624 33.4916 51.1542 33.524 51.1463C33.7412 51.094 33.9593 51.0434 34.1771 50.9941C34.2351 50.981 34.2935 50.9685 34.3512 50.9554C34.5118 50.9197 34.6724 50.8846 34.833 50.8505C34.9067 50.8347 34.9801 50.8195 35.0538 50.8042C35.2043 50.7729 35.3546 50.7421 35.5046 50.7124C35.5748 50.6985 35.6452 50.6844 35.7153 50.6708C35.8863 50.6373 36.0569 50.6048 36.2275 50.5732C36.2735 50.5648 36.3197 50.5558 36.366 50.5474C36.5838 50.5076 36.8013 50.4689 37.0176 50.4319L37.0466 50.4271C37.0776 50.4219 37.1083 50.4169 37.1396 50.4115C37.3143 50.382 37.4885 50.3532 37.6618 50.3254C37.7293 50.3145 37.7961 50.3041 37.8633 50.2935C38.013 50.2701 38.1624 50.2472 38.311 50.2249C38.3644 50.2168 38.4181 50.2089 38.4716 50.201L38.5161 50.1944C38.6746 50.1712 38.832 50.1489 38.989 50.1268C39.0409 50.1197 39.0931 50.1121 39.1447 50.105C39.3554 50.0764 39.5652 50.0487 39.7726 50.0222L39.8 50.019C39.9957 49.9942 40.1893 49.9708 40.382 49.9484C40.4389 49.9416 40.4955 49.9354 40.5521 49.9288C40.6983 49.9119 40.8435 49.8956 40.9879 49.8801C41.0498 49.8735 41.1114 49.867 41.1727 49.8605C41.3183 49.8452 41.4627 49.8305 41.6062 49.8163C41.6575 49.8112 41.7087 49.806 41.7594 49.8011C42.1464 49.7638 42.5239 49.7308 42.8899 49.7019C42.9341 49.6984 42.9774 49.6954 43.0213 49.6919C43.1598 49.6812 43.2968 49.6712 43.4318 49.6616C43.484 49.6581 43.5352 49.6545 43.5862 49.651C43.7162 49.642 43.8444 49.6338 43.9711 49.6262C44.0168 49.6232 44.063 49.6205 44.1081 49.6178C44.2584 49.6088 44.4063 49.6006 44.5513 49.5933C44.5681 49.5924 44.5852 49.5914 44.602 49.5905C44.7667 49.5821 44.9274 49.5747 45.0844 49.5682C45.1023 49.5675 45.1195 49.5669 45.1367 49.5662L45.1714 49.5649C45.2957 49.5598 45.4174 49.5554 45.5365 49.5516L45.5513 49.5511C45.5882 49.5499 45.6245 49.5487 45.6611 49.5478C45.7681 49.5445 45.8733 49.5418 45.9756 49.5393C46.0142 49.5385 46.0528 49.5374 46.0905 49.5366C46.2016 49.5344 46.3094 49.5325 46.4149 49.5312C46.4394 49.5309 46.465 49.5303 46.4892 49.5301C46.6186 49.5287 46.7444 49.5282 46.8646 49.5282H46.8965C47.0014 49.5282 47.1022 49.529 47.1997 49.5303C47.2277 49.5306 47.2545 49.5312 47.2813 49.5317C47.3647 49.5331 47.4452 49.5347 47.5224 49.5369L47.5899 49.5385C47.686 49.5415 47.7785 49.5448 47.8642 49.5489C47.8684 49.5489 47.8716 49.5491 47.8757 49.5494C47.9556 49.5532 48.0301 49.5576 48.1009 49.5625C48.1218 49.5638 48.1418 49.5655 48.1619 49.5668C48.2149 49.5707 48.265 49.575 48.3122 49.5794C48.3307 49.581 48.3496 49.5826 48.3673 49.5845C48.4271 49.5908 48.4834 49.5973 48.5323 49.6044C49.3563 49.724 49.8667 49.9223 49.8664 50.1952C49.8661 50.7181 48.9743 51.4427 47.6877 52.2184C51.5614 52.3725 55.2032 52.5866 58.5388 52.8508C57.3727 51.6303 56.2818 50.3521 55.2515 49.0316C55.0933 47.7839 55.0438 46.4899 55.161 45.5257C55.3962 43.594 56.1565 41.898 56.6363 41.2021C56.923 40.7862 57.1287 40.4964 57.4484 40.1883C57.6544 40.151 57.8528 40.1224 58.047 40.1031L58.0581 40.1022C58.2485 40.0837 58.4351 40.0739 58.6213 40.0736C58.6829 40.0736 58.7445 40.0758 58.8061 40.078C58.837 40.0791 58.868 40.0788 58.8989 40.0805C58.9642 40.0837 59.0298 40.0895 59.0959 40.0954L59.0999 40.0957C59.1276 40.0982 59.155 40.0992 59.1827 40.102C59.2546 40.1093 59.3274 40.1194 59.4005 40.1298C59.4243 40.133 59.4473 40.1352 59.4712 40.1387C59.5684 40.1537 59.6672 40.1712 59.7677 40.191C61.9357 40.6255 62.9126 42.4558 63.0646 43.7703C64.9241 41.1898 63.2143 38.9406 60.6682 38.8493C60.5972 38.8469 60.5224 38.8483 60.4475 38.8496C60.4051 38.8504 60.3629 38.8515 60.3193 38.8537C60.2648 38.8564 60.2094 38.8602 60.1534 38.8649C60.1092 38.8684 60.065 38.872 60.0202 38.8766C59.9633 38.8826 59.9053 38.8899 59.8472 38.8976L59.8267 38.9002C59.7879 38.9053 59.7489 38.9104 59.7096 38.9166C59.6529 38.9253 59.5957 38.9355 59.5382 38.9458L59.5322 38.9468C59.4856 38.955 59.4397 38.9629 59.3928 38.9722C59.3325 38.9841 59.2715 38.9978 59.211 39.0114C59.1653 39.0218 59.1196 39.031 59.074 39.0422C59.0219 39.0547 58.9703 39.0684 58.9186 39.0821L58.8883 39.0901C58.8444 39.1018 58.8005 39.1127 58.7569 39.125C58.6894 39.144 58.6237 39.1647 58.5571 39.1852C58.5205 39.1966 58.4831 39.207 58.4469 39.2189C58.3449 39.2522 58.2447 39.2868 58.1469 39.323C58.5149 38.9463 58.9169 38.6107 59.3212 38.4086C59.3928 38.3613 59.4683 38.319 59.5458 38.2793C59.5702 38.2667 59.5959 38.2556 59.6209 38.2439C59.6754 38.2183 59.7299 38.1937 59.7865 38.1714C59.8163 38.1597 59.846 38.1485 59.8761 38.1376C59.9315 38.1178 59.9869 38.0992 60.0432 38.0823C60.0727 38.0734 60.1018 38.0641 60.1319 38.0559C60.1958 38.0382 60.2607 38.0227 60.3252 38.0083C60.347 38.0034 60.3682 37.9976 60.3903 37.9933C60.477 37.9756 60.5636 37.9601 60.6505 37.9475C60.6709 37.9445 60.6912 37.9423 60.7116 37.9399C60.7784 37.9309 60.8444 37.9227 60.9105 37.9165C60.9414 37.9135 60.972 37.9113 61.0027 37.9088C61.0581 37.9045 61.1129 37.9007 61.1674 37.8977C61.1984 37.8963 61.2296 37.8947 61.2603 37.8936C61.3151 37.8917 61.3681 37.8906 61.4212 37.8901C61.4506 37.8898 61.4804 37.8892 61.5093 37.8892C61.5278 37.8892 61.5461 37.8898 61.5647 37.8901C61.6101 37.8906 61.6546 37.8917 61.6979 37.8933C61.7161 37.8939 61.7338 37.8947 61.7518 37.8952C61.7986 37.8974 61.8443 37.9001 61.8885 37.9029L61.8913 37.903C61.9008 37.9035 61.9106 37.904 61.9198 37.9048C61.9731 37.9086 62.0241 37.9132 62.0724 37.9181C62.0848 37.9195 62.0963 37.9208 62.1084 37.9222C62.1432 37.926 62.1767 37.9301 62.2083 37.9342C62.2233 37.9361 62.2372 37.9383 62.2513 37.9402C62.279 37.9443 62.3049 37.9483 62.3294 37.9524C62.3409 37.9543 62.3527 37.9562 62.3633 37.9581C62.3963 37.9641 62.4269 37.9701 62.4526 37.9764C63.0605 38.1199 64.0669 38.4116 64.9739 39.3159C64.9787 39.2876 64.9825 39.2574 64.986 39.2249C64.9869 39.2157 64.9875 39.2053 64.9884 39.1958C64.9907 39.1718 64.9928 39.1479 64.9946 39.122C64.9955 39.1084 64.9958 39.0934 64.9963 39.0792C64.9975 39.0558 64.9987 39.0324 64.999 39.0073C64.9996 38.9918 64.9993 38.9749 64.9993 38.9588C64.9993 38.9338 64.9999 38.9093 64.9993 38.8831C64.999 38.8638 64.9978 38.8434 64.9972 38.8232C64.9963 38.799 64.9958 38.775 64.9946 38.7497C64.9934 38.7268 64.9913 38.7028 64.9896 38.6794C64.9881 38.6557 64.9866 38.6325 64.9846 38.6083C64.9825 38.5835 64.9792 38.5579 64.9769 38.5326C64.9745 38.5081 64.9722 38.4838 64.9692 38.4588C64.966 38.4326 64.9622 38.4054 64.9586 38.3787C64.9551 38.3539 64.9521 38.3294 64.948 38.3041C64.9436 38.2752 64.9383 38.2458 64.933 38.2164C64.9286 38.1921 64.925 38.1684 64.9203 38.1439C64.9144 38.1139 64.9079 38.0834 64.9015 38.0532C64.8962 38.0284 64.8914 38.0039 64.8855 37.9791C64.8797 37.9527 64.8728 37.9259 64.866 37.8993L64.8626 37.886C64.8564 37.8612 64.8505 37.8364 64.844 37.8116C64.8352 37.7789 64.8254 37.7462 64.8157 37.7136C64.8086 37.6899 64.8018 37.6662 64.7945 37.6422C64.7849 37.6112 64.7744 37.5801 64.7637 37.5489L64.7612 37.5414C64.7532 37.5177 64.7456 37.4943 64.737 37.4706C64.7249 37.4368 64.7117 37.4033 64.6987 37.3696C64.6896 37.3461 64.6804 37.3224 64.6707 37.299C64.6569 37.2655 64.6418 37.232 64.6274 37.1985C64.6171 37.1751 64.6068 37.1517 64.5958 37.1282C64.5802 37.0947 64.5637 37.0618 64.547 37.0288C64.5355 37.0054 64.524 36.9822 64.5116 36.9591C64.4958 36.9294 64.479 36.9002 64.4622 36.8708L64.4571 36.8619C64.4438 36.8387 64.4308 36.8156 64.417 36.7924C64.3981 36.7608 64.3778 36.7295 64.3575 36.6982L64.3507 36.6877C64.3382 36.6682 64.3256 36.6487 64.3127 36.6295C64.2917 36.5987 64.2696 36.5688 64.2472 36.5388C64.2307 36.5162 64.2148 36.4939 64.1974 36.4718C64.1744 36.4424 64.1506 36.4133 64.1264 36.3844C64.1081 36.3626 64.0902 36.3408 64.071 36.3193C64.0463 36.2912 64.0203 36.2637 63.9941 36.2362C63.9742 36.2154 63.9539 36.1941 63.9334 36.1738C63.9066 36.1474 63.8786 36.1216 63.8506 36.096C63.8288 36.0758 63.8067 36.0556 63.7837 36.036C63.7545 36.0112 63.7251 35.9873 63.6947 35.9636C63.6705 35.9445 63.6464 35.9254 63.6216 35.9069C63.591 35.8843 63.5588 35.8623 63.5267 35.8405C63.5005 35.8225 63.474 35.8048 63.4469 35.7876C63.4141 35.7669 63.3803 35.7473 63.3461 35.7277C63.3172 35.7111 63.2886 35.6948 63.2586 35.6792C63.2238 35.661 63.1881 35.6433 63.1522 35.6261C63.1209 35.6111 63.0891 35.5964 63.057 35.5823C63.0201 35.5662 62.9824 35.5512 62.9444 35.5368C62.9105 35.5237 62.8761 35.5106 62.841 35.4986C62.8021 35.4853 62.7623 35.4725 62.7225 35.4605C62.6857 35.4493 62.6486 35.4387 62.6108 35.4286C62.5699 35.4177 62.5283 35.4079 62.4856 35.3984C62.4461 35.3894 62.406 35.3813 62.3653 35.3736C62.3223 35.3655 62.2787 35.3584 62.2348 35.3516C62.1918 35.345 62.1487 35.3393 62.1048 35.3344C62.06 35.3292 62.0141 35.3249 61.9675 35.3211C61.9221 35.3175 61.8756 35.3145 61.8284 35.3123C61.7813 35.3102 61.7335 35.3085 61.6846 35.3077C61.6101 35.3066 61.5355 35.3055 61.4574 35.308C60.6037 35.3358 59.6456 35.8988 59.0925 36.4838C58.4345 37.1805 57.9833 38.0104 57.6709 38.7213C57.8934 37.7972 58.1068 36.748 58.1495 36.0747C58.1964 35.3379 58.1286 34.1134 56.7521 33.2069C56.6808 33.1601 56.6018 33.1157 56.5187 33.0729C56.4916 33.0593 56.4624 33.0465 56.4344 33.0331C56.3755 33.0054 56.3154 32.9781 56.2517 32.9528C56.2177 32.9392 56.1828 32.9266 56.1474 32.9137L56.1433 32.9122C56.0817 32.8896 56.018 32.8684 55.9529 32.8482C55.9134 32.8362 55.8742 32.8242 55.8338 32.8131C55.7643 32.7937 55.6924 32.7766 55.619 32.7602C55.5807 32.7515 55.5433 32.7423 55.5041 32.7344C55.4095 32.7156 55.3125 32.6998 55.2138 32.6859C55.1944 32.6832 55.1758 32.6793 55.1561 32.6769C55.0379 32.6616 54.9168 32.651 54.7942 32.6439C54.7573 32.6417 54.7199 32.6417 54.6831 32.6404C54.5902 32.6368 54.4965 32.6347 54.4022 32.6358C54.3789 32.636 54.3557 32.6366 54.3324 32.6374C54.2133 32.6409 54.0931 32.6477 53.9729 32.6595C53.9558 32.6611 53.939 32.6635 53.9216 32.6652C53.8002 32.6782 53.6782 32.6951 53.5565 32.7175C53.55 32.7186 53.5432 32.7197 53.5364 32.7207C53.413 32.7439 53.2901 32.7733 53.1678 32.8065C53.1472 32.8123 53.1265 32.8174 53.1059 32.8234C52.9877 32.8575 52.8701 32.8967 52.7546 32.9411C52.734 32.949 52.7136 32.9574 52.693 32.9656C52.5751 33.0127 52.4585 33.0645 52.3444 33.123C52.335 33.1279 52.3258 33.1337 52.3161 33.1388C52.2056 33.1968 52.0978 33.2611 51.992 33.3308C51.979 33.3396 51.9657 33.3472 51.9528 33.3559C51.8473 33.4275 51.7456 33.5065 51.6466 33.5901C51.628 33.6059 51.6092 33.622 51.5909 33.6384C51.4945 33.7236 51.4011 33.8149 51.3127 33.9129C51.298 33.9292 51.2838 33.9464 51.2697 33.963C51.178 34.0682 51.0899 34.1782 51.0083 34.2978C51.0086 34.2983 51.0189 34.2972 51.0383 34.2945C51.0543 34.2923 51.0802 34.289 51.1076 34.2858C51.1155 34.285 51.1212 34.2841 51.1303 34.2831C51.1642 34.2792 51.2051 34.2749 51.2517 34.2705C51.2582 34.2699 51.2652 34.2693 51.2722 34.2687L51.2797 34.2681C51.321 34.2645 51.3669 34.2613 51.4158 34.258C51.4306 34.2572 51.4441 34.2561 51.4592 34.2553C51.5202 34.2517 51.5859 34.249 51.6569 34.2471C51.669 34.2468 51.6822 34.2468 51.6946 34.2468C51.7571 34.2457 51.8234 34.2455 51.8924 34.2463C51.9112 34.2466 51.9295 34.2466 51.9486 34.2471C52.0297 34.2487 52.1145 34.2523 52.2033 34.2575C52.2192 34.2583 52.2354 34.2599 52.2516 34.261C52.3303 34.2664 52.4113 34.2735 52.4944 34.2828C52.5153 34.285 52.536 34.2869 52.5572 34.2893C52.6529 34.3008 52.7514 34.3146 52.8522 34.3318C52.8731 34.3353 52.8946 34.3397 52.9158 34.3432C53.0048 34.3593 53.0953 34.3778 53.1872 34.3991C53.2078 34.404 53.2282 34.4081 53.2485 34.413C53.3537 34.4386 53.4604 34.468 53.568 34.5012C53.5924 34.5088 53.6169 34.5173 53.6416 34.5252C53.7383 34.5565 53.8358 34.5914 53.9337 34.6298C53.9508 34.6363 53.9676 34.6423 53.9846 34.6491C54.0937 34.6935 54.203 34.7434 54.3121 34.7973C54.3383 34.8104 54.3642 34.824 54.3904 34.8373C54.4927 34.8904 54.5947 34.9471 54.6957 35.0097C54.7061 35.016 54.7167 35.0217 54.727 35.0283C54.8348 35.0963 54.9415 35.1715 55.0467 35.2513C55.0724 35.2707 55.0977 35.2908 55.1233 35.311C55.2297 35.3954 55.3352 35.4837 55.4375 35.5814C56.5458 36.6393 56.8929 37.8383 56.9766 38.7611C56.936 38.6919 56.8924 38.6214 56.847 38.5506C56.8325 38.5279 56.8166 38.5051 56.8019 38.4825C56.7698 38.4337 56.7371 38.385 56.7026 38.3359C56.6837 38.3087 56.6634 38.2817 56.6436 38.2545C56.6112 38.2095 56.5779 38.1646 56.5435 38.1199C56.5214 38.0913 56.4987 38.0627 56.476 38.0341C56.4415 37.9911 56.4061 37.9481 56.3699 37.9053L56.363 37.8973C56.3406 37.8712 56.3183 37.8452 56.2953 37.819C56.2579 37.7767 56.2193 37.7351 56.1801 37.6937L56.1643 37.6769C56.1437 37.655 56.1231 37.6331 56.102 37.6114C56.0623 37.571 56.0209 37.5317 55.9795 37.4925L55.9691 37.4826C55.9446 37.4594 55.9211 37.436 55.896 37.4134C55.8297 37.3535 55.7619 37.2955 55.6921 37.2391C55.6829 37.2317 55.6735 37.2244 55.6641 37.217C55.594 37.1615 55.5218 37.1081 55.4478 37.0571C55.4198 37.0381 55.3909 37.0206 55.3623 37.0019C55.3099 36.9678 55.2577 36.934 55.2035 36.9024C55.1719 36.8841 55.1398 36.867 55.1074 36.8498L55.1003 36.8461C55.0494 36.8183 54.9975 36.7916 54.9453 36.7665C54.9085 36.7491 54.8714 36.7328 54.8339 36.7164C54.7809 36.6938 54.7273 36.6723 54.673 36.6524C54.6347 36.6382 54.5964 36.6246 54.5575 36.6121C54.5007 36.5938 54.4426 36.5778 54.3843 36.5628C54.3462 36.553 54.3088 36.5426 54.2699 36.5342C54.2048 36.52 54.1385 36.5097 54.0716 36.5001C54.0383 36.4952 54.0056 36.4887 53.9717 36.4852C53.6555 36.4509 53.3207 36.4669 52.9683 36.5489C51.5697 36.8744 50.9753 38.3114 51.173 39.8653C51.2423 39.7885 51.3121 39.716 51.3811 39.6466C51.4038 39.6237 51.4265 39.6027 51.4488 39.5807C51.4957 39.5352 51.542 39.4902 51.5888 39.448C51.6103 39.4286 51.6317 39.41 51.653 39.3914L51.6687 39.3777L51.6799 39.368C51.7188 39.3343 51.7573 39.3009 51.796 39.2693C51.824 39.2465 51.8517 39.2244 51.8797 39.2023C51.9209 39.1702 51.9616 39.1391 52.0026 39.1092C52.0306 39.0885 52.0583 39.0683 52.0863 39.049C52.1275 39.0201 52.1685 38.9926 52.2097 38.9662C52.2362 38.949 52.2631 38.9313 52.2896 38.9147C52.3338 38.8875 52.3777 38.8621 52.4213 38.8374C52.4443 38.8243 52.4673 38.8104 52.4903 38.7981C52.548 38.7668 52.6058 38.7379 52.663 38.7107C52.6712 38.7066 52.6803 38.7017 52.6886 38.6979C52.7543 38.6671 52.8194 38.6396 52.8843 38.6137C52.9049 38.6056 52.9255 38.5988 52.9459 38.5911C52.9901 38.5745 53.0343 38.5584 53.0782 38.544C53.1026 38.5361 53.1271 38.529 53.1516 38.5217C53.1911 38.5097 53.2305 38.4983 53.2694 38.4879C53.2948 38.4814 53.3201 38.4754 53.3455 38.4694C53.3832 38.4604 53.4209 38.4522 53.4586 38.4449C53.4837 38.44 53.5084 38.4351 53.5335 38.431C53.5712 38.4244 53.6086 38.419 53.6461 38.4138C53.6693 38.4106 53.6929 38.4073 53.7162 38.4046C53.7563 38.3999 53.7958 38.3967 53.8349 38.3937C53.8547 38.3923 53.875 38.3901 53.8945 38.389C53.944 38.3863 53.9929 38.3849 54.0412 38.3844C54.0504 38.3844 54.0598 38.3839 54.0686 38.3839C54.0722 38.3839 54.0754 38.3841 54.0789 38.3841C54.2086 38.3844 54.3347 38.3928 54.4565 38.4073C54.4677 38.4086 54.4785 38.4103 54.4897 38.4116C54.6035 38.4264 54.7137 38.446 54.8195 38.4702C54.8316 38.4729 54.8437 38.4757 54.8558 38.4786C54.961 38.5037 55.0623 38.5326 55.1587 38.5644C55.1667 38.5672 55.1755 38.5696 55.1834 38.5723C55.2857 38.6067 55.3829 38.6437 55.4734 38.6818C55.4752 38.6824 55.4767 38.6832 55.4784 38.684C55.5683 38.7221 55.6517 38.7614 55.7295 38.8C55.7367 38.8038 55.7444 38.8078 55.7519 38.8115C55.8229 38.8474 55.8887 38.8826 55.9482 38.9161C55.9555 38.9202 55.9632 38.9245 55.9703 38.9286C56.0283 38.9616 56.0802 38.9921 56.1256 39.0196C56.178 39.0512 56.2228 39.0787 56.257 39.0991C56.4863 39.2486 56.6669 39.4216 56.8146 39.6041C55.7404 40.3997 54.4435 41.8961 53.7631 43.3415C53.3797 44.1783 53.1006 44.985 52.9264 45.8168C52.3211 44.9227 51.7368 44.0173 51.1715 43.104C51.1161 43.0144 51.0628 42.924 51.0077 42.8344C47.4219 36.9264 44.5325 30.7428 42.2097 24.371C42.2041 24.3712 42.1988 24.3715 42.1932 24.372C41.9448 23.6873 41.7055 23.0001 41.4703 22.3113C41.4465 22.2411 41.4223 22.1706 41.3981 22.1005C41.3685 22.0143 41.2699 21.7121 41.184 21.4492L41.1674 21.3983C41.1241 21.2659 41.0852 21.1472 41.0631 21.0804C41.0581 21.066 41.0516 21.0437 41.0421 21.0162C41.0286 20.9813 41.0112 20.9385 40.9894 20.8903C40.9762 20.8623 40.962 20.834 40.944 20.8048C40.8819 20.707 40.7372 20.634 40.6847 20.6169C40.6823 20.6161 40.6776 20.6136 40.6756 20.6131C40.6582 20.6082 40.6384 20.6038 40.6207 20.5989C40.5267 20.5733 40.4295 20.548 40.3281 20.5237C40.3084 20.5188 40.2889 20.5136 40.2689 20.509C40.1345 20.4771 39.9922 20.4464 39.846 20.4164L39.8325 20.4136C39.784 20.4037 39.7356 20.3937 39.6857 20.384C39.5631 20.36 39.4376 20.3366 39.3082 20.314C39.2251 20.2994 39.1391 20.2853 39.0532 20.2713L39.0412 20.2693C38.9944 20.2617 38.949 20.2538 38.9012 20.2465C38.9012 20.2465 38.9015 20.247 38.9015 20.2475C38.6121 20.2021 38.3127 20.159 37.9948 20.1209C37.2224 20.0386 36.4417 19.9695 35.6476 19.9253L35.5942 19.9229C35.1961 19.9011 34.7971 19.8823 34.3939 19.8706C33.9793 19.8578 33.5617 19.8507 33.1415 19.8499C33.1188 19.8499 33.0967 19.8496 33.074 19.8496C33.0507 19.8496 33.0281 19.8499 33.0051 19.8499C32.891 19.8512 32.7779 19.8548 32.6635 19.8556C32.2819 19.8589 31.9003 19.8627 31.5228 19.8747C31.4998 19.8752 31.4768 19.8763 31.4538 19.8768C31.3085 19.8826 31.1653 19.8924 31.02 19.8989L30.9514 19.9019C30.6251 19.9161 30.299 19.9303 29.9762 19.9512C29.9424 19.9534 29.9085 19.9558 29.8746 19.958C29.5357 19.982 29.2068 20.0098 28.8883 20.0408C27.5126 20.1745 26.3383 20.3723 25.4725 20.6133C25.4245 20.6267 25.2424 20.7122 25.1881 20.8255C25.1339 20.9391 25.0959 21.0396 25.0823 21.0807C24.9465 21.4901 24.8074 21.8986 24.6674 22.3069C22.2171 29.44 19.0821 36.3517 15.085 42.9221C15.0478 42.9828 15.0116 43.0438 14.9742 43.1043C14.8112 43.3677 14.6426 43.6289 14.4767 43.8912C14.0533 42.5716 13.4913 41.3323 12.8654 40.1458C12.4151 39.2914 11.8257 38.1425 11.2157 37.2187C11.2711 37.1841 11.333 37.1519 11.3972 37.1212C11.4146 37.113 11.4323 37.1051 11.4503 37.0972C11.5057 37.0727 11.5637 37.0492 11.6247 37.028C11.638 37.0231 11.6506 37.0179 11.6642 37.0136C11.7382 36.9888 11.816 36.967 11.8961 36.9474C11.9147 36.9427 11.9338 36.9392 11.9527 36.9351C12.0193 36.9204 12.0874 36.9073 12.1575 36.8964C12.1793 36.8932 12.2005 36.8896 12.2226 36.8864C12.3108 36.8747 12.4006 36.8651 12.4935 36.8599C12.505 36.8594 12.5167 36.8594 12.5282 36.8589C12.6119 36.8548 12.6974 36.854 12.784 36.8559C12.8055 36.8564 12.8271 36.8567 12.8489 36.8578C12.9449 36.8616 13.0422 36.8681 13.1409 36.8798C13.1515 36.8809 13.1621 36.8831 13.1724 36.8845C13.2632 36.8959 13.3545 36.9114 13.4465 36.9297C13.4683 36.934 13.4901 36.9381 13.5122 36.943C13.6118 36.9648 13.712 36.9907 13.8119 37.0215C13.829 37.0266 13.8452 37.0329 13.8623 37.0381C13.9513 37.0667 14.0403 37.0996 14.1287 37.1356C14.1487 37.1438 14.1688 37.1514 14.1888 37.1601C14.2878 37.2026 14.3863 37.2503 14.4835 37.3028C14.5035 37.3137 14.5236 37.3254 14.5436 37.3369C14.6303 37.3856 14.7157 37.4385 14.8003 37.4957C14.8165 37.5066 14.8327 37.5166 14.8492 37.5281C14.9432 37.594 15.0358 37.6664 15.1265 37.7438C15.1474 37.7615 15.1681 37.7806 15.1887 37.7988C15.2721 37.8729 15.354 37.9516 15.4336 38.0358C15.443 38.0461 15.453 38.0551 15.463 38.0655C15.5485 38.1583 15.631 38.2588 15.7115 38.3642C15.7306 38.3896 15.7498 38.4155 15.7684 38.4413C15.8485 38.5519 15.9272 38.6666 16.0009 38.7908C16.033 38.6584 16.0574 38.5282 16.0769 38.3994C16.0831 38.3558 16.0857 38.3139 16.0907 38.2708C16.1005 38.1867 16.1099 38.1025 16.1143 38.0205C16.117 37.9709 16.1158 37.9227 16.1164 37.8737C16.1176 37.8004 16.1181 37.7274 16.1146 37.6564C16.1123 37.6057 16.1069 37.5567 16.1022 37.5071C16.096 37.4401 16.0893 37.3734 16.079 37.3085C16.0719 37.2612 16.0626 37.2153 16.0533 37.169L16.0521 37.1634C16.0392 37.101 16.025 37.0392 16.0088 36.979C15.9961 36.9324 15.9826 36.8866 15.9676 36.8414C15.9487 36.7829 15.9272 36.7257 15.9045 36.6693C15.8871 36.6263 15.8697 36.5838 15.8503 36.5421C15.8246 36.4868 15.7963 36.434 15.7675 36.3817L15.7642 36.3757C15.744 36.339 15.7238 36.3021 15.7021 36.267C15.6693 36.2147 15.6334 36.1654 15.5971 36.1164C15.573 36.0834 15.5497 36.0494 15.5238 36.0178C15.4816 35.9666 15.4357 35.9195 15.3897 35.8723C15.3652 35.8473 15.3425 35.8203 15.3169 35.7963C15.2515 35.7353 15.1819 35.6792 15.1097 35.6264C15.1003 35.6196 15.092 35.6114 15.0826 35.6046C14.9998 35.5463 14.9123 35.4935 14.8212 35.4461C14.7929 35.4314 14.7626 35.4205 14.734 35.4069C14.6689 35.3763 14.6037 35.3464 14.5348 35.3216C14.4968 35.308 14.4564 35.2979 14.4175 35.2859C14.3544 35.2666 14.2911 35.2478 14.2253 35.2334C14.1811 35.2235 14.1352 35.2173 14.0901 35.2097C14.0253 35.199 13.9604 35.1892 13.8932 35.1832C13.8446 35.1789 13.7948 35.177 13.745 35.1751C13.6707 35.1721 13.5962 35.1707 13.5193 35.1734C13.4874 35.1745 13.4556 35.1753 13.4232 35.1775C13.3083 35.1849 13.1919 35.1963 13.0719 35.2167C12.489 35.3314 11.5649 35.8922 11.0395 36.5963C11.2525 35.9053 11.5808 35.2584 11.7915 34.9915C12.3771 34.2482 13.237 33.8181 14.0403 33.7361C14.1747 33.7225 14.3161 33.7152 14.4602 33.7138C14.4791 33.7138 14.4977 33.7127 14.5165 33.7127C14.5386 33.713 14.5607 33.7141 14.5834 33.7146C14.64 33.7157 14.6974 33.7184 14.7549 33.7225C14.7817 33.7244 14.8085 33.7266 14.8354 33.7291C14.8946 33.7345 14.9547 33.7421 15.0148 33.7511C15.0369 33.7544 15.0584 33.7568 15.0808 33.7604C15.1619 33.774 15.2435 33.7909 15.3254 33.8116C15.3416 33.8157 15.3576 33.8211 15.3738 33.8255C15.4401 33.8435 15.5064 33.8639 15.573 33.887C15.5992 33.8963 15.6257 33.9064 15.6519 33.9164C15.7115 33.9391 15.771 33.9644 15.8302 33.9919C15.8553 34.0033 15.88 34.0145 15.9051 34.0268C15.9873 34.0679 16.0695 34.1123 16.1509 34.1632C16.0392 32.3982 14.7469 31.829 13.8302 31.704C13.7241 31.6895 13.6174 31.6846 13.511 31.6857C13.4642 31.6863 13.4179 31.6925 13.3708 31.6961C13.3068 31.701 13.2429 31.7048 13.1795 31.7149C13.1315 31.7225 13.0843 31.7353 13.0366 31.7459C12.975 31.7598 12.9134 31.7732 12.8527 31.792C12.8047 31.8067 12.7578 31.8257 12.7107 31.8434C12.6514 31.8658 12.5919 31.8884 12.5335 31.9151C12.4867 31.9369 12.4407 31.9619 12.3944 31.9864C12.3376 32.0169 12.2804 32.048 12.225 32.0826C12.1799 32.1109 12.1354 32.1417 12.0912 32.1727C12.037 32.2109 11.9833 32.2498 11.9306 32.292C11.8876 32.3266 11.8454 32.3628 11.8036 32.3999C11.7523 32.4451 11.7022 32.4919 11.653 32.541C11.6126 32.5816 11.5731 32.6232 11.5342 32.666C11.4871 32.718 11.4411 32.7719 11.396 32.8278C11.3586 32.8738 11.3224 32.9207 11.2867 32.9691C11.2437 33.0277 11.2024 33.0884 11.1617 33.1505C11.1284 33.2017 11.0951 33.2532 11.0636 33.3069C11.0253 33.3717 10.9894 33.4392 10.954 33.5073L10.9472 33.5204C10.9203 33.5721 10.8935 33.6236 10.8685 33.6773C10.8355 33.7484 10.8052 33.8222 10.7754 33.8963C10.7513 33.9565 10.7265 34.0159 10.7044 34.078C10.677 34.1553 10.6534 34.2357 10.6292 34.3157C10.6107 34.3795 10.5903 34.4418 10.5738 34.5072C10.5526 34.5914 10.5361 34.6785 10.5187 34.7654C10.5055 34.8311 10.4907 34.8953 10.4801 34.9623C10.4654 35.0552 10.4566 35.1514 10.4468 35.2472C10.4404 35.3121 10.4309 35.3755 10.4268 35.4417C10.4197 35.5493 10.4197 35.6599 10.4191 35.7705C10.4186 35.8282 10.4147 35.8846 10.4162 35.9432C10.4203 36.1137 10.4315 36.2874 10.4516 36.4642C10.3914 36.3291 10.3281 36.1992 10.2629 36.0725C10.2423 36.0322 10.2199 35.9935 10.1987 35.9538C10.153 35.8688 10.1065 35.7849 10.0587 35.704C10.0361 35.666 10.0133 35.6291 9.99047 35.5921L9.98034 35.5757C9.93378 35.5008 9.88633 35.4276 9.838 35.3562C9.81089 35.3164 9.78407 35.2767 9.75666 35.2377C9.70362 35.1628 9.6494 35.0906 9.59399 35.0198C9.57071 34.9896 9.54774 34.958 9.52387 34.9288C9.44459 34.8305 9.36385 34.7355 9.28134 34.6453C9.27456 34.638 9.2672 34.6311 9.26042 34.6238C9.18439 34.5418 9.10718 34.4631 9.02879 34.3879C9.00079 34.3609 8.97251 34.3359 8.94422 34.31C8.88528 34.2558 8.82634 34.2027 8.76622 34.1523C8.7344 34.1251 8.70167 34.0989 8.66926 34.0728C8.61091 34.0259 8.55227 33.981 8.49274 33.9374C8.46062 33.914 8.4285 33.8903 8.39638 33.8677C8.33067 33.8219 8.26465 33.7786 8.19776 33.7372C8.17242 33.7212 8.14708 33.704 8.12144 33.6885C8.02891 33.6329 7.93578 33.5806 7.84237 33.5327C7.82999 33.5264 7.81762 33.5212 7.80524 33.5152C7.7242 33.4747 7.64227 33.4365 7.56064 33.4017C7.53 33.3889 7.49963 33.3771 7.46898 33.3649C7.40445 33.339 7.33993 33.3145 7.27568 33.2922C7.24179 33.2805 7.20818 33.2696 7.17429 33.2587C7.11094 33.2385 7.04789 33.2203 6.98482 33.2037C6.9527 33.1952 6.92029 33.1862 6.88817 33.1786C6.81744 33.1617 6.747 33.1475 6.67657 33.1347C6.65329 33.1307 6.62972 33.1252 6.60673 33.1214C6.51302 33.1061 6.41959 33.0944 6.32706 33.0865C6.31085 33.0852 6.29524 33.0852 6.27904 33.0838C6.2033 33.0784 6.12786 33.0751 6.05331 33.0743C6.03003 33.0743 6.00703 33.0751 5.98404 33.0754C5.87972 33.0767 5.77718 33.0822 5.67581 33.0928C5.66166 33.0942 5.64723 33.0947 5.63338 33.0966C5.52434 33.1094 5.41795 33.1287 5.31304 33.1524C5.28946 33.1579 5.26619 33.1636 5.24291 33.1693C5.13829 33.1955 5.03514 33.2257 4.93554 33.2625C4.92935 33.2647 4.92376 33.2677 4.91757 33.2698C4.82268 33.3058 4.73103 33.348 4.64144 33.3938C4.62199 33.4038 4.60166 33.4136 4.58221 33.4243C4.49174 33.4736 4.40422 33.5272 4.32053 33.5866C4.3055 33.5972 4.29106 33.6089 4.27662 33.6198C4.20118 33.6759 4.12868 33.7359 4.05972 33.8004C4.04764 33.8116 4.03527 33.8217 4.02348 33.8331C3.94922 33.905 3.88025 33.9824 3.81453 34.0641C3.80009 34.0818 3.78625 34.1003 3.7721 34.1188C3.70697 34.2046 3.64509 34.2934 3.59028 34.3893C3.07251 35.3349 3.09697 36.5048 3.20395 37.1933C3.58969 36.8245 4.08005 36.3947 4.70686 36.0409C4.79556 35.9908 4.88485 35.947 4.97414 35.9064C5.00213 35.8936 5.02985 35.8827 5.05785 35.8707C5.12061 35.8443 5.18338 35.8195 5.24615 35.7972C5.27679 35.7863 5.30744 35.7756 5.33809 35.7658C5.40263 35.7451 5.46716 35.7266 5.53111 35.7097C5.55645 35.7032 5.5818 35.6956 5.60685 35.6896C5.69466 35.6686 5.78218 35.6509 5.86882 35.6367C5.88444 35.6343 5.89977 35.6326 5.91539 35.6305C5.98729 35.6196 6.05891 35.6106 6.12993 35.6041C6.1591 35.6013 6.18768 35.5994 6.21686 35.5972C6.27462 35.5932 6.33237 35.5902 6.38895 35.5883C6.41813 35.5874 6.447 35.5863 6.47588 35.5861C6.51566 35.5858 6.55428 35.5866 6.59288 35.5872C6.66037 35.5883 6.72607 35.5904 6.7912 35.5942C6.82538 35.5962 6.85928 35.5983 6.89317 35.6011C6.95859 35.6065 7.02224 35.6128 7.08442 35.6201C7.113 35.6234 7.14189 35.6264 7.16989 35.6302C7.2468 35.6405 7.32106 35.6523 7.39238 35.6651C7.40269 35.667 7.41388 35.6683 7.4242 35.6702C7.50642 35.6855 7.58452 35.7016 7.65878 35.7184C7.68058 35.7233 7.70032 35.7283 7.72124 35.7332C7.77282 35.7451 7.82203 35.7571 7.86859 35.7694L7.87658 35.7715C7.89761 35.777 7.91799 35.7823 7.93814 35.7879C7.97852 35.7988 8.01623 35.8091 8.05218 35.8192C8.07398 35.8255 8.09669 35.8317 8.11702 35.8377L8.23017 35.8707C8.27143 35.8827 8.30827 35.8933 8.33568 35.9004C8.56436 35.9584 9.38359 36.337 10.0841 36.8422C10.0855 36.845 10.0867 36.848 10.0882 36.8507C9.9435 36.7897 9.79352 36.7357 9.64087 36.6873C9.62908 36.6835 9.61728 36.6791 9.60549 36.6756C9.45962 36.6303 9.31081 36.5925 9.16052 36.5598C9.14137 36.5557 9.1219 36.5508 9.10275 36.547C8.95629 36.517 8.80837 36.4942 8.66014 36.477C8.63656 36.4743 8.61328 36.4713 8.5897 36.4691C8.44324 36.4541 8.29648 36.4465 8.15031 36.4451C8.11672 36.4449 8.08284 36.4449 8.04925 36.4451C7.99974 36.4457 7.95022 36.4476 7.90071 36.45C7.85798 36.4519 7.81554 36.4544 7.77281 36.4577C7.7233 36.4615 7.6741 36.4666 7.62518 36.4724C7.58333 36.4773 7.54149 36.4819 7.49994 36.4882C7.45073 36.4952 7.4021 36.5042 7.35348 36.5132C7.31318 36.5206 7.27264 36.5279 7.23264 36.5369C7.18343 36.5478 7.13541 36.5603 7.08708 36.5734C7.04847 36.5838 7.00957 36.5933 6.97155 36.6047C6.9259 36.6186 6.88153 36.6344 6.83677 36.6503L6.82627 36.654C6.79032 36.6666 6.75408 36.6785 6.71872 36.6924C6.66862 36.712 6.62029 36.7347 6.57137 36.757C6.53954 36.7717 6.50654 36.785 6.4753 36.8006C6.42674 36.8249 6.37987 36.8519 6.33295 36.8789L6.31911 36.8869C6.29377 36.9016 6.26754 36.9147 6.24249 36.9299C6.16705 36.9768 6.09337 37.0266 6.02235 37.0811C5.61303 37.393 5.14448 38.0742 5.06196 38.6674C4.9656 39.3579 5.13005 39.9293 5.44536 40.2948C6.00616 38.7113 7.57124 37.8143 8.76592 37.4763C8.79096 37.4692 8.82338 37.4616 8.85874 37.4543C8.86935 37.4521 8.88085 37.4496 8.89234 37.4477C8.92122 37.442 8.95276 37.4363 8.98665 37.4308C8.99991 37.4287 9.01199 37.4265 9.02584 37.4246C9.07269 37.4175 9.12308 37.4107 9.1773 37.4044C9.18968 37.4031 9.20324 37.4017 9.21621 37.4003C9.26012 37.3954 9.30668 37.3913 9.35501 37.3873C9.37534 37.3856 9.39598 37.3843 9.4169 37.3826C9.4667 37.3791 9.51828 37.3764 9.57102 37.3742C9.58723 37.3736 9.60196 37.3726 9.61817 37.372C9.68388 37.3698 9.75167 37.369 9.82062 37.3693C9.88056 37.3695 9.94164 37.3717 10.0033 37.3738L10.0057 37.3739C10.0319 37.375 10.0573 37.375 10.0838 37.3764C10.1734 37.3813 10.2638 37.3881 10.3552 37.3982C11.7794 40.4517 12.4319 43.8122 12.6084 46.701C12.1351 47.3775 11.6527 48.0486 11.1508 48.707C11.0701 48.8124 10.9855 48.9156 10.9036 49.0205C9.47289 47.2882 7.67027 45.8163 6.5422 45.0686C6.50565 45.0381 6.4641 45.0147 6.42019 44.9951C6.79474 44.6813 7.23767 44.485 7.62342 44.4389C7.73098 44.4261 7.83766 44.4185 7.94345 44.4136C7.97351 44.4122 8.00297 44.4114 8.03273 44.4109C8.10906 44.409 8.1845 44.4101 8.25994 44.4125C8.29795 44.4136 8.33627 44.4144 8.37399 44.4169C8.45916 44.4223 8.54343 44.4316 8.62771 44.4433C8.6501 44.4466 8.6731 44.4479 8.6955 44.4515C8.80129 44.4683 8.90649 44.4907 9.01111 44.5182C9.03881 44.5255 9.06651 44.5353 9.09392 44.5432C9.17142 44.5658 9.24803 44.5901 9.32465 44.6187C9.36119 44.6323 9.39715 44.6476 9.43339 44.6625C9.50206 44.6909 9.57102 44.7219 9.63939 44.756C9.67652 44.7742 9.71335 44.7927 9.75019 44.8126C9.82121 44.851 9.89224 44.8932 9.96326 44.9376C9.99508 44.9578 10.0275 44.9763 10.059 44.9976C10.161 45.0656 10.2627 45.1386 10.364 45.2198C10.3852 45.1087 10.397 45.0035 10.4041 44.902C10.4062 44.8695 10.4056 44.839 10.4062 44.8074C10.4079 44.7393 10.4073 44.6729 10.4026 44.6092C10.4 44.5759 10.3967 44.5438 10.3929 44.5116C10.3852 44.4517 10.3746 44.3937 10.362 44.3379C10.3558 44.3098 10.3499 44.2812 10.3422 44.2543C10.3236 44.1902 10.3013 44.1292 10.2762 44.0707C10.27 44.0562 10.2653 44.0404 10.2585 44.0263C10.2255 43.9549 10.1869 43.8882 10.1445 43.8253C10.1327 43.8076 10.1188 43.7918 10.1062 43.7749C10.0738 43.7308 10.0396 43.6883 10.003 43.6482C9.98475 43.6284 9.9659 43.6098 9.94674 43.591C9.91168 43.5567 9.87544 43.5238 9.83742 43.493C9.8168 43.4761 9.79616 43.4592 9.77494 43.4434C9.73221 43.4121 9.68831 43.3829 9.64322 43.3554C9.62466 43.3443 9.60726 43.332 9.5884 43.3214C9.52445 43.2854 9.45874 43.2525 9.39096 43.2233C9.37652 43.2173 9.36178 43.2127 9.34763 43.2067C9.29253 43.1847 9.23713 43.1642 9.18085 43.1465C9.1555 43.1389 9.13016 43.1321 9.10482 43.1253C9.05767 43.1122 9.01023 43.1005 8.96249 43.0904C8.93538 43.0847 8.90855 43.0793 8.88173 43.0743C8.83311 43.0659 8.78448 43.0591 8.73586 43.0534C8.71111 43.0507 8.68665 43.0471 8.6619 43.0449C8.59618 43.0392 8.53077 43.0359 8.46594 43.0354C8.45975 43.0354 8.45326 43.0346 8.44707 43.0346H8.44412C8.34216 43.0346 8.24344 43.0433 8.14767 43.0556C8.1238 43.0588 8.10023 43.0621 8.07694 43.0659C7.98235 43.0814 7.8904 43.1005 7.80641 43.1277C7.27833 43.3181 6.55014 43.7771 6.21419 44.4762C6.23482 44.2777 6.26666 44.0764 6.31882 43.8721C6.4974 43.1729 6.78856 42.7129 7.43923 42.2777C7.50672 42.2325 7.58068 42.1908 7.65818 42.1507C7.68205 42.1385 7.7068 42.1273 7.73126 42.1156C7.78814 42.0884 7.84709 42.0622 7.90809 42.038C7.93667 42.0265 7.96465 42.0154 7.99383 42.0048C8.06043 41.9802 8.12881 41.9579 8.19835 41.9367C8.22134 41.9299 8.24314 41.9222 8.26613 41.9157C8.35925 41.8895 8.45473 41.8667 8.55139 41.8473C8.57084 41.8435 8.59088 41.8408 8.61033 41.8372C8.68813 41.8231 8.76621 41.8108 8.84489 41.8013C8.87643 41.7972 8.90826 41.7945 8.93979 41.7912C9.00934 41.7844 9.07889 41.7798 9.14755 41.7771C9.1785 41.7757 9.20943 41.7741 9.24008 41.7735C9.30903 41.7727 9.37681 41.7751 9.44429 41.7784C9.47583 41.78 9.50855 41.78 9.53978 41.7825C9.63644 41.7901 9.73132 41.8018 9.82267 41.819C9.77877 41.7103 9.72926 41.6112 9.67592 41.5188C9.65824 41.4883 9.63762 41.4622 9.61905 41.4333C9.58133 41.3753 9.54303 41.3178 9.50118 41.2669C9.47643 41.2369 9.44901 41.2105 9.42278 41.183C9.38211 41.1402 9.34086 41.0986 9.29607 41.0615C9.26571 41.0362 9.23388 41.0133 9.20176 40.9907C9.15638 40.9583 9.10953 40.9281 9.06032 40.9006C9.02525 40.8812 8.98929 40.863 8.95245 40.8461C8.90029 40.8224 8.84637 40.8014 8.79038 40.7826C8.75148 40.7696 8.71229 40.7559 8.67192 40.745C8.61151 40.729 8.54786 40.7167 8.48302 40.7055C8.44177 40.6985 8.40168 40.69 8.35836 40.6848C8.28439 40.6759 8.20572 40.672 8.12644 40.669C8.08784 40.6674 8.05159 40.6636 8.01151 40.6633C7.8898 40.6628 7.76281 40.6671 7.62872 40.6783C6.71577 40.7546 6.17383 41.2179 5.92217 41.4856C5.19045 42.4681 5.25115 43.4747 5.53199 44.2733C4.43102 42.5939 3.21749 41.9086 2.10003 41.88C2.05877 41.8789 2.0184 41.8841 1.97714 41.8871C1.94473 41.8895 1.91202 41.8901 1.8796 41.895C1.84335 41.9004 1.8077 41.9102 1.77204 41.9187C1.74051 41.9263 1.70869 41.932 1.67745 41.9416C1.6415 41.953 1.60613 41.9685 1.57047 41.9827C1.53982 41.9949 1.50977 42.0053 1.47971 42.0197C1.44376 42.0369 1.40898 42.0581 1.37391 42.0783C1.34503 42.0949 1.31616 42.1093 1.28787 42.1279C1.2525 42.1507 1.21831 42.178 1.18383 42.2039C1.15701 42.224 1.12962 42.2425 1.10368 42.2643C1.06921 42.2935 1.03591 42.3267 1.00231 42.3586C0.977853 42.3817 0.953103 42.4032 0.929233 42.428C0.895933 42.4629 0.864401 42.5018 0.832574 42.5394C0.810472 42.5656 0.787483 42.5901 0.76597 42.6176C0.734733 42.6579 0.70555 42.702 0.675786 42.7451C0.656042 42.7739 0.634841 42.8014 0.615981 42.8314C0.587102 42.8769 0.561157 42.9259 0.534341 42.9738C0.516659 43.0057 0.497808 43.0357 0.481011 43.0686C0.455373 43.1187 0.432676 43.1724 0.409101 43.225C0.393777 43.2593 0.376985 43.292 0.36284 43.3274C0.340443 43.3827 0.32098 43.4412 0.301236 43.499C0.288859 43.5349 0.274717 43.5692 0.263518 43.6063C0.244953 43.6662 0.229933 43.7294 0.21402 43.7918C0.204295 43.8296 0.193093 43.8656 0.184252 43.9043C0.169812 43.9696 0.159197 44.0377 0.147704 44.1053C0.14122 44.1437 0.132672 44.1807 0.127073 44.2197C0.117348 44.2902 0.111757 44.3638 0.105274 44.4365C0.102032 44.4752 0.0964256 44.5122 0.094068 44.5511C0.0896393 44.6251 0.0893788 44.7014 0.0891193 44.7774L0.0890678 44.7922C0.0890678 44.8276 0.08641 44.8614 0.0869994 44.897C0.0890622 45.0147 0.0958491 45.1346 0.107342 45.2563C0.654876 44.6993 1.2578 44.2063 1.79767 44.0579C1.88549 44.0325 1.97242 44.0108 2.05788 43.9922C2.09295 43.9846 2.12714 43.9797 2.1622 43.9732C2.21201 43.9639 2.26211 43.9533 2.31103 43.9462C2.34933 43.9405 2.38677 43.9378 2.42479 43.9334C2.46899 43.9282 2.51408 43.922 2.55769 43.9187C2.5963 43.9157 2.63401 43.9157 2.67232 43.9141C2.71417 43.9124 2.7563 43.9094 2.79756 43.9094C2.80846 43.9094 2.81937 43.9103 2.83028 43.9105C2.92428 43.9113 3.01682 43.9168 3.10788 43.9255C3.13381 43.928 3.15944 43.9304 3.18508 43.9334C3.2835 43.9451 3.38076 43.9601 3.47624 43.9808C3.4839 43.9824 3.49185 43.9849 3.49952 43.9865C3.58881 44.0064 3.67692 44.0309 3.76356 44.0582C3.78743 44.0655 3.81159 44.0731 3.83516 44.081C3.9274 44.1121 4.01905 44.1459 4.10893 44.1843C4.11394 44.1864 4.11837 44.1889 4.12309 44.1908C4.20973 44.2284 4.29489 44.2701 4.37947 44.3142C4.40157 44.3256 4.42366 44.3373 4.44605 44.3493C4.53358 44.397 4.62051 44.4466 4.70626 44.5005C4.70833 44.5016 4.71041 44.5032 4.71247 44.5043C4.79675 44.5577 4.88044 44.6146 4.96354 44.6734C4.98476 44.6887 5.00627 44.7037 5.02748 44.7192C5.11088 44.7802 5.19428 44.8428 5.27679 44.9085C5.15126 44.8499 5.02512 44.7963 4.89811 44.7486C4.89398 44.7472 4.89016 44.7459 4.88604 44.7443C4.76315 44.6985 4.63996 44.6582 4.51649 44.625C4.50883 44.623 4.50118 44.6214 4.49381 44.6192C4.37387 44.5876 4.25362 44.5623 4.13368 44.5446C4.12337 44.5432 4.11306 44.5422 4.10275 44.5408C3.98546 44.5247 3.86847 44.5157 3.75206 44.5149C3.72348 44.5146 3.69489 44.5155 3.6663 44.5163C3.63772 44.5171 3.60974 44.5176 3.58144 44.5195C3.54882 44.5217 3.51624 44.5253 3.4839 44.5288C3.45591 44.5318 3.42821 44.5345 3.40021 44.5383C3.3678 44.5432 3.33507 44.5498 3.30265 44.5558C3.27525 44.5612 3.24755 44.5656 3.22044 44.5721C3.18743 44.5797 3.15444 44.5895 3.12173 44.5988C3.09521 44.6062 3.06868 44.613 3.04216 44.6214C3.01115 44.6317 2.98014 44.6437 2.94936 44.6555L2.94167 44.6585C2.91632 44.668 2.89069 44.6767 2.86564 44.6873C2.83057 44.7023 2.7958 44.72 2.76103 44.7369C2.73775 44.7483 2.71475 44.7581 2.69176 44.7704C2.65227 44.7914 2.61367 44.8153 2.57507 44.8388C2.5565 44.8502 2.53794 44.8597 2.51967 44.8717C2.46279 44.9088 2.40592 44.9485 2.34993 44.9918C1.57784 45.5889 1.20712 47.1299 2.10209 48.4191C2.18549 47.9718 2.33697 47.4816 2.66437 46.9632C3.08165 46.3041 3.72053 45.8114 4.3547 45.6493C4.48083 45.6169 4.59929 45.5919 4.7154 45.5701C4.74959 45.5638 4.78319 45.5584 4.81649 45.5529C4.90371 45.5385 4.98887 45.5268 5.07227 45.5183C5.10115 45.5153 5.13033 45.5115 5.15891 45.5093C5.26559 45.5006 5.37051 45.496 5.47454 45.4963C5.59595 45.4965 5.71707 45.5025 5.83995 45.5145C7.53648 47.3457 8.65158 49.204 9.36531 50.905C8.83343 51.5222 8.29003 52.1276 7.7294 52.7192L7.7674 52.794C11.8249 51.4219 17.0836 50.2376 18.7262 49.8836Z" fill="black"/>
</svg>
