<svg width="356" height="153" viewBox="0 0 356 153" fill="none" xmlns="http://www.w3.org/2000/svg">
<path fill-rule="evenodd" clip-rule="evenodd" d="M0.378906 0.154297L355.876 0.154297L355.876 68.8561C355.742 68.8512 355.607 68.8488 355.471 68.8488C349.382 68.8488 344.446 73.7849 344.446 79.8739C344.446 85.9628 349.382 90.8989 355.471 90.8989C355.607 90.8989 355.742 90.8965 355.876 90.8916V152.809H0.378906L0.378906 90.7001C5.4681 89.7232 9.31323 85.2472 9.31323 79.873C9.31323 74.4989 5.4681 70.0228 0.378906 69.0459L0.378906 0.154297Z" fill="#A5D1FA"/>
<rect x="29.6533" y="78.9238" width="108.043" height="50.8849" fill="black"/>
<path d="M76.3263 108.092C76.3263 109.403 75.9805 110.619 75.289 111.74C74.6213 112.837 73.6198 113.743 72.2844 114.459C70.9728 115.15 69.4109 115.532 67.5986 115.603V118.501H65.3094V115.568C62.7817 115.353 60.7428 114.602 59.1928 113.314C57.6428 112.003 56.8201 110.226 56.7248 107.984H63.2348C63.3778 109.415 64.0694 110.333 65.3094 110.739V105.087C63.4494 104.61 61.959 104.145 60.8382 103.692C59.7413 103.239 58.7755 102.512 57.9409 101.51C57.1063 100.509 56.689 99.1375 56.689 97.3967C56.689 95.2267 57.4878 93.486 59.0855 92.1744C60.7071 90.8629 62.7817 90.1237 65.3094 89.9567V87.0594H67.5986V89.9567C70.1025 90.1475 72.0817 90.8748 73.5363 92.1387C74.9909 93.4025 75.8017 95.1552 75.9686 97.3967L69.4228 97.3967C69.2798 96.109 68.6717 95.2744 67.5986 94.8929V100.437C69.5778 100.986 71.104 101.474 72.1771 101.904C73.2501 102.333 74.204 103.048 75.0386 104.05C75.8971 105.028 76.3263 106.375 76.3263 108.092ZM63.1632 97.1106C63.1632 97.7067 63.3421 98.2075 63.6998 98.6129C64.0813 99.0183 64.6178 99.376 65.3094 99.686V94.714C64.6417 94.8333 64.1171 95.0956 63.7355 95.501C63.354 95.8825 63.1632 96.419 63.1632 97.1106ZM67.5986 110.846C68.314 110.727 68.8744 110.441 69.2798 109.988C69.709 109.534 69.9236 108.974 69.9236 108.306C69.9236 107.686 69.7209 107.186 69.3155 106.804C68.934 106.399 68.3617 106.053 67.5986 105.767V110.846ZM80.4113 110.488C81.222 109.844 81.5916 109.546 81.5201 109.594C83.857 107.663 85.6932 106.077 87.0286 104.837C88.3878 103.597 89.5324 102.297 90.4624 100.938C91.3924 99.5787 91.8574 98.2552 91.8574 96.9675C91.8574 95.9898 91.6309 95.2267 91.1778 94.6783C90.7247 94.1298 90.0451 93.8556 89.139 93.8556C88.2328 93.8556 87.5174 94.2013 86.9928 94.8929C86.492 95.5606 86.2417 96.5144 86.2417 97.7544H80.3397C80.3874 95.7275 80.8166 94.0344 81.6274 92.6752C82.462 91.316 83.547 90.3144 84.8824 89.6706C86.2417 89.0267 87.744 88.7048 89.3893 88.7048C92.227 88.7048 94.3613 89.4321 95.792 90.8867C97.2467 92.3413 97.974 94.2371 97.974 96.574C97.974 99.1256 97.1036 101.498 95.3628 103.692C93.622 105.862 91.4043 107.984 88.7097 110.059H98.3674V115.031H80.4113V110.488ZM100.774 94.9644V89.2771H110.682V115.389H104.315V94.9644H100.774Z" fill="#A5D1FA"/>
<rect x="308.454" y="129.912" width="20.354" height="20.354" rx="0.686089" fill="black"/>
<path d="M317.028 142.268H315.066V136.744H313.984V135.003H318.152V136.744H317.028V142.268ZM323.784 142.268H321.606L321.243 141.232C321.127 140.916 321.033 140.611 320.961 140.32C320.892 140.608 320.789 140.939 320.651 141.312L320.288 142.268H318.152L319.917 138.499L318.251 135.003H320.434L320.759 135.986C320.793 136.077 320.826 136.184 320.858 136.306C320.892 136.429 320.927 136.567 320.961 136.72C321.039 136.407 321.105 136.165 321.159 135.996L321.46 135.003H323.657L322.001 138.499L323.784 142.268Z" fill="#A5D1FA"/>
<path d="M162.254 105.479H158.489L157.917 107.211H154.815L158.685 96.5947H162.088L165.943 107.211H162.826L162.254 105.479ZM161.516 103.22L160.372 99.7871L159.242 103.22H161.516ZM170.007 104.952H173.305V107.211H167.056V96.5947H170.007V104.952ZM189.556 96.5947L186.951 107.211H183.322L181.861 100.706L180.371 107.211H176.741L174.166 96.5947H177.359L178.594 103.853L180.265 96.5947H183.503L185.129 103.793L186.364 96.5947H189.556ZM197.675 105.479H193.911L193.338 107.211H190.236L194.106 96.5947H197.51L201.365 107.211H198.247L197.675 105.479ZM196.937 103.22L195.793 99.7871L194.664 103.22H196.937ZM212.13 96.5947L208.395 103.838V107.211H205.429V103.838L201.694 96.5947H205.067L206.934 100.691L208.802 96.5947H212.13ZM217.192 107.316C215.957 107.316 214.943 107.025 214.15 106.443C213.357 105.851 212.93 105.007 212.87 103.913H216.017C216.047 104.285 216.158 104.556 216.349 104.726C216.539 104.897 216.785 104.982 217.086 104.982C217.357 104.982 217.578 104.917 217.749 104.787C217.93 104.646 218.02 104.455 218.02 104.214C218.02 103.903 217.874 103.662 217.583 103.492C217.292 103.321 216.82 103.13 216.168 102.919C215.475 102.688 214.913 102.468 214.481 102.257C214.06 102.036 213.688 101.72 213.367 101.308C213.056 100.886 212.9 100.339 212.9 99.6667C212.9 98.984 213.071 98.4018 213.412 97.9199C213.753 97.428 214.225 97.0565 214.828 96.8056C215.43 96.5546 216.113 96.4291 216.876 96.4291C218.11 96.4291 219.094 96.7202 219.827 97.3025C220.57 97.8747 220.966 98.6828 221.017 99.7269H217.809C217.799 99.4056 217.699 99.1647 217.508 99.0041C217.327 98.8435 217.091 98.7632 216.8 98.7632C216.579 98.7632 216.399 98.8284 216.258 98.9589C216.118 99.0894 216.047 99.2751 216.047 99.5161C216.047 99.7169 216.123 99.8925 216.273 100.043C216.434 100.184 216.63 100.309 216.861 100.42C217.091 100.52 217.433 100.65 217.884 100.811C218.557 101.042 219.109 101.273 219.541 101.504C219.983 101.725 220.359 102.041 220.67 102.452C220.992 102.854 221.152 103.366 221.152 103.988C221.152 104.621 220.992 105.188 220.67 105.69C220.359 106.192 219.902 106.589 219.3 106.88C218.708 107.171 218.005 107.316 217.192 107.316ZM232.424 105.479H228.659L228.087 107.211H224.985L228.855 96.5947H232.258L236.113 107.211H232.996L232.424 105.479ZM231.686 103.22L230.541 99.7871L229.412 103.22H231.686ZM247.556 96.5947L243.897 107.211H240.117L236.443 96.5947H239.605L242.014 104.259L244.408 96.5947H247.556ZM255.342 105.479H251.577L251.005 107.211H247.903L251.773 96.5947H255.176L259.031 107.211H255.914L255.342 105.479ZM254.604 103.22L253.46 99.7871L252.33 103.22H254.604ZM263.095 96.5947V107.211H260.144V96.5947H263.095ZM267.878 104.952H271.176V107.211H264.927V96.5947H267.878V104.952ZM279.19 105.479H275.426L274.853 107.211H271.751L275.621 96.5947H279.025L282.879 107.211H279.762L279.19 105.479ZM278.452 103.22L277.308 99.7871L276.178 103.22H278.452ZM290.768 101.76C291.391 101.9 291.883 102.212 292.244 102.693C292.616 103.165 292.801 103.707 292.801 104.32C292.801 105.223 292.49 105.931 291.868 106.443C291.245 106.955 290.372 107.211 289.247 107.211H283.992V96.5947H289.082C290.166 96.5947 291.014 96.8357 291.627 97.3175C292.249 97.7994 292.56 98.477 292.56 99.3504C292.56 99.9729 292.395 100.495 292.063 100.917C291.742 101.328 291.31 101.609 290.768 101.76ZM286.944 100.811H288.434C289.177 100.811 289.549 100.505 289.549 99.8925C289.549 99.2601 289.177 98.9439 288.434 98.9439H286.944V100.811ZM288.66 104.832C289.403 104.832 289.774 104.52 289.774 103.898C289.774 103.577 289.674 103.331 289.473 103.16C289.283 102.99 289.007 102.904 288.645 102.904H286.944V104.832H288.66ZM297.197 104.952H300.495V107.211H294.245V96.5947H297.197V104.952ZM304.744 98.9589V100.691H308.132V102.934H304.744V104.847H308.584V107.211H301.793V96.5947H308.584V98.9589H304.744Z" fill="black"/>
<path d="M61.8753 60.4706C59.4057 60.4706 57.3778 59.8883 55.7917 58.7238C54.2055 57.5392 53.3522 55.8527 53.2317 53.6642H59.5262C59.5864 54.4071 59.8073 54.9492 60.1887 55.2905C60.5702 55.6318 61.0621 55.8025 61.6645 55.8025C62.2066 55.8025 62.6483 55.672 62.9896 55.4109C63.351 55.1299 63.5317 54.7484 63.5317 54.2665C63.5317 53.6441 63.2406 53.1622 62.6583 52.8209C62.0761 52.4796 61.1324 52.0981 59.8273 51.6765C58.442 51.2147 57.3176 50.773 56.4542 50.3513C55.611 49.9096 54.8681 49.2771 54.2256 48.454C53.6032 47.6107 53.292 46.5164 53.292 45.1712C53.292 43.8059 53.6333 42.6414 54.3159 41.6777C54.9986 40.6938 55.9423 39.951 57.1469 39.449C58.3516 38.9471 59.7169 38.6961 61.2428 38.6961C63.7124 38.6961 65.68 39.2784 67.1457 40.4429C68.6315 41.5873 69.4246 43.2036 69.525 45.2917H63.1101C63.09 44.6492 62.8892 44.1673 62.5077 43.8461C62.1463 43.5248 61.6745 43.3642 61.0922 43.3642C60.6505 43.3642 60.2891 43.4947 60.008 43.7557C59.7269 44.0167 59.5864 44.3882 59.5864 44.87C59.5864 45.2716 59.737 45.623 60.0382 45.9241C60.3594 46.2052 60.7509 46.4562 61.2127 46.6771C61.6745 46.8778 62.3571 47.1389 63.2607 47.4601C64.6059 47.9219 65.7102 48.3837 66.5735 48.8455C67.4569 49.2872 68.2099 49.9196 68.8323 50.7428C69.4748 51.546 69.796 52.5699 69.796 53.8148C69.796 55.0797 69.4748 56.2141 68.8323 57.218C68.2099 58.2219 67.2963 59.0149 66.0916 59.5972C64.907 60.1795 63.5016 60.4706 61.8753 60.4706ZM86.2735 56.7963H78.7442L77.5998 60.2598H71.3957L79.1358 39.0274H85.9422L93.6521 60.2598H87.4179L86.2735 56.7963ZM84.7977 52.2788L82.5089 45.4122L80.2501 52.2788H84.7977ZM101.78 55.7422H108.376V60.2598H95.8772V39.0274H101.78V55.7422ZM131.632 39.0274L124.314 60.2598H116.755L109.406 39.0274H115.731L120.549 54.3569L125.338 39.0274H131.632ZM147.205 56.7963H139.676L138.531 60.2598H132.327L140.067 39.0274H146.874L154.583 60.2598H148.349L147.205 56.7963ZM145.729 52.2788L143.44 45.4122L141.181 52.2788H145.729ZM165.211 39.0274C167.44 39.0274 169.387 39.4791 171.054 40.3826C172.74 41.2661 174.035 42.5109 174.939 44.1171C175.842 45.7234 176.294 47.5605 176.294 49.6285C176.294 51.6765 175.832 53.5035 174.909 55.1098C174.005 56.716 172.71 57.9809 171.024 58.9045C169.357 59.808 167.42 60.2598 165.211 60.2598H156.809V39.0274H165.211ZM164.759 55.0495C166.486 55.0495 167.841 54.5777 168.825 53.6341C169.809 52.6904 170.301 51.3552 170.301 49.6285C170.301 47.8817 169.809 46.5365 168.825 45.5929C167.841 44.6291 166.486 44.1472 164.759 44.1472H162.711V55.0495H164.759ZM189.436 60.4706C187.448 60.4706 185.621 60.0088 183.954 59.0852C182.288 58.1415 180.963 56.8465 179.979 55.2001C179.015 53.5337 178.533 51.6564 178.533 49.5683C178.533 47.4802 179.015 45.6129 179.979 43.9665C180.963 42.3001 182.288 41.0051 183.954 40.0815C185.621 39.1579 187.448 38.6961 189.436 38.6961C191.443 38.6961 193.271 39.1579 194.917 40.0815C196.583 41.0051 197.899 42.3001 198.862 43.9665C199.826 45.6129 200.308 47.4802 200.308 49.5683C200.308 51.6564 199.826 53.5337 198.862 55.2001C197.899 56.8465 196.583 58.1415 194.917 59.0852C193.251 60.0088 191.423 60.4706 189.436 60.4706ZM189.436 54.9893C190.942 54.9893 192.126 54.4974 192.989 53.5136C193.873 52.5298 194.315 51.2147 194.315 49.5683C194.315 47.8817 193.873 46.5566 192.989 45.5929C192.126 44.609 190.942 44.1171 189.436 44.1171C187.91 44.1171 186.715 44.609 185.852 45.5929C184.988 46.5566 184.557 47.8817 184.557 49.5683C184.557 51.2347 184.988 52.5599 185.852 53.5437C186.715 54.5074 187.91 54.9893 189.436 54.9893ZM214.014 60.2598L209.798 52.4294H209.166V60.2598H203.263V39.0274H212.569C214.275 39.0274 215.721 39.3285 216.906 39.9309C218.09 40.5131 218.984 41.3263 219.586 42.3703C220.188 43.3943 220.489 44.5488 220.489 45.8338C220.489 47.2794 220.088 48.5543 219.285 49.6586C218.502 50.7428 217.347 51.5158 215.821 51.9776L220.61 60.2598H214.014ZM209.166 48.3937H212.087C212.89 48.3937 213.492 48.203 213.894 47.8215C214.295 47.44 214.496 46.8879 214.496 46.1651C214.496 45.4824 214.285 44.9504 213.864 44.5689C213.462 44.1673 212.87 43.9665 212.087 43.9665H209.166V48.3937ZM229.378 43.7557V47.2192H236.154V51.7066H229.378V55.5314H237.058V60.2598H223.475V39.0274H237.058V43.7557H229.378ZM259.942 60.2598H254.039L246.179 48.3937V60.2598H240.276V39.0274H246.179L254.039 51.044V39.0274L259.942 39.0274V60.2598ZM243.559 37.6721C244.121 34.3994 245.627 32.7631 248.076 32.7631C248.538 32.7631 248.949 32.8333 249.311 32.9739C249.692 33.1144 250.124 33.3152 250.606 33.5762C250.947 33.7569 251.238 33.8975 251.479 33.9979C251.72 34.0983 251.961 34.1484 252.202 34.1484C252.945 34.1484 253.387 33.6867 253.527 32.7631H256.509C256.228 34.4697 255.696 35.7145 254.913 36.4976C254.15 37.2605 253.176 37.642 251.991 37.642C251.55 37.642 251.148 37.5818 250.787 37.4613C250.425 37.3208 249.983 37.12 249.461 36.859C249.12 36.6783 248.829 36.5377 248.588 36.4373C248.347 36.3369 248.106 36.2867 247.865 36.2867C247.142 36.2867 246.691 36.7485 246.51 37.6721H243.559ZM273.785 60.4706C271.798 60.4706 269.97 60.0088 268.304 59.0852C266.638 58.1415 265.312 56.8465 264.329 55.2001C263.365 53.5337 262.883 51.6564 262.883 49.5683C262.883 47.4802 263.365 45.6129 264.329 43.9665C265.312 42.3001 266.638 41.0051 268.304 40.0815C269.97 39.1579 271.798 38.6961 273.785 38.6961C275.793 38.6961 277.62 39.1579 279.267 40.0815C280.933 41.0051 282.248 42.3001 283.212 43.9665C284.176 45.6129 284.657 47.4802 284.657 49.5683C284.657 51.6564 284.176 53.5337 283.212 55.2001C282.248 56.8465 280.933 58.1415 279.267 59.0852C277.6 60.0088 275.773 60.4706 273.785 60.4706ZM273.785 54.9893C275.291 54.9893 276.476 54.4974 277.339 53.5136C278.222 52.5298 278.664 51.2147 278.664 49.5683C278.664 47.8817 278.222 46.5566 277.339 45.5929C276.476 44.609 275.291 44.1171 273.785 44.1171C272.259 44.1171 271.065 44.609 270.201 45.5929C269.338 46.5566 268.906 47.8817 268.906 49.5683C268.906 51.2347 269.338 52.5599 270.201 53.5437C271.065 54.5074 272.259 54.9893 273.785 54.9893ZM295.623 60.4706C293.154 60.4706 291.126 59.8883 289.54 58.7238C287.954 57.5392 287.1 55.8527 286.98 53.6642H293.274C293.334 54.4071 293.555 54.9492 293.937 55.2905C294.318 55.6318 294.81 55.8025 295.412 55.8025C295.955 55.8025 296.396 55.672 296.738 55.4109C297.099 55.1299 297.28 54.7484 297.28 54.2665C297.28 53.6441 296.989 53.1622 296.406 52.8209C295.824 52.4796 294.88 52.0981 293.575 51.6765C292.19 51.2147 291.066 50.773 290.202 50.3513C289.359 49.9096 288.616 49.2771 287.974 48.454C287.351 47.6107 287.04 46.5164 287.04 45.1712C287.04 43.8059 287.381 42.6414 288.064 41.6777C288.747 40.6938 289.69 39.951 290.895 39.449C292.1 38.9471 293.465 38.6961 294.991 38.6961C297.46 38.6961 299.428 39.2784 300.894 40.4429C302.379 41.5873 303.173 43.2036 303.273 45.2917H296.858C296.838 44.6492 296.637 44.1673 296.256 43.8461C295.894 43.5248 295.422 43.3642 294.84 43.3642C294.399 43.3642 294.037 43.4947 293.756 43.7557C293.475 44.0167 293.334 44.3882 293.334 44.87C293.334 45.2716 293.485 45.623 293.786 45.9241C294.107 46.2052 294.499 46.4562 294.961 46.6771C295.422 46.8778 296.105 47.1389 297.009 47.4601C298.354 47.9219 299.458 48.3837 300.322 48.8455C301.205 49.2872 301.958 49.9196 302.58 50.7428C303.223 51.546 303.544 52.5699 303.544 53.8148C303.544 55.0797 303.223 56.2141 302.58 57.218C301.958 58.2219 301.044 59.0149 299.84 59.5972C298.655 60.1795 297.25 60.4706 295.623 60.4706Z" fill="black"/>
<path d="M91.3764 20.0348H88.634L88.1628 21.373H87.0413L89.3879 14.8138H90.6319L92.9785 21.373H91.8476L91.3764 20.0348ZM91.0749 19.1584L90.0099 16.1144L88.9356 19.1584H91.0749ZM99.6251 14.8232C100.322 14.8232 100.932 14.9583 101.453 15.2285C101.981 15.4924 102.386 15.8756 102.669 16.3782C102.958 16.8746 103.103 17.4557 103.103 18.1217C103.103 18.7877 102.958 19.3657 102.669 19.8558C102.386 20.3458 101.981 20.7228 101.453 20.9867C100.932 21.2442 100.322 21.373 99.6251 21.373H97.4858V14.8232H99.6251ZM99.6251 20.4966C100.392 20.4966 100.979 20.2893 101.387 19.8746C101.796 19.4599 102 18.8756 102 18.1217C102 17.3615 101.796 16.7678 101.387 16.3405C100.979 15.9133 100.392 15.6997 99.6251 15.6997H98.5602V20.4966H99.6251ZM110.642 21.439C110.032 21.439 109.47 21.2977 108.955 21.0149C108.446 20.7259 108.041 20.327 107.739 19.8181C107.444 19.3029 107.296 18.7249 107.296 18.084C107.296 17.4432 107.444 16.8683 107.739 16.3594C108.041 15.8505 108.446 15.4547 108.955 15.1719C109.47 14.8829 110.032 14.7384 110.642 14.7384C111.258 14.7384 111.82 14.8829 112.329 15.1719C112.844 15.4547 113.249 15.8505 113.544 16.3594C113.84 16.8683 113.987 17.4432 113.987 18.084C113.987 18.7249 113.84 19.3029 113.544 19.8181C113.249 20.327 112.844 20.7259 112.329 21.0149C111.82 21.2977 111.258 21.439 110.642 21.439ZM110.642 20.506C111.075 20.506 111.462 20.4086 111.801 20.2139C112.14 20.0128 112.404 19.7301 112.593 19.3657C112.787 18.995 112.885 18.5678 112.885 18.084C112.885 17.6002 112.787 17.1761 112.593 16.8117C112.404 16.4473 112.14 16.1678 111.801 15.973C111.462 15.7782 111.075 15.6808 110.642 15.6808C110.208 15.6808 109.822 15.7782 109.483 15.973C109.143 16.1678 108.876 16.4473 108.682 16.8117C108.493 17.1761 108.399 17.6002 108.399 18.084C108.399 18.5678 108.493 18.995 108.682 19.3657C108.876 19.7301 109.143 20.0128 109.483 20.2139C109.822 20.4086 110.208 20.506 110.642 20.506ZM123.112 16.7741C123.112 17.107 123.033 17.4212 122.876 17.7165C122.719 18.0118 122.468 18.2536 122.122 18.4421C121.777 18.6243 121.334 18.7154 120.793 18.7154H119.606V21.373H118.532V14.8232H120.793C121.296 14.8232 121.72 14.9112 122.066 15.0871C122.417 15.2568 122.678 15.4892 122.848 15.7845C123.024 16.0798 123.112 16.4096 123.112 16.7741ZM120.793 17.839C121.202 17.839 121.506 17.7479 121.707 17.5657C121.909 17.3772 122.009 17.1133 122.009 16.7741C122.009 16.0578 121.604 15.6997 120.793 15.6997H119.606V17.839H120.793ZM131.855 14.8232V15.6997H130.111V21.373H129.037V15.6997H127.284V14.8232H131.855ZM137.504 14.8232V21.373H136.43V14.8232H137.504ZM147.783 21.373H146.708L143.476 16.4819V21.373H142.402V14.8138H143.476L146.708 19.6955V14.8138H147.783V21.373ZM157.421 16.7081C157.251 16.3814 157.016 16.1363 156.714 15.973C156.412 15.8034 156.064 15.7185 155.668 15.7185C155.234 15.7185 154.848 15.8159 154.509 16.0107C154.17 16.2055 153.903 16.4819 153.708 16.84C153.519 17.1981 153.425 17.6128 153.425 18.084C153.425 18.5552 153.519 18.973 153.708 19.3374C153.903 19.6955 154.17 19.972 154.509 20.1668C154.848 20.3615 155.234 20.4589 155.668 20.4589C156.252 20.4589 156.727 20.2955 157.091 19.9688C157.455 19.6421 157.678 19.1992 157.76 18.64H155.3V17.7824H158.91V18.6212C158.841 19.1301 158.659 19.5982 158.363 20.0254C158.074 20.4526 157.694 20.795 157.223 21.0526C156.758 21.3039 156.24 21.4296 155.668 21.4296C155.052 21.4296 154.49 21.2882 153.981 21.0055C153.472 20.7165 153.067 20.3175 152.765 19.8086C152.47 19.2997 152.322 18.7249 152.322 18.084C152.322 17.4432 152.47 16.8683 152.765 16.3594C153.067 15.8505 153.472 15.4547 153.981 15.1719C154.496 14.8829 155.059 14.7384 155.668 14.7384C156.365 14.7384 156.984 14.9112 157.525 15.2568C158.071 15.596 158.467 16.0798 158.712 16.7081H157.421ZM172.897 18.0086C173.249 18.0714 173.548 18.2568 173.793 18.5646C174.038 18.8725 174.16 19.2212 174.16 19.6107C174.16 19.9437 174.072 20.2453 173.896 20.5154C173.727 20.7793 173.478 20.9898 173.152 21.1469C172.825 21.2977 172.445 21.373 172.011 21.373H169.391V14.8232H171.889C172.335 14.8232 172.718 14.8986 173.039 15.0494C173.359 15.2002 173.601 15.4044 173.764 15.662C173.928 15.9133 174.009 16.196 174.009 16.5102C174.009 16.8871 173.909 17.2013 173.708 17.4526C173.507 17.7039 173.237 17.8892 172.897 18.0086ZM170.466 17.5751H171.795C172.146 17.5751 172.42 17.4966 172.615 17.3395C172.816 17.1761 172.916 16.9437 172.916 16.6421C172.916 16.3468 172.816 16.1175 172.615 15.9541C172.42 15.7845 172.146 15.6997 171.795 15.6997H170.466V17.5751ZM171.917 20.4966C172.282 20.4966 172.567 20.4086 172.775 20.2327C172.982 20.0568 173.086 19.8118 173.086 19.4976C173.086 19.1772 172.976 18.9228 172.756 18.7343C172.536 18.5458 172.244 18.4516 171.879 18.4516H170.466V20.4966H171.917ZM179.889 14.8232V21.373H178.815V14.8232H179.889ZM189.018 14.8232V15.6997H187.274V21.373H186.2V15.6997H184.447V14.8232H189.018ZM193.235 18.084C193.235 17.4432 193.382 16.8683 193.678 16.3594C193.979 15.8505 194.384 15.4547 194.893 15.1719C195.409 14.8829 195.971 14.7384 196.58 14.7384C197.278 14.7384 197.897 14.9112 198.437 15.2568C198.983 15.596 199.379 16.0798 199.624 16.7081H198.333C198.164 16.3625 197.928 16.1049 197.626 15.9353C197.325 15.7657 196.976 15.6808 196.58 15.6808C196.147 15.6808 195.76 15.7782 195.421 15.973C195.082 16.1678 194.815 16.4473 194.62 16.8117C194.432 17.1761 194.337 17.6002 194.337 18.084C194.337 18.5678 194.432 18.9919 194.62 19.3563C194.815 19.7207 195.082 20.0034 195.421 20.2044C195.76 20.3992 196.147 20.4966 196.58 20.4966C196.976 20.4966 197.325 20.4118 197.626 20.2421C197.928 20.0725 198.164 19.8149 198.333 19.4694H199.624C199.379 20.0976 198.983 20.5814 198.437 20.9207C197.897 21.26 197.278 21.4296 196.58 21.4296C195.965 21.4296 195.402 21.2882 194.893 21.0055C194.384 20.7165 193.979 20.3175 193.678 19.8086C193.382 19.2997 193.235 18.7249 193.235 18.084ZM207.356 21.439C206.747 21.439 206.185 21.2977 205.669 21.0149C205.16 20.7259 204.755 20.327 204.454 19.8181C204.158 19.3029 204.011 18.7249 204.011 18.084C204.011 17.4432 204.158 16.8683 204.454 16.3594C204.755 15.8505 205.16 15.4547 205.669 15.1719C206.185 14.8829 206.747 14.7384 207.356 14.7384C207.972 14.7384 208.534 14.8829 209.043 15.1719C209.558 15.4547 209.964 15.8505 210.259 16.3594C210.554 16.8683 210.702 17.4432 210.702 18.084C210.702 18.7249 210.554 19.3029 210.259 19.8181C209.964 20.327 209.558 20.7259 209.043 21.0149C208.534 21.2977 207.972 21.439 207.356 21.439ZM207.356 20.506C207.79 20.506 208.176 20.4086 208.515 20.2139C208.855 20.0128 209.119 19.7301 209.307 19.3657C209.502 18.995 209.599 18.5678 209.599 18.084C209.599 17.6002 209.502 17.1761 209.307 16.8117C209.119 16.4473 208.855 16.1678 208.515 15.973C208.176 15.7782 207.79 15.6808 207.356 15.6808C206.923 15.6808 206.536 15.7782 206.197 15.973C205.858 16.1678 205.591 16.4473 205.396 16.8117C205.208 17.1761 205.113 17.6002 205.113 18.084C205.113 18.5678 205.208 18.995 205.396 19.3657C205.591 19.7301 205.858 20.0128 206.197 20.2139C206.536 20.4086 206.923 20.506 207.356 20.506ZM216.32 14.8232V21.373H215.246V14.8232H216.32ZM226.599 21.373H225.525L222.292 16.4819V21.373H221.218V14.8138H222.292L225.525 19.6955V14.8138H226.599V21.373ZM237.884 19.9123C238.487 19.3908 238.962 18.9636 239.307 18.6306C239.659 18.2913 239.951 17.9395 240.184 17.5751C240.416 17.2107 240.532 16.8463 240.532 16.4819C240.532 16.1049 240.441 15.8096 240.259 15.596C240.083 15.3824 239.804 15.2756 239.42 15.2756C239.05 15.2756 238.761 15.395 238.553 15.6337C238.352 15.8662 238.245 16.1803 238.233 16.5761H237.196C237.215 15.8599 237.429 15.3133 237.837 14.9363C238.252 14.5531 238.776 14.3615 239.411 14.3615C240.096 14.3615 240.63 14.5499 241.013 14.9269C241.402 15.3039 241.597 15.8065 241.597 16.4348C241.597 16.8871 241.481 17.3238 241.249 17.7447C241.022 18.1594 240.749 18.5332 240.429 18.8662C240.115 19.1929 239.712 19.573 239.222 20.0065L238.798 20.3835H241.786V21.2788H237.206V20.4966L237.884 19.9123ZM246.217 17.8484C246.217 16.7615 246.399 15.9133 246.763 15.3039C247.134 14.6882 247.768 14.3803 248.667 14.3803C249.565 14.3803 250.197 14.6882 250.561 15.3039C250.932 15.9133 251.117 16.7615 251.117 17.8484C251.117 18.9479 250.932 19.8086 250.561 20.4306C250.197 21.0463 249.565 21.3542 248.667 21.3542C247.768 21.3542 247.134 21.0463 246.763 20.4306C246.399 19.8086 246.217 18.9479 246.217 17.8484ZM250.062 17.8484C250.062 17.3395 250.027 16.9091 249.958 16.5573C249.895 16.2055 249.763 15.9196 249.562 15.6997C249.361 15.4735 249.063 15.3604 248.667 15.3604C248.271 15.3604 247.973 15.4735 247.772 15.6997C247.57 15.9196 247.435 16.2055 247.366 16.5573C247.303 16.9091 247.272 17.3395 247.272 17.8484C247.272 18.3762 247.303 18.8191 247.366 19.1772C247.429 19.5353 247.561 19.8243 247.762 20.0442C247.969 20.2641 248.271 20.3741 248.667 20.3741C249.063 20.3741 249.361 20.2641 249.562 20.0442C249.769 19.8243 249.905 19.5353 249.967 19.1772C250.03 18.8191 250.062 18.3762 250.062 17.8484ZM256.335 19.9123C256.938 19.3908 257.412 18.9636 257.758 18.6306C258.109 18.2913 258.402 17.9395 258.634 17.5751C258.867 17.2107 258.983 16.8463 258.983 16.4819C258.983 16.1049 258.892 15.8096 258.709 15.596C258.534 15.3824 258.254 15.2756 257.871 15.2756C257.5 15.2756 257.211 15.395 257.004 15.6337C256.803 15.8662 256.696 16.1803 256.683 16.5761H255.647C255.665 15.8599 255.879 15.3133 256.287 14.9363C256.702 14.5531 257.227 14.3615 257.861 14.3615C258.546 14.3615 259.08 14.5499 259.463 14.9269C259.853 15.3039 260.048 15.8065 260.048 16.4348C260.048 16.8871 259.931 17.3238 259.699 17.7447C259.473 18.1594 259.199 18.5332 258.879 18.8662C258.565 19.1929 258.163 19.573 257.673 20.0065L257.249 20.3835L260.236 20.3835V21.2788H255.656V20.4966L256.335 19.9123ZM264.648 16.1992C264.686 15.6149 264.909 15.1594 265.317 14.8327C265.732 14.506 266.26 14.3426 266.9 14.3426C267.34 14.3426 267.72 14.4211 268.041 14.5782C268.361 14.7353 268.603 14.9489 268.766 15.2191C268.93 15.4892 269.011 15.7939 269.011 16.1332C269.011 16.5227 268.908 16.8557 268.7 17.1322C268.493 17.4086 268.245 17.594 267.956 17.6882V17.7259C268.327 17.839 268.616 18.0463 268.823 18.3479C269.03 18.6432 269.134 19.0233 269.134 19.4882C269.134 19.8589 269.049 20.1887 268.88 20.4778C268.71 20.7668 268.459 20.9961 268.126 21.1657C267.793 21.3291 267.394 21.4107 266.929 21.4107C266.25 21.4107 265.691 21.238 265.251 20.8924C264.818 20.5406 264.585 20.038 264.554 19.3845H265.59C265.616 19.7175 265.744 19.9908 265.977 20.2044C266.209 20.4118 266.523 20.5154 266.919 20.5154C267.303 20.5154 267.598 20.4118 267.805 20.2044C268.012 19.9908 268.116 19.7175 268.116 19.3845C268.116 18.9448 267.975 18.6338 267.692 18.4516C267.416 18.2631 266.988 18.1688 266.41 18.1688H266.165V17.283H266.42C266.929 17.2767 267.315 17.1919 267.579 17.0285C267.849 16.8652 267.984 16.6076 267.984 16.2557C267.984 15.9541 267.887 15.7154 267.692 15.5395C267.497 15.3573 267.221 15.2662 266.863 15.2662C266.511 15.2662 266.238 15.3573 266.043 15.5395C265.848 15.7154 265.732 15.9353 265.694 16.1992H264.648Z" fill="black"/>
<path d="M81.1202 137.14C81.1202 137.529 81.0286 137.895 80.8454 138.239C80.6622 138.584 80.3691 138.866 79.9661 139.086C79.5631 139.298 79.0465 139.404 78.4163 139.404H77.0315V142.504H75.7785V134.865H78.4163C79.0025 134.865 79.4971 134.968 79.9002 135.173C80.3105 135.371 80.6146 135.642 80.8124 135.986C81.0176 136.331 81.1202 136.715 81.1202 137.14ZM78.4163 138.382C78.8926 138.382 79.248 138.276 79.4825 138.063C79.717 137.844 79.8342 137.536 79.8342 137.14C79.8342 136.305 79.3616 135.887 78.4163 135.887H77.0315V138.382H78.4163ZM88.789 140.943H85.5906L85.041 142.504H83.7331L86.4699 134.854H87.9207L90.6575 142.504H89.3385L88.789 140.943ZM88.4373 139.921L87.1953 136.371L85.9423 139.921H88.4373ZM99.3764 134.865L96.8484 139.734V142.504H95.5954V139.734L93.0565 134.865H94.4523L96.2219 138.613L97.9915 134.865H99.3764ZM106.845 140.943H103.646L103.097 142.504H101.789L104.525 134.854H105.976L108.713 142.504H107.394L106.845 140.943ZM106.493 139.921L105.251 136.371L103.998 139.921H106.493ZM115.86 138.58C116.271 138.653 116.619 138.87 116.904 139.229C117.19 139.588 117.333 139.994 117.333 140.449C117.333 140.837 117.23 141.189 117.025 141.504C116.827 141.811 116.538 142.057 116.157 142.24C115.776 142.416 115.333 142.504 114.827 142.504H111.771V134.865H114.684C115.204 134.865 115.651 134.953 116.025 135.129C116.399 135.305 116.681 135.543 116.871 135.843C117.062 136.136 117.157 136.466 117.157 136.832C117.157 137.272 117.04 137.638 116.805 137.932C116.571 138.225 116.256 138.441 115.86 138.58ZM113.024 138.074H114.574C114.985 138.074 115.303 137.983 115.53 137.8C115.765 137.609 115.882 137.338 115.882 136.986C115.882 136.642 115.765 136.375 115.53 136.184C115.303 135.986 114.985 135.887 114.574 135.887H113.024V138.074ZM114.717 141.482C115.142 141.482 115.475 141.379 115.717 141.174C115.959 140.969 116.08 140.683 116.08 140.317C116.08 139.943 115.952 139.646 115.695 139.426C115.439 139.207 115.098 139.097 114.673 139.097H113.024V141.482H114.717ZM121.816 141.493H124.399V142.504H120.563V134.865H121.816V141.493ZM128.568 135.876V138.118H131.206V139.141H128.568V141.482H131.536V142.504H127.315V134.854H131.536V135.876H128.568ZM149.618 134.865L147.354 142.504H145.936L144.332 136.723L142.628 142.504L141.221 142.515L139.056 134.865H140.386L141.969 141.086L143.683 134.865H145.09L146.684 141.053L148.277 134.865H149.618ZM153.773 134.865V142.504H152.52V134.865H153.773ZM162.222 134.865V135.887H160.188V142.504H158.936V135.887H156.891V134.865H162.222ZM171.459 134.865V142.504H170.206V139.163H166.612V142.504H165.359V134.865H166.612V138.14H170.206V134.865H171.459ZM183.79 138.58C184.2 138.653 184.548 138.87 184.834 139.229C185.12 139.588 185.263 139.994 185.263 140.449C185.263 140.837 185.16 141.189 184.955 141.504C184.757 141.811 184.468 142.057 184.087 142.24C183.705 142.416 183.262 142.504 182.757 142.504H179.701V134.865H182.614C183.134 134.865 183.581 134.953 183.955 135.129C184.328 135.305 184.61 135.543 184.801 135.843C184.991 136.136 185.087 136.466 185.087 136.832C185.087 137.272 184.969 137.638 184.735 137.932C184.501 138.225 184.185 138.441 183.79 138.58ZM180.954 138.074H182.504C182.914 138.074 183.233 137.983 183.46 137.8C183.694 137.609 183.812 137.338 183.812 136.986C183.812 136.642 183.694 136.375 183.46 136.184C183.233 135.986 182.914 135.887 182.504 135.887H180.954V138.074ZM182.647 141.482C183.072 141.482 183.405 141.379 183.647 141.174C183.889 140.969 184.01 140.683 184.01 140.317C184.01 139.943 183.881 139.646 183.625 139.426C183.368 139.207 183.028 139.097 182.603 139.097H180.954V141.482H182.647ZM189.746 134.865V142.504H188.493V134.865H189.746ZM198.194 134.865V135.887H196.161V142.504H194.908V135.887H192.864V134.865H198.194ZM200.914 138.668C200.914 137.921 201.086 137.25 201.431 136.657C201.782 136.063 202.255 135.601 202.848 135.272C203.449 134.935 204.105 134.766 204.816 134.766C205.629 134.766 206.351 134.968 206.981 135.371C207.619 135.766 208.08 136.331 208.366 137.063H206.86C206.662 136.66 206.388 136.36 206.036 136.162C205.684 135.964 205.278 135.865 204.816 135.865C204.31 135.865 203.86 135.979 203.464 136.206C203.068 136.433 202.757 136.759 202.53 137.184C202.31 137.609 202.2 138.104 202.2 138.668C202.2 139.232 202.31 139.727 202.53 140.152C202.757 140.577 203.068 140.907 203.464 141.141C203.86 141.368 204.31 141.482 204.816 141.482C205.278 141.482 205.684 141.383 206.036 141.185C206.388 140.987 206.662 140.687 206.86 140.284H208.366C208.08 141.016 207.619 141.581 206.981 141.976C206.351 142.372 205.629 142.57 204.816 142.57C204.098 142.57 203.442 142.405 202.848 142.075C202.255 141.738 201.782 141.273 201.431 140.679C201.086 140.086 200.914 139.415 200.914 138.668ZM215.185 142.581C214.475 142.581 213.819 142.416 213.218 142.086C212.624 141.749 212.152 141.284 211.8 140.69C211.456 140.09 211.283 139.415 211.283 138.668C211.283 137.921 211.456 137.25 211.8 136.657C212.152 136.063 212.624 135.601 213.218 135.272C213.819 134.935 214.475 134.766 215.185 134.766C215.903 134.766 216.559 134.935 217.153 135.272C217.754 135.601 218.226 136.063 218.571 136.657C218.915 137.25 219.087 137.921 219.087 138.668C219.087 139.415 218.915 140.09 218.571 140.69C218.226 141.284 217.754 141.749 217.153 142.086C216.559 142.416 215.903 142.581 215.185 142.581ZM215.185 141.493C215.691 141.493 216.142 141.379 216.537 141.152C216.933 140.918 217.241 140.588 217.461 140.163C217.688 139.73 217.801 139.232 217.801 138.668C217.801 138.104 217.688 137.609 217.461 137.184C217.241 136.759 216.933 136.433 216.537 136.206C216.142 135.979 215.691 135.865 215.185 135.865C214.68 135.865 214.229 135.979 213.833 136.206C213.438 136.433 213.126 136.759 212.899 137.184C212.679 137.609 212.569 138.104 212.569 138.668C212.569 139.232 212.679 139.73 212.899 140.163C213.126 140.588 213.438 140.918 213.833 141.152C214.229 141.379 214.68 141.493 215.185 141.493ZM223.442 134.865V142.504H222.189V134.865H223.442ZM233.231 142.504H231.978L228.208 136.8V142.504H226.955V134.854H228.208L231.978 140.547V134.854H233.231V142.504ZM244.953 142.581C244.242 142.581 243.586 142.416 242.985 142.086C242.392 141.749 241.919 141.284 241.568 140.69C241.223 140.09 241.051 139.415 241.051 138.668C241.051 137.921 241.223 137.25 241.568 136.657C241.919 136.063 242.392 135.601 242.985 135.272C243.586 134.935 244.242 134.766 244.953 134.766C245.671 134.766 246.327 134.935 246.92 135.272C247.521 135.601 247.994 136.063 248.338 136.657C248.683 137.25 248.855 137.921 248.855 138.668C248.855 139.415 248.683 140.09 248.338 140.69C247.994 141.284 247.521 141.749 246.92 142.086C246.327 142.416 245.671 142.581 244.953 142.581ZM244.953 141.493C245.458 141.493 245.909 141.379 246.305 141.152C246.7 140.918 247.008 140.588 247.228 140.163C247.455 139.73 247.569 139.232 247.569 138.668C247.569 138.104 247.455 137.609 247.228 137.184C247.008 136.759 246.7 136.433 246.305 136.206C245.909 135.979 245.458 135.865 244.953 135.865C244.447 135.865 243.997 135.979 243.601 136.206C243.205 136.433 242.894 136.759 242.667 137.184C242.447 137.609 242.337 138.104 242.337 138.668C242.337 139.232 242.447 139.73 242.667 140.163C242.894 140.588 243.205 140.918 243.601 141.152C243.997 141.379 244.447 141.493 244.953 141.493ZM258.232 142.504H256.979L253.209 136.8V142.504H251.956V134.854H253.209L256.979 140.547V134.854H258.232V142.504ZM262.999 141.493H265.582V142.504H261.746V134.865H262.999V141.493ZM274.159 134.865L271.631 139.734V142.504H270.378V139.734L267.839 134.865H269.235L271.004 138.613L272.774 134.865H274.159Z" fill="black"/>
<line x1="27.7383" y1="76.9052" x2="328.807" y2="76.9052" stroke="black" stroke-width="4.24041"/>
<line x1="119.333" y1="127.79" x2="328.809" y2="127.79" stroke="black" stroke-width="4.24041"/>
<line x1="138.365" y1="128.412" x2="138.365" y2="78.9213" stroke="black" stroke-width="4.24041"/>
<line x1="326.687" y1="152.809" x2="326.687" y2="3.54614" stroke="black" stroke-width="4.24041"/>
<line x1="29.0107" y1="152.809" x2="29.0106" y2="1.00189" stroke="black" stroke-width="4.24041"/>
<mask id="path-15-inside-1_2330_66330" fill="white">
<path fill-rule="evenodd" clip-rule="evenodd" d="M0.378906 0.154297L355.876 0.154297L355.876 68.8561C355.742 68.8512 355.607 68.8488 355.471 68.8488C349.382 68.8488 344.446 73.7849 344.446 79.8739C344.446 85.9628 349.382 90.8989 355.471 90.8989C355.607 90.8989 355.742 90.8965 355.876 90.8916V152.809H0.378906L0.378906 90.8114C5.81101 90.1273 10.0125 85.491 10.0125 79.8733C10.0125 74.2556 5.81101 69.6193 0.378906 68.9352L0.378906 0.154297Z"/>
</mask>
<path d="M355.876 0.154297L360.117 0.154297L360.117 -4.08611H355.876V0.154297ZM0.378906 0.154297L0.378906 -4.08611H-3.8615V0.154297L0.378906 0.154297ZM355.876 68.8561L355.723 73.0937L360.117 73.2528L360.117 68.8561L355.876 68.8561ZM355.876 90.8916H360.117V86.4949L355.723 86.654L355.876 90.8916ZM355.876 152.809V157.05H360.117V152.809H355.876ZM0.378906 152.809H-3.8615L-3.8615 157.05H0.378906L0.378906 152.809ZM0.378906 90.8114L-0.150918 86.6042L-3.8615 87.0715V90.8114H0.378906ZM0.378906 68.9352H-3.8615V72.6751L-0.150918 73.1424L0.378906 68.9352ZM355.876 -4.08611L0.378906 -4.08611L0.378906 4.39471L355.876 4.39471V-4.08611ZM360.117 68.8561L360.117 0.154297L351.636 0.154297L351.636 68.8561L360.117 68.8561ZM355.471 73.0892C355.555 73.0892 355.64 73.0907 355.723 73.0937L356.03 64.6185C355.844 64.6118 355.658 64.6084 355.471 64.6084V73.0892ZM348.686 79.8739C348.686 76.1268 351.724 73.0892 355.471 73.0892V64.6084C347.04 64.6084 340.205 71.443 340.205 79.8739H348.686ZM355.471 86.6585C351.724 86.6585 348.686 83.6209 348.686 79.8739H340.205C340.205 88.3047 347.04 95.1393 355.471 95.1393V86.6585ZM355.723 86.654C355.64 86.657 355.555 86.6585 355.471 86.6585V95.1393C355.658 95.1393 355.844 95.1359 356.03 95.1292L355.723 86.654ZM360.117 152.809V90.8916H351.636V152.809H360.117ZM0.378906 157.05H355.876V148.569H0.378906L0.378906 157.05ZM-3.8615 90.8114L-3.8615 152.809H4.61932L4.61932 90.8114H-3.8615ZM5.77212 79.8733C5.77212 83.3271 3.1876 86.1838 -0.150918 86.6042L0.90873 95.0186C8.43441 94.0709 14.2529 87.6549 14.2529 79.8733H5.77212ZM-0.150918 73.1424C3.1876 73.5628 5.77212 76.4195 5.77212 79.8733H14.2529C14.2529 72.0918 8.43441 65.6758 0.90873 64.728L-0.150918 73.1424ZM-3.8615 0.154297L-3.8615 68.9352H4.61932L4.61932 0.154297L-3.8615 0.154297Z" fill="black" mask="url(#path-15-inside-1_2330_66330)"/>
</svg>
