<svg width="356" height="154" viewBox="0 0 356 154" fill="none" xmlns="http://www.w3.org/2000/svg">
<path fill-rule="evenodd" clip-rule="evenodd" d="M0.378906 0.451172L355.876 0.451172V69.153C355.742 69.1481 355.607 69.1457 355.471 69.1457C349.382 69.1457 344.446 74.0817 344.446 80.1707C344.446 86.2597 349.382 91.1958 355.471 91.1958C355.607 91.1958 355.742 91.1933 355.876 91.1885L355.876 153.106H0.378906L0.378906 90.997C5.4681 90.0201 9.31323 85.544 9.31323 80.1699C9.31323 74.7958 5.4681 70.3197 0.378906 69.3428L0.378906 0.451172Z" fill="#EEDB5F"/>
<rect x="29.6543" y="79.2168" width="108.043" height="50.8849" fill="black"/>
<path d="M59.2102 109.211C59.2102 110.522 58.8644 111.739 58.1729 112.859C57.5052 113.956 56.5036 114.862 55.1682 115.578C53.8567 116.269 52.2948 116.651 50.4825 116.722V119.62H48.1932V116.687C45.6655 116.472 43.6267 115.721 42.0767 114.433C40.5267 113.122 39.704 111.345 39.6086 109.104H46.1186C46.2617 110.534 46.9532 111.452 48.1932 111.858V106.206C46.3332 105.729 44.8428 105.264 43.7221 104.811C42.6252 104.358 41.6594 103.631 40.8248 102.629C39.9902 101.628 39.5728 100.257 39.5728 98.5159C39.5728 96.3459 40.3717 94.6051 41.9694 93.2936C43.5909 91.982 45.6655 91.2428 48.1932 91.0759V88.1786H50.4825V91.0759C52.9863 91.2666 54.9655 91.9939 56.4202 93.2578C57.8748 94.5216 58.6855 96.2743 58.8525 98.5159H52.3067C52.1636 97.2282 51.5555 96.3936 50.4825 96.012V101.556C52.4617 102.105 53.9879 102.594 55.0609 103.023C56.134 103.452 57.0879 104.167 57.9225 105.169C58.7809 106.147 59.2102 107.494 59.2102 109.211ZM46.0471 98.2297C46.0471 98.8259 46.2259 99.3266 46.5836 99.732C46.9652 100.137 47.5017 100.495 48.1932 100.805V95.8332C47.5255 95.9524 47.0009 96.2147 46.6194 96.6201C46.2378 97.0016 46.0471 97.5382 46.0471 98.2297ZM50.4825 111.965C51.1979 111.846 51.7582 111.56 52.1636 111.107C52.5929 110.654 52.8075 110.093 52.8075 109.425C52.8075 108.805 52.6048 108.305 52.1994 107.923C51.8179 107.518 51.2455 107.172 50.4825 106.886V111.965ZM63.2951 111.607C64.1059 110.964 64.4755 110.665 64.404 110.713C66.7409 108.782 68.5771 107.196 69.9124 105.956C71.2717 104.716 72.4163 103.416 73.3463 102.057C74.2763 100.698 74.7413 99.3743 74.7413 98.0866C74.7413 97.109 74.5147 96.3459 74.0617 95.7974C73.6086 95.2489 72.929 94.9747 72.0228 94.9747C71.1167 94.9747 70.4013 95.3205 69.8767 96.012C69.3759 96.6797 69.1255 97.6336 69.1255 98.8736H63.2236C63.2713 96.8466 63.7005 95.1536 64.5113 93.7943C65.3459 92.4351 66.4309 91.4336 67.7663 90.7897C69.1255 90.1459 70.6278 89.8239 72.2732 89.8239C75.1109 89.8239 77.2451 90.5513 78.6759 92.0059C80.1305 93.4605 80.8578 95.3563 80.8578 97.6932C80.8578 100.245 79.9874 102.617 78.2467 104.811C76.5059 106.981 74.2882 109.104 71.5936 111.178H81.2513V116.15H63.2951L63.2951 111.607ZM84.302 103.094C84.302 98.9928 85.0889 95.7616 86.6628 93.4009C88.2605 91.0401 90.8239 89.8597 94.3532 89.8597C97.8824 89.8597 100.434 91.0401 102.008 93.4009C103.605 95.7616 104.404 98.9928 104.404 103.094C104.404 107.244 103.605 110.499 102.008 112.859C100.434 115.22 97.8824 116.401 94.3532 116.401C90.8239 116.401 88.2605 115.22 86.6628 112.859C85.0889 110.499 84.302 107.244 84.302 103.094ZM98.3951 103.094C98.3951 100.686 98.1328 98.8378 97.6082 97.5501C97.0836 96.2386 95.9986 95.5828 94.3532 95.5828C92.7078 95.5828 91.6228 96.2386 91.0982 97.5501C90.5736 98.8378 90.3113 100.686 90.3113 103.094C90.3113 104.716 90.4066 106.063 90.5974 107.136C90.7882 108.185 91.1697 109.044 91.742 109.712C92.3382 110.355 93.2086 110.677 94.3532 110.677C95.4978 110.677 96.3563 110.355 96.9286 109.712C97.5247 109.044 97.9182 108.185 98.1089 107.136C98.2997 106.063 98.3951 104.716 98.3951 103.094ZM107.994 103.094C107.994 98.9928 108.78 95.7616 110.354 93.4009C111.952 91.0401 114.515 89.8597 118.045 89.8597C121.574 89.8597 124.125 91.0401 125.699 93.4009C127.297 95.7616 128.096 98.9928 128.096 103.094C128.096 107.244 127.297 110.499 125.699 112.859C124.125 115.22 121.574 116.401 118.045 116.401C114.515 116.401 111.952 115.22 110.354 112.859C108.78 110.499 107.994 107.244 107.994 103.094ZM122.087 103.094C122.087 100.686 121.824 98.8378 121.3 97.5501C120.775 96.2386 119.69 95.5828 118.045 95.5828C116.399 95.5828 115.314 96.2386 114.79 97.5501C114.265 98.8378 114.003 100.686 114.003 103.094C114.003 104.716 114.098 106.063 114.289 107.136C114.48 108.185 114.861 109.044 115.434 109.712C116.03 110.355 116.9 110.677 118.045 110.677C119.189 110.677 120.048 110.355 120.62 109.712C121.216 109.044 121.61 108.185 121.8 107.136C121.991 106.063 122.087 104.716 122.087 103.094Z" fill="#EEDB5F"/>
<rect x="308.454" y="130.209" width="20.354" height="20.354" rx="0.686089" fill="black"/>
<path d="M317.028 142.564H315.066V137.041H313.984V135.3H318.152V137.041H317.028V142.564ZM323.784 142.564H321.606L321.243 141.529C321.127 141.213 321.033 140.908 320.961 140.617C320.892 140.905 320.789 141.236 320.651 141.609L320.288 142.564H318.152L319.917 138.796L318.251 135.3H320.434L320.759 136.283C320.793 136.374 320.826 136.481 320.858 136.603C320.892 136.726 320.927 136.864 320.961 137.017C321.039 136.704 321.105 136.462 321.159 136.293L321.46 135.3H323.657L322.001 138.796L323.784 142.564Z" fill="#EEDB5F"/>
<path d="M171.747 94.5835V98.1072H165.377V100.908H170.075V104.274H165.377V110.508H160.95V94.5835L171.747 94.5835ZM181.901 110.508L178.739 104.635H178.264V110.508H173.837V94.5835H180.817C182.097 94.5835 183.181 94.8094 184.069 95.2611C184.958 95.6978 185.628 96.3077 186.079 97.0907C186.531 97.8587 186.757 98.7246 186.757 99.6883C186.757 100.773 186.456 101.729 185.854 102.557C185.266 103.37 184.4 103.95 183.256 104.296L186.847 110.508H181.901ZM178.264 101.608H180.455C181.058 101.608 181.509 101.465 181.81 101.179C182.112 100.893 182.262 100.479 182.262 99.9368C182.262 99.4248 182.104 99.0258 181.788 98.7396C181.487 98.4385 181.042 98.2879 180.455 98.2879H178.264V101.608ZM196.631 110.666C195.14 110.666 193.77 110.32 192.52 109.627C191.27 108.919 190.276 107.948 189.538 106.713C188.816 105.463 188.454 104.055 188.454 102.489C188.454 100.923 188.816 99.5227 189.538 98.2879C190.276 97.038 191.27 96.0668 192.52 95.3741C193.77 94.6814 195.14 94.3351 196.631 94.3351C198.137 94.3351 199.507 94.6814 200.742 95.3741C201.992 96.0668 202.978 97.038 203.701 98.2879C204.424 99.5227 204.785 100.923 204.785 102.489C204.785 104.055 204.424 105.463 203.701 106.713C202.978 107.948 201.992 108.919 200.742 109.627C199.492 110.32 198.122 110.666 196.631 110.666ZM196.631 106.555C197.76 106.555 198.649 106.186 199.296 105.448C199.959 104.71 200.29 103.724 200.29 102.489C200.29 101.224 199.959 100.23 199.296 99.5076C198.649 98.7698 197.76 98.4008 196.631 98.4008C195.486 98.4008 194.591 98.7698 193.943 99.5076C193.295 100.23 192.972 101.224 192.972 102.489C192.972 103.739 193.295 104.733 193.943 105.471C194.591 106.194 195.486 106.555 196.631 106.555ZM225.591 94.5835V110.508H221.164V101.721L218.159 110.508H214.455L211.428 101.653V110.508H207.001V94.5835H212.354L216.352 104.929L220.26 94.5835H225.591ZM243.434 94.5835V105.132C243.434 106.924 242.945 108.294 241.966 109.243C241.003 110.192 239.67 110.666 237.968 110.666C236.161 110.666 234.716 110.161 233.631 109.153C232.562 108.144 232.028 106.69 232.028 104.793H236.41C236.425 106.043 236.884 106.668 237.788 106.668C238.601 106.668 239.007 106.156 239.007 105.132V94.5835H243.434ZM250.64 94.5835V103.822C250.64 104.68 250.835 105.343 251.227 105.81C251.633 106.276 252.243 106.51 253.056 106.51C253.87 106.51 254.479 106.276 254.886 105.81C255.308 105.328 255.518 104.665 255.518 103.822V94.5835H259.946V103.822C259.946 105.283 259.637 106.532 259.02 107.571C258.402 108.595 257.559 109.371 256.49 109.898C255.436 110.41 254.261 110.666 252.966 110.666C251.671 110.666 250.512 110.41 249.488 109.898C248.479 109.371 247.681 108.595 247.093 107.571C246.521 106.547 246.235 105.298 246.235 103.822V94.5835H250.64ZM277.359 110.508H272.932L267.036 101.608V110.508H262.609V94.5835H267.036L272.932 103.596V94.5835H277.359V110.508ZM284.534 98.1298V100.727H289.616V104.093H284.534V106.962H290.294V110.508H280.107V94.5835H290.294V98.1298H284.534ZM296.398 98.1524V93.9962H303.355V110.508H298.725V98.1524H296.398Z" fill="black"/>
<path d="M62.5109 44.0506V47.5141H69.2872V52.0015H62.5109V55.8263H70.1907V60.5547H56.608V39.3223H70.1907V44.0506H62.5109ZM86.8409 57.0912H79.3116L78.1672 60.5547H71.9631L79.7032 39.3223L86.5096 39.3223L94.2195 60.5547H87.9853L86.8409 57.0912ZM85.3651 52.5737L83.0763 45.7071L80.8175 52.5737H85.3651ZM107.196 60.5547L102.98 52.7243H102.348V60.5547H96.4446V39.3223H105.751C107.457 39.3223 108.903 39.6235 110.088 40.2258C111.272 40.8081 112.166 41.6212 112.768 42.6653C113.37 43.6892 113.671 44.8437 113.671 46.1287C113.671 47.5743 113.27 48.8493 112.467 49.9536C111.684 51.0378 110.529 51.8108 109.003 52.2725L113.792 60.5547H107.196ZM102.348 48.6886H105.269C106.072 48.6886 106.674 48.4979 107.076 48.1164C107.477 47.7349 107.678 47.1828 107.678 46.46C107.678 45.7773 107.467 45.2453 107.046 44.8638C106.644 44.4622 106.052 44.2615 105.269 44.2615H102.348V48.6886ZM122.56 56.0372H129.156V60.5547H116.657V39.3223H122.56V56.0372ZM151.057 39.3223L143.588 53.8085V60.5547H137.655V53.8085L130.186 39.3223H136.932L140.667 47.5141L144.401 39.3223H151.057ZM172.668 57.0912H165.139L163.994 60.5547H157.79L165.53 39.3223H172.337L180.047 60.5547H173.812L172.668 57.0912ZM171.192 52.5737L168.903 45.7071L166.645 52.5737L171.192 52.5737ZM190.674 39.3223C192.903 39.3223 194.851 39.7741 196.517 40.6776C198.204 41.561 199.499 42.8058 200.402 44.412C201.306 46.0183 201.757 47.8554 201.757 49.9234C201.757 51.9714 201.296 53.7985 200.372 55.4047C199.469 57.0109 198.173 58.2758 196.487 59.1994C194.82 60.1029 192.883 60.5547 190.674 60.5547H182.272V39.3223H190.674ZM190.223 55.3445C191.949 55.3445 193.305 54.8726 194.288 53.929C195.272 52.9853 195.764 51.6501 195.764 49.9234C195.764 48.1767 195.272 46.8314 194.288 45.8878C193.305 44.924 191.949 44.4422 190.223 44.4422H188.175V55.3445H190.223ZM214.899 60.7655C212.911 60.7655 211.084 60.3037 209.418 59.3801C207.751 58.4365 206.426 57.1414 205.442 55.4951C204.478 53.8286 203.997 51.9513 203.997 49.8632C203.997 47.7751 204.478 45.9079 205.442 44.2615C206.426 42.595 207.751 41.3 209.418 40.3764C211.084 39.4528 212.911 38.991 214.899 38.991C216.907 38.991 218.734 39.4528 220.38 40.3764C222.047 41.3 223.362 42.595 224.326 44.2615C225.289 45.9079 225.771 47.7751 225.771 49.8632C225.771 51.9513 225.289 53.8286 224.326 55.4951C223.362 57.1414 222.047 58.4365 220.38 59.3801C218.714 60.3037 216.887 60.7655 214.899 60.7655ZM214.899 55.2842C216.405 55.2842 217.589 54.7923 218.453 53.8085C219.336 52.8247 219.778 51.5096 219.778 49.8632C219.778 48.1767 219.336 46.8515 218.453 45.8878C217.589 44.904 216.405 44.412 214.899 44.412C213.373 44.412 212.178 44.904 211.315 45.8878C210.452 46.8515 210.02 48.1767 210.02 49.8632C210.02 51.5297 210.452 52.8548 211.315 53.8386C212.178 54.8024 213.373 55.2842 214.899 55.2842ZM245.501 46.3998C245.501 47.6847 245.2 48.8593 244.597 49.9234C244.015 50.9675 243.122 51.8108 241.917 52.4533C240.732 53.0757 239.277 53.3869 237.55 53.3869H234.629V60.5547H228.726V39.3223H237.55C239.257 39.3223 240.702 39.6235 241.887 40.2258C243.092 40.8281 243.995 41.6614 244.597 42.7255C245.2 43.7896 245.501 45.0144 245.501 46.3998ZM236.978 48.6886C238.644 48.6886 239.478 47.9257 239.478 46.3998C239.478 44.8538 238.644 44.0808 236.978 44.0808H234.629V48.6886H236.978ZM264.166 39.3223V44.0205H258.504V60.5547H252.601V44.0205H246.999V39.3223L264.166 39.3223ZM272.554 44.0506V47.5141H279.33V52.0015H272.554V55.8263H280.233V60.5547H266.651V39.3223H280.233V44.0506H272.554ZM294.203 60.5547L289.987 52.7243H289.354V60.5547L283.451 60.5547V39.3223H292.758C294.464 39.3223 295.91 39.6235 297.094 40.2258C298.279 40.8081 299.172 41.6212 299.775 42.6653C300.377 43.6892 300.678 44.8437 300.678 46.1287C300.678 47.5743 300.277 48.8493 299.474 49.9536C298.691 51.0378 297.536 51.8108 296.01 52.2725L300.799 60.5547H294.203ZM289.354 48.6886H292.276C293.079 48.6886 293.681 48.4979 294.083 48.1164C294.484 47.7349 294.685 47.1828 294.685 46.46C294.685 45.7773 294.474 45.2453 294.053 44.8638C293.651 44.4622 293.059 44.2615 292.276 44.2615H289.354V48.6886Z" fill="black"/>
<path d="M91.3784 20.3336H88.636L88.1647 21.6719H87.0433L89.3899 15.1127H90.6339L92.9805 21.6719H91.8496L91.3784 20.3336ZM91.0768 19.4572L90.0119 16.4132L88.9375 19.4572H91.0768ZM99.627 15.1221C100.324 15.1221 100.934 15.2572 101.455 15.5273C101.983 15.7912 102.388 16.1744 102.671 16.6771C102.96 17.1734 103.105 17.7546 103.105 18.4205C103.105 19.0865 102.96 19.6645 102.671 20.1546C102.388 20.6446 101.983 21.0216 101.455 21.2855C100.934 21.5431 100.324 21.6719 99.627 21.6719H97.4878V15.1221H99.627ZM99.627 20.7954C100.394 20.7954 100.981 20.5881 101.389 20.1734C101.798 19.7588 102.002 19.1745 102.002 18.4205C102.002 17.6603 101.798 17.0666 101.389 16.6394C100.981 16.2121 100.394 15.9985 99.627 15.9985H98.5621V20.7954H99.627ZM110.644 21.7378C110.034 21.7378 109.472 21.5965 108.957 21.3138C108.448 21.0247 108.043 20.6258 107.741 20.1169C107.446 19.6017 107.298 19.0237 107.298 18.3828C107.298 17.742 107.446 17.1671 107.741 16.6582C108.043 16.1493 108.448 15.7535 108.957 15.4708C109.472 15.1818 110.034 15.0373 110.644 15.0373C111.259 15.0373 111.822 15.1818 112.331 15.4708C112.846 15.7535 113.251 16.1493 113.546 16.6582C113.842 17.1671 113.989 17.742 113.989 18.3828C113.989 19.0237 113.842 19.6017 113.546 20.1169C113.251 20.6258 112.846 21.0247 112.331 21.3138C111.822 21.5965 111.259 21.7378 110.644 21.7378ZM110.644 20.8049C111.077 20.8049 111.464 20.7075 111.803 20.5127C112.142 20.3117 112.406 20.0289 112.595 19.6645C112.789 19.2938 112.887 18.8666 112.887 18.3828C112.887 17.8991 112.789 17.475 112.595 17.1106C112.406 16.7462 112.142 16.4666 111.803 16.2718C111.464 16.0771 111.077 15.9797 110.644 15.9797C110.21 15.9797 109.824 16.0771 109.485 16.2718C109.145 16.4666 108.878 16.7462 108.684 17.1106C108.495 17.475 108.401 17.8991 108.401 18.3828C108.401 18.8666 108.495 19.2938 108.684 19.6645C108.878 20.0289 109.145 20.3117 109.485 20.5127C109.824 20.7075 110.21 20.8049 110.644 20.8049ZM123.114 17.0729C123.114 17.4059 123.035 17.72 122.878 18.0153C122.721 18.3106 122.47 18.5525 122.124 18.741C121.779 18.9232 121.336 19.0143 120.795 19.0143H119.608V21.6719H118.533V15.1221H120.795C121.298 15.1221 121.722 15.21 122.068 15.386C122.419 15.5556 122.68 15.7881 122.85 16.0833C123.026 16.3786 123.114 16.7085 123.114 17.0729ZM120.795 18.1378C121.204 18.1378 121.508 18.0467 121.709 17.8645C121.91 17.676 122.011 17.4121 122.011 17.0729C122.011 16.3566 121.606 15.9985 120.795 15.9985H119.608V18.1378H120.795ZM131.857 15.1221V15.9985H130.113V21.6719H129.039V15.9985H127.286V15.1221H131.857ZM137.506 15.1221V21.6719H136.432V15.1221H137.506ZM147.785 21.6719H146.71L143.478 16.7807V21.6719H142.403V15.1127H143.478L146.71 19.9944V15.1127H147.785V21.6719ZM157.423 17.0069C157.253 16.6802 157.018 16.4352 156.716 16.2718C156.414 16.1022 156.066 16.0174 155.67 16.0174C155.236 16.0174 154.85 16.1148 154.511 16.3095C154.171 16.5043 153.904 16.7807 153.71 17.1388C153.521 17.497 153.427 17.9116 153.427 18.3828C153.427 18.854 153.521 19.2719 153.71 19.6363C153.904 19.9944 154.171 20.2708 154.511 20.4656C154.85 20.6603 155.236 20.7577 155.67 20.7577C156.254 20.7577 156.729 20.5944 157.093 20.2677C157.457 19.941 157.68 19.498 157.762 18.9389H155.302V18.0813H158.912V18.92C158.843 19.4289 158.661 19.897 158.365 20.3242C158.076 20.7514 157.696 21.0939 157.225 21.3515C156.76 21.6028 156.242 21.7284 155.67 21.7284C155.054 21.7284 154.492 21.5871 153.983 21.3043C153.474 21.0153 153.069 20.6164 152.767 20.1075C152.472 19.5986 152.324 19.0237 152.324 18.3828C152.324 17.742 152.472 17.1671 152.767 16.6582C153.069 16.1493 153.474 15.7535 153.983 15.4708C154.498 15.1818 155.061 15.0373 155.67 15.0373C156.367 15.0373 156.986 15.21 157.526 15.5556C158.073 15.8949 158.469 16.3786 158.714 17.0069H157.423ZM172.899 18.3074C173.251 18.3703 173.549 18.5556 173.795 18.8635C174.04 19.1713 174.162 19.52 174.162 19.9096C174.162 20.2425 174.074 20.5441 173.898 20.8143C173.729 21.0782 173.48 21.2886 173.154 21.4457C172.827 21.5965 172.447 21.6719 172.013 21.6719H169.393V15.1221H171.891C172.337 15.1221 172.72 15.1975 173.041 15.3483C173.361 15.499 173.603 15.7032 173.766 15.9608C173.93 16.2121 174.011 16.4949 174.011 16.809C174.011 17.186 173.911 17.5001 173.71 17.7514C173.509 18.0027 173.239 18.1881 172.899 18.3074ZM170.468 17.8739H171.797C172.148 17.8739 172.422 17.7954 172.617 17.6383C172.818 17.475 172.918 17.2425 172.918 16.9409C172.918 16.6456 172.818 16.4163 172.617 16.253C172.422 16.0833 172.148 15.9985 171.797 15.9985H170.468V17.8739ZM171.919 20.7954C172.284 20.7954 172.569 20.7075 172.777 20.5315C172.984 20.3556 173.088 20.1106 173.088 19.7965C173.088 19.476 172.978 19.2216 172.758 19.0331C172.538 18.8446 172.246 18.7504 171.881 18.7504H170.468V20.7954H171.919ZM179.891 15.1221V21.6719H178.817V15.1221H179.891ZM189.02 15.1221V15.9985H187.276V21.6719H186.202V15.9985H184.449V15.1221H189.02ZM193.237 18.3828C193.237 17.742 193.384 17.1671 193.68 16.6582C193.981 16.1493 194.386 15.7535 194.895 15.4708C195.411 15.1818 195.973 15.0373 196.582 15.0373C197.28 15.0373 197.898 15.21 198.439 15.5556C198.985 15.8949 199.381 16.3786 199.626 17.0069H198.335C198.166 16.6614 197.93 16.4038 197.628 16.2341C197.327 16.0645 196.978 15.9797 196.582 15.9797C196.149 15.9797 195.762 16.0771 195.423 16.2718C195.084 16.4666 194.817 16.7462 194.622 17.1106C194.434 17.475 194.339 17.8991 194.339 18.3828C194.339 18.8666 194.434 19.2907 194.622 19.6551C194.817 20.0195 195.084 20.3022 195.423 20.5033C195.762 20.698 196.149 20.7954 196.582 20.7954C196.978 20.7954 197.327 20.7106 197.628 20.541C197.93 20.3713 198.166 20.1137 198.335 19.7682H199.626C199.381 20.3965 198.985 20.8802 198.439 21.2195C197.898 21.5588 197.28 21.7284 196.582 21.7284C195.967 21.7284 195.404 21.5871 194.895 21.3043C194.386 21.0153 193.981 20.6164 193.68 20.1075C193.384 19.5986 193.237 19.0237 193.237 18.3828ZM207.358 21.7378C206.749 21.7378 206.186 21.5965 205.671 21.3138C205.162 21.0247 204.757 20.6258 204.456 20.1169C204.16 19.6017 204.013 19.0237 204.013 18.3828C204.013 17.742 204.16 17.1671 204.456 16.6582C204.757 16.1493 205.162 15.7535 205.671 15.4708C206.186 15.1818 206.749 15.0373 207.358 15.0373C207.974 15.0373 208.536 15.1818 209.045 15.4708C209.56 15.7535 209.966 16.1493 210.261 16.6582C210.556 17.1671 210.704 17.742 210.704 18.3828C210.704 19.0237 210.556 19.6017 210.261 20.1169C209.966 20.6258 209.56 21.0247 209.045 21.3138C208.536 21.5965 207.974 21.7378 207.358 21.7378ZM207.358 20.8049C207.792 20.8049 208.178 20.7075 208.517 20.5127C208.857 20.3117 209.121 20.0289 209.309 19.6645C209.504 19.2938 209.601 18.8666 209.601 18.3828C209.601 17.8991 209.504 17.475 209.309 17.1106C209.121 16.7462 208.857 16.4666 208.517 16.2718C208.178 16.0771 207.792 15.9797 207.358 15.9797C206.925 15.9797 206.538 16.0771 206.199 16.2718C205.86 16.4666 205.593 16.7462 205.398 17.1106C205.209 17.475 205.115 17.8991 205.115 18.3828C205.115 18.8666 205.209 19.2938 205.398 19.6645C205.593 20.0289 205.86 20.3117 206.199 20.5127C206.538 20.7075 206.925 20.8049 207.358 20.8049ZM216.322 15.1221V21.6719H215.248V15.1221H216.322ZM226.601 21.6719H225.527L222.294 16.7807V21.6719H221.22V15.1127H222.294L225.527 19.9944V15.1127H226.601V21.6719ZM237.886 20.2111C238.489 19.6897 238.964 19.2624 239.309 18.9294C239.661 18.5902 239.953 18.2383 240.186 17.8739C240.418 17.5095 240.534 17.1451 240.534 16.7807C240.534 16.4038 240.443 16.1085 240.261 15.8949C240.085 15.6812 239.805 15.5744 239.422 15.5744C239.052 15.5744 238.763 15.6938 238.555 15.9326C238.354 16.165 238.247 16.4792 238.235 16.875H237.198C237.217 16.1587 237.431 15.6121 237.839 15.2352C238.254 14.8519 238.778 14.6603 239.413 14.6603C240.098 14.6603 240.632 14.8488 241.015 15.2257C241.404 15.6027 241.599 16.1053 241.599 16.7336C241.599 17.186 241.483 17.6226 241.251 18.0436C241.024 18.4582 240.751 18.8321 240.431 19.165C240.116 19.4917 239.714 19.8719 239.224 20.3054L238.8 20.6823H241.788V21.5776H237.208V20.7954L237.886 20.2111ZM246.218 18.1472C246.218 17.0603 246.401 16.2121 246.765 15.6027C247.136 14.987 247.77 14.6791 248.669 14.6791C249.567 14.6791 250.199 14.987 250.563 15.6027C250.934 16.2121 251.119 17.0603 251.119 18.1472C251.119 19.2467 250.934 20.1075 250.563 20.7295C250.199 21.3452 249.567 21.653 248.669 21.653C247.77 21.653 247.136 21.3452 246.765 20.7295C246.401 20.1075 246.218 19.2467 246.218 18.1472ZM250.064 18.1472C250.064 17.6383 250.029 17.208 249.96 16.8561C249.897 16.5043 249.765 16.2184 249.564 15.9985C249.363 15.7723 249.065 15.6593 248.669 15.6593C248.273 15.6593 247.975 15.7723 247.773 15.9985C247.572 16.2184 247.437 16.5043 247.368 16.8561C247.305 17.208 247.274 17.6383 247.274 18.1472C247.274 18.675 247.305 19.1179 247.368 19.476C247.431 19.8342 247.563 20.1232 247.764 20.3431C247.971 20.563 248.273 20.6729 248.669 20.6729C249.065 20.6729 249.363 20.563 249.564 20.3431C249.771 20.1232 249.906 19.8342 249.969 19.476C250.032 19.1179 250.064 18.675 250.064 18.1472ZM256.337 20.2111C256.94 19.6897 257.414 19.2624 257.76 18.9294C258.111 18.5902 258.404 18.2383 258.636 17.8739C258.868 17.5095 258.985 17.1451 258.985 16.7807C258.985 16.4038 258.894 16.1085 258.711 15.8949C258.535 15.6812 258.256 15.5744 257.873 15.5744C257.502 15.5744 257.213 15.6938 257.006 15.9326C256.805 16.165 256.698 16.4792 256.685 16.875H255.649C255.667 16.1587 255.881 15.6121 256.289 15.2352C256.704 14.8519 257.229 14.6603 257.863 14.6603C258.548 14.6603 259.082 14.8488 259.465 15.2257C259.855 15.6027 260.05 16.1053 260.05 16.7336C260.05 17.186 259.933 17.6226 259.701 18.0436C259.475 18.4582 259.201 18.8321 258.881 19.165C258.567 19.4917 258.165 19.8719 257.675 20.3054L257.251 20.6823L260.238 20.6823V21.5776H255.658V20.7954L256.337 20.2111ZM264.65 16.498C264.688 15.9137 264.911 15.4582 265.319 15.1315C265.734 14.8048 266.262 14.6414 266.902 14.6414C267.342 14.6414 267.722 14.72 268.043 14.877C268.363 15.0341 268.605 15.2477 268.768 15.5179C268.932 15.7881 269.013 16.0928 269.013 16.432C269.013 16.8216 268.91 17.1546 268.702 17.431C268.495 17.7074 268.247 17.8928 267.958 17.987V18.0247C268.329 18.1378 268.618 18.3451 268.825 18.6467C269.032 18.942 269.136 19.3221 269.136 19.787C269.136 20.1577 269.051 20.4876 268.881 20.7766C268.712 21.0656 268.461 21.2949 268.128 21.4645C267.795 21.6279 267.396 21.7096 266.931 21.7096C266.252 21.7096 265.693 21.5368 265.253 21.1912C264.82 20.8394 264.587 20.3368 264.556 19.6834H265.592C265.618 20.0164 265.746 20.2897 265.979 20.5033C266.211 20.7106 266.525 20.8143 266.921 20.8143C267.304 20.8143 267.6 20.7106 267.807 20.5033C268.014 20.2897 268.118 20.0164 268.118 19.6834C268.118 19.2436 267.977 18.9326 267.694 18.7504C267.418 18.5619 266.99 18.4677 266.412 18.4677H266.167V17.5818H266.422C266.931 17.5755 267.317 17.4907 267.581 17.3273C267.851 17.164 267.986 16.9064 267.986 16.5545C267.986 16.253 267.889 16.0142 267.694 15.8383C267.499 15.6561 267.223 15.565 266.865 15.565C266.513 15.565 266.24 15.6561 266.045 15.8383C265.85 16.0142 265.734 16.2341 265.696 16.498H264.65Z" fill="black"/>
<path d="M81.1202 137.437C81.1202 137.825 81.0286 138.192 80.8454 138.536C80.6622 138.881 80.3691 139.163 79.9661 139.383C79.5631 139.595 79.0465 139.701 78.4163 139.701H77.0315V142.801H75.7785V135.162H78.4163C79.0025 135.162 79.4971 135.265 79.9002 135.47C80.3105 135.668 80.6146 135.939 80.8124 136.283C81.0176 136.627 81.1202 137.012 81.1202 137.437ZM78.4163 138.679C78.8926 138.679 79.248 138.573 79.4825 138.36C79.717 138.141 79.8342 137.833 79.8342 137.437C79.8342 136.602 79.3616 136.184 78.4163 136.184H77.0315V138.679H78.4163ZM88.789 141.24H85.5906L85.041 142.801H83.7331L86.4699 135.151H87.9207L90.6575 142.801H89.3385L88.789 141.24ZM88.4373 140.218L87.1953 136.668L85.9423 140.218H88.4373ZM99.3764 135.162L96.8484 140.031V142.801H95.5954V140.031L93.0565 135.162H94.4523L96.2219 138.91L97.9915 135.162H99.3764ZM106.845 141.24H103.646L103.097 142.801H101.789L104.525 135.151H105.976L108.713 142.801H107.394L106.845 141.24ZM106.493 140.218L105.251 136.668L103.998 140.218H106.493ZM115.86 138.877C116.271 138.95 116.619 139.166 116.904 139.525C117.19 139.884 117.333 140.291 117.333 140.745C117.333 141.134 117.23 141.486 117.025 141.801C116.827 142.108 116.538 142.354 116.157 142.537C115.776 142.713 115.333 142.801 114.827 142.801H111.771V135.162H114.684C115.204 135.162 115.651 135.25 116.025 135.426C116.399 135.602 116.681 135.84 116.871 136.14C117.062 136.433 117.157 136.763 117.157 137.129C117.157 137.569 117.04 137.935 116.805 138.228C116.571 138.522 116.256 138.738 115.86 138.877ZM113.024 138.371H114.574C114.985 138.371 115.303 138.28 115.53 138.097C115.765 137.906 115.882 137.635 115.882 137.283C115.882 136.939 115.765 136.671 115.53 136.481C115.303 136.283 114.985 136.184 114.574 136.184H113.024V138.371ZM114.717 141.779C115.142 141.779 115.475 141.676 115.717 141.471C115.959 141.266 116.08 140.98 116.08 140.614C116.08 140.24 115.952 139.943 115.695 139.723C115.439 139.503 115.098 139.394 114.673 139.394H113.024V141.779H114.717ZM121.816 141.79H124.399V142.801H120.563V135.162H121.816V141.79ZM128.568 136.173V138.415H131.206V139.437H128.568V141.779H131.536V142.801H127.315V135.151H131.536V136.173H128.568ZM149.618 135.162L147.354 142.801H145.936L144.332 137.019L142.628 142.801L141.221 142.812L139.056 135.162H140.386L141.969 141.383L143.683 135.162H145.09L146.684 141.35L148.277 135.162H149.618ZM153.773 135.162V142.801H152.52V135.162H153.773ZM162.222 135.162V136.184H160.188V142.801H158.936V136.184H156.891V135.162H162.222ZM171.459 135.162V142.801H170.206V139.459H166.612V142.801H165.359V135.162H166.612V138.437H170.206V135.162H171.459ZM183.79 138.877C184.2 138.95 184.548 139.166 184.834 139.525C185.12 139.884 185.263 140.291 185.263 140.745C185.263 141.134 185.16 141.486 184.955 141.801C184.757 142.108 184.468 142.354 184.087 142.537C183.705 142.713 183.262 142.801 182.757 142.801H179.701V135.162H182.614C183.134 135.162 183.581 135.25 183.955 135.426C184.328 135.602 184.61 135.84 184.801 136.14C184.991 136.433 185.087 136.763 185.087 137.129C185.087 137.569 184.969 137.935 184.735 138.228C184.501 138.522 184.185 138.738 183.79 138.877ZM180.954 138.371H182.504C182.914 138.371 183.233 138.28 183.46 138.097C183.694 137.906 183.812 137.635 183.812 137.283C183.812 136.939 183.694 136.671 183.46 136.481C183.233 136.283 182.914 136.184 182.504 136.184H180.954V138.371ZM182.647 141.779C183.072 141.779 183.405 141.676 183.647 141.471C183.889 141.266 184.01 140.98 184.01 140.614C184.01 140.24 183.881 139.943 183.625 139.723C183.368 139.503 183.028 139.394 182.603 139.394H180.954V141.779H182.647ZM189.746 135.162V142.801H188.493V135.162H189.746ZM198.194 135.162V136.184H196.161V142.801H194.908V136.184H192.864V135.162H198.194ZM200.914 138.965C200.914 138.217 201.086 137.547 201.431 136.953C201.782 136.36 202.255 135.898 202.848 135.569C203.449 135.232 204.105 135.063 204.816 135.063C205.629 135.063 206.351 135.265 206.981 135.668C207.619 136.063 208.08 136.627 208.366 137.36H206.86C206.662 136.957 206.388 136.657 206.036 136.459C205.684 136.261 205.278 136.162 204.816 136.162C204.31 136.162 203.86 136.276 203.464 136.503C203.068 136.73 202.757 137.056 202.53 137.481C202.31 137.906 202.2 138.401 202.2 138.965C202.2 139.529 202.31 140.024 202.53 140.449C202.757 140.874 203.068 141.203 203.464 141.438C203.86 141.665 204.31 141.779 204.816 141.779C205.278 141.779 205.684 141.68 206.036 141.482C206.388 141.284 206.662 140.984 206.86 140.581H208.366C208.08 141.313 207.619 141.878 206.981 142.273C206.351 142.669 205.629 142.867 204.816 142.867C204.098 142.867 203.442 142.702 202.848 142.372C202.255 142.035 201.782 141.57 201.431 140.976C201.086 140.383 200.914 139.712 200.914 138.965ZM215.185 142.878C214.475 142.878 213.819 142.713 213.218 142.383C212.624 142.046 212.152 141.581 211.8 140.987C211.456 140.386 211.283 139.712 211.283 138.965C211.283 138.217 211.456 137.547 211.8 136.953C212.152 136.36 212.624 135.898 213.218 135.569C213.819 135.232 214.475 135.063 215.185 135.063C215.903 135.063 216.559 135.232 217.153 135.569C217.754 135.898 218.226 136.36 218.571 136.953C218.915 137.547 219.087 138.217 219.087 138.965C219.087 139.712 218.915 140.386 218.571 140.987C218.226 141.581 217.754 142.046 217.153 142.383C216.559 142.713 215.903 142.878 215.185 142.878ZM215.185 141.79C215.691 141.79 216.142 141.676 216.537 141.449C216.933 141.214 217.241 140.885 217.461 140.46C217.688 140.027 217.801 139.529 217.801 138.965C217.801 138.401 217.688 137.906 217.461 137.481C217.241 137.056 216.933 136.73 216.537 136.503C216.142 136.276 215.691 136.162 215.185 136.162C214.68 136.162 214.229 136.276 213.833 136.503C213.438 136.73 213.126 137.056 212.899 137.481C212.679 137.906 212.569 138.401 212.569 138.965C212.569 139.529 212.679 140.027 212.899 140.46C213.126 140.885 213.438 141.214 213.833 141.449C214.229 141.676 214.68 141.79 215.185 141.79ZM223.442 135.162V142.801H222.189V135.162H223.442ZM233.231 142.801H231.978L228.208 137.096V142.801H226.955V135.151H228.208L231.978 140.844V135.151H233.231V142.801ZM244.953 142.878C244.242 142.878 243.586 142.713 242.985 142.383C242.392 142.046 241.919 141.581 241.568 140.987C241.223 140.386 241.051 139.712 241.051 138.965C241.051 138.217 241.223 137.547 241.568 136.953C241.919 136.36 242.392 135.898 242.985 135.569C243.586 135.232 244.242 135.063 244.953 135.063C245.671 135.063 246.327 135.232 246.92 135.569C247.521 135.898 247.994 136.36 248.338 136.953C248.683 137.547 248.855 138.217 248.855 138.965C248.855 139.712 248.683 140.386 248.338 140.987C247.994 141.581 247.521 142.046 246.92 142.383C246.327 142.713 245.671 142.878 244.953 142.878ZM244.953 141.79C245.458 141.79 245.909 141.676 246.305 141.449C246.7 141.214 247.008 140.885 247.228 140.46C247.455 140.027 247.569 139.529 247.569 138.965C247.569 138.401 247.455 137.906 247.228 137.481C247.008 137.056 246.7 136.73 246.305 136.503C245.909 136.276 245.458 136.162 244.953 136.162C244.447 136.162 243.997 136.276 243.601 136.503C243.205 136.73 242.894 137.056 242.667 137.481C242.447 137.906 242.337 138.401 242.337 138.965C242.337 139.529 242.447 140.027 242.667 140.46C242.894 140.885 243.205 141.214 243.601 141.449C243.997 141.676 244.447 141.79 244.953 141.79ZM258.232 142.801H256.979L253.209 137.096V142.801H251.956V135.151H253.209L256.979 140.844V135.151H258.232V142.801ZM262.999 141.79H265.582V142.801H261.746V135.162H262.999V141.79ZM274.159 135.162L271.631 140.031V142.801H270.378V140.031L267.839 135.162H269.235L271.004 138.91L272.774 135.162H274.159Z" fill="black"/>
<line x1="27.7383" y1="77.2021" x2="328.807" y2="77.202" stroke="black" stroke-width="4.24041"/>
<line x1="119.333" y1="128.087" x2="328.809" y2="128.087" stroke="black" stroke-width="4.24041"/>
<line x1="138.364" y1="128.709" x2="138.364" y2="79.2181" stroke="black" stroke-width="4.24041"/>
<line x1="326.687" y1="153.105" x2="326.687" y2="3.84301" stroke="black" stroke-width="4.24041"/>
<line x1="29.0107" y1="153.105" x2="29.0106" y2="1.29876" stroke="black" stroke-width="4.24041"/>
<mask id="path-15-inside-1_2330_66350" fill="white">
<path fill-rule="evenodd" clip-rule="evenodd" d="M0.378906 0.451172L355.876 0.451172V69.153C355.742 69.1481 355.607 69.1457 355.471 69.1457C349.382 69.1457 344.446 74.0817 344.446 80.1707C344.446 86.2597 349.382 91.1958 355.471 91.1958C355.607 91.1958 355.742 91.1933 355.876 91.1885L355.876 153.106H0.378906L0.378906 91.1083C5.81101 90.4242 10.0125 85.7879 10.0125 80.1702C10.0125 74.5525 5.81101 69.9162 0.378906 69.2321L0.378906 0.451172Z"/>
</mask>
<path d="M355.876 0.451172L360.117 0.451172V-3.78924H355.876V0.451172ZM0.378906 0.451172L0.378906 -3.78924H-3.8615L-3.8615 0.451172L0.378906 0.451172ZM355.876 69.153L355.723 73.3906L360.117 73.5497V69.153H355.876ZM355.876 91.1885L360.117 91.1885L360.117 86.7917L355.723 86.9508L355.876 91.1885ZM355.876 153.106V157.346H360.117L360.117 153.106L355.876 153.106ZM0.378906 153.106H-3.8615L-3.8615 157.346H0.378906L0.378906 153.106ZM0.378906 91.1083L-0.150918 86.9011L-3.8615 87.3684V91.1083H0.378906ZM0.378906 69.2321L-3.8615 69.2321L-3.8615 72.972L-0.150918 73.4393L0.378906 69.2321ZM355.876 -3.78924L0.378906 -3.78924L0.378906 4.69158L355.876 4.69158V-3.78924ZM360.117 69.153V0.451172L351.636 0.451172V69.153H360.117ZM355.471 73.3861C355.555 73.3861 355.64 73.3876 355.723 73.3906L356.03 64.9154C355.844 64.9086 355.658 64.9052 355.471 64.9052V73.3861ZM348.686 80.1707C348.686 76.4237 351.724 73.3861 355.471 73.3861V64.9052C347.04 64.9052 340.205 71.7398 340.205 80.1707H348.686ZM355.471 86.9554C351.724 86.9554 348.686 83.9178 348.686 80.1707H340.205C340.205 88.6016 347.04 95.4362 355.471 95.4362V86.9554ZM355.723 86.9508C355.64 86.9539 355.555 86.9554 355.471 86.9554V95.4362C355.658 95.4362 355.844 95.4328 356.03 95.4261L355.723 86.9508ZM360.117 153.106L360.117 91.1885L351.636 91.1885L351.636 153.106L360.117 153.106ZM0.378906 157.346H355.876V148.866H0.378906L0.378906 157.346ZM-3.8615 91.1083L-3.8615 153.106H4.61932L4.61932 91.1083H-3.8615ZM5.77212 80.1702C5.77212 83.624 3.1876 86.4807 -0.150918 86.9011L0.90873 95.3155C8.43441 94.3677 14.2529 87.9517 14.2529 80.1702H5.77212ZM-0.150918 73.4393C3.1876 73.8597 5.77212 76.7164 5.77212 80.1702H14.2529C14.2529 72.3886 8.43441 65.9727 0.90873 65.0249L-0.150918 73.4393ZM-3.8615 0.451172L-3.8615 69.2321L4.61932 69.2321L4.61932 0.451172L-3.8615 0.451172Z" fill="black" mask="url(#path-15-inside-1_2330_66350)"/>
</svg>
