<svg width="357" height="153" viewBox="0 0 357 153" fill="none" xmlns="http://www.w3.org/2000/svg">
<path fill-rule="evenodd" clip-rule="evenodd" d="M0.529297 0.154297L356.027 0.154297V68.8561C355.892 68.8512 355.757 68.8488 355.621 68.8488C349.532 68.8488 344.596 73.7849 344.596 79.8739C344.596 85.9628 349.532 90.8989 355.621 90.8989C355.757 90.8989 355.892 90.8965 356.027 90.8916V152.809H0.529297L0.529297 90.7001C5.61849 89.7232 9.46362 85.2472 9.46362 79.873C9.46362 74.4989 5.61849 70.0228 0.529297 69.0459L0.529297 0.154297Z" fill="#A5FAAE"/>
<rect x="29.8037" y="78.9238" width="108.043" height="50.8849" fill="black"/>
<path d="M63.2162 108.092C63.2162 109.403 62.8704 110.619 62.1789 111.74C61.5112 112.837 60.5097 113.743 59.1743 114.459C57.8628 115.15 56.3008 115.532 54.4885 115.603V118.501H52.1993V115.568C49.6716 115.353 47.6327 114.602 46.0827 113.314C44.5327 112.003 43.7101 110.226 43.6147 107.984H50.1247C50.2677 109.415 50.9593 110.333 52.1993 110.739V105.087C50.3393 104.61 48.8489 104.145 47.7281 103.692C46.6312 103.239 45.6654 102.512 44.8308 101.51C43.9962 100.509 43.5789 99.1375 43.5789 97.3967C43.5789 95.2267 44.3777 93.486 45.9754 92.1744C47.597 90.8629 49.6716 90.1237 52.1993 89.9567V87.0594H54.4885V89.9567C56.9924 90.1475 58.9716 90.8748 60.4262 92.1387C61.8808 93.4025 62.6916 95.1552 62.8585 97.3967H56.3128C56.1697 96.109 55.5616 95.2744 54.4885 94.8929L54.4885 100.437C56.4678 100.986 57.9939 101.474 59.067 101.904C60.1401 102.333 61.0939 103.048 61.9285 104.05C62.787 105.028 63.2162 106.375 63.2162 108.092ZM50.0531 97.1106C50.0531 97.7067 50.232 98.2075 50.5897 98.6129C50.9712 99.0183 51.5077 99.376 52.1993 99.686V94.714C51.5316 94.8333 51.007 95.0956 50.6254 95.501C50.2439 95.8825 50.0531 96.419 50.0531 97.1106ZM54.4885 110.846C55.2039 110.727 55.7643 110.441 56.1697 109.988C56.5989 109.534 56.8135 108.974 56.8135 108.306C56.8135 107.686 56.6108 107.186 56.2054 106.804C55.8239 106.399 55.2516 106.053 54.4885 105.767V110.846ZM66.8719 94.9644V89.2771H76.78L76.78 115.389H70.4131V94.9644H66.8719ZM99.7073 94.6067H88.5473V99.5429C89.0242 99.0183 89.6919 98.589 90.5504 98.2552C91.4088 97.9213 92.3388 97.7544 93.3404 97.7544C95.1288 97.7544 96.6073 98.1598 97.7757 98.9706C98.9681 99.7814 99.8384 100.831 100.387 102.118C100.935 103.406 101.21 104.801 101.21 106.303C101.21 109.093 100.423 111.311 98.8488 112.956C97.275 114.578 95.0573 115.389 92.1957 115.389C90.288 115.389 88.6307 115.067 87.2238 114.423C85.8169 113.755 84.7319 112.837 83.9688 111.669C83.2057 110.5 82.7884 109.153 82.7169 107.627H88.6904C88.8334 108.366 89.1792 108.986 89.7277 109.487C90.2761 109.964 91.0273 110.202 91.9811 110.202C93.1019 110.202 93.9365 109.844 94.485 109.129C95.0334 108.414 95.3077 107.46 95.3077 106.268C95.3077 105.099 95.0215 104.205 94.4492 103.585C93.8769 102.965 93.0423 102.655 91.9454 102.655C91.1346 102.655 90.4669 102.858 89.9423 103.263C89.4177 103.644 89.0719 104.157 88.905 104.801H83.003V89.2413H99.7073V94.6067ZM104.944 101.975C104.944 97.8737 105.73 94.6425 107.304 92.2817C108.902 89.921 111.465 88.7406 114.995 88.7406C118.524 88.7406 121.076 89.921 122.649 92.2817C124.247 94.6425 125.046 97.8737 125.046 101.975C125.046 106.124 124.247 109.379 122.649 111.74C121.076 114.101 118.524 115.281 114.995 115.281C111.465 115.281 108.902 114.101 107.304 111.74C105.73 109.379 104.944 106.124 104.944 101.975ZM119.037 101.975C119.037 99.5667 118.774 97.7187 118.25 96.431C117.725 95.1194 116.64 94.4637 114.995 94.4637C113.349 94.4637 112.264 95.1194 111.74 96.431C111.215 97.7187 110.953 99.5667 110.953 101.975C110.953 103.597 111.048 104.944 111.239 106.017C111.43 107.066 111.811 107.925 112.384 108.593C112.98 109.236 113.85 109.558 114.995 109.558C116.139 109.558 116.998 109.236 117.57 108.593C118.166 107.925 118.56 107.066 118.75 106.017C118.941 104.944 119.037 103.597 119.037 101.975Z" fill="#A5FAAE"/>
<rect x="308.604" y="129.912" width="20.354" height="20.354" rx="0.686089" fill="black"/>
<path d="M317.178 142.268H315.216V136.744H314.134V135.003H318.303V136.744H317.178V142.268ZM323.934 142.268H321.756L321.394 141.232C321.278 140.916 321.184 140.611 321.111 140.32C321.042 140.608 320.939 140.939 320.801 141.312L320.439 142.268H318.303L320.067 138.499L318.401 135.003H320.585L320.909 135.986C320.944 136.077 320.977 136.184 321.008 136.306C321.042 136.429 321.077 136.567 321.111 136.72C321.19 136.407 321.256 136.165 321.309 135.996L321.61 135.003H323.807L322.151 138.499L323.934 142.268Z" fill="#A5FAAE"/>
<path d="M165.793 94.2866V103.525C165.793 104.383 165.989 105.046 166.38 105.513C166.787 105.98 167.397 106.213 168.21 106.213C169.023 106.213 169.633 105.98 170.04 105.513C170.461 105.031 170.672 104.368 170.672 103.525V94.2866H175.099V103.525C175.099 104.986 174.791 106.236 174.173 107.275C173.556 108.299 172.712 109.074 171.643 109.601C170.589 110.113 169.415 110.369 168.12 110.369C166.825 110.369 165.665 110.113 164.641 109.601C163.632 109.074 162.834 108.299 162.247 107.275C161.675 106.251 161.388 105.001 161.388 103.525V94.2866H165.793ZM192.512 110.211H188.085L182.19 101.311V110.211H177.763V94.2866L182.19 94.2866L188.085 103.299V94.2866H192.512V110.211ZM207.254 94.2866V97.8103H203.008V110.211H198.58V97.8103H194.379V94.2866H207.254ZM213.545 94.2866V110.211H209.118V94.2866H213.545ZM220.719 106.823H225.666V110.211H216.292V94.2866H220.719V106.823ZM242.711 94.2866V104.835C242.711 106.627 242.222 107.997 241.243 108.946C240.279 109.895 238.946 110.369 237.245 110.369C235.438 110.369 233.992 109.865 232.908 108.856C231.839 107.847 231.304 106.394 231.304 104.496H235.686C235.701 105.746 236.161 106.371 237.064 106.371C237.877 106.371 238.284 105.859 238.284 104.835V94.2866H242.711ZM249.916 94.2866V103.525C249.916 104.383 250.112 105.046 250.503 105.513C250.91 105.98 251.52 106.213 252.333 106.213C253.146 106.213 253.756 105.98 254.163 105.513C254.584 105.031 254.795 104.368 254.795 103.525V94.2866H259.222V103.525C259.222 104.986 258.914 106.236 258.296 107.275C257.679 108.299 256.836 109.074 255.766 109.601C254.712 110.113 253.538 110.369 252.243 110.369C250.948 110.369 249.788 110.113 248.764 109.601C247.755 109.074 246.957 108.299 246.37 107.275C245.798 106.251 245.512 105.001 245.512 103.525V94.2866H249.916ZM276.635 110.211H272.208L266.313 101.311V110.211H261.886V94.2866H266.313L272.208 103.299V94.2866H276.635V110.211ZM283.81 97.8329V100.43H288.893V103.796H283.81V106.665H289.57V110.211H279.383V94.2866H289.57V97.8329H283.81ZM295.675 97.8555V93.6994H302.632V110.211H298.001V97.8555H295.675Z" fill="black"/>
<path d="M91.8978 39.0274V60.2598H85.9949L85.9949 39.0274H91.8978ZM115.227 60.2598H109.324L101.463 48.3937V60.2598H95.5606L95.5606 39.0274H101.463L109.324 51.044V39.0274H115.227V60.2598ZM138.557 60.2598H132.654L124.793 48.3937V60.2598H118.891V39.0274H124.793L132.654 51.044V39.0274H138.557V60.2598ZM152.4 60.4706C150.412 60.4706 148.585 60.0088 146.919 59.0852C145.252 58.1415 143.927 56.8465 142.943 55.2001C141.98 53.5337 141.498 51.6564 141.498 49.5683C141.498 47.4802 141.98 45.6129 142.943 43.9665C143.927 42.3001 145.252 41.0051 146.919 40.0815C148.585 39.1579 150.412 38.6961 152.4 38.6961C154.408 38.6961 156.235 39.1579 157.881 40.0815C159.548 41.0051 160.863 42.3001 161.827 43.9665C162.79 45.6129 163.272 47.4802 163.272 49.5683C163.272 51.6564 162.79 53.5337 161.827 55.2001C160.863 56.8465 159.548 58.1415 157.881 59.0852C156.215 60.0088 154.388 60.4706 152.4 60.4706ZM152.4 54.9893C153.906 54.9893 155.09 54.4974 155.954 53.5136C156.837 52.5298 157.279 51.2147 157.279 49.5683C157.279 47.8817 156.837 46.5566 155.954 45.5929C155.09 44.609 153.906 44.1171 152.4 44.1171C150.874 44.1171 149.679 44.609 148.816 45.5929C147.953 46.5566 147.521 47.8817 147.521 49.5683C147.521 51.2347 147.953 52.5599 148.816 53.5437C149.679 54.5074 150.874 54.9893 152.4 54.9893ZM186.887 39.0274L179.569 60.2598H172.009L164.661 39.0274H170.985L175.804 54.3569L180.593 39.0274H186.887ZM202.46 56.7963H194.93L193.786 60.2598H187.582L195.322 39.0274H202.128L209.838 60.2598H203.604L202.46 56.7963ZM200.984 52.2788L198.695 45.4122L196.436 52.2788H200.984ZM228.055 39.0274V43.7256H222.393V60.2598H216.491V43.7256H210.889V39.0274H228.055ZM240.72 60.4706C238.732 60.4706 236.905 60.0088 235.239 59.0852C233.572 58.1415 232.247 56.8465 231.263 55.2001C230.3 53.5337 229.818 51.6564 229.818 49.5683C229.818 47.4802 230.3 45.6129 231.263 43.9665C232.247 42.3001 233.572 41.0051 235.239 40.0815C236.905 39.1579 238.732 38.6961 240.72 38.6961C242.728 38.6961 244.555 39.1579 246.201 40.0815C247.868 41.0051 249.183 42.3001 250.147 43.9665C251.11 45.6129 251.592 47.4802 251.592 49.5683C251.592 51.6564 251.11 53.5337 250.147 55.2001C249.183 56.8465 247.868 58.1415 246.201 59.0852C244.535 60.0088 242.708 60.4706 240.72 60.4706ZM240.72 54.9893C242.226 54.9893 243.41 54.4974 244.274 53.5136C245.157 52.5298 245.599 51.2147 245.599 49.5683C245.599 47.8817 245.157 46.5566 244.274 45.5929C243.41 44.609 242.226 44.1171 240.72 44.1171C239.194 44.1171 237.999 44.609 237.136 45.5929C236.273 46.5566 235.841 47.8817 235.841 49.5683C235.841 51.2347 236.273 52.5599 237.136 53.5437C237.999 54.5074 239.194 54.9893 240.72 54.9893ZM265.299 60.2598L261.082 52.4294H260.45V60.2598H254.547V39.0274H263.853C265.56 39.0274 267.005 39.3285 268.19 39.9309C269.375 40.5131 270.268 41.3263 270.87 42.3703C271.473 43.3943 271.774 44.5488 271.774 45.8338C271.774 47.2794 271.372 48.5543 270.569 49.6586C269.786 50.7428 268.632 51.5158 267.106 51.9776L271.894 60.2598H265.299ZM260.45 48.3937H263.371C264.174 48.3937 264.777 48.203 265.178 47.8215C265.58 47.44 265.781 46.8879 265.781 46.1651C265.781 45.4824 265.57 44.9504 265.148 44.5689C264.747 44.1673 264.154 43.9665 263.371 43.9665H260.45V48.3937Z" fill="black"/>
<path d="M91.5268 20.0348H88.7844L88.3132 21.373H87.1917L89.5383 14.8138H90.7823L93.1289 21.373H91.998L91.5268 20.0348ZM91.2253 19.1584L90.1603 16.1144L89.086 19.1584H91.2253ZM99.7755 14.8232C100.473 14.8232 101.082 14.9583 101.604 15.2285C102.132 15.4924 102.537 15.8756 102.819 16.3782C103.108 16.8746 103.253 17.4557 103.253 18.1217C103.253 18.7877 103.108 19.3657 102.819 19.8558C102.537 20.3458 102.132 20.7228 101.604 20.9867C101.082 21.2442 100.473 21.373 99.7755 21.373H97.6362V14.8232H99.7755ZM99.7755 20.4966C100.542 20.4966 101.129 20.2893 101.538 19.8746C101.946 19.4599 102.15 18.8756 102.15 18.1217C102.15 17.3615 101.946 16.7678 101.538 16.3405C101.129 15.9133 100.542 15.6997 99.7755 15.6997H98.7105V20.4966H99.7755ZM110.792 21.439C110.183 21.439 109.62 21.2977 109.105 21.0149C108.596 20.7259 108.191 20.327 107.89 19.8181C107.594 19.3029 107.447 18.7249 107.447 18.084C107.447 17.4432 107.594 16.8683 107.89 16.3594C108.191 15.8505 108.596 15.4547 109.105 15.1719C109.62 14.8829 110.183 14.7384 110.792 14.7384C111.408 14.7384 111.97 14.8829 112.479 15.1719C112.994 15.4547 113.4 15.8505 113.695 16.3594C113.99 16.8683 114.138 17.4432 114.138 18.084C114.138 18.7249 113.99 19.3029 113.695 19.8181C113.4 20.327 112.994 20.7259 112.479 21.0149C111.97 21.2977 111.408 21.439 110.792 21.439ZM110.792 20.506C111.226 20.506 111.612 20.4086 111.951 20.2139C112.291 20.0128 112.555 19.7301 112.743 19.3657C112.938 18.995 113.035 18.5678 113.035 18.084C113.035 17.6002 112.938 17.1761 112.743 16.8117C112.555 16.4473 112.291 16.1678 111.951 15.973C111.612 15.7782 111.226 15.6808 110.792 15.6808C110.359 15.6808 109.972 15.7782 109.633 15.973C109.294 16.1678 109.027 16.4473 108.832 16.8117C108.643 17.1761 108.549 17.6002 108.549 18.084C108.549 18.5678 108.643 18.995 108.832 19.3657C109.027 19.7301 109.294 20.0128 109.633 20.2139C109.972 20.4086 110.359 20.506 110.792 20.506ZM123.262 16.7741C123.262 17.107 123.184 17.4212 123.026 17.7165C122.869 18.0118 122.618 18.2536 122.273 18.4421C121.927 18.6243 121.484 18.7154 120.944 18.7154H119.756V21.373H118.682V14.8232H120.944C121.446 14.8232 121.87 14.9112 122.216 15.0871C122.568 15.2568 122.829 15.4892 122.998 15.7845C123.174 16.0798 123.262 16.4096 123.262 16.7741ZM120.944 17.839C121.352 17.839 121.657 17.7479 121.858 17.5657C122.059 17.3772 122.159 17.1133 122.159 16.7741C122.159 16.0578 121.754 15.6997 120.944 15.6997H119.756V17.839H120.944ZM132.005 14.8232V15.6997H130.262V21.373H129.187V15.6997H127.434V14.8232H132.005ZM137.654 14.8232V21.373H136.58V14.8232H137.654ZM147.933 21.373H146.859L143.626 16.4819V21.373H142.552V14.8138H143.626L146.859 19.6955V14.8138H147.933V21.373ZM157.571 16.7081C157.402 16.3814 157.166 16.1363 156.864 15.973C156.563 15.8034 156.214 15.7185 155.818 15.7185C155.385 15.7185 154.998 15.8159 154.659 16.0107C154.32 16.2055 154.053 16.4819 153.858 16.84C153.67 17.1981 153.575 17.6128 153.575 18.084C153.575 18.5552 153.67 18.973 153.858 19.3374C154.053 19.6955 154.32 19.972 154.659 20.1668C154.998 20.3615 155.385 20.4589 155.818 20.4589C156.403 20.4589 156.877 20.2955 157.241 19.9688C157.606 19.6421 157.829 19.1992 157.911 18.64H155.451V17.7824L159.06 17.7824V18.6212C158.991 19.1301 158.809 19.5982 158.514 20.0254C158.225 20.4526 157.845 20.795 157.373 21.0526C156.908 21.3039 156.39 21.4296 155.818 21.4296C155.203 21.4296 154.64 21.2882 154.131 21.0055C153.623 20.7165 153.217 20.3175 152.916 19.8086C152.62 19.2997 152.473 18.7249 152.473 18.084C152.473 17.4432 152.62 16.8683 152.916 16.3594C153.217 15.8505 153.623 15.4547 154.131 15.1719C154.647 14.8829 155.209 14.7384 155.818 14.7384C156.516 14.7384 157.135 14.9112 157.675 15.2568C158.222 15.596 158.617 16.0798 158.862 16.7081H157.571ZM173.048 18.0086C173.4 18.0714 173.698 18.2568 173.943 18.5646C174.188 18.8725 174.311 19.2212 174.311 19.6107C174.311 19.9437 174.223 20.2453 174.047 20.5154C173.877 20.7793 173.629 20.9898 173.302 21.1469C172.975 21.2977 172.595 21.373 172.162 21.373H169.542V14.8232H172.039C172.485 14.8232 172.869 14.8986 173.189 15.0494C173.509 15.2002 173.751 15.4044 173.915 15.662C174.078 15.9133 174.16 16.196 174.16 16.5102C174.16 16.8871 174.059 17.2013 173.858 17.4526C173.657 17.7039 173.387 17.8892 173.048 18.0086ZM170.616 17.5751H171.945C172.297 17.5751 172.57 17.4966 172.765 17.3395C172.966 17.1761 173.067 16.9437 173.067 16.6421C173.067 16.3468 172.966 16.1175 172.765 15.9541C172.57 15.7845 172.297 15.6997 171.945 15.6997H170.616V17.5751ZM172.068 20.4966C172.432 20.4966 172.718 20.4086 172.925 20.2327C173.132 20.0568 173.236 19.8118 173.236 19.4976C173.236 19.1772 173.126 18.9228 172.906 18.7343C172.686 18.5458 172.394 18.4516 172.03 18.4516H170.616V20.4966H172.068ZM180.039 14.8232V21.373H178.965V14.8232H180.039ZM189.168 14.8232V15.6997H187.425V21.373L186.35 21.373V15.6997H184.598V14.8232H189.168ZM193.385 18.084C193.385 17.4432 193.533 16.8683 193.828 16.3594C194.13 15.8505 194.535 15.4547 195.044 15.1719C195.559 14.8829 196.121 14.7384 196.731 14.7384C197.428 14.7384 198.047 14.9112 198.587 15.2568C199.134 15.596 199.53 16.0798 199.775 16.7081H198.484C198.314 16.3625 198.078 16.1049 197.777 15.9353C197.475 15.7657 197.126 15.6808 196.731 15.6808C196.297 15.6808 195.911 15.7782 195.572 15.973C195.232 16.1678 194.965 16.4473 194.77 16.8117C194.582 17.1761 194.488 17.6002 194.488 18.084C194.488 18.5678 194.582 18.9919 194.77 19.3563C194.965 19.7207 195.232 20.0034 195.572 20.2044C195.911 20.3992 196.297 20.4966 196.731 20.4966C197.126 20.4966 197.475 20.4118 197.777 20.2421C198.078 20.0725 198.314 19.8149 198.484 19.4694H199.775C199.53 20.0976 199.134 20.5814 198.587 20.9207C198.047 21.26 197.428 21.4296 196.731 21.4296C196.115 21.4296 195.553 21.2882 195.044 21.0055C194.535 20.7165 194.13 20.3175 193.828 19.8086C193.533 19.2997 193.385 18.7249 193.385 18.084ZM207.507 21.439C206.897 21.439 206.335 21.2977 205.82 21.0149C205.311 20.7259 204.906 20.327 204.604 19.8181C204.309 19.3029 204.161 18.7249 204.161 18.084C204.161 17.4432 204.309 16.8683 204.604 16.3594C204.906 15.8505 205.311 15.4547 205.82 15.1719C206.335 14.8829 206.897 14.7384 207.507 14.7384C208.122 14.7384 208.685 14.8829 209.194 15.1719C209.709 15.4547 210.114 15.8505 210.409 16.3594C210.705 16.8683 210.852 17.4432 210.852 18.084C210.852 18.7249 210.705 19.3029 210.409 19.8181C210.114 20.327 209.709 20.7259 209.194 21.0149C208.685 21.2977 208.122 21.439 207.507 21.439ZM207.507 20.506C207.94 20.506 208.327 20.4086 208.666 20.2139C209.005 20.0128 209.269 19.7301 209.457 19.3657C209.652 18.995 209.75 18.5678 209.75 18.084C209.75 17.6002 209.652 17.1761 209.457 16.8117C209.269 16.4473 209.005 16.1678 208.666 15.973C208.327 15.7782 207.94 15.6808 207.507 15.6808C207.073 15.6808 206.687 15.7782 206.347 15.973C206.008 16.1678 205.741 16.4473 205.546 16.8117C205.358 17.1761 205.264 17.6002 205.264 18.084C205.264 18.5678 205.358 18.995 205.546 19.3657C205.741 19.7301 206.008 20.0128 206.347 20.2139C206.687 20.4086 207.073 20.506 207.507 20.506ZM216.471 14.8232V21.373H215.396V14.8232H216.471ZM226.749 21.373H225.675L222.443 16.4819V21.373H221.368V14.8138H222.443L225.675 19.6955V14.8138H226.749V21.373ZM238.035 19.9123C238.638 19.3908 239.112 18.9636 239.458 18.6306C239.809 18.2913 240.102 17.9395 240.334 17.5751C240.566 17.2107 240.683 16.8463 240.683 16.4819C240.683 16.1049 240.592 15.8096 240.409 15.596C240.234 15.3824 239.954 15.2756 239.571 15.2756C239.2 15.2756 238.911 15.395 238.704 15.6337C238.503 15.8662 238.396 16.1803 238.383 16.5761H237.347C237.365 15.8599 237.579 15.3133 237.987 14.9363C238.402 14.5531 238.927 14.3615 239.561 14.3615C240.246 14.3615 240.78 14.5499 241.163 14.9269C241.553 15.3039 241.748 15.8065 241.748 16.4348C241.748 16.8871 241.631 17.3238 241.399 17.7447C241.173 18.1594 240.899 18.5332 240.579 18.8662C240.265 19.1929 239.863 19.573 239.373 20.0065L238.949 20.3835H241.936V21.2788H237.356V20.4966L238.035 19.9123ZM246.367 17.8484C246.367 16.7615 246.549 15.9133 246.914 15.3039C247.284 14.6882 247.919 14.3803 248.817 14.3803C249.716 14.3803 250.347 14.6882 250.711 15.3039C251.082 15.9133 251.267 16.7615 251.267 17.8484C251.267 18.9479 251.082 19.8086 250.711 20.4306C250.347 21.0463 249.716 21.3542 248.817 21.3542C247.919 21.3542 247.284 21.0463 246.914 20.4306C246.549 19.8086 246.367 18.9479 246.367 17.8484ZM250.212 17.8484C250.212 17.3395 250.177 16.9091 250.108 16.5573C250.045 16.2055 249.914 15.9196 249.713 15.6997C249.511 15.4735 249.213 15.3604 248.817 15.3604C248.421 15.3604 248.123 15.4735 247.922 15.6997C247.721 15.9196 247.586 16.2055 247.517 16.5573C247.454 16.9091 247.422 17.3395 247.422 17.8484C247.422 18.3762 247.454 18.8191 247.517 19.1772C247.58 19.5353 247.711 19.8243 247.912 20.0442C248.12 20.2641 248.421 20.3741 248.817 20.3741C249.213 20.3741 249.511 20.2641 249.713 20.0442C249.92 19.8243 250.055 19.5353 250.118 19.1772C250.181 18.8191 250.212 18.3762 250.212 17.8484ZM256.485 19.9123C257.088 19.3908 257.562 18.9636 257.908 18.6306C258.26 18.2913 258.552 17.9395 258.784 17.5751C259.017 17.2107 259.133 16.8463 259.133 16.4819C259.133 16.1049 259.042 15.8096 258.86 15.596C258.684 15.3824 258.404 15.2756 258.021 15.2756C257.65 15.2756 257.361 15.395 257.154 15.6337C256.953 15.8662 256.846 16.1803 256.834 16.5761H255.797C255.816 15.8599 256.029 15.3133 256.438 14.9363C256.852 14.5531 257.377 14.3615 258.012 14.3615C258.696 14.3615 259.231 14.5499 259.614 14.9269C260.003 15.3039 260.198 15.8065 260.198 16.4348C260.198 16.8871 260.082 17.3238 259.849 17.7447C259.623 18.1594 259.35 18.5332 259.029 18.8662C258.715 19.1929 258.313 19.573 257.823 20.0065L257.399 20.3835H260.387V21.2788H255.806V20.4966L256.485 19.9123ZM264.798 16.1992C264.836 15.6149 265.059 15.1594 265.468 14.8327C265.882 14.506 266.41 14.3426 267.051 14.3426C267.491 14.3426 267.871 14.4211 268.191 14.5782C268.512 14.7353 268.753 14.9489 268.917 15.2191C269.08 15.4892 269.162 15.7939 269.162 16.1332C269.162 16.5227 269.058 16.8557 268.851 17.1322C268.644 17.4086 268.395 17.594 268.106 17.6882V17.7259C268.477 17.839 268.766 18.0463 268.973 18.3479C269.181 18.6432 269.284 19.0233 269.284 19.4882C269.284 19.8589 269.2 20.1887 269.03 20.4778C268.86 20.7668 268.609 20.9961 268.276 21.1657C267.943 21.3291 267.544 21.4107 267.079 21.4107C266.401 21.4107 265.841 21.238 265.402 20.8924C264.968 20.5406 264.736 20.038 264.704 19.3845H265.741C265.766 19.7175 265.895 19.9908 266.127 20.2044C266.36 20.4118 266.674 20.5154 267.07 20.5154C267.453 20.5154 267.748 20.4118 267.956 20.2044C268.163 19.9908 268.267 19.7175 268.267 19.3845C268.267 18.9448 268.125 18.6338 267.842 18.4516C267.566 18.2631 267.139 18.1688 266.561 18.1688H266.316V17.283H266.57C267.079 17.2767 267.465 17.1919 267.729 17.0285C268 16.8652 268.135 16.6076 268.135 16.2557C268.135 15.9541 268.037 15.7154 267.842 15.5395C267.648 15.3573 267.371 15.2662 267.013 15.2662C266.661 15.2662 266.388 15.3573 266.193 15.5395C265.998 15.7154 265.882 15.9353 265.845 16.1992H264.798Z" fill="black"/>
<path d="M81.2706 137.14C81.2706 137.529 81.179 137.895 80.9958 138.239C80.8126 138.584 80.5195 138.866 80.1165 139.086C79.7135 139.298 79.1969 139.404 78.5667 139.404H77.1819V142.504H75.9289V134.865H78.5667C79.1529 134.865 79.6475 134.968 80.0505 135.173C80.4609 135.371 80.765 135.642 80.9628 135.986C81.168 136.331 81.2706 136.715 81.2706 137.14ZM78.5667 138.382C79.043 138.382 79.3984 138.276 79.6329 138.063C79.8674 137.844 79.9846 137.536 79.9846 137.14C79.9846 136.305 79.512 135.887 78.5667 135.887H77.1819V138.382H78.5667ZM88.9394 140.943H85.741L85.1914 142.504H83.8834L86.6202 134.854H88.0711L90.8079 142.504H89.4889L88.9394 140.943ZM88.5877 139.921L87.3457 136.371L86.0927 139.921H88.5877ZM99.5268 134.865L96.9988 139.734V142.504H95.7458V139.734L93.2069 134.865H94.6027L96.3723 138.613L98.1419 134.865H99.5268ZM106.995 140.943H103.796L103.247 142.504H101.939L104.676 134.854H106.127L108.863 142.504H107.544L106.995 140.943ZM106.643 139.921L105.401 136.371L104.148 139.921H106.643ZM116.011 138.58C116.421 138.653 116.769 138.87 117.055 139.229C117.34 139.588 117.483 139.994 117.483 140.449C117.483 140.837 117.381 141.189 117.176 141.504C116.978 141.811 116.688 142.057 116.307 142.24C115.926 142.416 115.483 142.504 114.977 142.504H111.922V134.865H114.835C115.355 134.865 115.802 134.953 116.175 135.129C116.549 135.305 116.831 135.543 117.022 135.843C117.212 136.136 117.308 136.466 117.308 136.832C117.308 137.272 117.19 137.638 116.956 137.932C116.721 138.225 116.406 138.441 116.011 138.58ZM113.175 138.074H114.725C115.135 138.074 115.454 137.983 115.681 137.8C115.915 137.609 116.033 137.338 116.033 136.986C116.033 136.642 115.915 136.375 115.681 136.184C115.454 135.986 115.135 135.887 114.725 135.887H113.175V138.074ZM114.867 141.482C115.292 141.482 115.626 141.379 115.868 141.174C116.109 140.969 116.23 140.683 116.23 140.317C116.23 139.943 116.102 139.646 115.846 139.426C115.589 139.207 115.249 139.097 114.824 139.097H113.175V141.482H114.867ZM121.966 141.493H124.549V142.504H120.713V134.865H121.966V141.493ZM128.719 135.876V138.118H131.357V139.141H128.719V141.482H131.686V142.504H127.466V134.854H131.686V135.876H128.719ZM149.769 134.865L147.505 142.504H146.087L144.482 136.723L142.778 142.504L141.372 142.515L139.206 134.865H140.536L142.119 141.086L143.834 134.865H145.24L146.834 141.053L148.428 134.865H149.769ZM153.924 134.865V142.504H152.671V134.865H153.924ZM162.372 134.865V135.887H160.339V142.504H159.086V135.887H157.042V134.865H162.372ZM171.61 134.865V142.504H170.357V139.163H166.763V142.504H165.51V134.865H166.763V138.14H170.357V134.865H171.61ZM183.94 138.58C184.35 138.653 184.699 138.87 184.984 139.229C185.27 139.588 185.413 139.994 185.413 140.449C185.413 140.837 185.31 141.189 185.105 141.504C184.907 141.811 184.618 142.057 184.237 142.24C183.856 142.416 183.413 142.504 182.907 142.504H179.851V134.865H182.764C183.284 134.865 183.731 134.953 184.105 135.129C184.479 135.305 184.761 135.543 184.951 135.843C185.142 136.136 185.237 136.466 185.237 136.832C185.237 137.272 185.12 137.638 184.885 137.932C184.651 138.225 184.336 138.441 183.94 138.58ZM181.104 138.074H182.654C183.065 138.074 183.383 137.983 183.61 137.8C183.845 137.609 183.962 137.338 183.962 136.986C183.962 136.642 183.845 136.375 183.61 136.184C183.383 135.986 183.065 135.887 182.654 135.887H181.104V138.074ZM182.797 141.482C183.222 141.482 183.555 141.379 183.797 141.174C184.039 140.969 184.16 140.683 184.16 140.317C184.16 139.943 184.032 139.646 183.775 139.426C183.519 139.207 183.178 139.097 182.753 139.097H181.104V141.482H182.797ZM189.896 134.865V142.504H188.643V134.865H189.896ZM198.345 134.865V135.887H196.311V142.504H195.058V135.887H193.014V134.865H198.345ZM201.064 138.668C201.064 137.921 201.237 137.25 201.581 136.657C201.933 136.063 202.405 135.601 202.999 135.272C203.6 134.935 204.256 134.766 204.966 134.766C205.78 134.766 206.501 134.968 207.132 135.371C207.769 135.766 208.231 136.331 208.516 137.063H207.011C206.813 136.66 206.538 136.36 206.186 136.162C205.835 135.964 205.428 135.865 204.966 135.865C204.461 135.865 204.01 135.979 203.614 136.206C203.219 136.433 202.907 136.759 202.68 137.184C202.46 137.609 202.35 138.104 202.35 138.668C202.35 139.232 202.46 139.727 202.68 140.152C202.907 140.577 203.219 140.907 203.614 141.141C204.01 141.368 204.461 141.482 204.966 141.482C205.428 141.482 205.835 141.383 206.186 141.185C206.538 140.987 206.813 140.687 207.011 140.284H208.516C208.231 141.016 207.769 141.581 207.132 141.976C206.501 142.372 205.78 142.57 204.966 142.57C204.248 142.57 203.592 142.405 202.999 142.075C202.405 141.738 201.933 141.273 201.581 140.679C201.237 140.086 201.064 139.415 201.064 138.668ZM215.336 142.581C214.625 142.581 213.969 142.416 213.368 142.086C212.775 141.749 212.302 141.284 211.95 140.69C211.606 140.09 211.434 139.415 211.434 138.668C211.434 137.921 211.606 137.25 211.95 136.657C212.302 136.063 212.775 135.601 213.368 135.272C213.969 134.935 214.625 134.766 215.336 134.766C216.054 134.766 216.71 134.935 217.303 135.272C217.904 135.601 218.377 136.063 218.721 136.657C219.065 137.25 219.238 137.921 219.238 138.668C219.238 139.415 219.065 140.09 218.721 140.69C218.377 141.284 217.904 141.749 217.303 142.086C216.71 142.416 216.054 142.581 215.336 142.581ZM215.336 141.493C215.841 141.493 216.292 141.379 216.688 141.152C217.083 140.918 217.391 140.588 217.611 140.163C217.838 139.73 217.952 139.232 217.952 138.668C217.952 138.104 217.838 137.609 217.611 137.184C217.391 136.759 217.083 136.433 216.688 136.206C216.292 135.979 215.841 135.865 215.336 135.865C214.83 135.865 214.38 135.979 213.984 136.206C213.588 136.433 213.277 136.759 213.05 137.184C212.83 137.609 212.72 138.104 212.72 138.668C212.72 139.232 212.83 139.73 213.05 140.163C213.277 140.588 213.588 140.918 213.984 141.152C214.38 141.379 214.83 141.493 215.336 141.493ZM223.592 134.865V142.504H222.339V134.865H223.592ZM233.382 142.504H232.129L228.359 136.8V142.504H227.106V134.854H228.359L232.129 140.547V134.854H233.382V142.504ZM245.103 142.581C244.393 142.581 243.737 142.416 243.136 142.086C242.542 141.749 242.07 141.284 241.718 140.69C241.374 140.09 241.201 139.415 241.201 138.668C241.201 137.921 241.374 137.25 241.718 136.657C242.07 136.063 242.542 135.601 243.136 135.272C243.737 134.935 244.393 134.766 245.103 134.766C245.821 134.766 246.477 134.935 247.071 135.272C247.672 135.601 248.144 136.063 248.489 136.657C248.833 137.25 249.005 137.921 249.005 138.668C249.005 139.415 248.833 140.09 248.489 140.69C248.144 141.284 247.672 141.749 247.071 142.086C246.477 142.416 245.821 142.581 245.103 142.581ZM245.103 141.493C245.609 141.493 246.06 141.379 246.455 141.152C246.851 140.918 247.159 140.588 247.378 140.163C247.606 139.73 247.719 139.232 247.719 138.668C247.719 138.104 247.606 137.609 247.378 137.184C247.159 136.759 246.851 136.433 246.455 136.206C246.06 135.979 245.609 135.865 245.103 135.865C244.598 135.865 244.147 135.979 243.751 136.206C243.356 136.433 243.044 136.759 242.817 137.184C242.597 137.609 242.487 138.104 242.487 138.668C242.487 139.232 242.597 139.73 242.817 140.163C243.044 140.588 243.356 140.918 243.751 141.152C244.147 141.379 244.598 141.493 245.103 141.493ZM258.383 142.504H257.13L253.36 136.8V142.504H252.107V134.854H253.36L257.13 140.547V134.854H258.383V142.504ZM263.149 141.493H265.732V142.504H261.896V134.865H263.149V141.493ZM274.309 134.865L271.781 139.734V142.504H270.528V139.734L267.989 134.865H269.385L271.155 138.613L272.924 134.865H274.309Z" fill="black"/>
<line x1="27.8887" y1="76.9052" x2="328.958" y2="76.9052" stroke="black" stroke-width="4.24041"/>
<line x1="119.483" y1="127.79" x2="328.96" y2="127.79" stroke="black" stroke-width="4.24041"/>
<line x1="138.516" y1="128.412" x2="138.516" y2="78.9213" stroke="black" stroke-width="4.24041"/>
<line x1="326.838" y1="152.809" x2="326.838" y2="3.54614" stroke="black" stroke-width="4.24041"/>
<line x1="29.161" y1="152.809" x2="29.161" y2="1.00189" stroke="black" stroke-width="4.24041"/>
<mask id="path-15-inside-1_2330_66329" fill="white">
<path fill-rule="evenodd" clip-rule="evenodd" d="M0.529297 0.154297L356.027 0.154297V68.8561C355.892 68.8512 355.757 68.8488 355.621 68.8488C349.532 68.8488 344.596 73.7849 344.596 79.8739C344.596 85.9628 349.532 90.8989 355.621 90.8989C355.757 90.8989 355.892 90.8965 356.027 90.8916V152.809H0.529297L0.529297 90.8114C5.9614 90.1273 10.1629 85.491 10.1629 79.8733C10.1629 74.2556 5.9614 69.6193 0.529297 68.9352L0.529297 0.154297Z"/>
</mask>
<path d="M356.027 0.154297L360.267 0.154297V-4.08611H356.027V0.154297ZM0.529297 0.154297L0.529297 -4.08611H-3.71111L-3.71111 0.154297L0.529297 0.154297ZM356.027 68.8561L355.873 73.0937L360.267 73.2528V68.8561H356.027ZM356.027 90.8916H360.267V86.4949L355.873 86.654L356.027 90.8916ZM356.027 152.809V157.05H360.267V152.809H356.027ZM0.529297 152.809L-3.71111 152.809L-3.71111 157.05H0.529297L0.529297 152.809ZM0.529297 90.8114L-0.000527036 86.6042L-3.71111 87.0715L-3.71111 90.8114L0.529297 90.8114ZM0.529297 68.9352L-3.71111 68.9352L-3.71111 72.6751L-0.000527036 73.1424L0.529297 68.9352ZM356.027 -4.08611L0.529297 -4.08611L0.529297 4.39471L356.027 4.39471V-4.08611ZM360.267 68.8561V0.154297L351.786 0.154297V68.8561H360.267ZM355.621 73.0892C355.706 73.0892 355.79 73.0907 355.873 73.0937L356.18 64.6185C355.994 64.6118 355.808 64.6084 355.621 64.6084V73.0892ZM348.836 79.8739C348.836 76.1268 351.874 73.0892 355.621 73.0892V64.6084C347.19 64.6084 340.356 71.443 340.356 79.8739H348.836ZM355.621 86.6585C351.874 86.6585 348.836 83.6209 348.836 79.8739H340.356C340.356 88.3047 347.19 95.1393 355.621 95.1393V86.6585ZM355.873 86.654C355.79 86.657 355.706 86.6585 355.621 86.6585V95.1393C355.808 95.1393 355.994 95.1359 356.18 95.1292L355.873 86.654ZM360.267 152.809V90.8916H351.786V152.809H360.267ZM0.529297 157.05H356.027V148.569H0.529297L0.529297 157.05ZM-3.71111 90.8114L-3.71111 152.809L4.76971 152.809L4.76971 90.8114L-3.71111 90.8114ZM5.92251 79.8733C5.92251 83.3271 3.33799 86.1838 -0.000527036 86.6042L1.05912 95.0186C8.5848 94.0709 14.4033 87.6549 14.4033 79.8733H5.92251ZM-0.000527036 73.1424C3.33799 73.5628 5.92251 76.4195 5.92251 79.8733H14.4033C14.4033 72.0918 8.58481 65.6758 1.05912 64.728L-0.000527036 73.1424ZM-3.71111 0.154297L-3.71111 68.9352L4.76971 68.9352L4.76971 0.154297L-3.71111 0.154297Z" fill="black" mask="url(#path-15-inside-1_2330_66329)"/>
</svg>
