<svg width="210" height="72" viewBox="0 0 210 72" fill="none" xmlns="http://www.w3.org/2000/svg">
<g clip-path="url(#clip0_1924_5352)">
<g clip-path="url(#clip1_1924_5352)">
<path d="M5.12619 71.0205C2.85751 71.0205 1.01907 69.1803 1.01907 66.9117V5.08849C1.01907 2.81896 2.85836 0.979675 5.12619 0.979675C7.39403 0.979675 9.23416 2.81981 9.23416 5.08849V66.9117C9.23416 69.1803 7.39487 71.0205 5.12619 71.0205Z" fill="#CEDC21"/>
<path d="M5.12899 71.0211C3.59231 71.0211 2.11902 70.1547 1.41492 68.6738C0.442022 66.6249 1.31518 64.1753 3.36578 63.1999L28.1378 51.4457L2.68957 32.697C0.863807 31.3505 0.474142 28.7792 1.8198 26.9526C3.16545 25.126 5.73842 24.7363 7.56334 26.0819L38.5396 48.9031C39.7035 49.7619 40.3315 51.1667 40.1929 52.6062C40.0543 54.0432 39.171 55.3026 37.8642 55.9239L6.88713 70.6246C6.31996 70.8926 5.71898 71.0211 5.12899 71.0211Z" fill="#51B13E"/>
<path d="M5.13036 46.7201C3.86839 46.7201 2.62416 46.1411 1.81947 45.0473C0.47382 43.2224 0.863485 40.6486 2.69009 39.3038L28.1375 20.5559L3.36546 8.79916C1.31485 7.82627 0.4417 5.37586 1.41375 3.3261C2.38749 1.2755 4.8379 0.402348 6.88681 1.3744L37.8639 16.0769C39.1707 16.6964 40.054 17.9576 40.1926 19.3953C40.3312 20.834 39.7032 22.2388 38.5393 23.0967L7.56302 45.9188C6.82849 46.4589 5.97562 46.7201 5.13036 46.7201Z" fill="#CEDC21"/>
<path d="M9.23407 27.3139V44.6866L21.0204 36.0041L9.23407 27.3139Z" fill="#1E7A44"/>
<path d="M9.235 20.0297H1.01907V40.0556H9.235V20.0297Z" fill="white"/>
<path d="M9.23416 5.08849C9.23416 2.81896 7.39403 0.979675 5.12619 0.979675C2.85836 0.979675 1.01907 2.81981 1.01907 5.08849V56.7888H9.235V5.08849H9.23416Z" fill="#CEDC21"/>
<path d="M61.3069 37.8529H55.1326L55.0996 34.452H60.2834C61.1969 34.452 61.9453 34.3364 62.5286 34.1053C63.1119 33.8632 63.5467 33.5165 63.8328 33.0652C64.13 32.603 64.2786 32.0417 64.2786 31.3813C64.2786 30.6329 64.1355 30.0276 63.8493 29.5653C63.5742 29.1031 63.1394 28.7674 62.5451 28.5583C61.9618 28.3492 61.2079 28.2446 60.2834 28.2446H56.8495V48.4021H51.8968V24.365H60.2834C61.6812 24.365 62.9303 24.4971 64.0309 24.7612C65.1425 25.0254 66.0835 25.4271 66.854 25.9664C67.6244 26.5057 68.2132 27.188 68.6204 28.0135C69.0277 28.8279 69.2313 29.7965 69.2313 30.9191C69.2313 31.9096 69.0056 32.8231 68.5544 33.6596C68.1142 34.496 67.4153 35.1784 66.4578 35.7067C65.5112 36.235 64.2731 36.5266 62.7432 36.5817L61.3069 37.8529ZM61.0923 48.4021H53.7788L55.7104 44.539H61.0923C61.9618 44.539 62.6717 44.4014 63.222 44.1263C63.7723 43.8401 64.1795 43.4549 64.4437 42.9706C64.7078 42.4864 64.8399 41.9306 64.8399 41.3032C64.8399 40.5989 64.7188 39.988 64.4767 39.4707C64.2455 38.9535 63.8713 38.5572 63.3541 38.2821C62.8368 37.9959 62.1544 37.8529 61.3069 37.8529H56.5359L56.5689 34.452H62.5121L63.6512 35.7892C65.115 35.7672 66.2927 36.0259 67.1841 36.5652C68.0866 37.0934 68.7415 37.7813 69.1487 38.6288C69.5669 39.4762 69.7761 40.3842 69.7761 41.3528C69.7761 42.8936 69.4404 44.1923 68.769 45.2489C68.0976 46.2945 67.1126 47.0814 65.8139 47.6097C64.5262 48.138 62.9523 48.4021 61.0923 48.4021ZM83.8264 24.365V48.4021H78.8902V24.365H83.8264ZM91.2224 24.365V28.2446H71.6097V24.365H91.2224ZM107.568 40.4283H112.504C112.405 42.0461 111.959 43.4824 111.166 44.7371C110.385 45.9918 109.29 46.9713 107.881 47.6757C106.483 48.3801 104.8 48.7323 102.829 48.7323C101.289 48.7323 99.9073 48.4681 98.6857 47.9398C97.464 47.4006 96.4184 46.6301 95.549 45.6286C94.6905 44.627 94.0356 43.4164 93.5844 41.9966C93.1332 40.5768 92.9075 38.9865 92.9075 37.2255V35.5581C92.9075 33.7971 93.1387 32.2068 93.6009 30.787C94.0742 29.3562 94.7455 28.1401 95.615 27.1385C96.4955 26.137 97.5466 25.3666 98.7682 24.8273C99.9899 24.288 101.355 24.0183 102.862 24.0183C104.866 24.0183 106.555 24.3815 107.931 25.1079C109.317 25.8343 110.391 26.8359 111.15 28.1126C111.92 29.3892 112.383 30.842 112.537 32.4709H107.584C107.529 31.5024 107.336 30.6825 107.006 30.0111C106.676 29.3287 106.175 28.8169 105.504 28.4757C104.844 28.1236 103.963 27.9475 102.862 27.9475C102.037 27.9475 101.316 28.1015 100.7 28.4097C100.083 28.7179 99.5662 29.1856 99.1479 29.813C98.7297 30.4403 98.416 31.2328 98.2069 32.1903C98.0088 33.1368 97.9098 34.2484 97.9098 35.5251V37.2255C97.9098 38.4692 98.0033 39.5643 98.1904 40.5108C98.3775 41.4463 98.6637 42.2387 99.0489 42.8881C99.4451 43.5264 99.9514 44.0107 100.568 44.3409C101.195 44.6601 101.949 44.8196 102.829 44.8196C103.864 44.8196 104.717 44.6546 105.388 44.3244C106.06 43.9942 106.571 43.5044 106.924 42.8551C107.287 42.2057 107.501 41.3968 107.568 40.4283ZM133.638 39.8339H127.513V35.9708H133.638C134.584 35.9708 135.355 35.8167 135.949 35.5086C136.543 35.1894 136.978 34.7492 137.253 34.1879C137.528 33.6266 137.666 32.9937 137.666 32.2893C137.666 31.5739 137.528 30.9081 137.253 30.2917C136.978 29.6754 136.543 29.1801 135.949 28.8059C135.355 28.4317 134.584 28.2446 133.638 28.2446H129.23V48.4021H124.277V24.365H133.638C135.52 24.365 137.132 24.7062 138.475 25.3886C139.828 26.0599 140.863 26.9899 141.578 28.1786C142.294 29.3672 142.651 30.7265 142.651 32.2563C142.651 33.8082 142.294 35.1509 141.578 36.2845C140.863 37.4181 139.828 38.2931 138.475 38.9094C137.132 39.5258 135.52 39.8339 133.638 39.8339ZM155.266 44.3739V36.4166C155.266 35.8443 155.172 35.3545 154.985 34.9473C154.798 34.529 154.506 34.2044 154.11 33.9732C153.725 33.7421 153.224 33.6266 152.608 33.6266C152.079 33.6266 151.623 33.7201 151.237 33.9072C150.852 34.0833 150.555 34.3419 150.346 34.6831C150.137 35.0133 150.032 35.404 150.032 35.8553H145.278C145.278 35.0959 145.454 34.375 145.806 33.6926C146.158 33.0102 146.67 32.4104 147.341 31.8931C148.013 31.3648 148.811 30.9521 149.735 30.6549C150.671 30.3578 151.716 30.2092 152.872 30.2092C154.258 30.2092 155.491 30.4403 156.57 30.9026C157.648 31.3648 158.496 32.0582 159.112 32.9827C159.739 33.9072 160.053 35.0628 160.053 36.4496V44.0933C160.053 45.0728 160.114 45.8762 160.235 46.5036C160.356 47.1199 160.532 47.6592 160.763 48.1214V48.4021H155.959C155.728 47.9178 155.552 47.3125 155.431 46.5861C155.321 45.8487 155.266 45.1113 155.266 44.3739ZM155.893 37.5227L155.926 40.2136H153.268C152.641 40.2136 152.096 40.2852 151.634 40.4283C151.171 40.5713 150.792 40.7749 150.494 41.0391C150.197 41.2922 149.977 41.5894 149.834 41.9306C149.702 42.2718 149.636 42.646 149.636 43.0532C149.636 43.4604 149.73 43.8291 149.917 44.1593C150.104 44.4785 150.373 44.7316 150.726 44.9187C151.078 45.0948 151.49 45.1828 151.964 45.1828C152.679 45.1828 153.301 45.0398 153.829 44.7536C154.358 44.4675 154.765 44.1153 155.051 43.697C155.348 43.2788 155.502 42.8826 155.513 42.5084L156.768 44.5225C156.592 44.9737 156.35 45.4415 156.041 45.9258C155.744 46.41 155.365 46.8668 154.902 47.296C154.44 47.7142 153.884 48.0609 153.235 48.3361C152.586 48.6002 151.815 48.7323 150.924 48.7323C149.79 48.7323 148.761 48.5067 147.837 48.0554C146.923 47.5932 146.197 46.9603 145.657 46.1569C145.129 45.3424 144.865 44.4179 144.865 43.3834C144.865 42.4479 145.041 41.6169 145.393 40.8905C145.745 40.1641 146.263 39.5533 146.945 39.058C147.638 38.5517 148.502 38.172 149.537 37.9189C150.571 37.6547 151.771 37.5227 153.136 37.5227H155.893ZM168.804 46.388L173.542 30.5394H178.643L171.462 51.0931C171.308 51.5443 171.099 52.0286 170.835 52.5459C170.582 53.0631 170.235 53.5529 169.795 54.0152C169.365 54.4884 168.821 54.8736 168.16 55.1708C167.511 55.4679 166.713 55.6165 165.766 55.6165C165.315 55.6165 164.947 55.589 164.66 55.534C164.374 55.479 164.033 55.4019 163.637 55.3029V51.8195C163.758 51.8195 163.884 51.8195 164.017 51.8195C164.149 51.8305 164.275 51.836 164.396 51.836C165.024 51.836 165.535 51.7644 165.932 51.6214C166.328 51.4783 166.647 51.2582 166.889 50.961C167.131 50.6748 167.324 50.3006 167.467 49.8384L168.804 46.388ZM166.823 30.5394L170.703 43.4824L171.38 48.5177L168.144 48.8644L161.722 30.5394H166.823ZM188.583 48.7323C187.196 48.7323 185.953 48.5122 184.852 48.0719C183.751 47.6207 182.816 46.9988 182.046 46.2064C181.286 45.414 180.703 44.495 180.296 43.4494C179.888 42.3928 179.685 41.2702 179.685 40.0816V39.4212C179.685 38.0675 179.877 36.8293 180.263 35.7067C180.648 34.5841 181.198 33.61 181.913 32.7846C182.64 31.9591 183.52 31.3263 184.555 30.8861C185.589 30.4348 186.756 30.2092 188.055 30.2092C189.32 30.2092 190.443 30.4183 191.423 30.8365C192.402 31.2548 193.222 31.8491 193.882 32.6195C194.554 33.3899 195.06 34.3144 195.401 35.393C195.742 36.4606 195.913 37.6492 195.913 38.959V40.94H181.715V37.7703H191.241V37.4071C191.241 36.7468 191.12 36.1579 190.878 35.6407C190.647 35.1124 190.295 34.6941 189.821 34.386C189.348 34.0778 188.743 33.9237 188.005 33.9237C187.378 33.9237 186.839 34.0613 186.387 34.3364C185.936 34.6116 185.567 34.9968 185.281 35.4921C185.006 35.9873 184.797 36.5707 184.654 37.242C184.522 37.9024 184.456 38.6288 184.456 39.4212V40.0816C184.456 40.797 184.555 41.4573 184.753 42.0626C184.962 42.668 185.254 43.1908 185.628 43.631C186.013 44.0712 186.475 44.4124 187.015 44.6546C187.565 44.8967 188.187 45.0178 188.88 45.0178C189.739 45.0178 190.537 44.8527 191.274 44.5225C192.022 44.1813 192.666 43.6695 193.206 42.9872L195.517 45.4965C195.143 46.0358 194.631 46.5531 193.982 47.0484C193.343 47.5436 192.573 47.9509 191.67 48.27C190.768 48.5782 189.739 48.7323 188.583 48.7323ZM203.426 34.4355V48.4021H198.671V30.5394H203.145L203.426 34.4355ZM208.808 30.4238L208.725 34.8317C208.494 34.7987 208.213 34.7712 207.883 34.7492C207.564 34.7161 207.272 34.6996 207.008 34.6996C206.337 34.6996 205.754 34.7877 205.258 34.9638C204.774 35.1289 204.367 35.3765 204.037 35.7067C203.717 36.0369 203.475 36.4386 203.31 36.9118C203.156 37.3851 203.068 37.9244 203.046 38.5297L202.089 38.2326C202.089 37.0769 202.204 36.0149 202.435 35.0463C202.666 34.0668 203.002 33.2138 203.442 32.4874C203.894 31.761 204.444 31.1997 205.093 30.8035C205.743 30.4073 206.485 30.2092 207.322 30.2092C207.586 30.2092 207.856 30.2312 208.131 30.2752C208.406 30.3082 208.632 30.3578 208.808 30.4238Z" fill="url(#paint0_linear_1924_5352)"/>
</g>
</g>
<defs>
<linearGradient id="paint0_linear_1924_5352" x1="198.564" y1="19.8416" x2="108.436" y2="151.751" gradientUnits="userSpaceOnUse">
<stop stop-color="#1E7A44"/>
<stop offset="0.572917" stop-color="#51B13E"/>
<stop offset="1" stop-color="#CEDC21"/>
</linearGradient>
<clipPath id="clip0_1924_5352">
<rect width="209.268" height="71.5" fill="white"/>
</clipPath>
<clipPath id="clip1_1924_5352">
<rect width="207.089" height="71.0019" fill="white" transform="translate(0.726257 0.498138)"/>
</clipPath>
</defs>
</svg>
